<?xml version="1.0" encoding="UTF-8"?> <svg xmlns="http://www.w3.org/2000/svg" xmlns:xlink="http://www.w3.org/1999/xlink" id="Layer_1" viewBox="0 0 172 172"><defs><style>.cls-1{fill:url(#linear-gradient);}.cls-2,.cls-3{fill:#e76b15;}.cls-4,.cls-3,.cls-5,.cls-6{stroke-linecap:round;}.cls-4,.cls-3,.cls-5,.cls-6,.cls-7{stroke-linejoin:round;stroke-width:2px;}.cls-4,.cls-3,.cls-5,.cls-7{stroke:#e76b15;}.cls-4,.cls-7{fill:#fff;}.cls-5{fill:url(#linear-gradient-5);}.cls-6{fill:none;stroke:#fff;}.cls-7{stroke-dasharray:0 0 2 4;}.cls-8{fill:url(#linear-gradient-3);}.cls-9{fill:url(#linear-gradient-4);}.cls-10{fill:url(#linear-gradient-2);}</style><linearGradient id="linear-gradient" x1="18.93" y1="103.76" x2="18.93" y2="66.21" gradientTransform="matrix(1, 0, 0, 1, 0, 0)" gradientUnits="userSpaceOnUse"><stop offset="0" stop-color="#e76b15" stop-opacity="0"></stop><stop offset="1" stop-color="#e76b15" stop-opacity=".3"></stop></linearGradient><linearGradient id="linear-gradient-2" x1="86.15" y1="49.81" x2="86.15" y2="25.61" xlink:href="#linear-gradient"></linearGradient><linearGradient id="linear-gradient-3" x1="155.05" x2="155.05" xlink:href="#linear-gradient"></linearGradient><linearGradient id="linear-gradient-4" x1="16.8" y1="130.67" x2="152.1" y2="130.67" gradientTransform="matrix(1, 0, 0, 1, 0, 0)" gradientUnits="userSpaceOnUse"><stop offset="0" stop-color="#fff"></stop><stop offset="1" stop-color="#f9dac5"></stop></linearGradient><linearGradient id="linear-gradient-5" x1="80.92" y1="84.82" x2="107.45" y2="84.82" xlink:href="#linear-gradient-4"></linearGradient></defs><g><rect class="cls-1" x="12.23" y="66.21" width="13.39" height="37.55"></rect><g><polyline class="cls-4" points="18.77 45.74 31.87 53.3 18.77 60.86 5.68 53.3 18.77 45.74"></polyline><polygon class="cls-4" points="18.77 75.98 5.68 68.42 5.68 53.3 18.77 60.86 18.77 75.98"></polygon><polygon class="cls-4" points="18.77 75.98 31.87 68.42 31.87 53.3 18.77 60.86 18.77 75.98"></polygon></g><line class="cls-7" x1="18.77" y1="80.75" x2="18.77" y2="95.18"></line></g><g><rect class="cls-10" x="79.45" y="25.61" width="13.39" height="24.2"></rect><g><polyline class="cls-4" points="86 5.14 99.09 12.7 86 20.26 72.91 12.7 86 5.14"></polyline><polygon class="cls-4" points="86 35.38 72.91 27.82 72.91 12.7 86 20.26 86 35.38"></polygon><polygon class="cls-4" points="86 35.38 99.09 27.82 99.09 12.7 86 20.26 86 35.38"></polygon></g><line class="cls-7" x1="86" y1="40.15" x2="86" y2="49.81"></line></g><g><rect class="cls-8" x="148.35" y="66.21" width="13.39" height="37.55"></rect><g><polyline class="cls-4" points="154.9 45.74 167.99 53.3 154.9 60.86 141.81 53.3 154.9 45.74"></polyline><polygon class="cls-4" points="154.9 75.98 141.8 68.42 141.8 53.3 154.9 60.86 154.9 75.98"></polygon><polygon class="cls-4" points="154.9 75.98 167.99 68.42 167.99 53.3 154.9 60.86 154.9 75.98"></polygon></g><line class="cls-7" x1="154.9" y1="80.75" x2="154.9" y2="95.18"></line></g><g><path class="cls-9" d="M17.88,128.47l61.96-35.77c2.85-1.65,6.37-1.65,9.23,0l61.96,35.77c1.43,.83,1.43,2.9,0,3.73l-64.15,37.04c-1.5,.87-3.35,.87-4.84,0L17.88,132.19c-1.43-.83-1.43-2.9,0-3.73Z"></path><path class="cls-4" d="M10.58,108.16l68.75-39.69c3.17-1.83,7.07-1.83,10.24,0l68.75,39.69c1.59,.92,1.59,3.22,0,4.13l-71.18,41.1c-1.66,.96-3.71,.96-5.38,0L10.58,112.3c-1.59-.92-1.59-3.22,0-4.13Z"></path><g><polygon class="cls-4" points="80.61 133.32 50.75 116.07 36.98 108.12 58.8 69.29 58.8 69.29 80.61 133.32"></polygon><polyline class="cls-4" points="58.8 69.29 58.8 69.29 58.8 120.72"></polyline></g><polygon class="cls-4" points="129.57 105.05 80.61 133.32 58.8 69.29 107.76 41.02 129.57 105.05"></polygon><line class="cls-4" x1="58.8" y1="69.29" x2="58.8" y2="52.87"></line><polygon class="cls-3" points="74.4 52.31 58.72 61.36 58.72 47.74 74.4 38.69 74.4 52.31"></polygon></g><polygon class="cls-3" points="58.72 82.41 61.47 122.27 52.44 117.05 58.72 82.41"></polygon><g><path class="cls-5" d="M106.63,73.88l-2.56,3.31c.28,1.44,.43,2.95,.45,4.5l2.94,.38-1.2,8.8-2.94-.38c-.43,1.48-.98,2.91-1.63,4.23l1.59,3.85-4.45,5.75-1.59-3.85c-.91,.7-1.84,1.18-2.77,1.46l-.69,5.08-5.1-.67,.69-5.07c-.82-.51-1.59-1.22-2.28-2.13l-2.56,3.31-2.76-6.69,2.56-3.31c-.28-1.44-.43-2.95-.45-4.49l-2.94-.38,1.2-8.8,2.94,.38c.43-1.48,.98-2.9,1.63-4.22l-1.59-3.85,4.45-5.75,1.59,3.85c.91-.7,1.84-1.19,2.77-1.47l.69-5.08,5.1,.66-.69,5.08c.82,.51,1.59,1.22,2.28,2.13l2.56-3.31,2.76,6.69Z"></path><path class="cls-4" d="M96.28,89.91c1.87-2.41,2.44-6.65,1.29-9.46-1.16-2.81-3.61-3.13-5.48-.71s-2.45,6.65-1.29,9.46c1.16,2.81,3.61,3.13,5.48,.71"></path></g><g><polyline class="cls-6" points="62.67 55.38 65.65 50.23 62.67 48.51"></polyline><line class="cls-6" x1="72.34" y1="49.94" x2="68.77" y2="52"></line></g><g><polygon class="cls-2" points="26.06 110.05 23.51 111.52 20.97 110.05 23.51 108.58 26.06 110.05"></polygon><polygon class="cls-2" points="148.9 108.58 146.35 110.05 143.8 108.58 146.35 107.1 148.9 108.58"></polygon><polygon class="cls-2" points="87 143.19 84.45 144.67 81.9 143.19 84.45 141.72 87 143.19"></polygon></g></svg> 