<?xml version="1.0" encoding="UTF-8"?> <svg xmlns="http://www.w3.org/2000/svg" xmlns:xlink="http://www.w3.org/1999/xlink" viewBox="0 0 172 172"><defs><style>.cls-1,.cls-2,.cls-4,.cls-5,.cls-6{stroke:#e76b15;}.cls-1,.cls-2,.cls-4,.cls-5,.cls-6,.cls-9{stroke-linejoin:round;stroke-width:2px;}.cls-1{fill:url(#linear-gradient);}.cls-2,.cls-4,.cls-8{fill:#fff;}.cls-2,.cls-5,.cls-9{stroke-linecap:round;}.cls-3{fill:#e76b15;}.cls-5,.cls-9{fill:none;}.cls-6{fill:url(#linear-gradient-2);}.cls-7{fill:url(#linear-gradient-3);}.cls-9{stroke:#fff;}</style><linearGradient id="linear-gradient" x1="32.14" y1="149.04" x2="91.42" y2="149.04" gradientUnits="userSpaceOnUse"><stop offset="0" stop-color="#fff"></stop><stop offset="1" stop-color="#ffcba8"></stop></linearGradient><linearGradient id="linear-gradient-2" x1="125.85" y1="115.42" x2="154.79" y2="115.42" xlink:href="#linear-gradient"></linearGradient><linearGradient id="linear-gradient-3" x1="50.88" y1="103.19" x2="116.71" y2="103.19" gradientUnits="userSpaceOnUse"><stop offset="0.04" stop-color="#e76b15" stop-opacity="0"></stop><stop offset="0.8" stop-color="#e76b15" stop-opacity="0.3"></stop></linearGradient></defs><g id="Layer_1" data-name="Layer 1"><path class="cls-1" d="M79.15,166.24c2.92,2.57,9.14-.44,12.27-7.59L43.56,130.92c-2.85,6.52-8.27,9.6-11.42,8.15Z"></path><path class="cls-2" d="M158.24,77.52c6.63,3,3.12,19.29-7.3,25.3C45,164,185,83.07,85.51,140.53c-11.33,6.54-13.2,21.77-6.36,25.71L11.81,127.36c-7.14-4.16-5-19.17,6.36-25.71C117.69,44.19-22.29,125.09,83.6,64c10.42-6,13.93-22.27,7.3-25.31Z"></path><path class="cls-2" d="M90.9,38.64c-3.08-2.71-9.65.46-13,8l68.83,39.73c3-6.87,8.73-10.12,12.05-8.6Z"></path><path class="cls-3" d="M27.86,123.37,26.92,125l-1.62-.94.94-1.62ZM23,120.55,22,122.17l-1.63-.94.94-1.62Zm-4.88-2.82-.94,1.63-1.63-.94.94-1.63Z"></path><path class="cls-3" d="M100.82,50l-.94,1.63-1.63-.94.94-1.63Zm-4.88-2.82L95,48.82l-1.63-.94.94-1.63Zm-4.89-2.82L90.11,46l-1.62-.94.94-1.63Z"></path><path class="cls-3" d="M144.59,75l-.94,1.63L142,75.71l.94-1.63Zm-4.88-2.82-.94,1.63-1.63-.94.94-1.62Zm-4.88-2.81L133.89,71l-1.63-.94.94-1.62Z"></path><path class="cls-3" d="M38.71,102.51v-1.6h-1.6v1.6Zm0-4V96.92h-1.6v1.59Z"></path><path class="cls-4" d="M53,62.62,49,60.06a3.13,3.13,0,0,0-1.18-.48,5.39,5.39,0,0,0-3.5.85,10.26,10.26,0,0,0-1.44,1c0-.2,0-.4,0-.59,0-6.27-4.51-8.79-9.91-5.61-4.53,2.68-8.33,8.48-9.4,14a10,10,0,0,0-1.09.54,17.61,17.61,0,0,0-8,13.79,5.93,5.93,0,0,0,1.86,4.82h0a3.91,3.91,0,0,0,.73.46l3.63,2.28,6.44-5.7,17.12-9.88a14.53,14.53,0,0,0,6.53-11Z"></path><path class="cls-4" d="M47.73,62.6a9.21,9.21,0,0,0-1.44,1c0-.2,0-.4,0-.6,0-6.25-4.39-8.79-9.81-5.66-4.58,2.65-8.43,8.5-9.5,14a10,10,0,0,0-1.09.54,17.59,17.59,0,0,0-8,13.79c0,5.07,3.56,7.13,8,4.59L47.73,77.7a14.47,14.47,0,0,0,6.54-11.33C54.27,62.2,51.34,60.51,47.73,62.6Z"></path><line class="cls-5" x1="37.91" y1="87.2" x2="37.91" y2="93.4"></line><ellipse class="cls-4" cx="37.91" cy="83.2" rx="3.54" ry="2.04" transform="translate(-53.09 74.43) rotate(-60)"></ellipse><path class="cls-5" d="M32.15,79.52a12.64,12.64,0,0,1,3-4c2.67-2.3,5.66-2.48,7.94-.83"></path><path class="cls-5" d="M29.34,77a17.88,17.88,0,0,1,4-5.19c3.85-3.34,8.19-3.61,11.5-1.24"></path><path class="cls-5" d="M99.33,55.28c3-4.64,6.32-6.27,8.5-5.65"></path><path class="cls-2" d="M104,75,84.88,86.32a2,2,0,0,0,0,3.48l.76.45a2,2,0,0,1,0,3.48L66.83,104.85"></path><line class="cls-2" x1="108.93" y1="90.12" x2="85.78" y2="103.8"></line><path class="cls-2" d="M107.62,107.71l-3-1.77a4.17,4.17,0,0,0-4.26,0L78.68,118.76"></path><path class="cls-2" d="M74.9,110.23l-14.1,8.34a4.63,4.63,0,0,1-4.74,0L43.2,111"></path><ellipse class="cls-2" cx="110.31" cy="89.3" rx="3.84" ry="2.27"></ellipse><ellipse class="cls-2" cx="75.96" cy="120.37" rx="3.84" ry="2.27"></ellipse><ellipse class="cls-2" cx="64.87" cy="106.01" rx="3.84" ry="2.27"></ellipse><ellipse class="cls-2" cx="106.68" cy="73.43" rx="3.84" ry="2.27"></ellipse><ellipse class="cls-2" cx="110.34" cy="109.31" rx="3.84" ry="2.27"></ellipse><ellipse class="cls-2" cx="39.55" cy="109.9" rx="3.84" ry="2.27"></ellipse><path class="cls-3" d="M78.64,108.83,80,108l-1.36-.8-1.36.8Zm3.4-2L83.4,106l-1.36-.8-1.36.8Z"></path><path class="cls-3" d="M117.5,85.85l1.36-.8-1.36-.81-1.36.81Zm3.4-2,1.36-.8-1.36-.81-1.36.81Z"></path><path class="cls-3" d="M107.82,102.33l1.36-.8-1.36-.81-1.36.81Zm3.4-2,1.36-.8-1.36-.81-1.36.81Z"></path><polygon class="cls-4" points="137.45 133.72 134.01 131.72 134 127.87 137.44 129.87 137.45 133.72"></polygon><polygon class="cls-4" points="151.41 105.66 147.98 103.66 151.33 101.73 154.77 103.72 151.41 105.66"></polygon><polygon class="cls-4" points="128.06 131.9 124.62 129.9 129.2 121.98 130.43 127.8 128.06 131.9"></polygon><polygon class="cls-4" points="146.07 100.69 142.64 98.69 145.01 94.59 148.44 96.59 146.07 100.69"></polygon><polygon class="cls-4" points="148.44 96.59 145.01 94.59 149.14 96.94 152.57 98.94 148.44 96.59"></polygon><path class="cls-4" d="M129.2,118.49l-3.44-2a24,24,0,0,1,1.19-4l3.44,2A23.08,23.08,0,0,0,129.2,118.49Z"></path><path class="cls-4" d="M134.49,107.38l-3.43-2a23.09,23.09,0,0,1,2.87-3l3.44,2A22.54,22.54,0,0,0,134.49,107.38Z"></path><polygon class="cls-4" points="125.85 120.42 122.41 118.42 125.76 116.49 129.2 118.49 125.85 120.42"></polygon><polygon class="cls-4" points="125.86 127.11 122.43 125.12 122.41 118.42 125.85 120.42 125.86 127.11"></polygon><polygon class="cls-4" points="137.36 100.48 133.92 98.49 139.75 95.12 143.18 97.12 137.36 100.48"></polygon><polygon class="cls-4" points="137.37 104.34 133.93 102.34 133.92 98.49 137.36 100.48 137.37 104.34"></polygon><polygon class="cls-4" points="132.11 106.02 128.67 104.02 131.06 105.38 134.49 107.38 132.11 106.02"></polygon><polygon class="cls-4" points="128 113.13 124.57 111.13 128.67 104.02 132.11 106.02 128 113.13"></polygon><path class="cls-6" d="M154.79,110.42l-3.36,1.93a23.44,23.44,0,0,1-1.19,4l2.39,1.35-4.11,7.11-2.38-1.36a23.83,23.83,0,0,1-2.88,3l0,3.85-5.83,3.37v-3.85a7.9,7.9,0,0,1-2.88.28l-2.37,4.1-4.13-2.36,2.37-4.09a7.82,7.82,0,0,1-1.21-2.62l-3.35,1.93,0-6.69,3.35-1.93a23.08,23.08,0,0,1,1.19-4L128,113.13l4.11-7.11,2.38,1.36a22.54,22.54,0,0,1,2.88-3v-3.86l5.82-3.36V101a7.93,7.93,0,0,1,2.89-.28l2.36-4.1,4.13,2.35-2.36,4.1a7.91,7.91,0,0,1,1.2,2.62l3.36-1.94Z"></path><path class="cls-4" d="M140.33,121.66a11.94,11.94,0,0,0,5.41-9.37c0-3.45-2.45-4.83-5.44-3.1a11.9,11.9,0,0,0-5.41,9.36c0,3.44,2.45,4.83,5.44,3.11"></path><path class="cls-3" d="M133.53,63.92V62.77h1.14v1.15Zm0-2.86V59.91h1.14v1.15Z"></path><path class="cls-4" d="M123.3,36.92l2.83-1.84a2.29,2.29,0,0,1,.84-.34,3.88,3.88,0,0,1,2.51.61,6.93,6.93,0,0,1,1,.73c0-.14,0-.29,0-.43,0-4.49,3.23-6.29,7.1-4a15.81,15.81,0,0,1,6.74,10,7.08,7.08,0,0,1,.78.39,12.61,12.61,0,0,1,5.7,9.87,4.28,4.28,0,0,1-1.33,3.46h0a2.55,2.55,0,0,1-.52.33l-2.61,1.64-4.61-4.08-12.26-7.08a10.42,10.42,0,0,1-4.68-7.92Z"></path><path class="cls-4" d="M127.07,36.9a7.75,7.75,0,0,1,1,.73c0-.14,0-.28,0-.42,0-4.48,3.14-6.3,7-4.06,3.28,1.89,6,6.08,6.81,10a8,8,0,0,1,.77.39,12.61,12.61,0,0,1,5.71,9.87c0,3.64-2.56,5.11-5.71,3.3l-15.63-9a10.35,10.35,0,0,1-4.69-8.11C122.38,36.62,124.48,35.41,127.07,36.9Z"></path><line class="cls-5" x1="134.1" y1="52.88" x2="134.1" y2="57.33"></line><ellipse class="cls-4" cx="134.1" cy="51.66" rx="1.46" ry="2.53" transform="translate(-7.86 73.97) rotate(-30)"></ellipse><path class="cls-5" d="M138.23,49a9.05,9.05,0,0,0-2.14-2.85c-1.91-1.65-4.05-1.77-5.68-.59"></path><path class="cls-5" d="M140.24,47.23a12.93,12.93,0,0,0-2.9-3.72c-2.76-2.39-5.86-2.58-8.23-.89"></path><path class="cls-7" d="M72.29,121.16,52.67,109.84c-1.55-.89-2.15-2.2-1.59-3.41L58.26,91c.57-1.21,2.22-2.17,4.33-2.49l26.8-4.15a9.44,9.44,0,0,1,5.91.91l19.62,11.33c1.54.89,2.15,2.19,1.58,3.41l-7.18,15.48c-.57,1.21-2.22,2.17-4.33,2.49l-26.8,4.15A9.41,9.41,0,0,1,72.29,121.16Z"></path><path class="cls-8" d="M83.06,78.85,61.58,77a1.73,1.73,0,0,1-.74-.22l-.05,0-.1-.07a1.77,1.77,0,0,1-.46-.51c0-.08-.09-.14-.12-.2l0-.09a2.09,2.09,0,0,1-.13-.35c0-.1-.07-.2-.09-.3v0l0-.12c0-.12,0-.25-.06-.38v-.07a4.19,4.19,0,0,1,0-.5l0-13v-3l0-5,0-7.48a10.81,10.81,0,0,1,2.49-6.38L83.57,12.69A8.83,8.83,0,0,1,86,10.51,4,4,0,0,1,88,9.9h.21l21.5,1.86a1.77,1.77,0,0,1,.73.21,3,3,0,0,1,1.1,2.65l.08,28.45a10.87,10.87,0,0,1-2.5,6.39L87.66,76.07a8.74,8.74,0,0,1-2.44,2.17,4,4,0,0,1-2,.62Z"></path><path class="cls-3" d="M88,10.9h.13l21.52,1.85a.82.82,0,0,1,.29.08,2.16,2.16,0,0,1,.6,1.79l.08,28.45a10,10,0,0,1-2.28,5.77L86.88,75.45a7.78,7.78,0,0,1-2.18,1.93,3,3,0,0,1-1.44.48h-.11L61.68,76a.87.87,0,0,1-.33-.09l0,0,0,0,0,0a.55.55,0,0,1-.16-.18l0,0,0,0,0-.06L61,75.46a1.2,1.2,0,0,1-.08-.22s0-.08,0-.13h0l-.05-.21,0-.22v-.12c0-.13,0-.26,0-.41l0-13v-3l0-5,0-7.48a9.89,9.89,0,0,1,2.27-5.75L71.7,29,78,21.23l2.67-3.32,3.7-4.6a8.25,8.25,0,0,1,2.17-1.94A3.14,3.14,0,0,1,88,10.9m0-2a4.94,4.94,0,0,0-2.43.74,10,10,0,0,0-2.73,2.42l-3.7,4.6L76.42,20l-6.28,7.8-8.77,10.9a11.83,11.83,0,0,0-2.71,7l0,7.48,0,5v3l0,13a5.88,5.88,0,0,0,0,.6v0a4.85,4.85,0,0,0,.08.55h0a4.43,4.43,0,0,0,.31,1h0a3.07,3.07,0,0,0,.2.36,2.6,2.6,0,0,0,.67.76,2.48,2.48,0,0,0,.26.19l0,0a2.77,2.77,0,0,0,1.16.36L83,79.85h.28a5,5,0,0,0,2.45-.75,9.77,9.77,0,0,0,2.73-2.41l21.41-26.61a11.9,11.9,0,0,0,2.72-7l-.08-28.46a3.85,3.85,0,0,0-1.61-3.51,2.71,2.71,0,0,0-1.14-.34L88.25,8.91Z"></path><path class="cls-3" d="M99.87,5,78.38,3.17a4.73,4.73,0,0,0-2.73.74,10,10,0,0,0-2.73,2.42L51.51,32.94a11.8,11.8,0,0,0-2.72,7l.08,28.47a3.84,3.84,0,0,0,1.6,3.5l9.82,5.71a2.48,2.48,0,0,1-.26-.19,2.6,2.6,0,0,1-.67-.76c-.07-.11-.14-.24-.2-.36h0a3.8,3.8,0,0,1-.18-.47,4.23,4.23,0,0,1-.13-.51h0a4.85,4.85,0,0,1-.08-.55v0a5.74,5.74,0,0,1,0-.6l0-13v-3l0-5,0-7.48a11.83,11.83,0,0,1,2.71-7l8.77-10.9L76.42,20l2.67-3.32,3.7-4.6a10,10,0,0,1,2.73-2.42,4.71,4.71,0,0,1,2.73-.73l21.49,1.85Z"></path><polygon class="cls-3" points="66.84 64.61 68.96 59.17 70.23 55.93 70.67 54.81 71.33 53.11 76.85 38.96 77.93 37.27 78.2 36.85 85.83 24.9 88.02 21.46 88.44 20.81 88.2 21.56 86.72 26.13 86.72 26.14 82.47 39.33 82.47 39.34 82.08 40.54 80.6 45.13 79.15 49.63 76.03 59.31 72.6 61.29 66.84 64.61"></polygon><polygon class="cls-3" points="76.04 63.28 93.97 47.85 88.76 43.77 84.95 40.78 88.22 28.2 89.72 22.45 106.11 44.93 76.04 63.28"></polygon><path class="cls-9" d="M64.23,27.43l-8,10a10,10,0,0,0-2.2,6.25v9.73"></path></g></svg> 