<?xml version="1.0" encoding="UTF-8"?> <svg xmlns="http://www.w3.org/2000/svg" xmlns:xlink="http://www.w3.org/1999/xlink" viewBox="0 0 172 172"><defs><style>.cls-1,.cls-10,.cls-2,.cls-4,.cls-5,.cls-6,.cls-7,.cls-8{stroke:#e76b15;}.cls-1,.cls-10,.cls-13,.cls-2,.cls-4,.cls-5,.cls-6,.cls-7,.cls-8{stroke-linejoin:round;}.cls-1,.cls-10,.cls-13,.cls-14,.cls-2,.cls-4,.cls-5,.cls-6,.cls-7,.cls-8{stroke-width:2px;}.cls-1{fill:url(#linear-gradient);}.cls-2{fill:url(#linear-gradient-2);}.cls-3{fill:url(#linear-gradient-3);}.cls-4{fill:url(#linear-gradient-4);}.cls-5{fill:url(#linear-gradient-5);}.cls-6,.cls-8{fill:#fff;}.cls-13,.cls-6,.cls-7{stroke-linecap:round;}.cls-11,.cls-13,.cls-14,.cls-7{fill:none;}.cls-9{fill:#e76b15;}.cls-10{fill:url(#linear-gradient-6);}.cls-11,.cls-14{stroke-miterlimit:10;}.cls-11{stroke-width:3px;stroke:url(#linear-gradient-7);}.cls-12{fill:url(#linear-gradient-8);}.cls-13,.cls-14{stroke:#fff;}.cls-15{fill:url(#linear-gradient-9);}.cls-16{fill:url(#linear-gradient-10);}.cls-17{fill:url(#linear-gradient-11);}.cls-18{fill:url(#linear-gradient-12);}.cls-19{fill:url(#linear-gradient-13);}.cls-20{fill:url(#linear-gradient-14);}.cls-21{fill:url(#linear-gradient-15);}</style><linearGradient id="linear-gradient" x1="26.44" y1="127.79" x2="53.5" y2="127.79" gradientUnits="userSpaceOnUse"><stop offset="0" stop-color="#fff"></stop><stop offset="1" stop-color="#ffcba8"></stop></linearGradient><linearGradient id="linear-gradient-2" x1="123.48" y1="127.79" x2="149.27" y2="127.79" xlink:href="#linear-gradient"></linearGradient><linearGradient id="linear-gradient-3" x1="105.55" y1="66.24" x2="138.37" y2="66.24" gradientUnits="userSpaceOnUse"><stop offset="0" stop-color="#e76b15" stop-opacity="0"></stop><stop offset="1" stop-color="#e76b15" stop-opacity="0.3"></stop></linearGradient><linearGradient id="linear-gradient-4" x1="27.08" y1="131.31" x2="149.9" y2="131.31" xlink:href="#linear-gradient"></linearGradient><linearGradient id="linear-gradient-5" x1="3.24" y1="140.62" x2="58.51" y2="140.62" xlink:href="#linear-gradient"></linearGradient><linearGradient id="linear-gradient-6" x1="119.16" y1="142.54" x2="168.11" y2="142.54" xlink:href="#linear-gradient"></linearGradient><linearGradient id="linear-gradient-7" x1="61.37" y1="107.26" x2="95.17" y2="107.26" xlink:href="#linear-gradient-3"></linearGradient><linearGradient id="linear-gradient-8" x1="-74.15" y1="95.52" x2="-50.91" y2="95.52" gradientTransform="matrix(0.87, -0.5, 1, 0.58, 47.02, 7.46)" xlink:href="#linear-gradient-3"></linearGradient><linearGradient id="linear-gradient-9" x1="73.31" y1="126.64" x2="101.46" y2="126.64" xlink:href="#linear-gradient-3"></linearGradient><linearGradient id="linear-gradient-10" x1="10.02" y1="77.43" x2="42.85" y2="77.43" xlink:href="#linear-gradient-3"></linearGradient><linearGradient id="linear-gradient-11" x1="51.84" y1="161.78" x2="84.67" y2="161.78" xlink:href="#linear-gradient-3"></linearGradient><linearGradient id="linear-gradient-12" x1="80.26" y1="140.62" x2="99.23" y2="140.62" xlink:href="#linear-gradient-3"></linearGradient><linearGradient id="linear-gradient-13" x1="130.21" y1="57.84" x2="157.07" y2="57.84" xlink:href="#linear-gradient-3"></linearGradient><linearGradient id="linear-gradient-14" x1="14.46" y1="135.55" x2="47.29" y2="135.55" xlink:href="#linear-gradient-3"></linearGradient><linearGradient id="linear-gradient-15" x1="124.94" y1="137.09" x2="151.8" y2="137.09" xlink:href="#linear-gradient-3"></linearGradient></defs><g id="Layer_1" data-name="Layer 1"><path class="cls-1" d="M53.5,131.94H26.44v-8.3H48.12a4.28,4.28,0,0,0-.25,1.49C47.87,127.66,50,130,53.5,131.94Z"></path><path class="cls-2" d="M149.27,123.64v8.3H123.48c3.54-1.92,5.64-4.28,5.64-6.81a4.53,4.53,0,0,0-.25-1.49Z"></path><rect class="cls-3" x="105.55" y="65.04" width="32.83" height="2.39"></rect><path class="cls-4" d="M149.27,127.87a13.88,13.88,0,0,0-2.58-4.23c-8.17-9.49-31.15-16.33-58.21-16.33s-50,6.84-58.21,16.33a11.72,11.72,0,0,0-3.19,7.67c0,.21,0,.42,0,.63.85,13,28,23.38,61.39,23.38,33.92,0,61.42-10.75,61.42-24A9.78,9.78,0,0,0,149.27,127.87ZM88.48,141.24c-12.35,0-23.27-2.36-29.91-6-4.24-2.3-6.74-5.12-6.74-8.15a5.56,5.56,0,0,1,.3-1.79c2.27-7,17.68-12.32,36.35-12.32s34.1,5.37,36.37,12.32a5.56,5.56,0,0,1,.3,1.79c0,3-2.5,5.85-6.74,8.15C111.77,138.88,100.84,141.24,88.48,141.24Z"></path><path class="cls-5" d="M58.51,144.23c-13.38-3-23.53-8-28-13.95L7.09,129.16V133l5.38,9.82-4.31,1.4H3.24v7.85h55.2Z"></path><path class="cls-6" d="M58.51,144.23H3.24L10.08,136l-3-6.84H29.75a11.18,11.18,0,0,0,.77,1.12C35,136.21,45.13,141.18,58.51,144.23Z"></path><path class="cls-7" d="M68.25,132.61a64.81,64.81,0,0,0,20.23,2.94,64.86,64.86,0,0,0,20.23-2.94"></path><path class="cls-8" d="M34,36.89a6.06,6.06,0,0,0-.95.67c0-.13,1.23-2,1.15-2.06-2.47-3.36-4.67-3.74-8.25-1.67-3,1.75-4.94,5.21-5.65,8.86a5.17,5.17,0,0,0-.71.35,11.61,11.61,0,0,0-5.26,9.1c0,3.35,2.35,4.71,5.26,3L34,46.86c2.38-1.38,7.65-4.53,6.51-7C39.24,36.93,36.42,35.51,34,36.89Z"></path><path class="cls-8" d="M36.54,39a7.16,7.16,0,0,0-.95.67c0-.13,0-.26,0-.39,0-4.13-2.9-5.8-6.47-3.74a14.53,14.53,0,0,0-6.28,9.26,5.9,5.9,0,0,0-.72.35,11.62,11.62,0,0,0-5.25,9.1c0,3.35,2.35,4.71,5.25,3L36.54,49a9.54,9.54,0,0,0,4.32-7.48C40.86,38.76,38.93,37.64,36.54,39Z"></path><path class="cls-9" d="M24.4,49.86,25.89,49V47.23l-1.49.88Zm3.73-2.19,1.49-.88V45l-1.49.88Zm3.72-2.2,1.49-.88V42.84l-1.49.88Z"></path><path class="cls-8" d="M140.22,80.11a5.63,5.63,0,0,1,.76.55c0-.11-1-1.58-.93-1.66,2-2.7,3.76-3,6.64-1.35a10.4,10.4,0,0,1,4.54,7.13,6.1,6.1,0,0,1,.58.28A9.36,9.36,0,0,1,156,92.38c0,2.7-1.89,3.79-4.22,2.44l-11.59-6.69c-1.92-1.11-6.16-3.64-5.24-5.65C136,80.15,138.3,79,140.22,80.11Z"></path><path class="cls-8" d="M138.2,81.83a4.8,4.8,0,0,1,.76.54v-.32c0-3.32,2.33-4.66,5.2-3a11.65,11.65,0,0,1,5.05,7.44,4.48,4.48,0,0,1,.58.29A9.32,9.32,0,0,1,154,94.09c0,2.7-1.89,3.79-4.22,2.44L138.2,89.84a7.65,7.65,0,0,1-3.47-6C134.73,81.62,136.28,80.72,138.2,81.83Z"></path><path class="cls-9" d="M148,90.55l-1.2-.71V88.43l1.2.71Zm-3-1.77-1.2-.7V86.66l1.2.71ZM142,87l-1.19-.71V84.9l1.19.71Z"></path><path class="cls-6" d="M87.85,98.15c-33.92,0-61.41,11.18-61.41,25s27.49,25,61.41,25,61.41-11.18,61.41-25S121.77,98.15,87.85,98.15Zm0,36.6C68.05,134.75,52,128.57,52,121s16.06-13.8,35.86-13.8,35.85,6.18,35.85,13.8S107.65,134.75,87.85,134.75Z"></path><polyline class="cls-6" points="27.13 121.22 42.04 126.05 51.64 122.76"></polyline><polyline class="cls-7" points="123.83 123.54 134.73 118.36 148.38 123.54"></polyline><polyline class="cls-7" points="86.85 107.4 81.13 103.56 86.85 99.71"></polyline><polyline class="cls-7" points="85.53 148.09 91.24 141.63 85.53 135.18"></polyline><line class="cls-7" x1="85.63" y1="147.94" x2="85.63" y2="155.29"></line><path class="cls-10" d="M119.16,152.08h39.33l9.62-12.54v-3.91h-8.06L154.64,133h-10c-5.22,4.72-14.2,8.65-25.47,11.22Z"></path><path class="cls-6" d="M168.11,135.69l-9.62,8.54H119.16c11.27-2.57,20.25-6.5,25.47-11.22a17.76,17.76,0,0,0,3.29-3.85h6.72L168,135.63Z"></path><path class="cls-11" d="M61.79,109.07A102.48,102.48,0,0,1,89.6,105.5c1.86,0,3.69,0,5.5.12"></path><path class="cls-6" d="M50.08,51.63V92.49a2.4,2.4,0,0,0,1.19,2.06L86.66,115A2.41,2.41,0,0,0,89,115l35.38-20.43a2.38,2.38,0,0,0,1.19-2.06V51.63a2.36,2.36,0,0,0-1.19-2.06L89,29.14a2.36,2.36,0,0,0-2.38,0L51.27,49.57A2.39,2.39,0,0,0,50.08,51.63Z"></path><polygon class="cls-12" points="108.51 93.88 88.39 105.5 68.26 93.88 88.39 82.26 108.51 93.88"></polygon><line class="cls-7" x1="51.09" y1="93.24" x2="67.55" y2="83.73"></line><line class="cls-7" x1="88.24" y1="29.7" x2="88.24" y2="48.71"></line><line class="cls-7" x1="88.24" y1="94.57" x2="88.24" y2="113.58"></line><line class="cls-7" x1="125.04" y1="93.1" x2="108.57" y2="83.6"></line><line class="cls-7" x1="51.26" y1="50.09" x2="67.73" y2="59.59"></line><line class="cls-7" x1="125.04" y1="50.09" x2="108.57" y2="59.59"></line><path class="cls-9" d="M58.36,77.09H56.67V75.4h1.69Zm0-5.06H56.67V70.34h1.69Zm0-5.07H56.67V65.28h1.69Z"></path><path class="cls-9" d="M120.27,76.24h-1.69V74.56h1.69Zm0-5.06h-1.69V69.49h1.69Zm0-5.06h-1.69V64.43h1.69Z"></path><circle class="cls-9" cx="89.29" cy="71.64" r="20.23"></circle><g id="Offset_Group" data-name="Offset Group"><path class="cls-13" d="M77.54,67.42a15.94,15.94,0,0,1,22.12,0"></path><path class="cls-13" d="M81,71A10.94,10.94,0,0,1,96.2,71"></path></g><path class="cls-13" d="M84.49,74.61a5.94,5.94,0,0,1,8.25,0"></path><line class="cls-13" x1="88.38" y1="84.19" x2="88.38" y2="91.87"></line><circle class="cls-14" cx="88.53" cy="81.44" r="2.43"></circle><ellipse class="cls-15" cx="87.38" cy="126.64" rx="14.07" ry="4.4"></ellipse><rect class="cls-16" x="10.02" y="74.21" width="32.83" height="6.42"></rect><rect class="cls-17" x="51.84" y="160.58" width="32.83" height="2.39"></rect><rect class="cls-18" x="80.26" y="139.42" width="18.97" height="2.39"></rect><rect class="cls-19" x="130.21" y="55.55" width="26.87" height="4.58"></rect><rect class="cls-20" x="14.46" y="132.34" width="32.83" height="6.42"></rect><rect class="cls-21" x="124.94" y="134.8" width="26.87" height="4.58"></rect><ellipse class="cls-6" cx="20.45" cy="136.92" rx="2.38" ry="1.37"></ellipse><ellipse class="cls-6" cx="152.52" cy="136.69" rx="2.38" ry="1.37"></ellipse><ellipse class="cls-6" cx="77.22" cy="140.44" rx="2.38" ry="1.37"></ellipse><ellipse class="cls-6" cx="42.85" cy="114.03" rx="2.38" ry="1.37"></ellipse><ellipse class="cls-6" cx="134.73" cy="128.27" rx="2.38" ry="1.37"></ellipse></g></svg> 