<svg width="1875" height="2713" viewBox="0 0 1875 2713" fill="none" xmlns="http://www.w3.org/2000/svg">
<g clip-path="url(#clip0)">
<rect width="1875" height="2713" fill="#F1F4F6"/>
<path d="M2156.65 -796.903L1215.72 501.396C1207.51 512.725 1207.61 528.073 1215.97 539.293L2151.39 1794.89C2164.02 1811.84 2189.33 1812.11 2202.31 1795.42L3181.78 536.749C3190.65 525.346 3190.78 509.412 3182.1 497.864L2208.14 -797.357C2195.2 -814.569 2169.29 -814.34 2156.65 -796.903Z" fill="white"/>
<path d="M2220.01 2034.1L1317.09 3279.95C1300.93 3302.25 1301.13 3332.47 1317.58 3354.56L2215.07 4559.24C2239.93 4592.62 2289.75 4593.14 2315.31 4560.29L3255.21 3352.46C3272.68 3330.02 3272.94 3298.65 3255.85 3275.91L2321.38 2033.2C2295.9 1999.32 2244.89 1999.77 2220.01 2034.1Z" fill="white"/>
<path d="M-457.346 249.097L-1398.28 1547.4C-1406.49 1558.72 -1406.39 1574.07 -1398.03 1585.29L-462.606 2840.89C-449.977 2857.84 -424.673 2858.11 -411.691 2841.42L567.778 1582.75C576.651 1571.35 576.783 1555.41 568.099 1543.86L-405.86 248.643C-418.802 231.431 -444.709 231.66 -457.346 249.097Z" fill="white"/>
</g>
<defs>
<clipPath id="clip0">
<rect width="1875" height="2713" fill="white"/>
</clipPath>
</defs>
</svg>
