<svg width="710" height="968" viewBox="0 0 710 968" fill="none" xmlns="http://www.w3.org/2000/svg">
<g clip-path="url(#clip0)">
<path d="M596 80H0V636L596 80Z" fill="#F1F4F6"/>
<g opacity="0.6">
<path d="M139.8 31H48.299C25.6667 31 10.0163 38.3947 1.78967 52.9927C-6.34118 67.3992 -4.65462 84.2878 6.78306 103.194C14.3836 115.752 274.976 546.614 274.976 546.614C280.293 555.416 289.831 560.792 300.112 560.792H308.074C318.421 560.792 328.01 555.342 333.306 546.452L379.911 468.262C384.926 459.851 385.42 449.481 381.222 440.642L207.683 74.3594C197.431 46.7764 172.795 31 139.8 31Z" fill="white"/>
<path d="M308.836 685.925H300.823C290.409 685.925 280.768 691.442 275.495 700.412L-17.9448 1199.73C-25.9062 1213.28 -21.804 1230.68 -8.62816 1239.25C-3.70105 1242.46 1.85944 1244 7.35365 1244C16.5377 1244 25.545 1239.71 31.2675 1231.73L358.092 775.634C364.846 766.192 365.428 753.656 359.543 743.639L334.171 700.427C328.898 691.442 319.257 685.925 308.836 685.925Z" fill="white"/>
<path d="M776.279 31H872.295C900.532 31 912.242 46.5039 916.698 55.7547C920.932 64.512 925.815 82.4169 911.034 104.005C910.732 104.446 910.415 104.874 910.091 105.294L517.962 615.781L791.318 1202.21C797.917 1216.37 792.282 1233.23 778.473 1240.56C774.091 1242.89 769.363 1244 764.708 1244C754.707 1244 744.992 1238.88 739.506 1229.74L379.001 629.518C373.264 619.965 373.419 607.996 379.399 598.598L713.183 74.6614C733.533 38.6009 758.691 31 776.279 31Z" fill="white"/>
</g>
</g>
<defs>
<clipPath id="clip0">
<rect width="710" height="968" fill="white"/>
</clipPath>
</defs>
</svg>
