<svg width="270" height="135" viewBox="0 0 270 135" fill="none" xmlns="http://www.w3.org/2000/svg">
<path d="M267.254 1.41599C267.254 2.19802 267.869 2.83198 268.627 2.83198C269.385 2.83198 270 2.19802 270 1.41599C270 0.63396 269.385 -2.68666e-08 268.627 -6.00083e-08C267.869 -9.31499e-08 267.254 0.63396 267.254 1.41599Z" fill="#D9DBDC"/>
<path d="M267.254 76.9502C267.254 77.7323 267.869 78.3662 268.627 78.3662C269.385 78.3662 270 77.7323 270 76.9502C270 76.1682 269.385 75.5342 268.627 75.5342C267.869 75.5342 267.254 76.1682 267.254 76.9502Z" fill="#D9DBDC"/>
<path d="M267.254 20.2826C267.254 21.0647 267.869 21.6986 268.627 21.6986C269.385 21.6986 270 21.0647 270 20.2826C270 19.5006 269.385 18.8666 268.627 18.8666C267.869 18.8666 267.254 19.5006 267.254 20.2826Z" fill="#D9DBDC"/>
<path d="M267.254 95.8169C267.254 96.5989 267.869 97.2329 268.627 97.2329C269.385 97.2329 270 96.5989 270 95.8169C270 95.0349 269.385 94.4009 268.627 94.4009C267.869 94.4009 267.254 95.0349 267.254 95.8169Z" fill="#D9DBDC"/>
<path d="M267.254 39.1831C267.254 39.9651 267.869 40.5991 268.627 40.5991C269.385 40.5991 270 39.9651 270 39.1831C270 38.4011 269.385 37.7671 268.627 37.7671C267.869 37.7671 267.254 38.4011 267.254 39.1831Z" fill="#D9DBDC"/>
<path d="M267.254 114.684C267.254 115.466 267.869 116.1 268.627 116.1C269.385 116.1 270 115.466 270 114.684C270 113.901 269.385 113.268 268.627 113.268C267.869 113.268 267.254 113.901 267.254 114.684Z" fill="#D9DBDC"/>
<path d="M267.254 58.0498C267.254 58.8318 267.869 59.4657 268.627 59.4657C269.385 59.4657 270 58.8318 270 58.0498C270 57.2677 269.385 56.6338 268.627 56.6338C267.869 56.6338 267.254 57.2677 267.254 58.0498Z" fill="#D9DBDC"/>
<path d="M267.254 133.584C267.254 134.366 267.869 135 268.627 135C269.385 135 270 134.366 270 133.584C270 132.802 269.385 132.168 268.627 132.168C267.869 132.168 267.254 132.802 267.254 133.584Z" fill="#D9DBDC"/>
<path d="M124.481 1.41598C124.481 2.19801 125.096 2.83197 125.854 2.83197C126.612 2.83197 127.227 2.19801 127.227 1.41598C127.227 0.633954 126.612 -6.26767e-06 125.854 -6.30081e-06C125.096 -6.33395e-06 124.481 0.633954 124.481 1.41598Z" fill="#D9DBDC"/>
<path d="M124.481 76.9502C124.481 77.7322 125.096 78.3662 125.854 78.3662C126.612 78.3662 127.227 77.7322 127.227 76.9502C127.227 76.1682 126.612 75.5342 125.854 75.5342C125.096 75.5342 124.481 76.1682 124.481 76.9502Z" fill="#D9DBDC"/>
<path d="M124.481 20.2826C124.481 21.0647 125.096 21.6986 125.854 21.6986C126.612 21.6986 127.227 21.0647 127.227 20.2826C127.227 19.5006 126.612 18.8666 125.854 18.8666C125.096 18.8666 124.481 19.5006 124.481 20.2826Z" fill="#D9DBDC"/>
<path d="M124.481 95.8169C124.481 96.5989 125.096 97.2329 125.854 97.2329C126.612 97.2329 127.227 96.5989 127.227 95.8169C127.227 95.0349 126.612 94.4009 125.854 94.4009C125.096 94.4009 124.481 95.0349 124.481 95.8169Z" fill="#D9DBDC"/>
<path d="M124.481 39.1831C124.481 39.9651 125.096 40.5991 125.854 40.5991C126.612 40.5991 127.227 39.9651 127.227 39.1831C127.227 38.4011 126.612 37.7671 125.854 37.7671C125.096 37.7671 124.481 38.4011 124.481 39.1831Z" fill="#D9DBDC"/>
<path d="M124.481 114.684C124.481 115.466 125.096 116.1 125.854 116.1C126.612 116.1 127.227 115.466 127.227 114.684C127.227 113.901 126.612 113.268 125.854 113.268C125.096 113.268 124.481 113.901 124.481 114.684Z" fill="#D9DBDC"/>
<path d="M124.481 58.0497C124.481 58.8318 125.096 59.4657 125.854 59.4657C126.612 59.4657 127.227 58.8318 127.227 58.0497C127.227 57.2677 126.612 56.6338 125.854 56.6338C125.096 56.6338 124.481 57.2677 124.481 58.0497Z" fill="#D9DBDC"/>
<path d="M124.481 133.584C124.481 134.366 125.096 135 125.854 135C126.612 135 127.227 134.366 127.227 133.584C127.227 132.802 126.612 132.168 125.854 132.168C125.096 132.168 124.481 132.802 124.481 133.584Z" fill="#D9DBDC"/>
<path d="M196.791 1.41599C196.791 2.19802 197.405 2.83198 198.164 2.83198C198.922 2.83198 199.536 2.19802 199.536 1.41599C199.536 0.633957 198.922 -3.10693e-06 198.164 -3.14007e-06C197.405 -3.17321e-06 196.791 0.633957 196.791 1.41599Z" fill="#D9DBDC"/>
<path d="M196.791 76.9502C196.791 77.7323 197.405 78.3662 198.164 78.3662C198.922 78.3662 199.536 77.7323 199.536 76.9502C199.536 76.1682 198.922 75.5342 198.164 75.5342C197.405 75.5342 196.791 76.1682 196.791 76.9502Z" fill="#D9DBDC"/>
<path d="M196.791 20.2826C196.791 21.0647 197.405 21.6986 198.164 21.6986C198.922 21.6986 199.536 21.0647 199.536 20.2826C199.536 19.5006 198.922 18.8666 198.164 18.8666C197.405 18.8666 196.791 19.5006 196.791 20.2826Z" fill="#D9DBDC"/>
<path d="M196.791 95.8169C196.791 96.5989 197.405 97.2329 198.164 97.2329C198.922 97.2329 199.536 96.5989 199.536 95.8169C199.536 95.0349 198.922 94.4009 198.164 94.4009C197.405 94.4009 196.791 95.0349 196.791 95.8169Z" fill="#D9DBDC"/>
<path d="M196.791 39.1831C196.791 39.9651 197.405 40.5991 198.164 40.5991C198.922 40.5991 199.536 39.9651 199.536 39.1831C199.536 38.4011 198.922 37.7671 198.164 37.7671C197.405 37.7671 196.791 38.4011 196.791 39.1831Z" fill="#D9DBDC"/>
<path d="M196.791 114.684C196.791 115.466 197.405 116.1 198.164 116.1C198.922 116.1 199.536 115.466 199.536 114.684C199.536 113.901 198.922 113.268 198.164 113.268C197.405 113.268 196.791 113.901 196.791 114.684Z" fill="#D9DBDC"/>
<path d="M196.791 58.0498C196.791 58.8318 197.405 59.4657 198.164 59.4657C198.922 59.4657 199.536 58.8318 199.536 58.0498C199.536 57.2677 198.922 56.6338 198.164 56.6338C197.405 56.6338 196.791 57.2677 196.791 58.0498Z" fill="#D9DBDC"/>
<path d="M196.791 133.584C196.791 134.366 197.405 135 198.164 135C198.922 135 199.536 134.366 199.536 133.584C199.536 132.802 198.922 132.168 198.164 132.168C197.405 132.168 196.791 132.802 196.791 133.584Z" fill="#D9DBDC"/>
<path d="M54.0177 1.41598C54.0177 2.19801 54.6324 2.83197 55.3906 2.83197C56.1488 2.83197 56.7634 2.19801 56.7634 1.41598C56.7634 0.633951 56.1488 -9.34773e-06 55.3906 -9.38088e-06C54.6324 -9.41402e-06 54.0177 0.633951 54.0177 1.41598Z" fill="#D9DBDC"/>
<path d="M54.0177 76.9502C54.0177 77.7322 54.6324 78.3662 55.3906 78.3662C56.1488 78.3662 56.7634 77.7322 56.7634 76.9502C56.7634 76.1682 56.1488 75.5342 55.3906 75.5342C54.6324 75.5342 54.0177 76.1682 54.0177 76.9502Z" fill="#D9DBDC"/>
<path d="M54.0177 20.2826C54.0177 21.0647 54.6324 21.6986 55.3906 21.6986C56.1488 21.6986 56.7634 21.0647 56.7634 20.2826C56.7634 19.5006 56.1488 18.8666 55.3906 18.8666C54.6324 18.8666 54.0177 19.5006 54.0177 20.2826Z" fill="#D9DBDC"/>
<path d="M54.0177 95.8169C54.0177 96.5989 54.6324 97.2329 55.3906 97.2329C56.1488 97.2329 56.7634 96.5989 56.7634 95.8169C56.7634 95.0348 56.1488 94.4009 55.3906 94.4009C54.6324 94.4009 54.0177 95.0348 54.0177 95.8169Z" fill="#D9DBDC"/>
<path d="M54.0177 39.1831C54.0177 39.9651 54.6324 40.5991 55.3906 40.5991C56.1488 40.5991 56.7634 39.9651 56.7634 39.1831C56.7634 38.4011 56.1488 37.7671 55.3906 37.7671C54.6324 37.7671 54.0177 38.4011 54.0177 39.1831Z" fill="#D9DBDC"/>
<path d="M54.0177 114.684C54.0177 115.466 54.6324 116.1 55.3906 116.1C56.1488 116.1 56.7634 115.466 56.7634 114.684C56.7634 113.901 56.1488 113.268 55.3906 113.268C54.6324 113.268 54.0177 113.901 54.0177 114.684Z" fill="#D9DBDC"/>
<path d="M54.0177 58.0497C54.0177 58.8318 54.6324 59.4657 55.3906 59.4657C56.1488 59.4657 56.7634 58.8318 56.7634 58.0497C56.7634 57.2677 56.1488 56.6338 55.3906 56.6338C54.6324 56.6338 54.0177 57.2677 54.0177 58.0497Z" fill="#D9DBDC"/>
<path d="M54.0177 133.584C54.0177 134.366 54.6324 135 55.3906 135C56.1488 135 56.7634 134.366 56.7634 133.584C56.7634 132.802 56.1488 132.168 55.3906 132.168C54.6324 132.168 54.0177 132.802 54.0177 133.584Z" fill="#D9DBDC"/>
<path d="M231.561 1.41599C231.561 2.19802 232.176 2.83198 232.934 2.83198C233.692 2.83198 234.307 2.19802 234.307 1.41599C234.307 0.633959 233.692 -1.58707e-06 232.934 -1.62021e-06C232.176 -1.65335e-06 231.561 0.633958 231.561 1.41599Z" fill="#D9DBDC"/>
<path d="M231.561 76.9502C231.561 77.7323 232.176 78.3662 232.934 78.3662C233.692 78.3662 234.307 77.7323 234.307 76.9502C234.307 76.1682 233.692 75.5342 232.934 75.5342C232.176 75.5342 231.561 76.1682 231.561 76.9502Z" fill="#D9DBDC"/>
<path d="M231.561 20.2826C231.561 21.0647 232.176 21.6986 232.934 21.6986C233.692 21.6986 234.307 21.0647 234.307 20.2826C234.307 19.5006 233.692 18.8666 232.934 18.8666C232.176 18.8666 231.561 19.5006 231.561 20.2826Z" fill="#D9DBDC"/>
<path d="M231.561 95.8169C231.561 96.5989 232.176 97.2329 232.934 97.2329C233.692 97.2329 234.307 96.5989 234.307 95.8169C234.307 95.0349 233.692 94.4009 232.934 94.4009C232.176 94.4009 231.561 95.0349 231.561 95.8169Z" fill="#D9DBDC"/>
<path d="M231.561 39.1831C231.561 39.9651 232.176 40.5991 232.934 40.5991C233.692 40.5991 234.307 39.9651 234.307 39.1831C234.307 38.4011 233.692 37.7671 232.934 37.7671C232.176 37.7671 231.561 38.4011 231.561 39.1831Z" fill="#D9DBDC"/>
<path d="M231.561 114.684C231.561 115.466 232.176 116.1 232.934 116.1C233.692 116.1 234.307 115.466 234.307 114.684C234.307 113.901 233.692 113.268 232.934 113.268C232.176 113.268 231.561 113.901 231.561 114.684Z" fill="#D9DBDC"/>
<path d="M231.561 58.0498C231.561 58.8318 232.176 59.4657 232.934 59.4657C233.692 59.4657 234.307 58.8318 234.307 58.0498C234.307 57.2677 233.692 56.6338 232.934 56.6338C232.176 56.6338 231.561 57.2677 231.561 58.0498Z" fill="#D9DBDC"/>
<path d="M231.561 133.584C231.561 134.366 232.176 135 232.934 135C233.692 135 234.307 134.366 234.307 133.584C234.307 132.802 233.692 132.168 232.934 132.168C232.176 132.168 231.561 132.802 231.561 133.584Z" fill="#D9DBDC"/>
<path d="M88.7882 1.41598C88.7882 2.19801 89.4028 2.83197 90.161 2.83197C90.9192 2.83197 91.5338 2.19801 91.5338 1.41598C91.5338 0.633952 90.9192 -7.82787e-06 90.161 -7.86101e-06C89.4028 -7.89415e-06 88.7882 0.633952 88.7882 1.41598Z" fill="#D9DBDC"/>
<path d="M88.7882 76.9502C88.7882 77.7322 89.4028 78.3662 90.161 78.3662C90.9192 78.3662 91.5338 77.7322 91.5338 76.9502C91.5338 76.1682 90.9192 75.5342 90.161 75.5342C89.4028 75.5342 88.7882 76.1682 88.7882 76.9502Z" fill="#D9DBDC"/>
<path d="M88.7882 20.2826C88.7882 21.0647 89.4028 21.6986 90.161 21.6986C90.9192 21.6986 91.5338 21.0647 91.5338 20.2826C91.5338 19.5006 90.9192 18.8666 90.161 18.8666C89.4028 18.8666 88.7882 19.5006 88.7882 20.2826Z" fill="#D9DBDC"/>
<path d="M88.7882 95.8169C88.7882 96.5989 89.4028 97.2329 90.161 97.2329C90.9192 97.2329 91.5338 96.5989 91.5338 95.8169C91.5338 95.0349 90.9192 94.4009 90.161 94.4009C89.4028 94.4009 88.7882 95.0349 88.7882 95.8169Z" fill="#D9DBDC"/>
<path d="M88.7882 39.1831C88.7882 39.9651 89.4028 40.5991 90.161 40.5991C90.9192 40.5991 91.5338 39.9651 91.5338 39.1831C91.5338 38.4011 90.9192 37.7671 90.161 37.7671C89.4028 37.7671 88.7882 38.4011 88.7882 39.1831Z" fill="#D9DBDC"/>
<path d="M88.7882 114.684C88.7882 115.466 89.4028 116.1 90.161 116.1C90.9192 116.1 91.5338 115.466 91.5338 114.684C91.5338 113.901 90.9192 113.268 90.161 113.268C89.4028 113.268 88.7882 113.901 88.7882 114.684Z" fill="#D9DBDC"/>
<path d="M88.7882 58.0497C88.7882 58.8318 89.4028 59.4657 90.161 59.4657C90.9192 59.4657 91.5338 58.8318 91.5338 58.0497C91.5338 57.2677 90.9192 56.6338 90.161 56.6338C89.4028 56.6338 88.7882 57.2677 88.7882 58.0497Z" fill="#D9DBDC"/>
<path d="M88.7882 133.584C88.7882 134.366 89.4028 135 90.161 135C90.9192 135 91.5338 134.366 91.5338 133.584C91.5338 132.802 90.9192 132.168 90.161 132.168C89.4028 132.168 88.7882 132.802 88.7882 133.584Z" fill="#D9DBDC"/>
<path d="M161.097 1.41598C161.097 2.19801 161.712 2.83197 162.47 2.83197C163.228 2.83197 163.843 2.19801 163.843 1.41598C163.843 0.633955 163.228 -4.66713e-06 162.47 -4.70027e-06C161.712 -4.73342e-06 161.097 0.633955 161.097 1.41598Z" fill="#D9DBDC"/>
<path d="M161.097 76.9502C161.097 77.7322 161.712 78.3662 162.47 78.3662C163.228 78.3662 163.843 77.7322 163.843 76.9502C163.843 76.1682 163.228 75.5342 162.47 75.5342C161.712 75.5342 161.097 76.1682 161.097 76.9502Z" fill="#D9DBDC"/>
<path d="M161.097 20.2826C161.097 21.0647 161.712 21.6986 162.47 21.6986C163.228 21.6986 163.843 21.0647 163.843 20.2826C163.843 19.5006 163.228 18.8666 162.47 18.8666C161.712 18.8666 161.097 19.5006 161.097 20.2826Z" fill="#D9DBDC"/>
<path d="M161.097 95.8169C161.097 96.5989 161.712 97.2329 162.47 97.2329C163.228 97.2329 163.843 96.5989 163.843 95.8169C163.843 95.0349 163.228 94.4009 162.47 94.4009C161.712 94.4009 161.097 95.0349 161.097 95.8169Z" fill="#D9DBDC"/>
<path d="M161.097 39.1831C161.097 39.9651 161.712 40.5991 162.47 40.5991C163.228 40.5991 163.843 39.9651 163.843 39.1831C163.843 38.4011 163.228 37.7671 162.47 37.7671C161.712 37.7671 161.097 38.4011 161.097 39.1831Z" fill="#D9DBDC"/>
<path d="M161.097 114.684C161.097 115.466 161.712 116.1 162.47 116.1C163.228 116.1 163.843 115.466 163.843 114.684C163.843 113.901 163.228 113.268 162.47 113.268C161.712 113.268 161.097 113.901 161.097 114.684Z" fill="#D9DBDC"/>
<path d="M161.097 58.0498C161.097 58.8318 161.712 59.4657 162.47 59.4657C163.228 59.4657 163.843 58.8318 163.843 58.0498C163.843 57.2677 163.228 56.6338 162.47 56.6338C161.712 56.6338 161.097 57.2677 161.097 58.0498Z" fill="#D9DBDC"/>
<path d="M161.097 133.584C161.097 134.366 161.712 135 162.47 135C163.228 135 163.843 134.366 163.843 133.584C163.843 132.802 163.228 132.168 162.47 132.168C161.712 132.168 161.097 132.802 161.097 133.584Z" fill="#D9DBDC"/>
<path d="M18.3245 1.41598C18.3245 2.19801 18.9391 2.83197 19.6973 2.83197C20.4555 2.83197 21.0702 2.19801 21.0702 1.41598C21.0702 0.633949 20.4555 -1.09079e-05 19.6973 -1.09411e-05C18.9391 -1.09742e-05 18.3245 0.633949 18.3245 1.41598Z" fill="#D9DBDC"/>
<path d="M18.3245 76.9502C18.3245 77.7322 18.9391 78.3662 19.6973 78.3662C20.4555 78.3662 21.0702 77.7322 21.0702 76.9502C21.0702 76.1682 20.4555 75.5342 19.6973 75.5342C18.9391 75.5342 18.3245 76.1682 18.3245 76.9502Z" fill="#D9DBDC"/>
<path d="M18.3245 20.2826C18.3245 21.0647 18.9391 21.6986 19.6973 21.6986C20.4555 21.6986 21.0702 21.0647 21.0702 20.2826C21.0702 19.5006 20.4555 18.8666 19.6973 18.8666C18.9391 18.8666 18.3245 19.5006 18.3245 20.2826Z" fill="#D9DBDC"/>
<path d="M18.3245 95.8169C18.3245 96.5989 18.9391 97.2329 19.6973 97.2329C20.4555 97.2329 21.0702 96.5989 21.0702 95.8169C21.0702 95.0348 20.4555 94.4009 19.6973 94.4009C18.9391 94.4009 18.3245 95.0348 18.3245 95.8169Z" fill="#D9DBDC"/>
<path d="M18.3245 39.1831C18.3245 39.9651 18.9391 40.5991 19.6973 40.5991C20.4555 40.5991 21.0702 39.9651 21.0702 39.1831C21.0702 38.4011 20.4555 37.7671 19.6973 37.7671C18.9391 37.7671 18.3245 38.4011 18.3245 39.1831Z" fill="#D9DBDC"/>
<path d="M18.3245 114.684C18.3245 115.466 18.9391 116.099 19.6973 116.099C20.4555 116.099 21.0702 115.466 21.0702 114.684C21.0702 113.901 20.4555 113.268 19.6973 113.268C18.9391 113.268 18.3245 113.901 18.3245 114.684Z" fill="#D9DBDC"/>
<path d="M18.3245 58.0497C18.3245 58.8318 18.9391 59.4657 19.6973 59.4657C20.4555 59.4657 21.0702 58.8318 21.0702 58.0497C21.0702 57.2677 20.4555 56.6338 19.6973 56.6338C18.9391 56.6338 18.3245 57.2677 18.3245 58.0497Z" fill="#D9DBDC"/>
<path d="M18.3245 133.584C18.3245 134.366 18.9391 135 19.6973 135C20.4555 135 21.0702 134.366 21.0702 133.584C21.0702 132.802 20.4555 132.168 19.6973 132.168C18.9391 132.168 18.3245 132.802 18.3245 133.584Z" fill="#D9DBDC"/>
<path d="M248.963 1.41599C248.963 2.19802 249.577 2.83198 250.336 2.83198C251.094 2.83198 251.708 2.19802 251.708 1.41599C251.708 0.633959 251.094 -8.26416e-07 250.336 -8.59557e-07C249.577 -8.92699e-07 248.963 0.633959 248.963 1.41599Z" fill="#D9DBDC"/>
<path d="M248.963 76.9502C248.963 77.7323 249.577 78.3662 250.336 78.3662C251.094 78.3662 251.708 77.7323 251.708 76.9502C251.708 76.1682 251.094 75.5342 250.336 75.5342C249.577 75.5342 248.963 76.1682 248.963 76.9502Z" fill="#D9DBDC"/>
<path d="M248.963 20.2826C248.963 21.0647 249.577 21.6986 250.336 21.6986C251.094 21.6986 251.708 21.0647 251.708 20.2826C251.708 19.5006 251.094 18.8666 250.336 18.8666C249.577 18.8666 248.963 19.5006 248.963 20.2826Z" fill="#D9DBDC"/>
<path d="M248.963 95.8169C248.963 96.5989 249.577 97.2329 250.336 97.2329C251.094 97.2329 251.708 96.5989 251.708 95.8169C251.708 95.0349 251.094 94.4009 250.336 94.4009C249.577 94.4009 248.963 95.0349 248.963 95.8169Z" fill="#D9DBDC"/>
<path d="M248.963 39.1831C248.963 39.9651 249.577 40.5991 250.336 40.5991C251.094 40.5991 251.708 39.9651 251.708 39.1831C251.708 38.4011 251.094 37.7671 250.336 37.7671C249.577 37.7671 248.963 38.4011 248.963 39.1831Z" fill="#D9DBDC"/>
<path d="M248.963 114.684C248.963 115.466 249.577 116.1 250.336 116.1C251.094 116.1 251.708 115.466 251.708 114.684C251.708 113.901 251.094 113.268 250.336 113.268C249.577 113.268 248.963 113.901 248.963 114.684Z" fill="#D9DBDC"/>
<path d="M248.963 58.0498C248.963 58.8318 249.577 59.4657 250.336 59.4657C251.094 59.4657 251.708 58.8318 251.708 58.0498C251.708 57.2677 251.094 56.6338 250.336 56.6338C249.577 56.6338 248.963 57.2677 248.963 58.0498Z" fill="#D9DBDC"/>
<path d="M248.963 133.584C248.963 134.366 249.577 135 250.336 135C251.094 135 251.708 134.366 251.708 133.584C251.708 132.802 251.094 132.168 250.336 132.168C249.577 132.168 248.963 132.802 248.963 133.584Z" fill="#D9DBDC"/>
<path d="M106.19 1.41598C106.19 2.19801 106.804 2.83197 107.563 2.83197C108.321 2.83197 108.936 2.19801 108.936 1.41598C108.936 0.633953 108.321 -7.06722e-06 107.563 -7.10036e-06C106.804 -7.1335e-06 106.19 0.633953 106.19 1.41598Z" fill="#D9DBDC"/>
<path d="M106.19 76.9502C106.19 77.7322 106.804 78.3662 107.563 78.3662C108.321 78.3662 108.936 77.7322 108.936 76.9502C108.936 76.1682 108.321 75.5342 107.563 75.5342C106.804 75.5342 106.19 76.1682 106.19 76.9502Z" fill="#D9DBDC"/>
<path d="M106.19 20.2826C106.19 21.0647 106.804 21.6986 107.563 21.6986C108.321 21.6986 108.936 21.0647 108.936 20.2826C108.936 19.5006 108.321 18.8666 107.563 18.8666C106.804 18.8666 106.19 19.5006 106.19 20.2826Z" fill="#D9DBDC"/>
<path d="M106.19 95.8169C106.19 96.5989 106.804 97.2329 107.563 97.2329C108.321 97.2329 108.936 96.5989 108.936 95.8169C108.936 95.0349 108.321 94.4009 107.563 94.4009C106.804 94.4009 106.19 95.0349 106.19 95.8169Z" fill="#D9DBDC"/>
<path d="M106.19 39.1831C106.19 39.9651 106.804 40.5991 107.563 40.5991C108.321 40.5991 108.936 39.9651 108.936 39.1831C108.936 38.4011 108.321 37.7671 107.563 37.7671C106.804 37.7671 106.19 38.4011 106.19 39.1831Z" fill="#D9DBDC"/>
<path d="M106.19 114.684C106.19 115.466 106.804 116.1 107.563 116.1C108.321 116.1 108.936 115.466 108.936 114.684C108.936 113.901 108.321 113.268 107.563 113.268C106.804 113.268 106.19 113.901 106.19 114.684Z" fill="#D9DBDC"/>
<path d="M106.19 58.0497C106.19 58.8318 106.804 59.4657 107.563 59.4657C108.321 59.4657 108.936 58.8318 108.936 58.0497C108.936 57.2677 108.321 56.6338 107.563 56.6338C106.804 56.6338 106.19 57.2677 106.19 58.0497Z" fill="#D9DBDC"/>
<path d="M106.19 133.584C106.19 134.366 106.804 135 107.563 135C108.321 135 108.936 134.366 108.936 133.584C108.936 132.802 108.321 132.168 107.563 132.168C106.804 132.168 106.19 132.802 106.19 133.584Z" fill="#D9DBDC"/>
<path d="M178.466 1.41599C178.466 2.19802 179.081 2.83198 179.839 2.83198C180.597 2.83198 181.212 2.19802 181.212 1.41599C181.212 0.633956 180.597 -3.90792e-06 179.839 -3.94106e-06C179.081 -3.9742e-06 178.466 0.633956 178.466 1.41599Z" fill="#D9DBDC"/>
<path d="M178.466 76.9502C178.466 77.7323 179.081 78.3662 179.839 78.3662C180.597 78.3662 181.212 77.7323 181.212 76.9502C181.212 76.1682 180.597 75.5342 179.839 75.5342C179.081 75.5342 178.466 76.1682 178.466 76.9502Z" fill="#D9DBDC"/>
<path d="M178.466 20.2826C178.466 21.0647 179.081 21.6986 179.839 21.6986C180.597 21.6986 181.212 21.0647 181.212 20.2826C181.212 19.5006 180.597 18.8666 179.839 18.8666C179.081 18.8666 178.466 19.5006 178.466 20.2826Z" fill="#D9DBDC"/>
<path d="M178.466 95.8169C178.466 96.5989 179.081 97.2329 179.839 97.2329C180.597 97.2329 181.212 96.5989 181.212 95.8169C181.212 95.0349 180.597 94.4009 179.839 94.4009C179.081 94.4009 178.466 95.0349 178.466 95.8169Z" fill="#D9DBDC"/>
<path d="M178.466 39.1831C178.466 39.9651 179.081 40.5991 179.839 40.5991C180.597 40.5991 181.212 39.9651 181.212 39.1831C181.212 38.4011 180.597 37.7671 179.839 37.7671C179.081 37.7671 178.466 38.4011 178.466 39.1831Z" fill="#D9DBDC"/>
<path d="M178.466 114.684C178.466 115.466 179.081 116.1 179.839 116.1C180.597 116.1 181.212 115.466 181.212 114.684C181.212 113.901 180.597 113.268 179.839 113.268C179.081 113.268 178.466 113.901 178.466 114.684Z" fill="#D9DBDC"/>
<path d="M178.466 58.0498C178.466 58.8318 179.081 59.4657 179.839 59.4657C180.597 59.4657 181.212 58.8318 181.212 58.0498C181.212 57.2677 180.597 56.6338 179.839 56.6338C179.081 56.6338 178.466 57.2677 178.466 58.0498Z" fill="#D9DBDC"/>
<path d="M178.466 133.584C178.466 134.366 179.081 135 179.839 135C180.597 135 181.212 134.366 181.212 133.584C181.212 132.802 180.597 132.168 179.839 132.168C179.081 132.168 178.466 132.802 178.466 133.584Z" fill="#D9DBDC"/>
<path d="M35.6932 1.41598C35.6932 2.19801 36.3079 2.83197 37.0661 2.83197C37.8243 2.83197 38.4389 2.19801 38.4389 1.41598C38.4389 0.63395 37.8243 -1.01487e-05 37.0661 -1.01819e-05C36.3079 -1.0215e-05 35.6932 0.63395 35.6932 1.41598Z" fill="#D9DBDC"/>
<path d="M35.6932 76.9502C35.6932 77.7322 36.3079 78.3662 37.0661 78.3662C37.8243 78.3662 38.4389 77.7322 38.4389 76.9502C38.4389 76.1682 37.8243 75.5342 37.0661 75.5342C36.3079 75.5342 35.6932 76.1682 35.6932 76.9502Z" fill="#D9DBDC"/>
<path d="M35.6932 20.2826C35.6932 21.0647 36.3079 21.6986 37.0661 21.6986C37.8243 21.6986 38.4389 21.0647 38.4389 20.2826C38.4389 19.5006 37.8243 18.8666 37.0661 18.8666C36.3079 18.8666 35.6932 19.5006 35.6932 20.2826Z" fill="#D9DBDC"/>
<path d="M35.6932 95.8169C35.6932 96.5989 36.3079 97.2329 37.0661 97.2329C37.8243 97.2329 38.4389 96.5989 38.4389 95.8169C38.4389 95.0348 37.8243 94.4009 37.0661 94.4009C36.3079 94.4009 35.6932 95.0348 35.6932 95.8169Z" fill="#D9DBDC"/>
<path d="M35.6932 39.1831C35.6932 39.9651 36.3079 40.5991 37.0661 40.5991C37.8243 40.5991 38.4389 39.9651 38.4389 39.1831C38.4389 38.4011 37.8243 37.7671 37.0661 37.7671C36.3079 37.7671 35.6932 38.4011 35.6932 39.1831Z" fill="#D9DBDC"/>
<path d="M35.6932 114.684C35.6932 115.466 36.3079 116.099 37.0661 116.1C37.8243 116.1 38.4389 115.466 38.4389 114.684C38.4389 113.901 37.8243 113.268 37.0661 113.268C36.3079 113.268 35.6932 113.901 35.6932 114.684Z" fill="#D9DBDC"/>
<path d="M35.6932 58.0497C35.6932 58.8318 36.3079 59.4657 37.0661 59.4657C37.8243 59.4657 38.4389 58.8318 38.4389 58.0497C38.4389 57.2677 37.8243 56.6338 37.0661 56.6338C36.3079 56.6338 35.6932 57.2677 35.6932 58.0497Z" fill="#D9DBDC"/>
<path d="M35.6932 133.584C35.6932 134.366 36.3079 135 37.0661 135C37.8243 135 38.4389 134.366 38.4389 133.584C38.4389 132.802 37.8243 132.168 37.0661 132.168C36.3079 132.168 35.6932 132.802 35.6932 133.584Z" fill="#D9DBDC"/>
<path d="M213.27 1.41599C213.27 2.19802 213.884 2.83198 214.642 2.83198C215.401 2.83198 216.015 2.19802 216.015 1.41599C216.015 0.633958 215.401 -2.38662e-06 214.642 -2.41976e-06C213.884 -2.4529e-06 213.27 0.633958 213.27 1.41599Z" fill="#D9DBDC"/>
<path d="M213.27 76.9502C213.27 77.7323 213.884 78.3662 214.642 78.3662C215.401 78.3662 216.015 77.7323 216.015 76.9502C216.015 76.1682 215.401 75.5342 214.642 75.5342C213.884 75.5342 213.27 76.1682 213.27 76.9502Z" fill="#D9DBDC"/>
<path d="M213.27 20.2826C213.27 21.0647 213.884 21.6986 214.642 21.6986C215.401 21.6986 216.015 21.0647 216.015 20.2826C216.015 19.5006 215.401 18.8666 214.642 18.8666C213.884 18.8666 213.27 19.5006 213.27 20.2826Z" fill="#D9DBDC"/>
<path d="M213.27 95.8169C213.27 96.5989 213.884 97.2329 214.642 97.2329C215.401 97.2329 216.015 96.5989 216.015 95.8169C216.015 95.0349 215.401 94.4009 214.642 94.4009C213.884 94.4009 213.27 95.0349 213.27 95.8169Z" fill="#D9DBDC"/>
<path d="M213.27 39.1831C213.27 39.9651 213.884 40.5991 214.642 40.5991C215.401 40.5991 216.015 39.9651 216.015 39.1831C216.015 38.4011 215.401 37.7671 214.642 37.7671C213.884 37.7671 213.27 38.4011 213.27 39.1831Z" fill="#D9DBDC"/>
<path d="M213.27 114.684C213.27 115.466 213.884 116.1 214.642 116.1C215.401 116.1 216.015 115.466 216.015 114.684C216.015 113.901 215.401 113.268 214.642 113.268C213.884 113.268 213.27 113.901 213.27 114.684Z" fill="#D9DBDC"/>
<path d="M213.27 58.0498C213.27 58.8318 213.884 59.4657 214.642 59.4657C215.401 59.4657 216.015 58.8318 216.015 58.0498C216.015 57.2677 215.401 56.6338 214.642 56.6338C213.884 56.6338 213.27 57.2677 213.27 58.0498Z" fill="#D9DBDC"/>
<path d="M213.27 133.584C213.27 134.366 213.884 135 214.642 135C215.401 135 216.015 134.366 216.015 133.584C216.015 132.802 215.401 132.168 214.642 132.168C213.884 132.168 213.27 132.802 213.27 133.584Z" fill="#D9DBDC"/>
<path d="M70.4966 1.41598C70.4966 2.19801 71.1113 2.83197 71.8694 2.83197C72.6276 2.83197 73.2423 2.19801 73.2423 1.41598C73.2423 0.633951 72.6276 -8.62742e-06 71.8694 -8.66056e-06C71.1113 -8.6937e-06 70.4966 0.633951 70.4966 1.41598Z" fill="#D9DBDC"/>
<path d="M70.4966 76.9502C70.4966 77.7322 71.1112 78.3662 71.8694 78.3662C72.6276 78.3662 73.2423 77.7322 73.2423 76.9502C73.2423 76.1682 72.6276 75.5342 71.8694 75.5342C71.1112 75.5342 70.4966 76.1682 70.4966 76.9502Z" fill="#D9DBDC"/>
<path d="M70.4966 20.2826C70.4966 21.0647 71.1113 21.6986 71.8694 21.6986C72.6276 21.6986 73.2423 21.0647 73.2423 20.2826C73.2423 19.5006 72.6276 18.8666 71.8694 18.8666C71.1113 18.8666 70.4966 19.5006 70.4966 20.2826Z" fill="#D9DBDC"/>
<path d="M70.4966 95.8169C70.4966 96.5989 71.1112 97.2329 71.8694 97.2329C72.6276 97.2329 73.2423 96.5989 73.2423 95.8169C73.2423 95.0349 72.6276 94.4009 71.8694 94.4009C71.1112 94.4009 70.4966 95.0348 70.4966 95.8169Z" fill="#D9DBDC"/>
<path d="M70.4966 39.1831C70.4966 39.9651 71.1113 40.5991 71.8694 40.5991C72.6276 40.5991 73.2423 39.9651 73.2423 39.1831C73.2423 38.4011 72.6276 37.7671 71.8694 37.7671C71.1113 37.7671 70.4966 38.4011 70.4966 39.1831Z" fill="#D9DBDC"/>
<path d="M70.4966 114.684C70.4966 115.466 71.1112 116.1 71.8694 116.1C72.6276 116.1 73.2423 115.466 73.2423 114.684C73.2423 113.901 72.6276 113.268 71.8694 113.268C71.1112 113.268 70.4966 113.901 70.4966 114.684Z" fill="#D9DBDC"/>
<path d="M70.4966 58.0497C70.4966 58.8318 71.1112 59.4657 71.8694 59.4657C72.6276 59.4657 73.2423 58.8318 73.2423 58.0497C73.2423 57.2677 72.6276 56.6338 71.8694 56.6338C71.1112 56.6338 70.4966 57.2677 70.4966 58.0497Z" fill="#D9DBDC"/>
<path d="M70.4966 133.584C70.4966 134.366 71.1112 135 71.8694 135C72.6276 135 73.2423 134.366 73.2423 133.584C73.2423 132.802 72.6276 132.168 71.8694 132.168C71.1112 132.168 70.4966 132.802 70.4966 133.584Z" fill="#D9DBDC"/>
<path d="M142.773 1.41598C142.773 2.19801 143.388 2.83197 144.146 2.83197C144.904 2.83197 145.519 2.19801 145.519 1.41598C145.519 0.633955 144.904 -5.46812e-06 144.146 -5.50126e-06C143.388 -5.5344e-06 142.773 0.633955 142.773 1.41598Z" fill="#D9DBDC"/>
<path d="M142.773 76.9502C142.773 77.7322 143.388 78.3662 144.146 78.3662C144.904 78.3662 145.519 77.7322 145.519 76.9502C145.519 76.1682 144.904 75.5342 144.146 75.5342C143.388 75.5342 142.773 76.1682 142.773 76.9502Z" fill="#D9DBDC"/>
<path d="M142.773 20.2826C142.773 21.0647 143.388 21.6986 144.146 21.6986C144.904 21.6986 145.519 21.0647 145.519 20.2826C145.519 19.5006 144.904 18.8666 144.146 18.8666C143.388 18.8666 142.773 19.5006 142.773 20.2826Z" fill="#D9DBDC"/>
<path d="M142.773 95.8169C142.773 96.5989 143.388 97.2329 144.146 97.2329C144.904 97.2329 145.519 96.5989 145.519 95.8169C145.519 95.0349 144.904 94.4009 144.146 94.4009C143.388 94.4009 142.773 95.0349 142.773 95.8169Z" fill="#D9DBDC"/>
<path d="M142.773 39.1831C142.773 39.9651 143.388 40.5991 144.146 40.5991C144.904 40.5991 145.519 39.9651 145.519 39.1831C145.519 38.4011 144.904 37.7671 144.146 37.7671C143.388 37.7671 142.773 38.4011 142.773 39.1831Z" fill="#D9DBDC"/>
<path d="M142.773 114.684C142.773 115.466 143.388 116.1 144.146 116.1C144.904 116.1 145.519 115.466 145.519 114.684C145.519 113.901 144.904 113.268 144.146 113.268C143.388 113.268 142.773 113.901 142.773 114.684Z" fill="#D9DBDC"/>
<path d="M142.773 58.0497C142.773 58.8318 143.388 59.4657 144.146 59.4657C144.904 59.4657 145.519 58.8318 145.519 58.0497C145.519 57.2677 144.904 56.6338 144.146 56.6338C143.388 56.6338 142.773 57.2677 142.773 58.0497Z" fill="#D9DBDC"/>
<path d="M142.773 133.584C142.773 134.366 143.388 135 144.146 135C144.904 135 145.519 134.366 145.519 133.584C145.519 132.802 144.904 132.168 144.146 132.168C143.388 132.168 142.773 132.802 142.773 133.584Z" fill="#D9DBDC"/>
<path d="M-6.18949e-08 1.41598C-9.60785e-08 2.19801 0.614624 2.83197 1.37283 2.83197C2.13104 2.83197 2.74567 2.19801 2.74567 1.41598C2.74567 0.633948 2.13104 -1.17089e-05 1.37283 -1.17421e-05C0.614624 -1.17752e-05 -2.77113e-08 0.633948 -6.18949e-08 1.41598Z" fill="#D9DBDC"/>
<path d="M-3.3636e-06 76.9502C-3.39778e-06 77.7322 0.614621 78.3662 1.37283 78.3662C2.13104 78.3662 2.74566 77.7322 2.74566 76.9502C2.74566 76.1682 2.13104 75.5342 1.37283 75.5342C0.614621 75.5342 -3.32942e-06 76.1682 -3.3636e-06 76.9502Z" fill="#D9DBDC"/>
<path d="M-8.86582e-07 20.2826C-9.20766e-07 21.0647 0.614623 21.6986 1.37283 21.6986C2.13104 21.6986 2.74567 21.0647 2.74567 20.2826C2.74567 19.5006 2.13104 18.8666 1.37283 18.8666C0.614623 18.8666 -8.52399e-07 19.5006 -8.86582e-07 20.2826Z" fill="#D9DBDC"/>
<path d="M-4.18829e-06 95.8169C-4.22247e-06 96.5989 0.61462 97.2329 1.37283 97.2329C2.13104 97.2329 2.74566 96.5989 2.74566 95.8169C2.74566 95.0348 2.13104 94.4009 1.37283 94.4009C0.61462 94.4009 -4.15411e-06 95.0348 -4.18829e-06 95.8169Z" fill="#D9DBDC"/>
<path d="M-1.71275e-06 39.1831C-1.74693e-06 39.9651 0.614622 40.5991 1.37283 40.5991C2.13104 40.5991 2.74566 39.9651 2.74566 39.1831C2.74566 38.4011 2.13104 37.7671 1.37283 37.7671C0.614622 37.7671 -1.67856e-06 38.4011 -1.71275e-06 39.1831Z" fill="#D9DBDC"/>
<path d="M-5.01298e-06 114.684C-5.04716e-06 115.466 0.614619 116.099 1.37283 116.099C2.13104 116.099 2.74566 115.466 2.74566 114.684C2.74566 113.901 2.13104 113.268 1.37283 113.268C0.614619 113.268 -4.97879e-06 113.901 -5.01298e-06 114.684Z" fill="#D9DBDC"/>
<path d="M-2.53744e-06 58.0497C-2.57162e-06 58.8318 0.614621 59.4657 1.37283 59.4657C2.13104 59.4657 2.74566 58.8318 2.74566 58.0497C2.74566 57.2677 2.13104 56.6338 1.37283 56.6338C0.614622 56.6338 -2.50325e-06 57.2677 -2.53744e-06 58.0497Z" fill="#D9DBDC"/>
<path d="M-5.83914e-06 133.584C-5.87333e-06 134.366 0.614618 135 1.37283 135C2.13104 135 2.74566 134.366 2.74566 133.584C2.74566 132.802 2.13104 132.168 1.37283 132.168C0.614618 132.168 -5.80496e-06 132.802 -5.83914e-06 133.584Z" fill="#D9DBDC"/>
</svg>
