<svg width="136" height="270" viewBox="0 0 136 270" fill="none" xmlns="http://www.w3.org/2000/svg">
<path d="M1.42014 2.74566C2.20446 2.74566 2.84028 2.13102 2.84028 1.37283C2.84028 0.614637 2.20446 0 1.42014 0C0.635819 0 0 0.614637 0 1.37283C0 2.13102 0.635819 2.74566 1.42014 2.74566Z" fill="#0A1830"/>
<path d="M77.1759 2.74566C77.9602 2.74566 78.596 2.13102 78.596 1.37283C78.596 0.614637 77.9602 0 77.1759 0C76.3916 0 75.7557 0.614637 75.7557 1.37283C75.7557 2.13102 76.3916 2.74566 77.1759 2.74566Z" fill="#0A1830"/>
<path d="M20.3421 2.74566C21.1264 2.74566 21.7623 2.13102 21.7623 1.37283C21.7623 0.614637 21.1264 0 20.3421 0C19.5578 0 18.922 0.614637 18.922 1.37283C18.922 2.13102 19.5578 2.74566 20.3421 2.74566Z" fill="#0A1830"/>
<path d="M96.0979 2.74566C96.8822 2.74566 97.518 2.13102 97.518 1.37283C97.518 0.614637 96.8822 0 96.0979 0C95.3136 0 94.6777 0.614637 94.6777 1.37283C94.6777 2.13102 95.3136 2.74566 96.0979 2.74566Z" fill="#0A1830"/>
<path d="M39.298 2.74566C40.0823 2.74566 40.7182 2.13102 40.7182 1.37283C40.7182 0.614637 40.0823 0 39.298 0C38.5137 0 37.8779 0.614637 37.8779 1.37283C37.8779 2.13102 38.5137 2.74566 39.298 2.74566Z" fill="#0A1830"/>
<path d="M115.02 2.74566C115.804 2.74566 116.44 2.13102 116.44 1.37283C116.44 0.614637 115.804 0 115.02 0C114.236 0 113.6 0.614637 113.6 1.37283C113.6 2.13102 114.236 2.74566 115.02 2.74566Z" fill="#0A1830"/>
<path d="M58.22 2.74566C59.0043 2.74566 59.6401 2.13102 59.6401 1.37283C59.6401 0.614637 59.0043 0 58.22 0C57.4357 0 56.7998 0.614637 56.7998 1.37283C56.7998 2.13102 57.4357 2.74566 58.22 2.74566Z" fill="#0A1830"/>
<path d="M133.976 2.74566C134.76 2.74566 135.396 2.13102 135.396 1.37283C135.396 0.614637 134.76 0 133.976 0C133.191 0 132.556 0.614637 132.556 1.37283C132.556 2.13102 133.191 2.74566 133.976 2.74566Z" fill="#0A1830"/>
<path d="M1.42014 145.519C2.20446 145.519 2.84028 144.904 2.84028 144.146C2.84028 143.388 2.20446 142.773 1.42014 142.773C0.635819 142.773 0 143.388 0 144.146C0 144.904 0.635819 145.519 1.42014 145.519Z" fill="#0A1830"/>
<path d="M77.1759 145.519C77.9602 145.519 78.596 144.904 78.596 144.146C78.596 143.388 77.9602 142.773 77.1759 142.773C76.3916 142.773 75.7557 143.388 75.7557 144.146C75.7557 144.904 76.3916 145.519 77.1759 145.519Z" fill="#0A1830"/>
<path d="M20.3421 145.519C21.1264 145.519 21.7623 144.904 21.7623 144.146C21.7623 143.388 21.1264 142.773 20.3421 142.773C19.5578 142.773 18.922 143.388 18.922 144.146C18.922 144.904 19.5578 145.519 20.3421 145.519Z" fill="#0A1830"/>
<path d="M96.0979 145.519C96.8822 145.519 97.518 144.904 97.518 144.146C97.518 143.388 96.8822 142.773 96.0979 142.773C95.3136 142.773 94.6777 143.388 94.6777 144.146C94.6777 144.904 95.3136 145.519 96.0979 145.519Z" fill="#0A1830"/>
<path d="M39.298 145.519C40.0823 145.519 40.7182 144.904 40.7182 144.146C40.7182 143.388 40.0823 142.773 39.298 142.773C38.5137 142.773 37.8779 143.388 37.8779 144.146C37.8779 144.904 38.5137 145.519 39.298 145.519Z" fill="#0A1830"/>
<path d="M115.02 145.519C115.804 145.519 116.44 144.904 116.44 144.146C116.44 143.388 115.804 142.773 115.02 142.773C114.236 142.773 113.6 143.388 113.6 144.146C113.6 144.904 114.236 145.519 115.02 145.519Z" fill="#0A1830"/>
<path d="M58.22 145.519C59.0043 145.519 59.6401 144.904 59.6401 144.146C59.6401 143.388 59.0043 142.773 58.22 142.773C57.4357 142.773 56.7998 143.388 56.7998 144.146C56.7998 144.904 57.4357 145.519 58.22 145.519Z" fill="#0A1830"/>
<path d="M133.976 145.519C134.76 145.519 135.396 144.904 135.396 144.146C135.396 143.388 134.76 142.773 133.976 142.773C133.191 142.773 132.556 143.388 132.556 144.146C132.556 144.904 133.191 145.519 133.976 145.519Z" fill="#0A1830"/>
<path d="M1.42014 73.2093C2.20446 73.2093 2.84028 72.5947 2.84028 71.8365C2.84028 71.0783 2.20446 70.4637 1.42014 70.4637C0.635819 70.4637 0 71.0783 0 71.8365C0 72.5947 0.635819 73.2093 1.42014 73.2093Z" fill="#0A1830"/>
<path d="M77.1759 73.2093C77.9602 73.2093 78.596 72.5947 78.596 71.8365C78.596 71.0783 77.9602 70.4637 77.1759 70.4637C76.3916 70.4637 75.7557 71.0783 75.7557 71.8365C75.7557 72.5947 76.3916 73.2093 77.1759 73.2093Z" fill="#0A1830"/>
<path d="M20.3421 73.2093C21.1264 73.2093 21.7623 72.5947 21.7623 71.8365C21.7623 71.0783 21.1264 70.4637 20.3421 70.4637C19.5578 70.4637 18.922 71.0783 18.922 71.8365C18.922 72.5947 19.5578 73.2093 20.3421 73.2093Z" fill="#0A1830"/>
<path d="M96.0979 73.2093C96.8822 73.2093 97.518 72.5947 97.518 71.8365C97.518 71.0783 96.8822 70.4637 96.0979 70.4637C95.3136 70.4637 94.6777 71.0783 94.6777 71.8365C94.6777 72.5947 95.3136 73.2093 96.0979 73.2093Z" fill="#0A1830"/>
<path d="M39.298 73.2093C40.0823 73.2093 40.7182 72.5947 40.7182 71.8365C40.7182 71.0783 40.0823 70.4637 39.298 70.4637C38.5137 70.4637 37.8779 71.0783 37.8779 71.8365C37.8779 72.5947 38.5137 73.2093 39.298 73.2093Z" fill="#0A1830"/>
<path d="M115.02 73.2093C115.804 73.2093 116.44 72.5947 116.44 71.8365C116.44 71.0783 115.804 70.4637 115.02 70.4637C114.236 70.4637 113.6 71.0783 113.6 71.8365C113.6 72.5947 114.236 73.2093 115.02 73.2093Z" fill="#0A1830"/>
<path d="M58.22 73.2093C59.0043 73.2093 59.6401 72.5947 59.6401 71.8365C59.6401 71.0783 59.0043 70.4637 58.22 70.4637C57.4357 70.4637 56.7998 71.0783 56.7998 71.8365C56.7998 72.5947 57.4357 73.2093 58.22 73.2093Z" fill="#0A1830"/>
<path d="M133.976 73.2093C134.76 73.2093 135.396 72.5947 135.396 71.8365C135.396 71.0783 134.76 70.4637 133.976 70.4637C133.191 70.4637 132.556 71.0783 132.556 71.8365C132.556 72.5947 133.191 73.2093 133.976 73.2093Z" fill="#0A1830"/>
<path d="M1.42014 215.982C2.20446 215.982 2.84028 215.368 2.84028 214.609C2.84028 213.851 2.20446 213.237 1.42014 213.237C0.635819 213.237 0 213.851 0 214.609C0 215.368 0.635819 215.982 1.42014 215.982Z" fill="#0A1830"/>
<path d="M77.1759 215.982C77.9602 215.982 78.596 215.368 78.596 214.609C78.596 213.851 77.9602 213.237 77.1759 213.237C76.3916 213.237 75.7557 213.851 75.7557 214.609C75.7557 215.368 76.3916 215.982 77.1759 215.982Z" fill="#0A1830"/>
<path d="M20.3421 215.982C21.1264 215.982 21.7623 215.368 21.7623 214.609C21.7623 213.851 21.1264 213.237 20.3421 213.237C19.5578 213.237 18.922 213.851 18.922 214.609C18.922 215.368 19.5578 215.982 20.3421 215.982Z" fill="#0A1830"/>
<path d="M96.0979 215.982C96.8822 215.982 97.518 215.368 97.518 214.609C97.518 213.851 96.8822 213.237 96.0979 213.237C95.3136 213.237 94.6777 213.851 94.6777 214.609C94.6777 215.368 95.3136 215.982 96.0979 215.982Z" fill="#0A1830"/>
<path d="M39.298 215.982C40.0823 215.982 40.7182 215.368 40.7182 214.609C40.7182 213.851 40.0823 213.237 39.298 213.237C38.5137 213.237 37.8779 213.851 37.8779 214.609C37.8779 215.368 38.5137 215.982 39.298 215.982Z" fill="#0A1830"/>
<path d="M115.02 215.982C115.804 215.982 116.44 215.368 116.44 214.609C116.44 213.851 115.804 213.237 115.02 213.237C114.236 213.237 113.6 213.851 113.6 214.609C113.6 215.368 114.236 215.982 115.02 215.982Z" fill="#0A1830"/>
<path d="M58.22 215.982C59.0043 215.982 59.6401 215.368 59.6401 214.609C59.6401 213.851 59.0043 213.237 58.22 213.237C57.4357 213.237 56.7998 213.851 56.7998 214.609C56.7998 215.368 57.4357 215.982 58.22 215.982Z" fill="#0A1830"/>
<path d="M133.976 215.982C134.76 215.982 135.396 215.368 135.396 214.609C135.396 213.851 134.76 213.237 133.976 213.237C133.191 213.237 132.556 213.851 132.556 214.609C132.556 215.368 133.191 215.982 133.976 215.982Z" fill="#0A1830"/>
<path d="M1.42014 38.4389C2.20446 38.4389 2.84028 37.8243 2.84028 37.0661C2.84028 36.3079 2.20446 35.6932 1.42014 35.6932C0.635819 35.6932 0 36.3079 0 37.0661C0 37.8243 0.635819 38.4389 1.42014 38.4389Z" fill="#0A1830"/>
<path d="M77.1759 38.4389C77.9602 38.4389 78.596 37.8243 78.596 37.0661C78.596 36.3079 77.9602 35.6932 77.1759 35.6932C76.3916 35.6932 75.7557 36.3079 75.7557 37.0661C75.7557 37.8243 76.3916 38.4389 77.1759 38.4389Z" fill="#0A1830"/>
<path d="M20.3421 38.4389C21.1264 38.4389 21.7623 37.8243 21.7623 37.0661C21.7623 36.3079 21.1264 35.6932 20.3421 35.6932C19.5578 35.6932 18.922 36.3079 18.922 37.0661C18.922 37.8243 19.5578 38.4389 20.3421 38.4389Z" fill="#0A1830"/>
<path d="M96.0979 38.4389C96.8822 38.4389 97.518 37.8243 97.518 37.0661C97.518 36.3079 96.8822 35.6932 96.0979 35.6932C95.3136 35.6932 94.6777 36.3079 94.6777 37.0661C94.6777 37.8243 95.3136 38.4389 96.0979 38.4389Z" fill="#0A1830"/>
<path d="M39.298 38.4389C40.0823 38.4389 40.7182 37.8243 40.7182 37.0661C40.7182 36.3079 40.0823 35.6932 39.298 35.6932C38.5137 35.6932 37.8779 36.3079 37.8779 37.0661C37.8779 37.8243 38.5137 38.4389 39.298 38.4389Z" fill="#0A1830"/>
<path d="M115.02 38.4389C115.804 38.4389 116.44 37.8243 116.44 37.0661C116.44 36.3079 115.804 35.6932 115.02 35.6932C114.236 35.6932 113.6 36.3079 113.6 37.0661C113.6 37.8243 114.236 38.4389 115.02 38.4389Z" fill="#0A1830"/>
<path d="M58.22 38.4389C59.0043 38.4389 59.6401 37.8243 59.6401 37.0661C59.6401 36.3079 59.0043 35.6932 58.22 35.6932C57.4357 35.6932 56.7998 36.3079 56.7998 37.0661C56.7998 37.8243 57.4357 38.4389 58.22 38.4389Z" fill="#0A1830"/>
<path d="M133.976 38.4389C134.76 38.4389 135.396 37.8243 135.396 37.0661C135.396 36.3079 134.76 35.6932 133.976 35.6932C133.191 35.6932 132.556 36.3079 132.556 37.0661C132.556 37.8243 133.191 38.4389 133.976 38.4389Z" fill="#0A1830"/>
<path d="M1.42014 181.212C2.20446 181.212 2.84028 180.597 2.84028 179.839C2.84028 179.081 2.20446 178.466 1.42014 178.466C0.635819 178.466 0 179.081 0 179.839C0 180.597 0.635819 181.212 1.42014 181.212Z" fill="#0A1830"/>
<path d="M77.1759 181.212C77.9602 181.212 78.596 180.597 78.596 179.839C78.596 179.081 77.9602 178.466 77.1759 178.466C76.3916 178.466 75.7557 179.081 75.7557 179.839C75.7557 180.597 76.3916 181.212 77.1759 181.212Z" fill="#0A1830"/>
<path d="M20.3421 181.212C21.1264 181.212 21.7623 180.597 21.7623 179.839C21.7623 179.081 21.1264 178.466 20.3421 178.466C19.5578 178.466 18.922 179.081 18.922 179.839C18.922 180.597 19.5578 181.212 20.3421 181.212Z" fill="#0A1830"/>
<path d="M96.0979 181.212C96.8822 181.212 97.518 180.597 97.518 179.839C97.518 179.081 96.8822 178.466 96.0979 178.466C95.3136 178.466 94.6777 179.081 94.6777 179.839C94.6777 180.597 95.3136 181.212 96.0979 181.212Z" fill="#0A1830"/>
<path d="M39.298 181.212C40.0823 181.212 40.7182 180.597 40.7182 179.839C40.7182 179.081 40.0823 178.466 39.298 178.466C38.5137 178.466 37.8779 179.081 37.8779 179.839C37.8779 180.597 38.5137 181.212 39.298 181.212Z" fill="#0A1830"/>
<path d="M115.02 181.212C115.804 181.212 116.44 180.597 116.44 179.839C116.44 179.081 115.804 178.466 115.02 178.466C114.236 178.466 113.6 179.081 113.6 179.839C113.6 180.597 114.236 181.212 115.02 181.212Z" fill="#0A1830"/>
<path d="M58.22 181.212C59.0043 181.212 59.6401 180.597 59.6401 179.839C59.6401 179.081 59.0043 178.466 58.22 178.466C57.4357 178.466 56.7998 179.081 56.7998 179.839C56.7998 180.597 57.4357 181.212 58.22 181.212Z" fill="#0A1830"/>
<path d="M133.976 181.212C134.76 181.212 135.396 180.597 135.396 179.839C135.396 179.081 134.76 178.466 133.976 178.466C133.191 178.466 132.556 179.081 132.556 179.839C132.556 180.597 133.191 181.212 133.976 181.212Z" fill="#0A1830"/>
<path d="M1.42014 108.903C2.20446 108.903 2.84028 108.288 2.84028 107.53C2.84028 106.772 2.20446 106.157 1.42014 106.157C0.635819 106.157 0 106.772 0 107.53C0 108.288 0.635819 108.903 1.42014 108.903Z" fill="#0A1830"/>
<path d="M77.1759 108.903C77.9602 108.903 78.596 108.288 78.596 107.53C78.596 106.772 77.9602 106.157 77.1759 106.157C76.3916 106.157 75.7557 106.772 75.7557 107.53C75.7557 108.288 76.3916 108.903 77.1759 108.903Z" fill="#0A1830"/>
<path d="M20.3421 108.903C21.1264 108.903 21.7623 108.288 21.7623 107.53C21.7623 106.772 21.1264 106.157 20.3421 106.157C19.5578 106.157 18.922 106.772 18.922 107.53C18.922 108.288 19.5578 108.903 20.3421 108.903Z" fill="#0A1830"/>
<path d="M96.0979 108.903C96.8822 108.903 97.518 108.288 97.518 107.53C97.518 106.772 96.8822 106.157 96.0979 106.157C95.3136 106.157 94.6777 106.772 94.6777 107.53C94.6777 108.288 95.3136 108.903 96.0979 108.903Z" fill="#0A1830"/>
<path d="M39.298 108.903C40.0823 108.903 40.7182 108.288 40.7182 107.53C40.7182 106.772 40.0823 106.157 39.298 106.157C38.5137 106.157 37.8779 106.772 37.8779 107.53C37.8779 108.288 38.5137 108.903 39.298 108.903Z" fill="#0A1830"/>
<path d="M115.02 108.903C115.804 108.903 116.44 108.288 116.44 107.53C116.44 106.772 115.804 106.157 115.02 106.157C114.236 106.157 113.6 106.772 113.6 107.53C113.6 108.288 114.236 108.903 115.02 108.903Z" fill="#0A1830"/>
<path d="M58.22 108.903C59.0043 108.903 59.6401 108.288 59.6401 107.53C59.6401 106.772 59.0043 106.157 58.22 106.157C57.4357 106.157 56.7998 106.772 56.7998 107.53C56.7998 108.288 57.4357 108.903 58.22 108.903Z" fill="#0A1830"/>
<path d="M133.976 108.903C134.76 108.903 135.396 108.288 135.396 107.53C135.396 106.772 134.76 106.157 133.976 106.157C133.191 106.157 132.556 106.772 132.556 107.53C132.556 108.288 133.191 108.903 133.976 108.903Z" fill="#0A1830"/>
<path d="M1.42014 251.675C2.20446 251.675 2.84028 251.061 2.84028 250.303C2.84028 249.544 2.20446 248.93 1.42014 248.93C0.635819 248.93 0 249.544 0 250.303C0 251.061 0.635819 251.675 1.42014 251.675Z" fill="#0A1830"/>
<path d="M77.1759 251.675C77.9602 251.675 78.596 251.061 78.596 250.303C78.596 249.544 77.9602 248.93 77.1759 248.93C76.3916 248.93 75.7557 249.544 75.7557 250.303C75.7557 251.061 76.3916 251.675 77.1759 251.675Z" fill="#0A1830"/>
<path d="M20.3421 251.675C21.1264 251.675 21.7623 251.061 21.7623 250.303C21.7623 249.544 21.1264 248.93 20.3421 248.93C19.5578 248.93 18.922 249.544 18.922 250.303C18.922 251.061 19.5578 251.675 20.3421 251.675Z" fill="#0A1830"/>
<path d="M96.0979 251.675C96.8822 251.675 97.518 251.061 97.518 250.303C97.518 249.544 96.8822 248.93 96.0979 248.93C95.3136 248.93 94.6777 249.544 94.6777 250.303C94.6777 251.061 95.3136 251.675 96.0979 251.675Z" fill="#0A1830"/>
<path d="M39.298 251.675C40.0823 251.675 40.7182 251.061 40.7182 250.303C40.7182 249.544 40.0823 248.93 39.298 248.93C38.5137 248.93 37.8779 249.544 37.8779 250.303C37.8779 251.061 38.5137 251.675 39.298 251.675Z" fill="#0A1830"/>
<path d="M115.02 251.675C115.804 251.675 116.44 251.061 116.44 250.303C116.44 249.544 115.804 248.93 115.02 248.93C114.236 248.93 113.6 249.544 113.6 250.303C113.6 251.061 114.236 251.675 115.02 251.675Z" fill="#0A1830"/>
<path d="M58.22 251.675C59.0043 251.675 59.6401 251.061 59.6401 250.303C59.6401 249.544 59.0043 248.93 58.22 248.93C57.4357 248.93 56.7998 249.544 56.7998 250.303C56.7998 251.061 57.4357 251.675 58.22 251.675Z" fill="#0A1830"/>
<path d="M133.976 251.675C134.76 251.675 135.396 251.061 135.396 250.303C135.396 249.544 134.76 248.93 133.976 248.93C133.191 248.93 132.556 249.544 132.556 250.303C132.556 251.061 133.191 251.675 133.976 251.675Z" fill="#0A1830"/>
<path d="M1.42014 21.0372C2.20446 21.0372 2.84028 20.4226 2.84028 19.6644C2.84028 18.9062 2.20446 18.2915 1.42014 18.2915C0.635819 18.2915 0 18.9062 0 19.6644C0 20.4226 0.635819 21.0372 1.42014 21.0372Z" fill="#0A1830"/>
<path d="M77.1759 21.0372C77.9602 21.0372 78.596 20.4226 78.596 19.6644C78.596 18.9062 77.9602 18.2915 77.1759 18.2915C76.3916 18.2915 75.7557 18.9062 75.7557 19.6644C75.7557 20.4226 76.3916 21.0372 77.1759 21.0372Z" fill="#0A1830"/>
<path d="M20.3421 21.0372C21.1264 21.0372 21.7623 20.4226 21.7623 19.6644C21.7623 18.9062 21.1264 18.2915 20.3421 18.2915C19.5578 18.2915 18.922 18.9062 18.922 19.6644C18.922 20.4226 19.5578 21.0372 20.3421 21.0372Z" fill="#0A1830"/>
<path d="M96.0979 21.0372C96.8822 21.0372 97.518 20.4226 97.518 19.6644C97.518 18.9062 96.8822 18.2915 96.0979 18.2915C95.3136 18.2915 94.6777 18.9062 94.6777 19.6644C94.6777 20.4226 95.3136 21.0372 96.0979 21.0372Z" fill="#0A1830"/>
<path d="M39.298 21.0372C40.0823 21.0372 40.7182 20.4226 40.7182 19.6644C40.7182 18.9062 40.0823 18.2915 39.298 18.2915C38.5137 18.2915 37.8779 18.9062 37.8779 19.6644C37.8779 20.4226 38.5137 21.0372 39.298 21.0372Z" fill="#0A1830"/>
<path d="M115.02 21.0372C115.804 21.0372 116.44 20.4226 116.44 19.6644C116.44 18.9062 115.804 18.2915 115.02 18.2915C114.236 18.2915 113.6 18.9062 113.6 19.6644C113.6 20.4226 114.236 21.0372 115.02 21.0372Z" fill="#0A1830"/>
<path d="M58.22 21.0372C59.0043 21.0372 59.6401 20.4226 59.6401 19.6644C59.6401 18.9062 59.0043 18.2915 58.22 18.2915C57.4357 18.2915 56.7998 18.9062 56.7998 19.6644C56.7998 20.4226 57.4357 21.0372 58.22 21.0372Z" fill="#0A1830"/>
<path d="M133.976 21.0372C134.76 21.0372 135.396 20.4226 135.396 19.6644C135.396 18.9062 134.76 18.2915 133.976 18.2915C133.191 18.2915 132.556 18.9062 132.556 19.6644C132.556 20.4226 133.191 21.0372 133.976 21.0372Z" fill="#FA5489"/>
<path d="M1.42014 163.81C2.20446 163.81 2.84028 163.196 2.84028 162.437C2.84028 161.679 2.20446 161.064 1.42014 161.064C0.635819 161.064 0 161.679 0 162.437C0 163.196 0.635819 163.81 1.42014 163.81Z" fill="#FA5489"/>
<path d="M77.1759 163.81C77.9602 163.81 78.596 163.196 78.596 162.437C78.596 161.679 77.9602 161.064 77.1759 161.064C76.3916 161.064 75.7557 161.679 75.7557 162.437C75.7557 163.196 76.3916 163.81 77.1759 163.81Z" fill="#FA5489"/>
<path d="M20.3421 163.81C21.1264 163.81 21.7623 163.196 21.7623 162.437C21.7623 161.679 21.1264 161.064 20.3421 161.064C19.5578 161.064 18.922 161.679 18.922 162.437C18.922 163.196 19.5578 163.81 20.3421 163.81Z" fill="#FA5489"/>
<path d="M96.0979 163.81C96.8822 163.81 97.518 163.196 97.518 162.437C97.518 161.679 96.8822 161.064 96.0979 161.064C95.3136 161.064 94.6777 161.679 94.6777 162.437C94.6777 163.196 95.3136 163.81 96.0979 163.81Z" fill="#FA5489"/>
<path d="M39.298 163.81C40.0823 163.81 40.7182 163.196 40.7182 162.437C40.7182 161.679 40.0823 161.064 39.298 161.064C38.5137 161.064 37.8779 161.679 37.8779 162.437C37.8779 163.196 38.5137 163.81 39.298 163.81Z" fill="#FA5489"/>
<path d="M115.02 163.81C115.804 163.81 116.44 163.196 116.44 162.437C116.44 161.679 115.804 161.064 115.02 161.064C114.236 161.064 113.6 161.679 113.6 162.437C113.6 163.196 114.236 163.81 115.02 163.81Z" fill="#FA5489"/>
<path d="M58.22 163.81C59.0043 163.81 59.6401 163.196 59.6401 162.437C59.6401 161.679 59.0043 161.064 58.22 161.064C57.4357 161.064 56.7998 161.679 56.7998 162.437C56.7998 163.196 57.4357 163.81 58.22 163.81Z" fill="#FA5489"/>
<path d="M133.976 163.81C134.76 163.81 135.396 163.196 135.396 162.437C135.396 161.679 134.76 161.064 133.976 161.064C133.191 161.064 132.556 161.679 132.556 162.437C132.556 163.196 133.191 163.81 133.976 163.81Z" fill="#FA5489"/>
<path d="M1.42014 91.5338C2.20446 91.5338 2.84028 90.9192 2.84028 90.161C2.84028 89.4028 2.20446 88.7882 1.42014 88.7882C0.635819 88.7882 0 89.4028 0 90.161C0 90.9192 0.635819 91.5338 1.42014 91.5338Z" fill="#FA5489"/>
<path d="M77.1759 91.5338C77.9602 91.5338 78.596 90.9192 78.596 90.161C78.596 89.4028 77.9602 88.7882 77.1759 88.7882C76.3916 88.7882 75.7557 89.4028 75.7557 90.161C75.7557 90.9192 76.3916 91.5338 77.1759 91.5338Z" fill="#FA5489"/>
<path d="M20.3421 91.5338C21.1264 91.5338 21.7623 90.9192 21.7623 90.161C21.7623 89.4028 21.1264 88.7882 20.3421 88.7882C19.5578 88.7882 18.922 89.4028 18.922 90.161C18.922 90.9192 19.5578 91.5338 20.3421 91.5338Z" fill="#FA5489"/>
<path d="M96.0979 91.5338C96.8822 91.5338 97.518 90.9192 97.518 90.161C97.518 89.4028 96.8822 88.7882 96.0979 88.7882C95.3136 88.7882 94.6777 89.4028 94.6777 90.161C94.6777 90.9192 95.3136 91.5338 96.0979 91.5338Z" fill="#FA5489"/>
<path d="M39.298 91.5338C40.0823 91.5338 40.7182 90.9192 40.7182 90.161C40.7182 89.4028 40.0823 88.7882 39.298 88.7882C38.5137 88.7882 37.8779 89.4028 37.8779 90.161C37.8779 90.9192 38.5137 91.5338 39.298 91.5338Z" fill="#FA5489"/>
<path d="M115.02 91.5338C115.804 91.5338 116.44 90.9192 116.44 90.161C116.44 89.4028 115.804 88.7882 115.02 88.7882C114.236 88.7882 113.6 89.4028 113.6 90.161C113.6 90.9192 114.236 91.5338 115.02 91.5338Z" fill="#FA5489"/>
<path d="M58.22 91.5338C59.0043 91.5338 59.6401 90.9192 59.6401 90.161C59.6401 89.4028 59.0043 88.7882 58.22 88.7882C57.4357 88.7882 56.7998 89.4028 56.7998 90.161C56.7998 90.9192 57.4357 91.5338 58.22 91.5338Z" fill="#FA5489"/>
<path d="M133.976 91.5338C134.76 91.5338 135.396 90.9192 135.396 90.161C135.396 89.4028 134.76 88.7882 133.976 88.7882C133.191 88.7882 132.556 89.4028 132.556 90.161C132.556 90.9192 133.191 91.5338 133.976 91.5338Z" fill="#FA5489"/>
<path d="M1.42014 234.307C2.20446 234.307 2.84028 233.692 2.84028 232.934C2.84028 232.176 2.20446 231.561 1.42014 231.561C0.635819 231.561 0 232.176 0 232.934C0 233.692 0.635819 234.307 1.42014 234.307Z" fill="#FA5489"/>
<path d="M77.1759 234.307C77.9602 234.307 78.596 233.692 78.596 232.934C78.596 232.176 77.9602 231.561 77.1759 231.561C76.3916 231.561 75.7557 232.176 75.7557 232.934C75.7557 233.692 76.3916 234.307 77.1759 234.307Z" fill="#FA5489"/>
<path d="M20.3421 234.307C21.1264 234.307 21.7623 233.692 21.7623 232.934C21.7623 232.176 21.1264 231.561 20.3421 231.561C19.5578 231.561 18.922 232.176 18.922 232.934C18.922 233.692 19.5578 234.307 20.3421 234.307Z" fill="#FA5489"/>
<path d="M96.0979 234.307C96.8822 234.307 97.518 233.692 97.518 232.934C97.518 232.176 96.8822 231.561 96.0979 231.561C95.3136 231.561 94.6777 232.176 94.6777 232.934C94.6777 233.692 95.3136 234.307 96.0979 234.307Z" fill="#FA5489"/>
<path d="M39.298 234.307C40.0823 234.307 40.7182 233.692 40.7182 232.934C40.7182 232.176 40.0823 231.561 39.298 231.561C38.5137 231.561 37.8779 232.176 37.8779 232.934C37.8779 233.692 38.5137 234.307 39.298 234.307Z" fill="#FA5489"/>
<path d="M115.02 234.307C115.804 234.307 116.44 233.692 116.44 232.934C116.44 232.176 115.804 231.561 115.02 231.561C114.236 231.561 113.6 232.176 113.6 232.934C113.6 233.692 114.236 234.307 115.02 234.307Z" fill="#FA5489"/>
<path d="M58.22 234.307C59.0043 234.307 59.6401 233.692 59.6401 232.934C59.6401 232.176 59.0043 231.561 58.22 231.561C57.4357 231.561 56.7998 232.176 56.7998 232.934C56.7998 233.692 57.4357 234.307 58.22 234.307Z" fill="#FA5489"/>
<path d="M133.976 234.307C134.76 234.307 135.396 233.692 135.396 232.934C135.396 232.176 134.76 231.561 133.976 231.561C133.191 231.561 132.556 232.176 132.556 232.934C132.556 233.692 133.191 234.307 133.976 234.307Z" fill="#FA5489"/>
<path d="M1.42014 56.7304C2.20446 56.7304 2.84028 56.1158 2.84028 55.3576C2.84028 54.5994 2.20446 53.9848 1.42014 53.9848C0.635819 53.9848 0 54.5994 0 55.3576C0 56.1158 0.635819 56.7304 1.42014 56.7304Z" fill="#FA5489"/>
<path d="M77.1759 56.7304C77.9602 56.7304 78.596 56.1158 78.596 55.3576C78.596 54.5994 77.9602 53.9848 77.1759 53.9848C76.3916 53.9848 75.7557 54.5994 75.7557 55.3576C75.7557 56.1158 76.3916 56.7304 77.1759 56.7304Z" fill="#FA5489"/>
<path d="M20.3421 56.7304C21.1264 56.7304 21.7623 56.1158 21.7623 55.3576C21.7623 54.5994 21.1264 53.9848 20.3421 53.9848C19.5578 53.9848 18.922 54.5994 18.922 55.3576C18.922 56.1158 19.5578 56.7304 20.3421 56.7304Z" fill="#FA5489"/>
<path d="M96.0979 56.7304C96.8822 56.7304 97.518 56.1158 97.518 55.3576C97.518 54.5994 96.8822 53.9848 96.0979 53.9848C95.3136 53.9848 94.6777 54.5994 94.6777 55.3576C94.6777 56.1158 95.3136 56.7304 96.0979 56.7304Z" fill="#FA5489"/>
<path d="M39.298 56.7304C40.0823 56.7304 40.7182 56.1158 40.7182 55.3576C40.7182 54.5994 40.0823 53.9848 39.298 53.9848C38.5137 53.9848 37.8779 54.5994 37.8779 55.3576C37.8779 56.1158 38.5137 56.7304 39.298 56.7304Z" fill="#FA5489"/>
<path d="M115.02 56.7304C115.804 56.7304 116.44 56.1158 116.44 55.3576C116.44 54.5994 115.804 53.9848 115.02 53.9848C114.236 53.9848 113.6 54.5994 113.6 55.3576C113.6 56.1158 114.236 56.7304 115.02 56.7304Z" fill="#FA5489"/>
<path d="M58.22 56.7304C59.0043 56.7304 59.6401 56.1158 59.6401 55.3576C59.6401 54.5994 59.0043 53.9848 58.22 53.9848C57.4357 53.9848 56.7998 54.5994 56.7998 55.3576C56.7998 56.1158 57.4357 56.7304 58.22 56.7304Z" fill="#FA5489"/>
<path d="M133.976 56.7304C134.76 56.7304 135.396 56.1158 135.396 55.3576C135.396 54.5994 134.76 53.9848 133.976 53.9848C133.191 53.9848 132.556 54.5994 132.556 55.3576C132.556 56.1158 133.191 56.7304 133.976 56.7304Z" fill="#FA5489"/>
<path d="M1.42014 199.503C2.20446 199.503 2.84028 198.889 2.84028 198.131C2.84028 197.372 2.20446 196.758 1.42014 196.758C0.635819 196.758 0 197.372 0 198.131C0 198.889 0.635819 199.503 1.42014 199.503Z" fill="#FA5489"/>
<path d="M77.1759 199.503C77.9602 199.503 78.596 198.889 78.596 198.131C78.596 197.372 77.9602 196.758 77.1759 196.758C76.3916 196.758 75.7557 197.372 75.7557 198.131C75.7557 198.889 76.3916 199.503 77.1759 199.503Z" fill="#FA5489"/>
<path d="M20.3421 199.503C21.1264 199.503 21.7623 198.889 21.7623 198.131C21.7623 197.372 21.1264 196.758 20.3421 196.758C19.5578 196.758 18.922 197.372 18.922 198.131C18.922 198.889 19.5578 199.503 20.3421 199.503Z" fill="#FA5489"/>
<path d="M96.0979 199.503C96.8822 199.503 97.518 198.889 97.518 198.131C97.518 197.372 96.8822 196.758 96.0979 196.758C95.3136 196.758 94.6777 197.372 94.6777 198.131C94.6777 198.889 95.3136 199.503 96.0979 199.503Z" fill="#FA5489"/>
<path d="M39.298 199.503C40.0823 199.503 40.7182 198.889 40.7182 198.131C40.7182 197.372 40.0823 196.758 39.298 196.758C38.5137 196.758 37.8779 197.372 37.8779 198.131C37.8779 198.889 38.5137 199.503 39.298 199.503Z" fill="#FA5489"/>
<path d="M115.02 199.503C115.804 199.503 116.44 198.889 116.44 198.131C116.44 197.372 115.804 196.758 115.02 196.758C114.236 196.758 113.6 197.372 113.6 198.131C113.6 198.889 114.236 199.503 115.02 199.503Z" fill="#FA5489"/>
<path d="M58.22 199.503C59.0043 199.503 59.6401 198.889 59.6401 198.131C59.6401 197.372 59.0043 196.758 58.22 196.758C57.4357 196.758 56.7998 197.372 56.7998 198.131C56.7998 198.889 57.4357 199.503 58.22 199.503Z" fill="#FA5489"/>
<path d="M133.976 199.503C134.76 199.503 135.396 198.889 135.396 198.131C135.396 197.372 134.76 196.758 133.976 196.758C133.191 196.758 132.556 197.372 132.556 198.131C132.556 198.889 133.191 199.503 133.976 199.503Z" fill="#FA5489"/>
<path d="M1.42014 127.227C2.20446 127.227 2.84028 126.612 2.84028 125.854C2.84028 125.096 2.20446 124.481 1.42014 124.481C0.635819 124.481 0 125.096 0 125.854C0 126.612 0.635819 127.227 1.42014 127.227Z" fill="#FA5489"/>
<path d="M77.1759 127.227C77.9602 127.227 78.596 126.612 78.596 125.854C78.596 125.096 77.9602 124.481 77.1759 124.481C76.3916 124.481 75.7557 125.096 75.7557 125.854C75.7557 126.612 76.3916 127.227 77.1759 127.227Z" fill="#FA5489"/>
<path d="M20.3421 127.227C21.1264 127.227 21.7623 126.612 21.7623 125.854C21.7623 125.096 21.1264 124.481 20.3421 124.481C19.5578 124.481 18.922 125.096 18.922 125.854C18.922 126.612 19.5578 127.227 20.3421 127.227Z" fill="#FA5489"/>
<path d="M96.0979 127.227C96.8822 127.227 97.518 126.612 97.518 125.854C97.518 125.096 96.8822 124.481 96.0979 124.481C95.3136 124.481 94.6777 125.096 94.6777 125.854C94.6777 126.612 95.3136 127.227 96.0979 127.227Z" fill="#FA5489"/>
<path d="M39.298 127.227C40.0823 127.227 40.7182 126.612 40.7182 125.854C40.7182 125.096 40.0823 124.481 39.298 124.481C38.5137 124.481 37.8779 125.096 37.8779 125.854C37.8779 126.612 38.5137 127.227 39.298 127.227Z" fill="#FA5489"/>
<path d="M115.02 127.227C115.804 127.227 116.44 126.612 116.44 125.854C116.44 125.096 115.804 124.481 115.02 124.481C114.236 124.481 113.6 125.096 113.6 125.854C113.6 126.612 114.236 127.227 115.02 127.227Z" fill="#FA5489"/>
<path d="M58.22 127.227C59.0043 127.227 59.6401 126.612 59.6401 125.854C59.6401 125.096 59.0043 124.481 58.22 124.481C57.4357 124.481 56.7998 125.096 56.7998 125.854C56.7998 126.612 57.4357 127.227 58.22 127.227Z" fill="#FA5489"/>
<path d="M133.976 127.227C134.76 127.227 135.396 126.612 135.396 125.854C135.396 125.096 134.76 124.481 133.976 124.481C133.191 124.481 132.556 125.096 132.556 125.854C132.556 126.612 133.191 127.227 133.976 127.227Z" fill="#FA5489"/>
<path d="M1.42014 270C2.20446 270 2.84028 269.385 2.84028 268.627C2.84028 267.869 2.20446 267.254 1.42014 267.254C0.635819 267.254 0 267.869 0 268.627C0 269.385 0.635819 270 1.42014 270Z" fill="#FA5489"/>
<path d="M77.1759 270C77.9602 270 78.596 269.385 78.596 268.627C78.596 267.869 77.9602 267.254 77.1759 267.254C76.3916 267.254 75.7557 267.869 75.7557 268.627C75.7557 269.385 76.3916 270 77.1759 270Z" fill="#FA5489"/>
<path d="M20.3421 270C21.1264 270 21.7623 269.385 21.7623 268.627C21.7623 267.869 21.1264 267.254 20.3421 267.254C19.5578 267.254 18.922 267.869 18.922 268.627C18.922 269.385 19.5578 270 20.3421 270Z" fill="#FA5489"/>
<path d="M96.0979 270C96.8822 270 97.518 269.385 97.518 268.627C97.518 267.869 96.8822 267.254 96.0979 267.254C95.3136 267.254 94.6777 267.869 94.6777 268.627C94.6777 269.385 95.3136 270 96.0979 270Z" fill="#FA5489"/>
<path d="M39.298 270C40.0823 270 40.7182 269.385 40.7182 268.627C40.7182 267.869 40.0823 267.254 39.298 267.254C38.5137 267.254 37.8779 267.869 37.8779 268.627C37.8779 269.385 38.5137 270 39.298 270Z" fill="#FA5489"/>
<path d="M115.02 270C115.804 270 116.44 269.385 116.44 268.627C116.44 267.869 115.804 267.254 115.02 267.254C114.236 267.254 113.6 267.869 113.6 268.627C113.6 269.385 114.236 270 115.02 270Z" fill="#FA5489"/>
<path d="M58.22 270C59.0043 270 59.6401 269.385 59.6401 268.627C59.6401 267.869 59.0043 267.254 58.22 267.254C57.4357 267.254 56.7998 267.869 56.7998 268.627C56.7998 269.385 57.4357 270 58.22 270Z" fill="#FA5489"/>
<path d="M133.976 270C134.76 270 135.396 269.385 135.396 268.627C135.396 267.869 134.76 267.254 133.976 267.254C133.191 267.254 132.556 267.869 132.556 268.627C132.556 269.385 133.191 270 133.976 270Z" fill="#FA5489"/>
</svg>
