<svg width="34" height="43" viewBox="0 0 34 43" fill="none" xmlns="http://www.w3.org/2000/svg">
<path d="M5.83374 0H2.53464C1.71863 0 1.15435 0.262139 0.85774 0.779627C0.564581 1.29033 0.62539 1.88902 1.03778 2.55924C1.31182 3.00441 10.7075 18.2782 10.7075 18.2782C10.8992 18.5902 11.2431 18.7808 11.6138 18.7808H11.9009C12.2739 18.7808 12.6197 18.5876 12.8106 18.2724L14.491 15.5006C14.6718 15.2025 14.6896 14.8348 14.5382 14.5215L8.28125 1.53706C7.91161 0.559264 7.02337 0 5.83374 0Z" fill="#ED6B15"/>
<path d="M11.9283 23.2166H11.6394C11.2639 23.2166 10.9163 23.4122 10.7262 23.7302L0.146213 41.4306C-0.140839 41.911 0.0070682 42.5279 0.482124 42.8316C0.659771 42.9454 0.860256 43 1.05835 43C1.38948 43 1.71424 42.848 1.92057 42.565L13.7043 26.3968C13.9478 26.062 13.9688 25.6177 13.7566 25.2626L12.8418 23.7307C12.6517 23.4122 12.3041 23.2166 11.9283 23.2166Z" fill="#ED6B15"/>
<path d="M28.7821 0H32.2439C33.262 0 33.6842 0.549601 33.8449 0.877535C33.9976 1.18798 34.1736 1.82269 33.6407 2.58796C33.6298 2.60363 33.6184 2.61877 33.6067 2.63365L19.4684 20.7301L29.3243 41.5184C29.5622 42.0205 29.3591 42.6181 28.8612 42.8779C28.7032 42.9607 28.5327 42.9998 28.3649 42.9998C28.0043 42.9998 27.654 42.8186 27.4562 42.4946L14.4582 21.217C14.2513 20.8784 14.2569 20.4541 14.4725 20.121L26.5071 1.54776C27.2408 0.269447 28.1479 0 28.7821 0Z" fill="#ED6B15"/>
</svg>
