<svg width="169" height="870" viewBox="0 0 169 870" fill="none" xmlns="http://www.w3.org/2000/svg">
<path d="M356.134 0H287.4C274.81 0 256.8 5.45163 242.233 31.3153L3.28963 407.1C-0.991428 413.84 -1.10211 422.425 3.00496 429.276L261.076 859.778C265.003 866.334 271.957 870 279.117 870C282.449 870 285.834 869.208 288.971 867.533C298.856 862.277 302.89 850.185 298.166 840.026L102.481 419.424L383.191 53.2857C383.423 52.9846 383.65 52.6782 383.866 52.3613C394.447 36.8779 390.952 24.0359 387.92 17.7548C384.73 11.1199 376.348 0 356.134 0Z" fill="#ED6B15"/>
</svg>
