<svg width="120" height="483" viewBox="0 0 120 483" fill="none" xmlns="http://www.w3.org/2000/svg">
<path d="M-77.6497 0H-39.5032C-32.5159 0 -22.5206 3.0266 -14.436 17.3854L118.174 226.011C120.55 229.753 120.612 234.519 118.332 238.322L-24.8936 477.325C-27.0735 480.965 -30.9329 483 -34.9064 483C-36.7557 483 -38.6342 482.56 -40.3752 481.63C-45.8615 478.712 -48.0999 471.999 -45.4781 466.359L63.1241 232.853L-92.6661 29.5828C-92.7948 29.4156 -92.9207 29.2455 -93.0406 29.0695C-98.9132 20.4736 -96.9732 13.3441 -95.2907 9.857C-93.5205 6.17345 -88.8681 0 -77.6497 0Z" fill="#ED6B15"/>
</svg>
