<?xml version="1.0" encoding="UTF-8"?> <svg xmlns="http://www.w3.org/2000/svg" xmlns:xlink="http://www.w3.org/1999/xlink" viewBox="0 0 178.66 164"><defs><style>.cls-1,.cls-2,.cls-5,.cls-6{stroke:#e76b15;}.cls-1,.cls-2,.cls-5,.cls-6,.cls-7{stroke-linejoin:round;}.cls-1,.cls-2,.cls-5,.cls-6,.cls-7,.cls-8{stroke-width:2px;}.cls-1{fill:url(#linear-gradient);}.cls-2,.cls-6{fill:#fff;}.cls-3{fill:url(#linear-gradient-2);}.cls-4{fill:#e76b15;}.cls-5,.cls-7,.cls-8{fill:none;}.cls-5,.cls-6,.cls-7{stroke-linecap:round;}.cls-7,.cls-8{stroke:#fff;}.cls-8{stroke-miterlimit:10;}</style><linearGradient id="linear-gradient" x1="36.52" y1="54.56" x2="139.33" y2="54.56" gradientUnits="userSpaceOnUse"><stop offset="0" stop-color="#fff"></stop><stop offset="1" stop-color="#ffcba8"></stop></linearGradient><linearGradient id="linear-gradient-2" x1="-7947.01" y1="-2528.42" x2="-7947.01" y2="-2512.87" gradientTransform="matrix(-0.87, 0.5, 0, -1.15, -6786.19, 1156.47)" gradientUnits="userSpaceOnUse"><stop offset="0" stop-color="#e76b15" stop-opacity="0"></stop><stop offset="1" stop-color="#e76b15" stop-opacity="0.3"></stop></linearGradient></defs><g id="Layer_2" data-name="Layer 2"><g id="Layer_1-2" data-name="Layer 1"><path class="cls-1" d="M139.33,28.15l-10.55-6.86A8.26,8.26,0,0,0,125.63,20c-2.72-.43-5.93.27-9.38,2.26A27.31,27.31,0,0,0,112.4,25q0-.8,0-1.59c0-16.77-12.08-23.51-26.53-15C73.76,15.57,63.59,31.11,60.73,45.79a24.48,24.48,0,0,0-2.91,1.44C46.06,54,36.52,70.54,36.52,84.13c0,6,1.87,10.43,5,12.91h0l0,0a9.82,9.82,0,0,0,2,1.22l9.74,6.12L70.43,89.15l45.82-26.46c9.45-5.46,17.14-18.56,17.47-29.57Z"></path><path class="cls-2" d="M125.26,28.08a26.52,26.52,0,0,0-3.85,2.73q0-.81,0-1.59c0-16.74-11.75-23.53-26.25-15.16C82.92,21.14,72.63,36.8,69.74,51.59A26.11,26.11,0,0,0,66.83,53c-11.76,6.8-21.3,23.32-21.3,36.9s9.54,19.09,21.3,12.3L125.26,68.5c9.66-5.58,17.5-19.16,17.5-30.32S134.92,22.5,125.26,28.08Z"></path><path class="cls-2" d="M56,124.23l-4.28-2.78a3.33,3.33,0,0,0-1.28-.52,5.92,5.92,0,0,0-3.81.92A10.85,10.85,0,0,0,45,123c0-.22,0-.43,0-.65,0-6.81-4.9-9.54-10.76-6.08-4.93,2.9-9.06,9.2-10.22,15.16a10.81,10.81,0,0,0-1.18.59c-4.77,2.75-8.64,9.46-8.64,15,0,2.44.75,4.24,2,5.24h0a4.38,4.38,0,0,0,.79.5L21,155.18,28,149l18.59-10.74a15.72,15.72,0,0,0,7.09-12Z"></path><path class="cls-2" d="M50.25,124.2a10.85,10.85,0,0,0-1.56,1.11c0-.21,0-.43,0-.64,0-6.8-4.77-9.55-10.65-6.15-5,2.87-9.16,9.22-10.33,15.23a9.87,9.87,0,0,0-1.18.58c-4.78,2.76-8.65,9.46-8.65,15s3.87,7.75,8.65,5l23.71-13.69a15.71,15.71,0,0,0,7.1-12.3C57.35,123.78,54.17,121.94,50.25,124.2Z"></path><path class="cls-2" d="M87,90.54v22.22A7.92,7.92,0,0,1,83.39,119l-6.4,3.7"></path><ellipse class="cls-2" cx="76.99" cy="122.67" rx="3.59" ry="2.07" transform="translate(-67.73 128.01) rotate(-60)"></ellipse><path class="cls-2" d="M107.32,79.1v21.31c0,2.29,1.61,3.21,3.59,2.07l6.4-3.69"></path><ellipse class="cls-2" cx="117.31" cy="98.79" rx="3.59" ry="2.07" transform="translate(-26.9 150.98) rotate(-60)"></ellipse><ellipse class="cls-2" cx="97.83" cy="134.51" rx="3.59" ry="2.07" transform="translate(-67.58 151.98) rotate(-60)"></ellipse><ellipse class="cls-2" cx="40.92" cy="145.49" rx="5.08" ry="2.93" transform="translate(-105.54 108.19) rotate(-60)"></ellipse><line class="cls-2" x1="97.83" y1="84.58" x2="97.83" y2="131.58"></line><path class="cls-3" d="M78.65,96.39l35-21.88V90.78l-35,21.89Z"></path><path class="cls-4" d="M97,154.14V152.4H98.7v1.74Zm0-4.34v-1.74H98.7v1.74Zm0-4.34v-1.74H98.7v1.74Z"></path><path class="cls-4" d="M31.24,142l2.13-1.22v-2.46l-2.13,1.23Zm5.32-3.07,2.13-1.23v-2.45l-2.13,1.23Zm5.32-3.07L44,134.64v-2.45l-2.13,1.22Z"></path><path class="cls-4" d="M59,95.46l2.13-1.23V91.77L59,93Zm5.32-3.08,2.13-1.22V88.7l-2.13,1.23Zm5.32-3.07,2.13-1.23V85.63l-2.13,1.23Z"></path><path class="cls-4" d="M121.49,46.62l2.13-1.23V42.93l-2.13,1.23Zm5.32-3.07,2.13-1.23V39.86l-2.13,1.23Zm5.32-3.07,2.13-1.23V36.79L132.13,38Z"></path><ellipse class="cls-2" cx="13.19" cy="34.18" rx="16.48" ry="10.37" transform="translate(-23.01 28.51) rotate(-60)"></ellipse><polyline class="cls-2" points="4.45 47.92 9.51 51.06 25.9 22.51 20.74 19.57"></polyline><ellipse class="cls-2" cx="17.33" cy="36.57" rx="16.48" ry="10.37" transform="translate(-23.01 33.3) rotate(-60)"></ellipse><polyline class="cls-5" points="12.69 38.34 16.55 42 22.72 31.63"></polyline><path class="cls-5" d="M13.58,55.29v8.4a5.76,5.76,0,0,0,2.79,4.94l9,5.42"></path><path class="cls-6" d="M176.39,69.46a3.11,3.11,0,0,0,1.05-3.65l-11-28.3a3.28,3.28,0,0,0-4.55-1.73L158,38.29l14.22,33.79Z"></path><path class="cls-6" d="M147.07,53.52,157.27,39a3.26,3.26,0,0,1,5.72.7L174,68a3.14,3.14,0,0,1-4.49,3.85L148.43,59.7A4.29,4.29,0,0,1,147.07,53.52Z"></path><line class="cls-5" x1="159.78" y1="46.18" x2="159.78" y2="54.11"></line><path class="cls-4" d="M160.47,59.41c.82,2.16-1.43,2.36-2.3.2l0-.08c-.84-2.17,1.46-2.38,2.3-.21Z"></path><path class="cls-5" d="M158.78,70.12v5.53a6.73,6.73,0,0,1-3.32,5.81l-13.44,8"></path><path class="cls-5" d="M41,155v5.53c0,2.39,1.26,3.14,3.32,2l13.44-7.58"></path><polygon class="cls-5" points="34.24 19.9 60.3 4.86 60.3 1 34.24 16.04 34.24 19.9"></polygon><polygon class="cls-5" points="34.24 29.36 54.03 17.98 54.03 14.12 34.24 25.49 34.24 29.36"></polygon><polygon class="cls-5" points="167.94 120.03 141.89 104.99 141.89 101.13 167.94 116.17 167.94 120.03"></polygon><polygon class="cls-5" points="161.41 125.9 141.63 114.52 141.63 110.66 161.41 122.03 161.41 125.9"></polygon><polygon class="cls-5" points="167.94 139.18 140.7 123.51 140.7 119.64 167.94 135.32 167.94 139.18"></polygon><ellipse class="cls-4" cx="95.65" cy="56.3" rx="27.46" ry="15.85" transform="translate(-0.93 110.98) rotate(-60)"></ellipse><line class="cls-7" x1="96.95" y1="69.13" x2="96.95" y2="78.97"></line><ellipse class="cls-8" cx="97.1" cy="64.79" rx="4.1" ry="2.37" transform="translate(-7.56 116.49) rotate(-60)"></ellipse><path class="cls-7" d="M89.28,62.42a18.39,18.39,0,0,1,4.34-5.79c3.87-3.35,8.22-3.6,11.54-1.2"></path><path class="cls-7" d="M84.93,58.78a26.35,26.35,0,0,1,5.87-7.55c5.61-4.86,11.91-5.24,16.73-1.81"></path></g></g></svg> 