<?xml version="1.0" encoding="UTF-8"?> <svg xmlns="http://www.w3.org/2000/svg" xmlns:xlink="http://www.w3.org/1999/xlink" viewBox="0 0 113.13 181.66"><defs><style>.cls-1{fill:url(#linear-gradient);}.cls-2,.cls-6{fill:none;}.cls-2,.cls-5,.cls-6,.cls-7,.cls-8{stroke:#e76b15;stroke-width:2px;}.cls-2,.cls-5,.cls-6,.cls-8{stroke-linejoin:round;}.cls-2{stroke-dasharray:2 2;}.cls-3{fill:url(#linear-gradient-2);}.cls-4{fill:url(#linear-gradient-3);}.cls-5,.cls-8,.cls-9{fill:#fff;}.cls-5,.cls-6{stroke-linecap:round;}.cls-7{stroke-miterlimit:10;fill:url(#linear-gradient-4);}</style><linearGradient id="linear-gradient" x1="20.83" y1="181.66" x2="20.83" y2="129.19" gradientUnits="userSpaceOnUse"><stop offset="0" stop-color="#e76b15" stop-opacity="0"></stop><stop offset="1" stop-color="#e76b15" stop-opacity="0.3"></stop></linearGradient><linearGradient id="linear-gradient-2" x1="58.16" y1="160.87" x2="58.16" y2="108.4" xlink:href="#linear-gradient"></linearGradient><linearGradient id="linear-gradient-3" x1="93.59" y1="148.37" x2="93.59" y2="95.9" xlink:href="#linear-gradient"></linearGradient><linearGradient id="linear-gradient-4" x1="1" y1="43.36" x2="87.61" y2="43.36" xlink:href="#linear-gradient"></linearGradient></defs><g id="Layer_2" data-name="Layer 2"><g id="Layer_1-2" data-name="Layer 1"><rect class="cls-1" x="2.29" y="129.19" width="37.08" height="52.47"></rect><line class="cls-2" x1="20.82" y1="164.61" x2="20.82" y2="176.53"></line><rect class="cls-3" x="39.62" y="108.4" width="37.08" height="52.47"></rect><rect class="cls-4" x="75.05" y="95.9" width="37.08" height="52.47"></rect><polygon class="cls-5" points="112.13 84.45 92.31 95.9 72.48 84.45 92.31 73 112.13 84.45"></polygon><polygon class="cls-5" points="92.31 118.79 72.48 107.34 72.48 84.45 92.31 95.9 92.31 118.79"></polygon><polygon class="cls-5" points="92.31 118.79 112.13 107.34 112.13 84.45 92.31 95.9 92.31 118.79"></polygon><polygon class="cls-5" points="77.55 104.17 57.72 115.61 37.9 104.17 57.72 92.72 77.55 104.17"></polygon><polygon class="cls-5" points="66.94 103.69 57.87 108.93 48.8 103.69 57.87 98.46 66.94 103.69"></polygon><polygon class="cls-5" points="57.72 138.51 37.9 127.06 37.9 104.17 57.72 115.61 57.72 138.51"></polygon><polygon class="cls-5" points="57.72 138.51 77.55 127.06 77.55 104.17 57.72 115.61 57.72 138.51"></polygon><line class="cls-6" x1="71.75" y1="107.52" x2="81.66" y2="101.79"></line><line class="cls-6" x1="37.12" y1="127.51" x2="47.04" y2="121.78"></line><polygon class="cls-5" points="40.65 125.47 20.83 136.92 1 125.47 20.83 114.02 40.65 125.47"></polygon><polygon class="cls-5" points="20.83 159.81 1 148.36 1 125.47 20.83 136.92 20.83 159.81"></polygon><polygon class="cls-5" points="20.83 159.81 40.65 148.36 40.65 125.47 20.83 136.92 20.83 159.81"></polygon><ellipse class="cls-6" cx="81.96" cy="101.62" rx="2.12" ry="3.68" transform="translate(-40.12 55.36) rotate(-30.36)"></ellipse><line class="cls-2" x1="57.72" y1="141.97" x2="57.72" y2="153.17"></line><line class="cls-2" x1="92.31" y1="123.34" x2="92.31" y2="133.45"></line><path class="cls-7" d="M87.61,20.73,78.72,15a7,7,0,0,0-2.65-1.08,12.24,12.24,0,0,0-7.91,1.91,23.71,23.71,0,0,0-3.24,2.3c0-.45,0-.9,0-1.34C65,2.61,54.78-3.07,42.6,4.11c-10.23,6-18.79,19.11-21.21,31.48A20.43,20.43,0,0,0,19,36.8C9,42.53,1,56.44,1,67.89,1,73,1.62,76.5,4.84,78.54l11.42,7.19,13.3-13.61,38.6-22.29c8-4.6,14.44-15.63,14.72-24.91Z"></path><path class="cls-8" d="M77.86,21.92a21.79,21.79,0,0,0-3.24,2.3c0-.45,0-.9,0-1.34,0-14.1-9.91-19.82-22.12-12.77-10.33,6-19,19.16-21.44,31.62a20.54,20.54,0,0,0-2.45,1.21c-9.91,5.73-18,19.64-18,31.09s8,16.08,18,10.36L77.86,56C86,51.27,92.6,39.83,92.6,30.43S86,17.22,77.86,21.92Z"></path><line class="cls-5" x1="57.47" y1="55.39" x2="57.47" y2="103.69"></line><ellipse class="cls-5" cx="35.91" cy="92.96" rx="5.27" ry="3.04" transform="translate(-62.55 77.58) rotate(-60)"></ellipse><ellipse class="cls-5" cx="57.69" cy="51.79" rx="4.36" ry="2.52" transform="translate(-16 75.86) rotate(-60)"></ellipse><g id="Offset_Group" data-name="Offset Group"><path class="cls-9" d="M41.11,43.25A29.82,29.82,0,0,1,51.49,32.61a18.83,18.83,0,0,1,9-2.66,15,15,0,0,1,7.37,1.73"></path><path class="cls-9" d="M45.41,45.8A24.78,24.78,0,0,1,54,36.94a13.84,13.84,0,0,1,6.64-2,10.1,10.1,0,0,1,4.94,1.14"></path></g><path class="cls-9" d="M49.72,48.34a19.78,19.78,0,0,1,6.77-7.07c2.61-1.51,5-1.69,6.74-.76"></path><g id="Offset_Group-2" data-name="Offset Group"><path class="cls-6" d="M41.11,43.25A29.82,29.82,0,0,1,51.49,32.61a18.83,18.83,0,0,1,9-2.66,15,15,0,0,1,7.37,1.73"></path><path class="cls-6" d="M45.41,45.8A24.78,24.78,0,0,1,54,36.94a13.84,13.84,0,0,1,6.64-2,10.1,10.1,0,0,1,4.94,1.14"></path></g><path class="cls-6" d="M49.72,48.34a19.78,19.78,0,0,1,6.77-7.07c2.61-1.51,5-1.69,6.74-.76"></path><path class="cls-6" d="M40.3,90.76l3.27-2.63a3.94,3.94,0,0,0,1.46-3V75.37"></path><ellipse class="cls-5" cx="76.98" cy="68.58" rx="4.55" ry="2.62" transform="translate(-20.9 100.96) rotate(-60)"></ellipse><path class="cls-6" d="M73.77,69.86l-2.9,2a1.77,1.77,0,0,1-2.76-1.47v-8.3"></path><line class="cls-6" x1="15.49" y1="77.32" x2="24.89" y2="71.89"></line><ellipse class="cls-6" cx="27.23" cy="70.54" rx="3" ry="1.73" transform="translate(-47.48 58.85) rotate(-60)"></ellipse><line class="cls-6" x1="87.61" y1="39.53" x2="78.99" y2="44.5"></line><ellipse class="cls-6" cx="76.65" cy="45.86" rx="2.82" ry="1.59" transform="translate(-6.07 79.55) rotate(-53.05)"></ellipse></g></g></svg> 