<?xml version="1.0" encoding="UTF-8"?> <svg xmlns="http://www.w3.org/2000/svg" xmlns:xlink="http://www.w3.org/1999/xlink" viewBox="0 0 187.68 211.88"><defs><style>.cls-1{fill:url(#linear-gradient);}.cls-2,.cls-6,.cls-7{fill:#fff;}.cls-10,.cls-2,.cls-3,.cls-4,.cls-5,.cls-6,.cls-8,.cls-9{stroke:#e76b15;stroke-width:2px;}.cls-2,.cls-4{stroke-linecap:round;}.cls-10,.cls-2,.cls-4,.cls-6,.cls-8,.cls-9{stroke-linejoin:round;}.cls-3,.cls-5{stroke-miterlimit:10;}.cls-3{fill:url(#linear-gradient-2);}.cls-4{fill:none;}.cls-5{fill:url(#linear-gradient-3);}.cls-8{fill:url(#linear-gradient-4);}.cls-9{fill:url(#linear-gradient-5);}.cls-10{fill:url(#linear-gradient-6);}.cls-11{fill:#e76b15;}</style><linearGradient id="linear-gradient" x1="96.86" y1="211.88" x2="96.86" y2="130.42" gradientUnits="userSpaceOnUse"><stop offset="0.04" stop-color="#e76b15" stop-opacity="0"></stop><stop offset="0.8" stop-color="#e76b15" stop-opacity="0.3"></stop></linearGradient><linearGradient id="linear-gradient-2" x1="9.09" y1="131.09" x2="186.68" y2="131.09" gradientUnits="userSpaceOnUse"><stop offset="0" stop-color="#fff"></stop><stop offset="1" stop-color="#f9dac5"></stop></linearGradient><linearGradient id="linear-gradient-3" x1="1" y1="39.35" x2="79.4" y2="39.35" gradientUnits="userSpaceOnUse"><stop offset="0" stop-color="#e76b15" stop-opacity="0"></stop><stop offset="1" stop-color="#e76b15" stop-opacity="0.3"></stop></linearGradient><linearGradient id="linear-gradient-4" x1="97.76" y1="85.58" x2="131.71" y2="85.58" gradientUnits="userSpaceOnUse"><stop offset="0" stop-color="#fff"></stop><stop offset="1" stop-color="#ffcba8"></stop></linearGradient><linearGradient id="linear-gradient-5" x1="123.87" y1="124.86" x2="144.31" y2="124.86" xlink:href="#linear-gradient-4"></linearGradient><linearGradient id="linear-gradient-6" x1="54.03" y1="124.5" x2="78.4" y2="124.5" xlink:href="#linear-gradient-4"></linearGradient></defs><g id="Layer_2" data-name="Layer 2"><g id="Layer_1-2" data-name="Layer 1"><path class="cls-1" d="M30.17,168.44l65.13-37.6a3.13,3.13,0,0,1,3.13,0l65.13,37.6a3.13,3.13,0,0,1,0,5.42l-65.13,37.6a3.13,3.13,0,0,1-3.13,0l-65.13-37.6A3.13,3.13,0,0,1,30.17,168.44Z"></path><path class="cls-2" d="M94.71,193.42a6.39,6.39,0,0,0,6.36,0l83.18-48.88a4.91,4.91,0,0,0,2.43-4.25V131.4l-17.47-.76L97.89,89.46,26.56,130.64H9.09v9.5a3.91,3.91,0,0,0,1.9,3.35Z"></path><path class="cls-3" d="M10.5,128.19,91.83,81.24a12.13,12.13,0,0,1,12.11,0l81.33,47a2.82,2.82,0,0,1,0,4.89l-84.2,48.62a6.34,6.34,0,0,1-6.36,0L10.5,133.08A2.82,2.82,0,0,1,10.5,128.19Z"></path><path class="cls-2" d="M24.38,128,94.11,87.71a7.54,7.54,0,0,1,7.55,0L171.4,128a2.94,2.94,0,0,1,0,5.09l-69.74,40.27a7.59,7.59,0,0,1-7.55,0L24.38,133.06A2.93,2.93,0,0,1,24.38,128Z"></path><polyline class="cls-4" points="87.01 114.64 51.53 136.46 63.82 143.4"></polyline><path class="cls-5" d="M79.4,18.86l-8.05-5.23a6.22,6.22,0,0,0-2.4-1,11.11,11.11,0,0,0-7.15,1.73,21,21,0,0,0-2.94,2.08c0-.41,0-.81,0-1.21,0-12.8-9.21-17.93-20.23-11.44-9.26,5.46-17,17.31-19.2,28.5a19.73,19.73,0,0,0-2.21,1.1C8.27,38.59,1,51.19,1,61.55c0,4.58,1.42,8,3.79,9.85h0c.46.37,10,6.29,10,6.29l12-12.32L61.8,45.2C69,41,74.87,31.05,75.12,22.65Z"></path><path class="cls-6" d="M70.75,20.2a20.44,20.44,0,0,0-2.93,2.09c0-.41,0-.81,0-1.22,0-12.76-9-17.94-20-11.55-9.35,5.4-17.21,17.34-19.41,28.61a19.86,19.86,0,0,0-2.21,1.11C17.22,44.42,10,57,10,67.37s7.27,14.56,16.25,9.38L70.75,51C78.12,46.77,84.1,36.42,84.1,27.91S78.12,16,70.75,20.2Z"></path><line class="cls-2" x1="52.3" y1="50.5" x2="52.3" y2="81.23"></line><ellipse class="cls-2" cx="52.3" cy="85.76" rx="4.77" ry="2.76" transform="translate(-48.12 88.17) rotate(-60)"></ellipse><ellipse class="cls-2" cx="52.3" cy="48.62" rx="2.95" ry="1.7" transform="translate(-15.96 69.6) rotate(-60)"></ellipse><ellipse class="cls-2" cx="33.54" cy="88.79" rx="4.77" ry="2.76" transform="translate(-60.13 73.44) rotate(-60)"></ellipse><g id="Offset_Group" data-name="Offset Group"><path class="cls-7" d="M38.29,39.17a23.4,23.4,0,0,1,8.19-8.35,16,16,0,0,1,7.68-2.24,13.38,13.38,0,0,1,6.56,1.55"></path><path class="cls-7" d="M42.6,41.72A18.4,18.4,0,0,1,49,35.15a11.07,11.07,0,0,1,5.27-1.57,8.45,8.45,0,0,1,4.13,1"></path></g><path class="cls-7" d="M46.9,44.26a13.42,13.42,0,0,1,4.58-4.78c1.77-1,3.38-1.14,4.56-.51"></path><g id="Offset_Group-2" data-name="Offset Group"><path class="cls-4" d="M38.29,39.17a23.4,23.4,0,0,1,8.19-8.35,16,16,0,0,1,7.68-2.24,13.38,13.38,0,0,1,6.56,1.55"></path><path class="cls-4" d="M42.6,41.72A18.4,18.4,0,0,1,49,35.15a11.07,11.07,0,0,1,5.27-1.57,8.45,8.45,0,0,1,4.13,1"></path></g><path class="cls-4" d="M46.9,44.26a13.42,13.42,0,0,1,4.58-4.78c1.77-1,3.38-1.14,4.56-.51"></path><polyline class="cls-4" points="36.76 85.76 41.03 82.31 41.03 68.19"></polyline><ellipse class="cls-2" cx="71.71" cy="62.71" rx="4.77" ry="2.76" transform="translate(-18.45 93.46) rotate(-60)"></ellipse><polyline class="cls-4" points="68.34 64.06 62.4 68.07 62.4 55.85"></polyline><path class="cls-8" d="M97.76,80.41c0,4.77,2.52,9.12,17,27.19,13.64-17.06,17-22.2,17-27.19C131.71,58,97.76,57.93,97.76,80.41Zm17,5.66a6.18,6.18,0,1,1,6.17-6.18A6.18,6.18,0,0,1,114.74,86.07Z"></path><path class="cls-9" d="M123.87,121.75c0,2.87,1.52,5.49,10.22,16.37,8.21-10.27,10.22-13.37,10.22-16.37C144.31,108.23,123.87,108.21,123.87,121.75Zm10.22,3.4a3.72,3.72,0,1,1,3.71-3.71A3.71,3.71,0,0,1,134.09,125.15Z"></path><polyline class="cls-2" points="67.49 103.63 87.66 114.86 100.94 122.26 112.2 115.76"></polyline><ellipse class="cls-2" cx="114.62" cy="114.49" rx="3.67" ry="2.12"></ellipse><ellipse class="cls-2" cx="133.93" cy="142.49" rx="3.67" ry="2.12"></ellipse><ellipse class="cls-2" cx="67.48" cy="145" rx="3.67" ry="2.12"></ellipse><ellipse class="cls-2" cx="106.3" cy="151.34" rx="3.67" ry="2.12"></ellipse><polyline class="cls-2" points="75.89 121.9 102.96 135.69 92.96 142.69 104.46 149.43"></polyline><line class="cls-2" x1="100.94" y1="122.26" x2="129.96" y2="140.69"></line><path class="cls-10" d="M54,120.79c0,3.42,1.81,6.55,12.18,19.51C76,128.06,78.4,124.37,78.4,120.79,78.4,104.68,54,104.65,54,120.79Zm12.18,4.06a4.43,4.43,0,1,1,4.43-4.43A4.43,4.43,0,0,1,66.21,124.85Z"></path><path class="cls-6" d="M139.89,63.45l3-1.94a2.39,2.39,0,0,1,.89-.36,4.11,4.11,0,0,1,2.65.64,8.65,8.65,0,0,1,1.09.77c0-.15,0-.3,0-.45,0-4.73,3.41-6.63,7.49-4.23a16.72,16.72,0,0,1,7.1,10.55,7,7,0,0,1,.82.41,13.28,13.28,0,0,1,6,10.41,4.48,4.48,0,0,1-1.4,3.65h0c-.18.14-3.71,2.33-3.71,2.33l-4.46-4.56L146.41,73.2a10.94,10.94,0,0,1-4.93-8.35Z"></path><path class="cls-6" d="M143.1,64a7.65,7.65,0,0,1,1.08.77c0-.15,0-.3,0-.45,0-4.73,3.32-6.64,7.41-4.28,3.47,2,6.37,6.42,7.19,10.6a6.85,6.85,0,0,1,.82.4,13.3,13.3,0,0,1,6,10.42c0,3.83-2.69,5.39-6,3.47L143.1,75.36a10.93,10.93,0,0,1-4.94-8.56C138.16,63.65,140.37,62.37,143.1,64Z"></path><polygon class="cls-11" points="154.72 74.63 153.73 74.06 153.73 72.91 154.72 73.49 154.72 74.63"></polygon><polygon class="cls-11" points="152.24 73.2 151.25 72.63 151.25 71.48 152.24 72.05 152.24 73.2"></polygon><path class="cls-11" d="M154.56,98.13h-1.67V96.47h1.67Zm0-3.33h-1.67V93.13h1.67Zm0-3.34h-1.67V89.79h1.67Zm0-3.34h-1.67V86.45h1.67Z"></path></g></g></svg> 