<?xml version="1.0" encoding="UTF-8"?> <svg xmlns="http://www.w3.org/2000/svg" xmlns:xlink="http://www.w3.org/1999/xlink" width="162.53" height="165.86" viewBox="0 0 162.53 165.86"><defs><style> .cls-1 { fill: url(#linear-gradient); } .cls-2, .cls-5 { fill: #fff; } .cls-2, .cls-3, .cls-5, .cls-7, .cls-8 { stroke: #e76b15; stroke-linejoin: round; } .cls-2, .cls-3, .cls-8 { stroke-linecap: round; } .cls-2, .cls-3, .cls-5, .cls-7 { stroke-width: 2px; } .cls-3, .cls-7, .cls-8 { fill: none; } .cls-4 { fill: #e76b15; } .cls-6 { fill: url(#linear-gradient-2); } .cls-8 { stroke-width: 3px; } </style><linearGradient id="linear-gradient" x1="51.95" y1="148.55" x2="51.95" y2="108.98" gradientUnits="userSpaceOnUse"><stop offset="0.24" stop-color="#e76b15" stop-opacity="0"></stop><stop offset="1" stop-color="#e76b15" stop-opacity="0.3"></stop></linearGradient><linearGradient id="linear-gradient-2" x1="101.29" y1="155.1" x2="101.29" y2="78.72" xlink:href="#linear-gradient"></linearGradient></defs><g id="Layer_2" data-name="Layer 2"><g id="Layer_1-2" data-name="Layer 1"><g><rect class="cls-1" x="39.47" y="108.98" width="24.96" height="39.57"></rect><g><polygon class="cls-2" points="73.45 112.18 53.9 123.47 53.9 112.18 73.45 100.89 73.45 112.18"></polygon><polygon class="cls-2" points="34.35 112.18 53.9 123.47 53.9 112.18 34.35 100.89 34.35 112.18"></polygon><polygon class="cls-2" points="53.9 112.18 73.45 100.89 53.9 89.61 34.35 100.89 53.9 112.18"></polygon></g><polygon class="cls-2" points="62.88 101.35 53.9 106.54 53.9 39.49 62.88 34.3 62.88 101.35"></polygon><g><polygon class="cls-2" points="44.7 101.35 53.69 106.54 53.69 39.49 44.7 34.3 44.7 101.35"></polygon><polyline class="cls-3" points="53.69 106.54 44.7 90.5 53.69 95.69 44.7 79.16 53.69 84.35 44.7 67.82 53.69 73.01"></polyline><polyline class="cls-3" points="53.69 73.01 44.7 56.97 53.69 62.16 44.7 45.64 53.69 50.83 44.7 34.3 53.69 39.49"></polyline></g><g><path class="cls-4" d="M149.58,156.34h-2v-2h2Zm0-4h-2v-2h2Zm0-4h-2v-2h2Z"></path><line class="cls-2" x1="148.58" y1="125.99" x2="148.58" y2="142.89"></line><polyline class="cls-3" points="143.22 130.11 148.58 124.75 153.93 130.11"></polyline></g><g><path class="cls-4" d="M26.52,116.69h-2v-2h2Zm0-4h-2v-2h2Zm0-4h-2v-2h2Z"></path><line class="cls-2" x1="25.52" y1="86.34" x2="25.52" y2="103.24"></line><polyline class="cls-3" points="20.16 90.46 25.52 85.1 30.88 90.46"></polyline></g><g><polygon class="cls-5" points="132.7 120.21 59.59 162.42 59.59 95.57 133.15 53.1 132.7 120.21"></polygon><polygon class="cls-5" points="137.62 122.64 64.51 164.86 64.51 98 138.07 55.53 137.62 122.64"></polygon><polygon class="cls-6" points="70.15 155.1 70.15 114.67 132.43 78.72 132.43 119 70.15 155.1"></polygon><line class="cls-7" x1="64.51" y1="112.27" x2="138.07" y2="69.8"></line><ellipse class="cls-4" cx="84.88" cy="93.71" rx="2.93" ry="1.69" transform="translate(-38.71 120.37) rotate(-60)"></ellipse><ellipse class="cls-4" cx="78.67" cy="97.3" rx="2.93" ry="1.69" transform="translate(-44.93 116.78) rotate(-60)"></ellipse><ellipse class="cls-4" cx="72.45" cy="100.89" rx="2.93" ry="1.69" transform="translate(-51.15 113.19) rotate(-60)"></ellipse><polyline class="cls-8" points="85.94 112.18 95.74 119.21 88.21 132.9"></polyline><line class="cls-8" x1="100.69" y1="128.1" x2="115.12" y2="119.44"></line><polygon class="cls-5" points="64.51 164.86 59.59 162.42 59.59 95.57 133.15 53.1 138.07 55.53 64.51 98 64.51 164.86"></polygon></g><g><polygon class="cls-2" points="118.07 100.68 107.4 106.84 107.4 94.52 118.07 88.36 118.07 100.68"></polygon><polygon class="cls-2" points="96.73 100.68 107.4 106.84 107.4 94.52 96.73 88.36 96.73 100.68"></polygon><polygon class="cls-2" points="107.4 94.52 118.07 88.36 107.4 82.19 96.73 88.36 107.4 94.52"></polygon></g><g><path class="cls-4" d="M39.19,164.65h-2v-2h2Zm0-4h-2v-2h2Zm0-4h-2v-2h2Z"></path><line class="cls-2" x1="38.2" y1="134.3" x2="38.2" y2="151.2"></line><polyline class="cls-3" points="32.84 138.42 38.2 133.06 43.55 138.42"></polyline></g><polygon class="cls-2" points="111.6 59.76 111.6 67.02 100.58 66.12 31.16 26.04 31.16 21.65 42.18 19.67 111.6 59.76"></polygon><polygon class="cls-2" points="111.6 55.37 111.6 62.63 100.58 61.73 31.16 21.65 42.18 15.28 111.6 55.37"></polygon><line class="cls-3" x1="107.4" y1="67.82" x2="107.4" y2="87.18"></line><polyline class="cls-3" points="31.16 21.65 55.34 1 100.58 61.73"></polyline><polyline class="cls-3" points="42.18 15.28 55.34 1 111.6 54.81"></polyline><line class="cls-3" x1="100.58" y1="61.73" x2="111.6" y2="55.37"></line><line class="cls-3" x1="46.51" y1="29.81" x2="56.43" y2="24.09"></line><line class="cls-3" x1="55.19" y1="35.61" x2="65.87" y2="29.44"></line><line class="cls-3" x1="55.34" y1="1" x2="55.34" y2="29.44"></line><path class="cls-3" d="M30,143c-17.7-4.64-29-11.65-29-19.48,0-5.35,5.27-10.32,14.27-14.41"></path><path class="cls-3" d="M45.78,146.26a232.44,232.44,0,0,0,35.48,2.6,228.48,228.48,0,0,0,37.77-3A137.27,137.27,0,0,0,139.5,141l1.23-.42"></path><path class="cls-3" d="M142.29,107.08c12,4.43,19.24,10.17,19.24,16.45,0,2.56-1.21,5-3.44,7.36"></path></g></g></g></svg> 