<?xml version="1.0" encoding="UTF-8"?> <svg xmlns="http://www.w3.org/2000/svg" xmlns:xlink="http://www.w3.org/1999/xlink" width="169.3" height="157.9" viewBox="0 0 169.3 157.9"><defs><style> .cls-1 { fill: #fff; } .cls-1, .cls-2, .cls-4 { stroke: #e76b15; stroke-linejoin: round; stroke-width: 2px; } .cls-2 { fill: url(#linear-gradient); } .cls-3 { opacity: 0.2; fill: url(#linear-gradient-2); } .cls-4 { fill: none; } .cls-5 { fill: #e76b15; } </style><linearGradient id="linear-gradient" x1="58.64" y1="52.11" x2="105.64" y2="52.11" gradientUnits="userSpaceOnUse"><stop offset="0" stop-color="#e76b15" stop-opacity="0"></stop><stop offset="1" stop-color="#e76b15" stop-opacity="0.3"></stop></linearGradient><linearGradient id="linear-gradient-2" x1="-1839.84" y1="2216.74" x2="-1839.84" y2="2242.65" gradientTransform="matrix(-0.87, 0.5, 0, -1.15, -1511.42, 3594.34)" gradientUnits="userSpaceOnUse"><stop offset="0.27" stop-color="#fff"></stop><stop offset="0.33" stop-color="#fef9f6"></stop><stop offset="0.44" stop-color="#fceade"></stop><stop offset="0.58" stop-color="#f8d1b6"></stop><stop offset="0.74" stop-color="#f2ae7f"></stop><stop offset="0.91" stop-color="#eb823a"></stop><stop offset="1" stop-color="#e76b15"></stop></linearGradient></defs><g id="Layer_2" data-name="Layer 2"><g id="Layer_1-2" data-name="Layer 1"><g><path class="cls-1" d="M31.59,118.45h0c-1-.6-2.41-.52-4,.37a9.74,9.74,0,0,0-2.47,2.11c0-.11,0-.23,0-.34a10.79,10.79,0,0,0-.15-1.76l2.66-.92-5-2.89h0c-1.56-.89-3.7-.76-6.07.61-4.07,2.35-7.47,7.59-8.36,12.5a8.36,8.36,0,0,0-.8.39A14.19,14.19,0,0,0,1,139.63c0,2.05.72,3.49,1.89,4.16h0l5,2.89,1.79-4.19-.44-.23,18.35-10.6a12.43,12.43,0,0,0,5.31-7.58l1.29.29,2.06-3.21Z"></path><path class="cls-1" d="M32.67,121.71a9.86,9.86,0,0,0-2.47,2.1c0-.11,0-.22,0-.33,0-5.48-3.84-7.7-8.59-5-4.08,2.35-7.48,7.59-8.37,12.49a8.39,8.39,0,0,0-.79.4A14.2,14.2,0,0,0,6,142.52c0,4.09,2.88,5.75,6.42,3.7l20.21-11.67a12.28,12.28,0,0,0,5.57-9.63C38.24,121.37,35.75,119.93,32.67,121.71Z"></path><g><g><path class="cls-1" d="M127.3,25.59l-11.09-7.2a8.54,8.54,0,0,0-3.31-1.34c-2.84-.45-6.22.28-9.85,2.37a29.24,29.24,0,0,0-4,2.87c0-.56,0-1.12,0-1.67C99.05,3,86.37-4.07,71.19,4.87,58.44,12.39,47.76,28.7,44.76,44.11a27.14,27.14,0,0,0-3.06,1.52C29.35,52.76,19.33,70.11,19.33,84.38c0,6.31,2,11,5.22,13.56h0l0,0a11.16,11.16,0,0,0,2.05,1.28l10.23,6.43,18.09-16,48.11-27.78c9.93-5.73,18-19.49,18.35-31.06Z"></path><path class="cls-1" d="M112.52,25.52a28.27,28.27,0,0,0-4,2.87c0-.56,0-1.12,0-1.67C108.51,9.14,96.17,2,80.94,10.8,68.06,18.24,57.25,34.68,54.22,50.21a26.22,26.22,0,0,0-3,1.52C38.81,58.86,28.8,76.21,28.8,90.47s10,20,22.37,12.92L112.52,68c10.15-5.86,18.38-20.11,18.38-31.83S122.67,19.66,112.52,25.52Z"></path></g><g><path class="cls-1" d="M122.15,103.44l4.74-3.07a3.64,3.64,0,0,1,1.41-.58,6.5,6.5,0,0,1,4.21,1,12.35,12.35,0,0,1,1.73,1.22c0-.24,0-.47,0-.71,0-7.53,5.43-10.56,11.91-6.73,5.45,3.21,10,10.18,11.3,16.77a10.61,10.61,0,0,1,1.31.65c5.28,3,9.56,10.47,9.56,16.56,0,2.7-.84,4.69-2.23,5.8h0c-.27.22-5.89,3.7-5.89,3.7l-7.09-7.25L132.51,119c-4.24-2.45-7.69-8.33-7.84-13.27Z"></path><path class="cls-1" d="M127.24,104.24a12.35,12.35,0,0,1,1.73,1.22c0-.24,0-.48,0-.71,0-7.52,5.27-10.56,11.78-6.81,5.51,3.18,10.13,10.21,11.42,16.85a10.61,10.61,0,0,1,1.31.65c5.28,3,9.56,10.46,9.56,16.56s-4.28,8.57-9.56,5.52l-26.23-15.14c-4.34-2.5-7.85-8.6-7.85-13.61S122.9,101.73,127.24,104.24Z"></path></g><path class="cls-2" d="M105.64,44V33.07l-5.45,3.15a12.67,12.67,0,0,0-1.94-4.28l3.86-6.68-6.7-3.87-3.86,6.69a12.68,12.68,0,0,0-4.68.45V22.24L77.41,27.7V34a39.52,39.52,0,0,0-4.68,5l-3.86-2.23L62.18,48.31,66,50.54a38.27,38.27,0,0,0-2,6.53l-5.45,3.14V71.14L64.09,68a12.68,12.68,0,0,0,2,4.28L62.18,79l6.69,3.86,3.86-6.68a13.07,13.07,0,0,0,4.68-.45V82l9.46-5.47V70.22a37.4,37.4,0,0,0,4.68-5l3.86,2.23,6.7-11.59-3.86-2.23a38.22,38.22,0,0,0,1.94-6.53ZM82.14,63.62c-5.51,3.18-10,.6-10-5.76s4.46-14.09,10-17.27,10-.6,10,5.76S87.65,60.44,82.14,63.62Z"></path><path class="cls-3" d="M63.58,97.26l36.7-23v28.17l-36.7,23Z"></path><g><path class="cls-4" d="M72.32,91.11v23.34A8.32,8.32,0,0,1,68.55,121l-6.72,3.88"></path><ellipse class="cls-1" cx="61.83" cy="124.85" rx="3.77" ry="2.17" transform="translate(-77.2 115.97) rotate(-60)"></ellipse><path class="cls-4" d="M93.69,79.1v22.37c0,2.41,1.68,3.38,3.76,2.18l6.72-3.88"></path><ellipse class="cls-1" cx="104.17" cy="99.77" rx="3.77" ry="2.17" transform="translate(-34.32 140.1) rotate(-60)"></ellipse><ellipse class="cls-1" cx="83.71" cy="137.29" rx="3.77" ry="2.17" transform="translate(-77.04 141.14) rotate(-60)"></ellipse><line class="cls-1" x1="83.71" y1="84.85" x2="83.71" y2="134.21"></line></g><path class="cls-5" d="M82.8,157.9v-1.83h1.83v1.83Zm0-4.56v-1.82h1.83v1.82Zm0-4.56V147h1.83v1.82Z"></path><path class="cls-5" d="M145.73,121.23l-1.58-.91v-1.83l1.58.91ZM141.78,119,140.2,118v-1.83l1.58.92Zm-3.95-2.28-1.57-.91v-1.82l1.57.91Z"></path><path class="cls-5" d="M18,135.33l1.58-.91V132.6l-1.58.91ZM22,133.06l1.57-.92v-1.82l-1.57.91Zm3.94-2.28,1.58-.91V128l-1.58.91Z"></path><path class="cls-5" d="M77.41,55.75,79,54.84V53l-1.57.91Zm3.94-2.28,1.58-.91V50.74l-1.58.91Zm4-2.27,1.58-.92V48.46l-1.58.91Z"></path></g></g></g></g></svg> 