<?xml version="1.0" encoding="UTF-8"?> <svg xmlns="http://www.w3.org/2000/svg" xmlns:xlink="http://www.w3.org/1999/xlink" viewBox="0 0 157.92 131.46"><defs><style>.l{fill:url(#d);}.m{fill:url(#f);}.n{fill:url(#i);}.o{fill:url(#h);}.p{fill:url(#k);}.q{fill:url(#j);}.r,.s{fill:#e76b15;}.t{fill:#fff;}.t,.s,.u{stroke-linecap:round;}.t,.s,.u,.v,.w{stroke:#e76b15;stroke-width:2px;}.t,.s,.u,.w{stroke-linejoin:round;}.u{fill:none;}.v{fill:url(#e);stroke-miterlimit:10;}.w{fill:url(#g);}</style><linearGradient id="d" x1="78.96" y1="131.46" x2="78.96" y2="59.94" gradientTransform="matrix(1, 0, 0, 1, 0, 0)" gradientUnits="userSpaceOnUse"><stop offset=".04" stop-color="#e76b15" stop-opacity="0"></stop><stop offset=".8" stop-color="#e76b15" stop-opacity=".3"></stop></linearGradient><linearGradient id="e" x1="1" y1="60.53" x2="156.92" y2="60.53" gradientTransform="matrix(1, 0, 0, 1, 0, 0)" gradientUnits="userSpaceOnUse"><stop offset="0" stop-color="#fff"></stop><stop offset="1" stop-color="#f9dac5"></stop></linearGradient><linearGradient id="f" x1="27.45" y1="60.53" x2="44.94" y2="60.53" gradientTransform="matrix(1, 0, 0, 1, 0, 0)" gradientUnits="userSpaceOnUse"><stop offset="0" stop-color="#e76b15" stop-opacity="0"></stop><stop offset="1" stop-color="#e76b15" stop-opacity=".3"></stop></linearGradient><linearGradient id="g" x1="106.85" y1="23.16" x2="132.59" y2="23.16" gradientTransform="matrix(1, 0, 0, 1, 0, 0)" gradientUnits="userSpaceOnUse"><stop offset="0" stop-color="#fff"></stop><stop offset="1" stop-color="#ffcba8"></stop></linearGradient><linearGradient id="h" x1="69.04" y1="139.42" x2="69.04" y2="119.53" gradientTransform="translate(0 159.38) scale(1 -1)" xlink:href="#d"></linearGradient><linearGradient id="i" x1="36.2" y1="109.46" x2="36.2" y2="97.06" gradientTransform="translate(0 159.38) scale(1 -1)" xlink:href="#d"></linearGradient><linearGradient id="j" x1="119.72" y1="120.73" x2="119.72" y2="100.83" gradientTransform="translate(0 159.38) scale(1 -1)" xlink:href="#d"></linearGradient><linearGradient id="k" x1="81" y1="92.09" x2="81" y2="72.19" gradientTransform="translate(0 159.38) scale(1 -1)" xlink:href="#d"></linearGradient></defs><g id="a"></g><g id="b"><g id="c"><g><line class="u" x1="9.73" y1="10.9" x2="23.35" y2="3.13"></line><line class="u" x1="9.73" y1="15.85" x2="23.35" y2="8.08"></line><line class="u" x1="9.73" y1="20.81" x2="17.77" y2="16.16"></line></g><path class="l" d="M20.41,93.32l57.18-33.01c.85-.49,1.9-.49,2.75,0l57.18,33.01c1.83,1.06,1.83,3.7,0,4.76l-57.18,33.01c-.85,.49-1.9,.49-2.75,0L20.41,98.08c-1.83-1.06-1.83-3.7,0-4.76Z"></path><path class="t" d="M76.17,115.25c1.73,1,3.86,1,5.58,0l73.04-42.91c1.32-.78,2.14-2.2,2.14-3.73v-7.81l-15.34-.67L78.96,23.98,16.34,60.13H1v8.34c0,1.21,.63,2.32,1.67,2.94l73.5,43.84Z"></path><path class="v" d="M2.24,57.99L73.65,16.77c3.29-1.9,7.34-1.9,10.63,0l71.41,41.22c1.65,.95,1.65,3.34,0,4.29l-73.93,42.68c-1.73,1-3.86,1-5.58,0L2.24,62.28c-1.65-.95-1.65-3.34,0-4.29Z"></path><path class="t" d="M14.42,57.79L75.65,22.45c2.05-1.18,4.58-1.18,6.63,0l61.23,35.34c1.72,.99,1.72,3.48,0,4.48l-61.23,35.35c-2.05,1.18-4.58,1.18-6.63,0L14.42,62.26c-1.72-.99-1.72-3.48,0-4.48Z"></path><path class="u" d="M33.54,59.32l45.39,26.21c1.51,.87,3.98,.87,5.49,0l16.91-9.76c1.84-1.06,1.84-2.8,0-3.86l-41.45-23.93c-1.84-1.06-1.84-2.8,0-3.86l16.91-9.76c1.51-.87,3.98-.87,5.49,0l36.17,20.88"></path><ellipse class="t" cx="69.04" cy="38.16" rx="4.51" ry="2.6"></ellipse><ellipse class="t" cx="119.35" cy="56.08" rx="4.51" ry="2.6"></ellipse><ellipse class="t" cx="81" cy="84.89" rx="4.51" ry="2.6"></ellipse><ellipse class="t" cx="36.2" cy="60.03" rx="4.51" ry="2.6"></ellipse><ellipse class="t" cx="81.99" cy="59.69" rx="4.51" ry="2.6"></ellipse><ellipse class="m" cx="36.2" cy="60.53" rx="8.75" ry="5.53"></ellipse><g><polyline class="t" points="81 42.27 92.97 49.17 81 56.08 69.04 49.17 81 42.27"></polyline><polygon class="t" points="81 69.9 69.04 62.99 69.04 49.17 81 56.08 81 69.9"></polygon><polygon class="t" points="81 69.9 92.97 62.99 92.97 49.17 81 56.08 81 69.9"></polygon></g><g><polyline class="t" points="69.04 1 81 7.91 69.04 14.81 57.08 7.91 69.04 1"></polyline><polygon class="t" points="69.04 28.63 57.08 21.72 57.08 7.91 69.04 14.81 69.04 28.63"></polygon><polygon class="t" points="69.04 28.63 81 21.72 81 7.91 69.04 14.81 69.04 28.63"></polygon></g><path class="w" d="M106.85,19.24c0,3.62,1.91,6.92,12.87,20.61,10.34-12.93,12.87-16.83,12.87-20.61,0-17.02-25.74-17.04-25.74,0Zm12.87,4.29c-2.59,0-4.68-2.1-4.68-4.68s2.1-4.68,4.68-4.68,4.68,2.1,4.68,4.68-2.1,4.68-4.68,4.68Z"></path><g><path class="s" d="M21.2,42.06v4.69c0,2.13,1.4,4.25,4.21,5.87,5.62,3.24,14.73,3.24,20.34,0,2.81-1.62,4.21-3.75,4.21-5.87v-4.69"></path><ellipse class="t" cx="35.69" cy="40.92" rx="14.49" ry="8.36"></ellipse><polygon class="r" points="27.62 41.56 42.61 44.25 37.95 35.59 35.54 40.17 27.62 41.56"></polygon></g><rect class="o" x="65.52" y="19.96" width="7.04" height="19.9"></rect><rect class="n" x="32.68" y="49.92" width="7.04" height="12.41"></rect><rect class="q" x="116.2" y="38.65" width="7.04" height="19.9"></rect><rect class="r" x="67.95" y="30.9" width="2.17" height="2.17"></rect><rect class="p" x="77.48" y="67.29" width="7.04" height="19.9"></rect><g><rect class="r" x="79.92" y="72.31" width="2.17" height="2.17"></rect><rect class="r" x="79.92" y="77.55" width="2.17" height="2.17"></rect></g><g><rect class="r" x="118.63" y="43.81" width="2.17" height="2.17"></rect><rect class="r" x="118.63" y="49.05" width="2.17" height="2.17"></rect></g></g></g></svg> 