<?xml version="1.0" encoding="UTF-8"?> <svg xmlns="http://www.w3.org/2000/svg" xmlns:xlink="http://www.w3.org/1999/xlink" viewBox="0 0 172 172"><defs><style>.j{fill:url(#c);}.k,.l{fill:#e76b15;}.m{fill:#fff;}.m,.l,.n,.o{stroke-linecap:round;stroke-linejoin:round;stroke-width:2px;}.m,.l,.o{stroke:#e76b15;}.n{stroke:#fff;}.n,.o{fill:none;}</style><linearGradient id="c" x1="85.67" y1="164.13" x2="85.67" y2="63.08" gradientTransform="matrix(1, 0, 0, 1, 0, 0)" gradientUnits="userSpaceOnUse"><stop offset=".04" stop-color="#e76b15" stop-opacity="0"></stop><stop offset=".8" stop-color="#e76b15" stop-opacity=".3"></stop></linearGradient></defs><g id="a"></g><g id="b"><g></g><g><line class="o" x1="68.93" y1="26.02" x2="88.79" y2="14.69"></line><line class="o" x1="68.93" y1="33.25" x2="88.79" y2="21.91"></line><line class="o" x1="69.06" y1="39.77" x2="84.57" y2="30.82"></line></g><path class="j" d="M2.93,110.24L83.73,63.6c1.2-.69,2.68-.69,3.88,0l80.8,46.64c2.59,1.49,2.59,5.23,0,6.72l-80.8,46.65c-1.2,.69-2.68,.69-3.88,0L2.93,116.97c-2.59-1.49-2.59-5.23,0-6.72Z"></path><g></g><g><g><polyline class="m" points="84.6 54.78 100.28 63.83 84.6 72.88 68.93 63.83 84.6 54.78"></polyline><polygon class="m" points="84.6 89.16 68.93 80.11 68.93 63.83 84.6 72.88 84.6 89.16"></polygon><polygon class="m" points="84.6 89.16 100.28 80.11 100.28 63.83 84.6 72.88 84.6 89.16"></polygon></g><g><polyline class="m" points="109.44 43.17 125.11 52.22 109.44 61.27 93.76 52.22 109.44 43.17"></polyline><polygon class="m" points="109.44 103.62 93.76 94.57 93.76 52.22 109.44 61.27 109.44 103.62"></polygon><polygon class="m" points="109.44 103.62 125.11 94.57 125.11 52.22 109.44 61.27 109.44 103.62"></polygon></g><g><polyline class="l" points="135.4 31.45 151.08 40.5 135.4 49.55 119.73 40.5 135.4 31.45"></polyline><polygon class="m" points="135.4 118.15 119.73 109.1 119.73 40.5 135.4 49.55 135.4 118.15"></polygon><polygon class="m" points="135.4 118.15 151.08 109.1 151.08 40.5 135.4 49.55 135.4 118.15"></polygon></g></g><g><polyline class="o" points="6.87 85.8 21.33 54.51 43.48 62.19 56.92 29.27"></polyline><g><ellipse class="m" cx="6.87" cy="85.8" rx="4.47" ry="2.58" transform="translate(-70.87 48.85) rotate(-60)"></ellipse><ellipse class="m" cx="21.12" cy="56.17" rx="4.47" ry="2.58" transform="translate(-38.08 46.38) rotate(-60)"></ellipse><ellipse class="m" cx="43.36" cy="60.93" rx="4.47" ry="2.58" transform="translate(-31.09 68.02) rotate(-60)"></ellipse><polyline class="o" points="50.89 30.34 56.96 28.12 58.26 34.77"></polyline></g></g><g><polygon class="k" points="21.86 112.01 19.31 113.48 16.77 112.01 19.31 110.54 21.86 112.01"></polygon><polygon class="k" points="27.18 115.08 24.64 116.55 22.09 115.08 24.64 113.61 27.18 115.08"></polygon><polygon class="k" points="32.51 118.15 29.96 119.62 27.41 118.15 29.96 116.68 32.51 118.15"></polygon></g><g><polygon class="k" points="147.48 121.18 144.94 119.71 142.39 121.18 144.94 122.65 147.48 121.18"></polygon><polygon class="k" points="152.81 118.11 150.26 116.63 147.71 118.11 150.26 119.58 152.81 118.11"></polygon><polygon class="k" points="158.13 115.03 155.58 113.56 153.03 115.03 155.58 116.5 158.13 115.03"></polygon></g><g><path class="m" d="M50.48,116.73v8.58c.38,3.5,2.88,6.93,7.51,9.6,10.08,5.82,26.41,5.82,36.49,0,5.29-3.05,7.8-7.1,7.54-11.1v-7.12"></path><ellipse class="m" cx="76.23" cy="115.19" rx="25.8" ry="14.9"></ellipse><path class="m" d="M76.23,115.19l18.25,10.53c-10.01,5.78-26.48,5.78-36.49,0s-10.01-15.29,0-21.07c10.01-5.78,26.48-5.78,36.49,0,4.17,2.41,6.79,5.58,7.41,8.97l-25.66,1.57Z"></path><path class="m" d="M94.48,125.73v0Z"></path></g><line class="n" x1="27.33" y1="107.01" x2="43.6" y2="97.62"></line><line class="n" x1="49.11" y1="94.44" x2="55.84" y2="90.55"></line><line class="n" x1="101.6" y1="144.87" x2="130.85" y2="127.99"></line></g><g id="d"><g id="e"></g></g><g id="f"><g id="g"></g><g id="h"></g></g><g id="i"></g></svg> 