<?xml version="1.0" encoding="UTF-8"?> <svg xmlns="http://www.w3.org/2000/svg" xmlns:xlink="http://www.w3.org/1999/xlink" viewBox="0 0 172 172"><defs><style>.o{fill:url(#e);}.p{fill:url(#d);}.q{fill:url(#g);}.r{fill:url(#f);}.s{fill:url(#h);}.t{fill:url(#c);}.u,.v{stroke-linecap:round;}.u,.v,.w{stroke:#e76b15;stroke-linejoin:round;stroke-width:2px;}.u,.w{fill:#fff;}.v{fill:none;}.w{stroke-dasharray:0 0 2 4;}</style><linearGradient id="c" x1="23.87" y1="71.7" x2="23.87" y2="34.15" gradientTransform="matrix(1, 0, 0, 1, 0, 0)" gradientUnits="userSpaceOnUse"><stop offset="0" stop-color="#e76b15" stop-opacity="0"></stop><stop offset="1" stop-color="#e76b15" stop-opacity=".3"></stop></linearGradient><linearGradient id="d" x1="152.26" x2="152.26" xlink:href="#c"></linearGradient><linearGradient id="e" x1="89.43" y1="152.32" x2="89.43" y2="51.27" gradientTransform="matrix(1, 0, 0, 1, 0, 0)" gradientUnits="userSpaceOnUse"><stop offset=".04" stop-color="#e76b15" stop-opacity="0"></stop><stop offset=".8" stop-color="#e76b15" stop-opacity=".3"></stop></linearGradient><linearGradient id="f" x1="34.75" y1="98.84" x2="136.79" y2="98.84" xlink:href="#c"></linearGradient><linearGradient id="g" y1="166.2" y2="128.65" xlink:href="#c"></linearGradient><linearGradient id="h" x1="152.26" y1="166.2" x2="152.26" y2="128.65" xlink:href="#c"></linearGradient></defs><g id="a"></g><g id="b"><g><rect class="t" x="17.18" y="34.15" width="13.39" height="37.55"></rect><g><polyline class="u" points="23.72 13.68 36.82 21.24 23.72 28.8 10.63 21.24 23.72 13.68"></polyline><polygon class="u" points="23.72 43.92 10.63 36.36 10.63 21.24 23.72 28.8 23.72 43.92"></polygon><polygon class="u" points="23.72 43.92 36.82 36.36 36.82 21.24 23.72 28.8 23.72 43.92"></polygon></g><line class="w" x1="23.72" y1="48.7" x2="23.72" y2="63.12"></line></g><g><rect class="p" x="145.56" y="34.15" width="13.39" height="37.55"></rect><g><polyline class="u" points="152.11 13.68 165.2 21.24 152.11 28.8 139.01 21.24 152.11 13.68"></polyline><polygon class="u" points="152.11 43.92 139.01 36.36 139.01 21.24 152.11 28.8 152.11 43.92"></polygon><polygon class="u" points="152.11 43.92 165.2 36.36 165.2 21.24 152.11 28.8 152.11 43.92"></polygon></g><line class="w" x1="152.11" y1="48.7" x2="152.11" y2="63.12"></line></g><path class="o" d="M6.7,98.43L87.49,51.79c1.2-.69,2.68-.69,3.88,0l80.8,46.64c2.59,1.49,2.59,5.23,0,6.72l-80.8,46.65c-1.2,.69-2.68,.69-3.88,0L6.7,105.16c-2.59-1.49-2.59-5.23,0-6.72Z"></path><g><path class="r" d="M132,122.72l-37.52,1.54,2.67-21.66,7.92,6.23c8.79-5.81,8.4-14.64-1.19-20.17s-26.23-5.78-36.23,0c-10,5.77-10,15.14,0,20.92,3.16,1.82,6.93,3.07,10.93,3.74l-3.16,14.7c-9.64-1.15-18.65-3.9-25.81-8.03-19.83-11.45-19.83-30.29,0-41.74,19.83-11.45,52.47-11.45,72.3,0,19.32,11.15,19.81,29.32,1.49,40.84l8.59,3.64Z"></path><path class="u" d="M130.56,94.26c.66-.51,1.28-1.04,1.88-1.58,6.35-5.73,8.93-12.51,7.73-19.09-1.18-6.49-6.04-12.79-14.58-17.72-19.83-11.45-52.47-11.45-72.31,0-8.53,4.93-13.4,11.23-14.58,17.72-1.57,8.58,3.29,17.5,14.58,24.02,7.16,4.13,16.17,6.88,25.81,8.03l3.17-14.7c-.44-.07-.87-.15-1.3-.24-3.52-.71-6.82-1.88-9.63-3.5-6.4-3.7-8.7-8.86-6.92-13.61,1.01-2.68,3.31-5.23,6.91-7.31,10.01-5.78,26.23-5.78,36.24,0,3.6,2.08,5.9,4.62,6.91,7.29,1.68,4.44-.23,9.25-5.73,12.88l-7.92-6.23-1.89,15.34-.78,6.33,37.53-1.54"></path><path class="u" d="M135.66,94.05l-37.52,1.54,2.67-21.66,7.92,6.23c8.79-5.81,8.4-14.64-1.19-20.17s-26.23-5.78-36.23,0c-10,5.77-10,15.14,0,20.92,3.16,1.82,6.93,3.07,10.93,3.74l-3.16,14.7c-9.64-1.15-18.65-3.9-25.81-8.03-19.83-11.45-19.83-30.29,0-41.74,19.83-11.45,52.47-11.45,72.3,0,19.32,11.15,19.81,29.32,1.49,40.84l8.59,3.64Z"></path><line class="v" x1="79.09" y1="99.35" x2="79.09" y2="105.65"></line><line class="v" x1="82.25" y1="84.64" x2="82.25" y2="90.94"></line><line class="v" x1="98.14" y1="95.59" x2="98.14" y2="101.86"></line><line class="v" x1="135.66" y1="94.05" x2="135.66" y2="100.35"></line></g><g><rect class="q" x="17.18" y="128.65" width="13.39" height="37.55"></rect><g><polyline class="u" points="23.72 108.18 36.82 115.74 23.72 123.3 10.63 115.74 23.72 108.18"></polyline><polygon class="u" points="23.72 138.42 10.63 130.86 10.63 115.74 23.72 123.3 23.72 138.42"></polygon><polygon class="u" points="23.72 138.42 36.82 130.86 36.82 115.74 23.72 123.3 23.72 138.42"></polygon></g><line class="w" x1="23.72" y1="143.19" x2="23.72" y2="157.62"></line></g><g><rect class="s" x="145.56" y="128.65" width="13.39" height="37.55"></rect><g><polyline class="u" points="152.11 108.18 165.2 115.74 152.11 123.3 139.01 115.74 152.11 108.18"></polyline><polygon class="u" points="152.11 138.42 139.01 130.86 139.01 115.74 152.11 123.3 152.11 138.42"></polygon><polygon class="u" points="152.11 138.42 165.2 130.86 165.2 115.74 152.11 123.3 152.11 138.42"></polygon></g><line class="w" x1="152.11" y1="143.19" x2="152.11" y2="157.62"></line></g></g><g id="i"><g id="j"></g></g><g id="k"><g id="l"></g><g id="m"></g></g><g id="n"></g></svg> 