<?xml version="1.0" encoding="UTF-8"?> <svg xmlns="http://www.w3.org/2000/svg" xmlns:xlink="http://www.w3.org/1999/xlink" viewBox="0 0 161.91 164.62"><defs><style>.j{fill:url(#d);}.k{fill:url(#g);}.l{fill:url(#f);}.m{fill:url(#i);}.n,.o{fill:#e76b15;}.p,.o,.q{stroke-linecap:round;}.p,.o,.q,.r,.s,.t,.u,.v,.w{stroke-width:2px;}.p,.o,.q,.s,.t,.u,.v,.w{stroke:#e76b15;stroke-linejoin:round;}.p,.s,.t{fill:#fff;}.q,.r,.w{fill:none;}.r{stroke:#fff;stroke-miterlimit:10;}.s{stroke-dasharray:0 0 2 4;}.u{fill:url(#e);}.v{fill:url(#h);}</style><linearGradient id="d" x1="102.32" y1="142.4" x2="102.32" y2="111.85" gradientTransform="matrix(1, 0, 0, 1, 0, 0)" gradientUnits="userSpaceOnUse"><stop offset="0" stop-color="#e76b15" stop-opacity="0"></stop><stop offset="1" stop-color="#e76b15" stop-opacity=".3"></stop></linearGradient><linearGradient id="e" x1="102.34" y1="63.59" x2="102.34" y2="44.8" xlink:href="#d"></linearGradient><linearGradient id="f" x1="52.16" y1="55.79" x2="52.16" y2="25.68" xlink:href="#d"></linearGradient><linearGradient id="g" x1="150.97" y1="85.16" x2="150.97" y2="65.02" xlink:href="#d"></linearGradient><linearGradient id="h" x1="20.35" y1="57.96" x2="35.01" y2="57.96" gradientTransform="translate(-4.01 1.3) rotate(-2.3)" xlink:href="#d"></linearGradient><linearGradient id="i" x1="9.67" y1="134.85" x2="9.67" y2="103.84" gradientTransform="translate(.77 .81)" xlink:href="#d"></linearGradient></defs><g id="a"></g><g id="b"><g id="c"><g><g><rect class="j" x="87.75" y="111.85" width="29.15" height="30.55"></rect><g><g><path class="w" d="M78,68.16l-18.44,22.24c-1.32,1.99-1.89,4.38-1.61,6.74l1.66,14.3c.11,.97,1.19,1.5,2.03,1l19.47-11.65-3.11-32.64Z"></path><line class="w" x1="80.66" y1="94.48" x2="59.07" y2="106.84"></line></g><g><path class="w" d="M126.69,68.16l18.44,22.24c1.32,1.99,1.89,4.38,1.61,6.74l-1.66,14.3c-.11,.97-1.19,1.5-2.03,1l-19.47-11.65,3.11-32.64Z"></path><line class="w" x1="124.03" y1="94.48" x2="145.62" y2="106.84"></line></g><path class="t" d="M127.35,61.64c0-38.74-16.95-54.33-22.94-59.88-1.1-1.02-3.03-1.02-4.13,0-5.99,5.55-22.94,21.14-22.94,59.88,0,.36,.01,.74,.03,1.14h-.03l4.71,40.61c.16,1.4,1.59,2.47,3.3,2.47h33.98c1.71,0,3.14-1.07,3.3-2.47l4.71-40.61h-.03c.02-.39,.03-.77,.03-1.14Z"></path><path class="t" d="M112.5,118.4h-20.31c-2.18,0-4.04-1.57-4.41-3.71l-1.44-8.29h32l-1.44,8.29c-.37,2.14-2.23,3.71-4.41,3.71Z"></path><g><circle class="t" cx="102.34" cy="53.6" r="13.49"></circle><circle class="u" cx="102.34" cy="53.6" r="9.76"></circle></g><line class="w" x1="102.34" y1="67.09" x2="102.34" y2="105.86"></line><path class="w" d="M85.42,24.12c11.76,7.81,23.04,7.88,33.81,0"></path><line class="w" x1="102.34" y1="29.2" x2="102.34" y2="40.11"></line><circle class="t" cx="102.34" cy="83.97" r="2.42"></circle><rect class="t" x="99.92" y="99.79" width="4.85" height="22.38"></rect></g><line class="r" x1="90.63" y1="123.27" x2="90.63" y2="132.18"></line><line class="r" x1="103.34" y1="126.74" x2="103.34" y2="145.39"></line></g><g><rect class="l" x="43.03" y="25.68" width="18.26" height="30.12"></rect><g><polygon class="p" points="61.84 29.69 52.16 35.28 52.16 24.1 61.84 18.51 61.84 29.69"></polygon><polygon class="p" points="42.48 29.69 52.16 35.28 52.16 24.1 42.48 18.51 42.48 29.69"></polygon><polygon class="p" points="52.16 24.1 61.84 18.51 52.16 12.92 42.48 18.51 52.16 24.1"></polygon></g></g><g><rect class="k" x="141.46" y="65.02" width="19.02" height="20.14"></rect><g><polygon class="p" points="160.91 65.87 151.19 71.49 151.19 60.25 160.91 54.64 160.91 65.87"></polygon><polygon class="p" points="141.46 65.87 151.19 71.49 151.19 60.25 141.46 54.64 141.46 65.87"></polygon><polygon class="p" points="151.19 60.25 160.91 54.64 151.19 49.02 141.46 54.64 151.19 60.25"></polygon></g></g><g><path class="p" d="M23.56,131.45h11.45c3.08,0,5.58,2.5,5.58,5.58v2.1H23.56v-7.68h0Z" transform="translate(80.48 4.95) rotate(33.71)"></path><path class="p" d="M33.11,74.6l3.93,5.03,9.63-7.52c2.24-1.75,5.48-1.35,7.23,.89s1.35,5.48-.89,7.23l-13.68,10.69c-2.24,1.75-5.48,1.35-7.23-.89l-7.1-9.09"></path><g><path class="p" d="M25.92,125.59l8-13.05-11.07-9.6"></path><path class="p" d="M37.84,97.74l9.14,8.4c2.47,2.14,3.03,5.77,1.32,8.56l-10.97,17.88"></path></g><path class="p" d="M21.41,109.43c-3-2.53-6.95-5.71-7.51-9.65l-2.38-16.87c-.91-6.48,3.6-12.47,10.08-13.39h0c6.48-.91,12.47,3.6,13.39,10.08l2.53,17.95"></path><path class="p" d="M26.51,109.27c-2.16,.3-4.27-.03-6.12-.86"></path><line class="w" x1="8.55" y1="111.24" x2="9.58" y2="118.55"></line><line class="w" x1="13.07" y1="112.92" x2="14.1" y2="120.23"></line><g><circle class="p" cx="20.34" cy="61.32" r="13.09"></circle><path class="v" d="M32.88,57.55c-1.1-3.66-3.67-6.46-6.87-8l-7.22,12.25c3.63,3.75,8.84,5.12,13.65,4.52,1.11-2.69,1.34-5.77,.43-8.77Z"></path><circle class="n" cx="19.92" cy="62.89" r="3.99"></circle></g><path class="p" d="M7.08,78.01h.3c2.83,0,5.13,2.3,5.13,5.13v18.81H1.95v-18.81c0-2.83,2.3-5.13,5.13-5.13Z" transform="translate(-12.49 1.89) rotate(-8.03)"></path><rect class="o" x="1.6" y="85.78" width="10.56" height="3.31" transform="translate(-12.14 1.82) rotate(-8.03)"></rect><path class="p" d="M29.02,82.73l-1.48,6.21,11.88,2.83c2.77,.66,4.47,3.43,3.82,6.2s-3.43,4.47-6.2,3.82l-16.89-4.02c-2.77-.66-4.47-3.43-3.82-6.2l2.67-11.22"></path><rect class="p" x="6.54" y="101.74" width="6.3" height="4.76" transform="translate(-14.44 2.37) rotate(-8.03)"></rect><path class="q" d="M17.44,88.79c1.1-.06,2.22,.2,3.23,.84,2.56,1.61,3.32,4.99,1.71,7.55-.1,.15-.2,.3-.31,.44"></path><path class="q" d="M45.57,117.92c-1.42-.55-2.68-1.54-3.57-2.91-2.29-3.5-1.3-8.2,2.2-10.48,.21-.14,.43-.26,.64-.38"></path><line class="q" x1="24.12" y1="118.39" x2="30.81" y2="120"></line><line class="q" x1="40.52" y1="112.73" x2="37.58" y2="113.69"></line><line class="q" x1="36.65" y1="91.63" x2="33.45" y2="100.56"></line><line class="q" x1="44.81" y1="73.56" x2="51.51" y2="81.15"></line><path class="p" d="M33.08,105.99l5.52,11.12c1.54,2.89,.76,6.47-1.84,8.46l-16.66,12.76-8.14-10.63,12.15-9.31-8.78-15.07"></path><path class="p" d="M7.15,131.81h11.45c3.08,0,5.58,2.5,5.58,5.58v2.1H7.15v-7.68h0Z" transform="translate(112.86 39.75) rotate(51.97)"></path><path class="q" d="M32.67,128.38c-1.05-1.1-1.77-2.53-2-4.15-.58-4.14,2.3-7.97,6.44-8.56,.25-.04,.5-.06,.74-.07"></path><line class="q" x1="20.9" y1="128.07" x2="25.38" y2="133.83"></line><rect class="m" x="6.79" y="104.66" width="7.3" height="31.01" transform="translate(-4.81 .52) rotate(-2.3)"></rect></g><line class="q" x1="95.67" y1="126.29" x2="95.67" y2="138.6"></line><line class="q" x1="69.87" y1="112.53" x2="69.87" y2="125.86"></line><line class="q" x1="132.19" y1="114" x2="132.19" y2="122.62"></line><line class="q" x1="52.16" y1="41" x2="52.16" y2="49.62"></line><line class="q" x1="151.16" y1="76.28" x2="151.16" y2="84.9"></line><line class="q" x1="110.16" y1="125.34" x2="110.16" y2="143.15"></line><line class="s" x1="110.16" y1="148.1" x2="110.16" y2="164.62"></line></g></g></g></svg> 