<?xml version="1.0" encoding="UTF-8"?> <svg xmlns="http://www.w3.org/2000/svg" xmlns:xlink="http://www.w3.org/1999/xlink" viewBox="0 0 172 172"><defs><style>.n{fill:url(#e);}.o{fill:url(#g);}.p{fill:url(#f);}.q{fill:url(#c);}.r{fill:#e76b15;}.s{stroke-linecap:round;}.s,.t,.u,.v{stroke-width:2px;}.s,.t,.v{stroke:#e76b15;}.s,.v{fill:#fff;stroke-linejoin:round;}.t{fill:url(#d);}.t,.u{stroke-miterlimit:10;}.u{fill:none;stroke:#ed6b15;}.v{stroke-dasharray:0 0 2 4;}</style><linearGradient id="c" x1="86.78" y1="172.6" x2="86.78" y2="119.9" gradientTransform="matrix(1, 0, 0, 1, 0, 0)" gradientUnits="userSpaceOnUse"><stop offset=".04" stop-color="#e76b15" stop-opacity="0"></stop><stop offset=".8" stop-color="#e76b15" stop-opacity=".3"></stop></linearGradient><linearGradient id="d" x1="29.33" y1="120.33" x2="144.23" y2="120.33" gradientTransform="matrix(1, 0, 0, 1, 0, 0)" gradientUnits="userSpaceOnUse"><stop offset="0" stop-color="#fff"></stop><stop offset="1" stop-color="#f9dac5"></stop></linearGradient><linearGradient id="e" x1="94.12" y1="136.25" x2="94.12" y2="110.42" gradientTransform="translate(126.89 3.47) rotate(30) skewX(-30)" xlink:href="#c"></linearGradient><linearGradient id="f" x1="94.12" y1="130.35" x2="94.12" y2="116.33" gradientTransform="translate(126.89 3.47) rotate(30) skewX(-30)" xlink:href="#c"></linearGradient><linearGradient id="g" x1="94.12" y1="126.06" x2="94.12" y2="120.61" gradientTransform="translate(126.89 3.47) rotate(30) skewX(-30)" xlink:href="#c"></linearGradient></defs><g id="a"></g><g id="b"><path class="q" d="M43.63,144.49l42.14-24.32c.63-.36,1.4-.36,2.02,0l42.14,24.32c1.35,.78,1.35,2.73,0,3.51l-42.14,24.33c-.63,.36-1.4,.36-2.02,0l-42.14-24.33c-1.35-.78-1.35-2.73,0-3.51Z"></path><path class="s" d="M84.72,160.66c1.27,.73,2.84,.73,4.11,0l53.82-31.62c.97-.57,1.57-1.62,1.57-2.75v-5.75l-11.3-.49-46.15-26.64-46.15,26.64h-11.3v6.15c0,.89,.47,1.71,1.23,2.17l54.16,32.3Z"></path><path class="t" d="M30.24,118.46l52.62-30.38c2.42-1.4,5.41-1.4,7.83,0l52.62,30.38c1.22,.7,1.22,2.46,0,3.16l-54.48,31.45c-1.27,.73-2.84,.73-4.11,0l-54.48-31.45c-1.22-.7-1.22-2.46,0-3.16Z"></path><path class="s" d="M46.68,118.57l38.04-21.96c1.27-.74,2.84-.74,4.12,0l38.04,21.96c1.07,.62,1.07,2.16,0,2.78l-38.04,21.96c-1.27,.74-2.84,.74-4.12,0l-38.04-21.96c-1.07-.62-1.07-2.16,0-2.78Z"></path><ellipse class="n" cx="85.07" cy="121.74" rx="18.26" ry="10.54"></ellipse><ellipse class="p" cx="85.07" cy="121.74" rx="9.91" ry="5.72"></ellipse><ellipse class="o" cx="85.07" cy="121.74" rx="3.85" ry="2.22"></ellipse><path class="s" d="M44.61,82.96l-13.86-10.21c-1.56-1.15-1.56-4.02,0-5.16l13.26-9.76"></path><path class="s" d="M129.26,82.96l13.86-10.21c1.56-1.15,1.56-4.02,0-5.16l-13.26-9.76"></path><g><path class="s" d="M118.66,54.78c0-18.55-15.61-33.45-34.41-32.28-16.17,1.01-29.3,14.21-30.22,30.39-.71,12.43,5.61,23.44,15.35,29.44,3.42,2.11,5.42,5.93,5.42,9.95v2.96c0,4.1,3.32,7.42,7.42,7.42h8.2c4.1,0,7.42-3.32,7.42-7.42v-2.96c0-4.09,2.11-7.88,5.58-10.04,9.15-5.71,15.24-15.87,15.24-27.45Z"></path><g><path class="r" d="M77.39,101.01h18.78v4.6c0,2.56-2.08,4.64-4.64,4.64h-9.51c-2.56,0-4.64-2.08-4.64-4.64v-4.6h0Z"></path><path class="u" d="M93.21,76.69v-27.42c0-1.59,1.29-2.88,2.88-2.88h.83c1.59,0,2.88,1.29,2.88,2.88v.49c0,1.59-1.29,2.88-2.88,2.88h-21.21c-1.59,0-2.88-1.29-2.88-2.88v-.49c0-1.59,1.29-2.88,2.88-2.88h.83c1.59,0,2.88,1.29,2.88,2.88v27.42"></path><line class="v" x1="86.32" y1=".56" x2="86.32" y2="16.02"></line><line class="v" x1="108.7" y1="5.22" x2="102.72" y2="19.47"></line><line class="v" x1="127.53" y1="18.17" x2="116.5" y2="29"></line><line class="v" x1="139.89" y1="37.4" x2="125.53" y2="43.12"></line><line class="v" x1="63.93" y1="5.22" x2="69.91" y2="19.47"></line><line class="v" x1="45.1" y1="18.17" x2="56.13" y2="29"></line><line class="v" x1="32.74" y1="37.4" x2="47.1" y2="43.12"></line><rect class="r" x="82.81" y="107.31" width="8.24" height="6.36" rx="2.25" ry="2.25"></rect></g></g></g><g id="h"><g id="i"></g></g><g id="j"><g id="k"></g><g id="l"></g></g><g id="m"></g></svg> 