<?xml version="1.0" encoding="UTF-8"?> <svg xmlns="http://www.w3.org/2000/svg" xmlns:xlink="http://www.w3.org/1999/xlink" viewBox="0 0 172 172"><defs><style>.n{fill:url(#d);}.o{fill:url(#c);}.p{fill:#e76b15;}.q,.r{stroke-linecap:round;}.q,.r,.s,.t,.u,.v{stroke:#e76b15;stroke-width:2px;}.q,.r,.v{stroke-linejoin:round;}.q,.v{fill:#fff;}.r{fill:none;}.s{fill:url(#f);}.s,.t,.u{stroke-miterlimit:10;}.t{fill:url(#g);}.u{fill:url(#e);}.v{stroke-dasharray:0 0 2 4;}</style><linearGradient id="c" x1="18.42" y1="116.78" x2="18.42" y2="79.23" gradientTransform="matrix(1, 0, 0, 1, 0, 0)" gradientUnits="userSpaceOnUse"><stop offset="0" stop-color="#e76b15" stop-opacity="0"></stop><stop offset="1" stop-color="#e76b15" stop-opacity=".3"></stop></linearGradient><linearGradient id="d" x1="153.58" x2="153.58" xlink:href="#c"></linearGradient><linearGradient id="e" x1="42.6" y1="91.97" x2="130.4" y2="91.97" gradientTransform="matrix(1, 0, 0, 1, 0, 0)" gradientUnits="userSpaceOnUse"><stop offset="0" stop-color="#e76b15" stop-opacity="0"></stop><stop offset="1" stop-color="#e76b15" stop-opacity=".3"></stop></linearGradient><linearGradient id="f" y1="72.66" y2="72.66" xlink:href="#e"></linearGradient><linearGradient id="g" y1="53.35" y2="53.35" xlink:href="#e"></linearGradient></defs><g id="a"></g><g id="b"><rect class="o" x="10.57" y="79.23" width="15.7" height="37.55"></rect><rect class="n" x="145.74" y="79.23" width="15.7" height="37.55"></rect><g><path class="q" d="M18.42,114.13v10.95h.02c.05,.73,.6,1.48,1.63,2.08l62.84,36.28c1.99,1.15,5,1.27,6.72,.28l63.8-36.84c.83-.48,1.2-1.13,1.15-1.8h.02v-10.95"></path><path class="q" d="M83.38,75.49L19.58,112.33c-1.72,.99-1.51,2.73,.48,3.88l62.84,36.28c1.99,1.15,5,1.27,6.72,.28l63.8-36.84c1.72-.99,1.51-2.73-.48-3.88l-62.84-36.28c-1.99-1.15-5-1.27-6.72-.28Z"></path></g><path class="p" d="M84.33,88.43l-44.41,25.64c-1.2,.69-1.05,1.9,.34,2.7l43.74,25.25c1.38,.8,3.48,.89,4.68,.19l44.41-25.64c1.2-.69,1.05-1.9-.34-2.7l-43.74-25.25c-1.38-.8-3.48-.89-4.68-.19Z"></path><g><polyline class="q" points="153.58 56.48 166.68 64.04 153.58 71.6 140.49 64.04 153.58 56.48"></polyline><polygon class="q" points="153.58 86.72 140.49 79.16 140.49 64.04 153.58 71.6 153.58 86.72"></polygon><polygon class="q" points="153.58 86.72 166.68 79.16 166.68 64.04 153.58 71.6 153.58 86.72"></polygon></g><g><polyline class="q" points="18.42 59.7 31.51 67.26 18.42 74.82 5.32 67.26 18.42 59.7"></polyline><polygon class="q" points="18.42 89.94 5.32 82.38 5.32 67.26 18.42 74.82 18.42 89.94"></polygon><polygon class="q" points="18.42 89.94 31.51 82.38 31.51 67.26 18.42 74.82 18.42 89.94"></polygon></g><g><line class="r" x1="18.15" y1="30.26" x2="31.77" y2="22.48"></line><line class="r" x1="18.15" y1="35.21" x2="31.77" y2="27.44"></line><line class="r" x1="18.15" y1="40.17" x2="26.2" y2="35.52"></line></g><g><g><path class="q" d="M42.6,91.97v12.22h.01c.03,.47,.38,.96,1.05,1.34l40.52,23.39c1.28,.74,3.22,.82,4.33,.18l41.14-23.75c.53-.31,.77-.73,.74-1.16h.01v-12.22"></path><path class="u" d="M84.49,67.06l-41.14,23.75c-1.11,.64-.97,1.76,.31,2.5l40.52,23.39c1.28,.74,3.22,.82,4.33,.18l41.14-23.75c1.11-.64,.97-1.76-.31-2.5l-40.52-23.39c-1.28-.74-3.22-.82-4.33-.18Z"></path></g><g><path class="q" d="M42.6,72.66v12.22h.01c.03,.47,.38,.96,1.05,1.34l40.52,23.39c1.28,.74,3.22,.82,4.33,.18l41.14-23.75c.53-.31,.77-.73,.74-1.16h.01v-12.22"></path><path class="s" d="M84.49,47.75l-41.14,23.75c-1.11,.64-.97,1.76,.31,2.5l40.52,23.39c1.28,.74,3.22,.82,4.33,.18l41.14-23.75c1.11-.64,.97-1.76-.31-2.5l-40.52-23.39c-1.28-.74-3.22-.82-4.33-.18Z"></path></g><g><path class="q" d="M42.6,53.35v12.22h.01c.03,.47,.38,.96,1.05,1.34l40.52,23.39c1.28,.74,3.22,.82,4.33,.18l41.14-23.75c.53-.31,.77-.73,.74-1.16h.01v-12.22"></path><path class="t" d="M84.49,28.43l-41.14,23.75c-1.11,.64-.97,1.76,.31,2.5l40.52,23.39c1.28,.74,3.22,.82,4.33,.18l41.14-23.75c1.11-.64,.97-1.76-.31-2.5l-40.52-23.39c-1.28-.74-3.22-.82-4.33-.18Z"></path></g><g><path class="q" d="M42.6,34.03v12.22h.01c.03,.47,.38,.96,1.05,1.34l40.52,23.39c1.28,.74,3.22,.82,4.33,.18l41.14-23.75c.53-.31,.77-.73,.74-1.16h.01v-12.22"></path><path class="q" d="M84.49,9.12l-41.14,23.75c-1.11,.64-.97,1.76,.31,2.5l40.52,23.39c1.28,.74,3.22,.82,4.33,.18l41.14-23.75c1.11-.64,.97-1.76-.31-2.5L88.82,9.3c-1.28-.74-3.22-.82-4.33-.18Z"></path></g><g><ellipse class="p" cx="86.5" cy="34.03" rx="13.85" ry="8"></ellipse><polygon class="p" points="59.32 36.74 54.63 34.03 59.32 31.33 64.01 34.03 59.32 36.74"></polygon><polygon class="p" points="86.5 21.35 81.81 18.65 86.5 15.94 91.19 18.65 86.5 21.35"></polygon><polygon class="p" points="86.76 52.43 82.07 49.72 86.76 47.01 91.45 49.72 86.76 52.43"></polygon><polygon class="p" points="113.94 37.04 109.25 34.33 113.94 31.63 118.63 34.33 113.94 37.04"></polygon></g></g><line class="v" x1="18.42" y1="93.78" x2="18.42" y2="108.2"></line><line class="v" x1="154.58" y1="93.78" x2="154.58" y2="108.2"></line></g><g id="h"><g id="i"></g></g><g id="j"><g id="k"></g><g id="l"></g></g><g id="m"></g></svg> 