<?xml version="1.0" encoding="UTF-8"?> <svg xmlns="http://www.w3.org/2000/svg" xmlns:xlink="http://www.w3.org/1999/xlink" viewBox="0 0 162.82 156.88"><defs><style>.k{fill:url(#e);}.l{fill:url(#d);}.m{fill:url(#f);}.n{fill:url(#i);}.o{fill:url(#j);}.p,.q,.r,.s{fill:none;}.t,.u{fill:#e76b15;}.u,.v,.q,.r,.s,.w{stroke-width:2px;}.u,.v,.r,.s,.w{stroke:#e76b15;}.u,.s{stroke-miterlimit:10;}.v{fill:#fff;}.v,.q,.r,.w{stroke-linecap:round;stroke-linejoin:round;}.q{stroke:#fff;}.w{fill:url(#g);}.x{clip-path:url(#h);}</style><linearGradient id="d" x1="84.31" y1="156.88" x2="84.31" y2="123.13" gradientTransform="matrix(1, 0, 0, 1, 0, 0)" gradientUnits="userSpaceOnUse"><stop offset=".04" stop-color="#e76b15" stop-opacity="0"></stop><stop offset=".8" stop-color="#e76b15" stop-opacity=".3"></stop></linearGradient><linearGradient id="e" x1="61.3" y1="150.46" x2="61.3" y2="55.74" gradientTransform="translate(108.32 30.33) rotate(30) skewX(-30)" xlink:href="#d"></linearGradient><linearGradient id="f" x1="61.85" y1="113.46" x2="61.85" y2="5.58" gradientTransform="translate(108.32 30.33) rotate(30) skewX(-30)" xlink:href="#d"></linearGradient><linearGradient id="g" x1="62.61" y1="64.95" x2="102.36" y2="64.95" gradientTransform="matrix(1, 0, 0, 1, 0, 0)" gradientUnits="userSpaceOnUse"><stop offset="0" stop-color="#e76b15" stop-opacity="0"></stop><stop offset="1" stop-color="#e76b15" stop-opacity=".3"></stop></linearGradient><clipPath id="h"><polygon class="p" points="56.89 93.94 70.29 101.31 70.29 125.66 49.84 126.34 39.15 106.8 44.91 91.34 56.89 93.94"></polygon></clipPath><linearGradient id="i" x1="81.32" y1="21.61" x2="81.32" y2="-33.23" gradientTransform="translate(0 31.5) scale(1 -1)" gradientUnits="userSpaceOnUse"><stop offset="0" stop-color="#e76b15" stop-opacity="0"></stop><stop offset="1" stop-color="#e76b15" stop-opacity=".3"></stop></linearGradient><linearGradient id="j" x1="45.69" y1="-66.17" x2="71.58" y2="-43.75" gradientTransform="translate(33.7 121.91) rotate(-30) skewX(-30)" xlink:href="#d"></linearGradient></defs><g id="a"></g><g id="b"><g id="c"><g><path class="l" d="M56.68,138.88l26.98-15.58c.4-.23,.89-.23,1.3,0l26.98,15.58c.86,.5,.86,1.75,0,2.24l-26.98,15.58c-.4,.23-.9,.23-1.3,0l-26.98-15.58c-.86-.5-.86-1.75,0-2.24Z"></path><polygon class="k" points="21.01 153.66 0 141.53 95.59 87.34 116.59 99.47 21.01 153.66"></polygon><path class="m" d="M58.93,132.82l-21.01-12.13,107.88-62.28,15.03,8.68c2.66,1.53,2.66,5.37,0,6.9l-101.9,58.83Z"></path><g><polyline class="v" points="139.41 46.06 153.68 54.29 139.41 62.53 125.15 54.29 139.41 46.06"></polyline><polygon class="v" points="139.41 79 125.15 70.77 125.15 54.29 139.41 62.53 139.41 79"></polygon><polygon class="v" points="139.41 79 153.68 70.77 153.68 54.29 139.41 62.53 139.41 79"></polygon></g><g><polyline class="v" points="116.19 59.33 130.46 67.57 116.19 75.8 101.92 67.57 116.19 59.33"></polyline><polygon class="v" points="116.19 92.28 101.92 84.04 101.92 67.57 116.19 75.8 116.19 92.28"></polygon><polygon class="v" points="116.19 92.28 130.46 84.04 130.46 67.57 116.19 75.8 116.19 92.28"></polygon></g><g><polyline class="v" points="106.12 67.57 120.39 75.8 106.12 84.04 91.85 75.8 106.12 67.57"></polyline><polygon class="v" points="106.12 100.51 91.85 92.28 91.85 75.8 106.12 84.04 106.12 100.51"></polygon><polygon class="v" points="106.12 100.51 120.39 92.28 120.39 75.8 106.12 84.04 106.12 100.51"></polygon></g><g><polyline class="v" points="82.49 81.73 96.75 89.97 82.49 98.2 68.22 89.97 82.49 81.73"></polyline><polygon class="v" points="82.49 114.68 68.22 106.44 68.22 89.97 82.49 98.2 82.49 114.68"></polygon><polygon class="v" points="82.49 114.68 96.75 106.44 96.75 89.97 82.49 98.2 82.49 114.68"></polygon></g><g><polyline class="v" points="82.49 39.93 125.82 64.95 82.49 89.97 39.15 64.95 82.49 39.93"></polyline><polygon class="v" points="82.49 140.01 39.15 114.99 39.15 64.95 82.49 89.97 82.49 140.01"></polygon><polygon class="v" points="82.49 140.01 125.82 114.99 125.82 64.95 82.49 89.97 82.49 140.01"></polygon><polyline class="w" points="82.49 53.47 102.36 64.95 82.49 76.42 62.61 64.95 82.49 53.47"></polyline></g><g><line class="r" x1="88.32" y1="98.02" x2="98.99" y2="91.93"></line><line class="r" x1="88.32" y1="103.1" x2="96.2" y2="98.6"></line><line class="r" x1="88.42" y1="107.69" x2="94.95" y2="103.92"></line></g><g><polygon class="t" points="20.85 142.68 19.01 141.62 17.18 142.68 19.01 143.74 20.85 142.68"></polygon><polygon class="t" points="24.68 140.47 22.84 139.41 21.01 140.47 22.84 141.53 24.68 140.47"></polygon><polygon class="t" points="28.51 138.26 26.68 137.2 24.84 138.26 26.68 139.32 28.51 138.26"></polygon></g><path class="u" d="M69.35,122.08l-16.74-9.46c-.29-.17-.47-.48-.47-.81v-23.74c0-.72,.78-1.17,1.4-.81l16.74,9.46c.29,.17,.47,.48,.47,.81v23.74c0,.72-.78,1.17-1.4,.81Z"></path><g class="x"><g><polyline class="v" points="63.16 90.33 77.43 98.56 63.16 106.8 48.89 98.56 63.16 90.33"></polyline><polygon class="v" points="63.16 123.27 48.89 115.04 48.89 98.56 63.16 106.8 63.16 123.27"></polygon><polygon class="v" points="63.16 123.27 77.43 115.04 77.43 98.56 63.16 106.8 63.16 123.27"></polygon></g></g><g><polyline class="v" points="39.15 106.36 53.42 114.59 39.15 122.83 24.88 114.59 39.15 106.36"></polyline><polygon class="v" points="39.15 139.31 24.88 131.07 24.88 114.59 39.15 122.83 39.15 139.31"></polygon><polygon class="v" points="39.15 139.31 53.42 131.07 53.42 114.59 39.15 122.83 39.15 139.31"></polygon></g><polygon class="n" points="100.2 9.89 81.32 9.89 62.44 9.89 62.44 37.31 62.44 64.73 82.49 53.47 100.2 64.73 100.2 37.31 100.2 9.89"></polygon><g><g><polygon class="t" points="105.47 119.77 107.82 118.41 107.82 115.7 105.47 117.06 105.47 119.77"></polygon><polygon class="t" points="109.66 117.36 112.01 116 112.01 113.29 109.66 114.64 109.66 117.36"></polygon><polygon class="t" points="113.84 114.94 116.19 113.58 116.19 110.87 113.84 112.23 113.84 114.94"></polygon></g><g><polygon class="t" points="105.47 114.94 107.82 113.58 107.82 110.87 105.47 112.23 105.47 114.94"></polygon><polygon class="t" points="109.66 112.52 112.01 111.17 112.01 108.46 109.66 109.81 109.66 112.52"></polygon><polygon class="t" points="113.84 110.11 116.19 108.75 116.19 106.04 113.84 107.4 113.84 110.11"></polygon><polygon class="t" points="118.02 107.69 120.37 106.34 120.37 103.63 118.02 104.98 118.02 107.69"></polygon></g><g><polygon class="t" points="105.47 110.11 107.82 108.75 107.82 106.04 105.47 107.4 105.47 110.11"></polygon><polygon class="t" points="113.84 105.28 116.19 103.92 116.19 101.21 113.84 102.57 113.84 105.28"></polygon><polygon class="t" points="118.02 102.86 120.37 101.51 120.37 98.79 118.02 100.15 118.02 102.86"></polygon></g><g><polygon class="t" points="105.47 105.28 107.82 103.92 107.82 101.21 105.47 102.57 105.47 105.28"></polygon><polygon class="t" points="109.66 102.86 112.01 101.51 112.01 98.79 109.66 100.15 109.66 102.86"></polygon><polygon class="t" points="113.84 100.45 116.19 99.09 116.19 96.38 113.84 97.74 113.84 100.45"></polygon><polygon class="t" points="118.02 98.03 120.37 96.68 120.37 93.96 118.02 95.32 118.02 98.03"></polygon></g><g><polygon class="t" points="109.66 98.03 112.01 96.68 112.01 93.96 109.66 95.32 109.66 98.03"></polygon><polygon class="t" points="113.84 95.62 116.19 94.26 116.19 91.55 113.84 92.9 113.84 95.62"></polygon><polygon class="t" points="118.02 93.2 120.37 91.85 120.37 89.13 118.02 90.49 118.02 93.2"></polygon></g><g><polygon class="t" points="105.47 95.62 107.82 94.26 107.82 91.55 105.47 92.9 105.47 95.62"></polygon><polygon class="t" points="109.66 93.2 112.01 91.85 112.01 89.13 109.66 90.49 109.66 93.2"></polygon><polygon class="t" points="113.84 90.79 116.19 89.43 116.19 86.72 113.84 88.07 113.84 90.79"></polygon><polygon class="t" points="118.02 88.37 120.37 87.01 120.37 84.3 118.02 85.66 118.02 88.37"></polygon></g><g><polygon class="t" points="105.47 90.79 107.82 89.43 107.82 86.72 105.47 88.07 105.47 90.79"></polygon><polygon class="t" points="109.66 88.37 112.01 87.01 112.01 84.3 109.66 85.66 109.66 88.37"></polygon><polygon class="t" points="113.84 85.96 116.19 84.6 116.19 81.89 113.84 83.24 113.84 85.96"></polygon></g></g><line class="q" x1="74.4" y1="56.2" x2="74.4" y2="63.45"></line><line class="q" x1="80.92" y1="64.11" x2="80.92" y2="68.22"></line><line class="q" x1="90.43" y1="51.09" x2="90.43" y2="61.64"></line><polygon class="v" points="89.27 128.31 98.04 123.25 98.04 117.36 89.27 122.42 89.27 128.31"></polygon><line class="r" x1="43.58" y1="83.61" x2="47.11" y2="85.65"></line><line class="r" x1="43.58" y1="78.69" x2="47.11" y2="80.73"></line><g><path class="v" d="M80.25,56.73l-11.3-3.5c-5.05-1.56-7.95-6.37-7.95-13.17V23.23L80.25,2.88l19.25-1.88,4.47,2.98-23.72,52.75Z"></path><g><path class="v" d="M96.03,43.15l-11.3,16.55-11.3-3.5c-5.05-1.56-7.95-6.37-7.95-13.17V26.2L84.72,5.86l19.25-1.88V20.8c0,6.81-2.9,14.95-7.95,22.35Z"></path><path class="o" d="M92.93,40.31l-8.21,12.03-8.21-2.54c-3.67-1.14-5.77-4.62-5.77-9.57v-12.22l13.98-14.78,13.98-1.37v12.22c0,4.94-2.1,10.86-5.77,16.23Z"></path><path class="t" d="M89.53,37.26l-9.61,5.55c-.78,.45-1.41-.03-1.41-1.07v-5.71c0-1.04,.63-2.24,1.41-2.69l9.61-5.55c.78-.45,1.41,.03,1.41,1.07v5.71c0,1.04-.63,2.24-1.41,2.69Z"></path><path class="s" d="M84.72,36.43h0c-1.51,.87-2.73-.05-2.73-2.06v-3.85c0-2.01,1.22-4.34,2.73-5.21h0c1.51-.87,2.73,.05,2.73,2.06v3.85c0,2.01-1.22,4.34-2.73,5.21Z"></path></g><line class="r" x1="61" y1="23.23" x2="65.47" y2="26.2"></line><line class="r" x1="80.25" y1="3.07" x2="84.72" y2="6.04"></line></g></g></g></g></svg> 