<?xml version="1.0" encoding="UTF-8"?> <svg xmlns="http://www.w3.org/2000/svg" xmlns:xlink="http://www.w3.org/1999/xlink" viewBox="0 0 172 172"><defs><style>.m{fill:url(#e);}.n{fill:url(#d);}.o{fill:url(#f);}.p{fill:url(#c);}.q{fill:#e76b15;}.r,.s,.t{stroke-linecap:round;}.r,.s,.t,.u,.v{stroke-linejoin:round;stroke-width:2px;}.r,.t,.u,.v{stroke:#e76b15;}.r,.u,.v{fill:#fff;}.s{stroke:#fff;}.s,.t{fill:none;}.u{stroke-dasharray:0 0 2 4;}</style><linearGradient id="c" x1="84.18" y1="161.11" x2="84.18" y2="115.73" gradientTransform="matrix(1, 0, 0, 1, 0, 0)" gradientUnits="userSpaceOnUse"><stop offset=".04" stop-color="#e76b15" stop-opacity="0"></stop><stop offset=".8" stop-color="#e76b15" stop-opacity=".3"></stop></linearGradient><linearGradient id="d" x1="85.89" y1="125.69" x2="85.89" y2="34.9" gradientTransform="matrix(1, 0, 0, 1, 0, 0)" gradientUnits="userSpaceOnUse"><stop offset="0" stop-color="#e76b15" stop-opacity="0"></stop><stop offset="1" stop-color="#e76b15" stop-opacity=".3"></stop></linearGradient><linearGradient id="e" x1="22.44" y1="168.12" x2="22.44" y2="128.09" xlink:href="#d"></linearGradient><linearGradient id="f" x1="144.52" y1="71.91" x2="144.52" y2="31.88" xlink:href="#d"></linearGradient></defs><g id="a"></g><g id="b"><path class="p" d="M47.02,136.91l36.28-20.95c.54-.31,1.2-.31,1.74,0l36.28,20.95c1.16,.67,1.16,2.35,0,3.02l-36.28,20.95c-.54,.31-1.2,.31-1.74,0l-36.28-20.95c-1.16-.67-1.16-2.35,0-3.02Z"></path><g></g><g></g><g><g></g><g></g></g><g></g><g><polygon class="r" points="86.18 135.28 38.56 107.79 38.56 52.8 86.18 80.29 86.18 135.28"></polygon><polygon class="r" points="86.18 135.28 133.8 107.79 133.8 52.8 86.18 80.29 86.18 135.28"></polygon><path class="n" d="M125.85,60.02v40.56c0,1.73-.92,3.32-2.42,4.19l-35.12,20.28c-1.5,.86-3.34,.86-4.84,0l-35.13-20.28c-1.5-.86-2.42-2.46-2.42-4.19V60.02c0-1.73,.92-3.33,2.42-4.19l35.13-20.28c1.5-.86,3.34-.86,4.84,0l35.12,20.28c1.5,.86,2.42,2.46,2.42,4.19Z"></path><path class="q" d="M112.78,69.17v24.72c0,1.56-.83,3.01-2.19,3.79l-21.4,12.36c-1.35,.78-3.02,.78-4.38,0l-21.41-12.36c-1.35-.78-2.19-2.23-2.19-3.79v-24.72c0-1.56,.83-3.01,2.19-3.79l21.41-12.36c1.35-.78,3.02-.78,4.38,0l21.4,12.36c1.35,.78,2.19,2.23,2.19,3.79Z"></path><polygon class="t" points="133.8 52.8 86.18 80.29 38.57 52.8 86.18 25.31 133.8 52.8"></polygon><polyline class="s" points="68.78 70.38 86.18 80.29 86.18 100.52"></polyline><line class="s" x1="107.84" y1="69.26" x2="91.54" y2="78.67"></line><path class="q" d="M53.14,89.13h-2.98v-2.98h2.98v2.98Zm0-8.93h-2.98v-2.98h2.98v2.98Zm0-8.93h-2.98v-2.98h2.98v2.98Z"></path><path class="q" d="M113.73,56.73l-2.42,1.62-2.58-1.49,2.42-1.62,2.58,1.49Zm-7.74-4.47l-2.42,1.62-2.58-1.49,2.42-1.62,2.58,1.49Zm-7.74-4.47l-2.42,1.62-2.58-1.49,2.42-1.62,2.58,1.49Z"></path><path class="v" d="M141.5,102.55l-3.63,2.09c-.29,1.44-.72,2.89-1.29,4.33l2.58,1.47-4.44,7.69-2.58-1.47c-.96,1.21-2.01,2.32-3.11,3.29v4.16l-6.29,3.64v-4.16c-1.12,.3-2.17,.4-3.13,.3l-2.56,4.44-4.47-2.55,2.56-4.43c-.57-.78-1.01-1.73-1.31-2.83l-3.63,2.09-.02-7.24,3.63-2.09c.29-1.44,.72-2.89,1.29-4.33l-2.58-1.47,4.44-7.69,2.58,1.47c.96-1.21,2-2.32,3.11-3.29v-4.17l6.29-3.64v4.17c1.12-.3,2.17-.4,3.13-.31l2.56-4.44,4.47,2.55-2.56,4.44c.57,.78,1.01,1.73,1.31,2.83l3.63-2.09,.02,7.24Z"></path><path class="v" d="M125.86,113.46c2.64-1.53,4.78-5.23,4.77-8.26,0-3.04-2.16-4.26-4.8-2.74-2.64,1.53-4.78,5.23-4.77,8.26,0,3.04,2.16,4.26,4.8,2.74"></path><g><g><line class="t" x1="10.62" y1="80.74" x2="25.14" y2="72.45"></line><line class="t" x1="10.62" y1="86.02" x2="25.14" y2="77.73"></line><line class="t" x1="10.62" y1="91.3" x2="19.2" y2="86.35"></line></g><g><line class="t" x1="145.46" y1="112.98" x2="159.98" y2="104.69"></line><line class="t" x1="145.46" y1="118.26" x2="159.98" y2="109.98"></line><line class="t" x1="145.46" y1="123.54" x2="154.03" y2="118.59"></line></g><g><rect class="m" x="15.31" y="128.09" width="14.28" height="40.03"></rect><g><polyline class="r" points="22.28 106.27 36.24 114.33 22.28 122.38 8.33 114.33 22.28 106.27"></polyline><polygon class="r" points="22.28 138.5 8.33 130.44 8.33 114.33 22.28 122.38 22.28 138.5"></polygon><polygon class="r" points="22.28 138.5 36.24 130.44 36.24 114.33 22.28 122.38 22.28 138.5"></polygon></g><line class="u" x1="22.28" y1="143.59" x2="22.28" y2="158.97"></line></g><g><rect class="o" x="137.38" y="31.88" width="14.28" height="40.03"></rect><g><polyline class="r" points="144.36 10.06 158.32 18.12 144.36 26.18 130.4 18.12 144.36 10.06"></polyline><polygon class="r" points="144.36 42.29 130.4 34.24 130.4 18.12 144.36 26.18 144.36 42.29"></polygon><polygon class="r" points="144.36 42.29 158.32 34.24 158.32 18.12 144.36 26.18 144.36 42.29"></polygon></g><line class="u" x1="144.36" y1="47.38" x2="144.36" y2="62.76"></line></g></g></g></g><g id="g"><g id="h"></g></g><g id="i"><g id="j"></g><g id="k"></g></g><g id="l"></g></svg> 