<?xml version="1.0" encoding="UTF-8"?> <svg xmlns="http://www.w3.org/2000/svg" width="135" height="145" viewBox="0 0 135 145" fill="none"><g clip-path="url(#clip0)"><path d="M131.406 97.0595L77.9373 66.1564C77.3029 65.7939 76.9404 65.1595 76.9404 64.4345V15.9502C76.9404 14.4095 78.5717 13.4127 79.9311 14.2283L131.587 44.1345C133.309 45.1314 134.397 47.0345 134.397 49.0283V95.4283C134.397 96.8783 132.765 97.8752 131.406 97.0595Z" fill="url(#paint0_linear)"></path><path d="M123.703 106.757L76.7593 132.766L19.2124 99.5066L66.2468 73.5879L123.703 106.757Z" fill="white" stroke="#E76B15" stroke-width="2" stroke-miterlimit="10" stroke-linejoin="round"></path><path d="M19.2124 95.0654V99.5061L76.7593 132.765V128.234L19.2124 95.0654Z" fill="white" stroke="#E76B15" stroke-width="2" stroke-miterlimit="10" stroke-linejoin="round"></path><path d="M123.703 102.225V106.756L76.7593 132.765V128.234L123.703 102.225Z" fill="white" stroke="#E76B15" stroke-width="2" stroke-miterlimit="10" stroke-linejoin="round"></path><path d="M123.703 102.225L66.2466 69.0563V15.8594L123.703 49.1188V102.225Z" fill="white" stroke="#E76B15" stroke-width="2" stroke-miterlimit="10" stroke-linejoin="round"></path><path d="M123.703 102.225L76.7593 128.235L19.2124 95.066L66.2468 69.0566L123.703 102.225Z" fill="white" stroke="#E76B15" stroke-width="2" stroke-miterlimit="10" stroke-linejoin="round"></path><path d="M109.384 101.228L74.4938 119.896L31.7188 96.0621L66.6094 77.3027L109.384 101.228Z" fill="url(#paint1_linear)"></path><path d="M80.8374 41.8691L89.5374 56.9129L80.928 61.8973" stroke="#E76B15" stroke-width="3" stroke-miterlimit="10" stroke-linecap="round" stroke-linejoin="round"></path><path d="M91.5312 68.0596L101.953 74.1314" stroke="#E76B15" stroke-width="3" stroke-miterlimit="10" stroke-linecap="round" stroke-linejoin="round"></path><path d="M76.7593 136.481V144.094" stroke="#E76B15" stroke-width="2" stroke-miterlimit="10" stroke-linecap="round" stroke-linejoin="round"></path><path d="M19.2124 104.581V123.159" stroke="#E76B15" stroke-width="2" stroke-miterlimit="10" stroke-linejoin="round" stroke-dasharray="2 2"></path><path d="M123.703 111.74V122.071" stroke="#E76B15" stroke-width="2" stroke-miterlimit="10" stroke-linejoin="round" stroke-dasharray="2 2"></path><path d="M55.1 13.2313L49.5719 9.60626C49.0281 9.24376 48.4844 9.06251 47.9406 8.97189C46.4906 8.79064 44.8594 9.15314 42.9563 10.15C42.2313 10.5125 41.5969 11.0563 40.9625 11.6C40.9625 11.3281 40.9625 11.0563 40.9625 10.7844C40.9625 1.90313 34.6188 -1.63124 27.0063 2.90001C20.5719 6.70626 15.225 14.8625 13.775 22.5656C13.2313 22.7469 12.7781 23.0188 12.2344 23.2906C5.98125 26.9156 0.90625 35.6156 0.90625 42.775C0.90625 45.9469 1.90313 48.3031 3.53438 49.5719C3.89688 49.8438 4.16875 50.1156 4.53125 50.2063L9.69688 53.4688L18.7594 45.4031L42.9563 31.4469C47.9406 28.5469 52.0188 21.6594 52.2 15.8594L55.1 13.2313Z" fill="white" stroke="#E76B15" stroke-width="2" stroke-miterlimit="10" stroke-linejoin="round"></path><path d="M47.6687 13.231C46.9437 13.5935 46.3093 14.1372 45.6749 14.681C45.6749 14.4091 45.6749 14.1372 45.6749 13.8653C45.6749 5.07471 39.5124 1.4497 31.8093 5.89033C25.3749 9.60596 19.9374 17.8528 18.3968 25.6466C17.853 25.8278 17.3999 26.0997 16.8562 26.3716C10.6937 29.9966 5.61865 38.6966 5.61865 45.856C5.61865 53.0153 10.6937 55.9153 16.8562 52.381L47.6687 34.6185C52.7437 31.7185 56.9124 24.5591 56.9124 18.6685C56.9124 12.7778 52.8343 10.2403 47.6687 13.231Z" fill="white" stroke="#E76B15" stroke-width="2" stroke-miterlimit="10" stroke-linejoin="round"></path><path d="M32.9875 43.8623V71.0498C32.9875 73.6779 34.3469 76.0342 36.6125 77.3029L43.0469 80.9279" stroke="#E76B15" stroke-width="2" stroke-miterlimit="10" stroke-linecap="round" stroke-linejoin="round"></path><path d="M33.2594 63.5285C34.861 63.5285 36.1594 62.2301 36.1594 60.6285C36.1594 59.0269 34.861 57.7285 33.2594 57.7285C31.6578 57.7285 30.3594 59.0269 30.3594 60.6285C30.3594 62.2301 31.6578 63.5285 33.2594 63.5285Z" fill="white" stroke="#E76B15" stroke-width="2" stroke-miterlimit="10" stroke-linecap="round" stroke-linejoin="round"></path><path d="M24.2876 47.6689L41.6876 37.7002V58.5439L24.2876 68.6033V47.6689Z" fill="url(#paint2_linear)"></path><path d="M41.6149 40.6328C45.7441 33.4811 45.4372 25.5736 40.9294 22.9709C36.4216 20.3683 29.42 24.0561 25.2908 31.2078C21.1616 38.3596 21.4685 46.2671 25.9763 48.8697C30.484 51.4724 37.4857 47.7846 41.6149 40.6328Z" fill="white" stroke="#E76B15" stroke-width="2" stroke-miterlimit="10" stroke-linejoin="round"></path><path d="M29.272 37.5191L32.7157 40.7816L38.3345 31.4473" stroke="#E76B15" stroke-width="2" stroke-miterlimit="10" stroke-linecap="round" stroke-linejoin="round"></path></g><defs><linearGradient id="paint0_linear" x1="105.675" y1="97.333" x2="105.675" y2="13.9178" gradientUnits="userSpaceOnUse"><stop stop-color="#E76B15" stop-opacity="0"></stop><stop offset="1" stop-color="#E76B15" stop-opacity="0.3"></stop></linearGradient><linearGradient id="paint1_linear" x1="31.7197" y1="98.6366" x2="109.355" y2="98.6366" gradientUnits="userSpaceOnUse"><stop stop-color="#E76B15" stop-opacity="0"></stop><stop offset="1" stop-color="#E76B15" stop-opacity="0.3"></stop></linearGradient><linearGradient id="paint2_linear" x1="32.9987" y1="63.511" x2="23.9698" y2="47.8731" gradientUnits="userSpaceOnUse"><stop stop-color="#E76B15" stop-opacity="0"></stop><stop offset="1" stop-color="#E76B15" stop-opacity="0.3"></stop></linearGradient><clipPath id="clip0"><rect width="134.397" height="145" fill="white"></rect></clipPath></defs></svg> 