<?xml version="1.0" encoding="UTF-8"?> <svg xmlns="http://www.w3.org/2000/svg" width="145" height="145" viewBox="0 0 145 145" fill="none"><g clip-path="url(#clip0)"><path d="M74.0103 7C84.8373 7 94.9493 9.85996 103.733 14.7628" stroke="#E76B15" stroke-width="2" stroke-miterlimit="10" stroke-linejoin="round" stroke-dasharray="2 3"></path><path d="M13.7461 67.2635C13.7461 33.9654 40.7114 7 74.0096 7" stroke="#E76B15" stroke-width="2" stroke-miterlimit="10" stroke-linejoin="round"></path><path d="M36.2175 114.248C29.7826 109.141 24.4712 102.706 20.5898 95.3516" stroke="#E76B15" stroke-width="2" stroke-miterlimit="10" stroke-linejoin="round" stroke-dasharray="2 3"></path><path d="M65.3281 127.015C54.399 125.483 44.3891 120.887 36.2178 114.35" stroke="#E76B15" stroke-width="2" stroke-miterlimit="10" stroke-linejoin="round"></path><path d="M122.425 103.318C116.092 111.898 107.41 118.742 97.5024 122.93" stroke="#E76B15" stroke-width="2" stroke-miterlimit="10" stroke-linejoin="round" stroke-dasharray="2 3"></path><path d="M123.14 32.2305C130.188 42.1382 134.375 54.1909 134.375 67.265C134.375 80.7477 129.983 93.2089 122.425 103.219" stroke="#E76B15" stroke-width="2" stroke-miterlimit="10" stroke-linejoin="round"></path><path d="M86.8801 134.473L74.0103 141.827V127.017L86.8801 119.561V134.473Z" fill="white" stroke="#E76B15" stroke-width="2" stroke-miterlimit="10" stroke-linecap="round" stroke-linejoin="round"></path><path d="M61.1392 134.473L74.009 141.827V127.017L61.1392 119.561V134.473Z" fill="white" stroke="#E76B15" stroke-width="2" stroke-miterlimit="10" stroke-linecap="round" stroke-linejoin="round"></path><path d="M74.009 127.016L86.8788 119.56L74.009 112.104L61.1392 119.56L74.009 127.016Z" fill="white" stroke="#E76B15" stroke-width="2" stroke-miterlimit="10" stroke-linecap="round" stroke-linejoin="round"></path><path d="M145.1 49.6959L132.23 57.05V42.2395L145.1 34.7832V49.6959Z" fill="white" stroke="#E76B15" stroke-width="2" stroke-miterlimit="10" stroke-linecap="round" stroke-linejoin="round"></path><path d="M119.36 49.6959L132.23 57.05V42.2395L119.36 34.7832V49.6959Z" fill="white" stroke="#E76B15" stroke-width="2" stroke-miterlimit="10" stroke-linecap="round" stroke-linejoin="round"></path><path d="M132.231 42.2379L145.1 34.7815L132.231 27.3252L119.361 34.7815L132.231 42.2379Z" fill="white" stroke="#E76B15" stroke-width="2" stroke-miterlimit="10" stroke-linecap="round" stroke-linejoin="round"></path><path d="M27.7395 72.3697L14.8696 79.7239V64.9134L27.7395 57.457V72.3697Z" fill="white" stroke="#E76B15" stroke-width="2" stroke-miterlimit="10" stroke-linecap="round" stroke-linejoin="round"></path><path d="M2 72.3697L14.8698 79.7239V64.9134L2 57.457V72.3697Z" fill="white" stroke="#E76B15" stroke-width="2" stroke-miterlimit="10" stroke-linecap="round" stroke-linejoin="round"></path><path d="M14.8698 64.9146L27.7397 57.4583L14.8698 50.002L2 57.4583L14.8698 64.9146Z" fill="white" stroke="#E76B15" stroke-width="2" stroke-miterlimit="10" stroke-linecap="round" stroke-linejoin="round"></path><path d="M78.5033 25.5898L53.3765 47.346L31.9268 85.7512H51.2315L78.5033 25.5898ZM81.7718 30.6969L71.0469 60.8287L91.5774 86.5683L51.7422 93.4118H117.011L81.7718 30.6969Z" fill="url(#paint0_linear)" stroke="#E76B15" stroke-width="2" stroke-miterlimit="10" stroke-linejoin="round"></path></g><defs><linearGradient id="paint0_linear" x1="74.511" y1="93.4477" x2="74.511" y2="25.5645" gradientUnits="userSpaceOnUse"><stop stop-color="#E76B15" stop-opacity="0"></stop><stop offset="1" stop-color="#E76B15" stop-opacity="0.3"></stop></linearGradient><clipPath id="clip0"><rect width="145" height="145" fill="white"></rect></clipPath></defs></svg> 