<?xml version="1.0" encoding="UTF-8"?> <svg xmlns="http://www.w3.org/2000/svg" width="123" height="145" viewBox="0 0 123 145" fill="none"><g clip-path="url(#clip0)"><path d="M69.0601 143.981L34.3178 123.935C32.3641 122.83 32.3641 120.027 34.3178 118.923L68.8052 99.0459C71.2686 97.6019 74.2417 97.6019 76.7051 99.0459L111.447 119.093C113.401 120.197 113.401 123 111.447 124.105L76.9599 143.981C74.4965 145.426 71.5235 145.426 69.0601 143.981Z" fill="url(#paint0_linear)"></path><path d="M69.23 133.788L27.2675 109.579C24.974 108.22 24.974 104.907 27.2675 103.548L68.8902 79.5085C71.8633 77.8097 75.5159 77.8097 78.4889 79.5085L120.451 103.718C122.745 105.077 122.745 108.39 120.451 109.749L78.8287 133.788C75.8557 135.572 72.203 135.572 69.23 133.788Z" fill="white" stroke="#E76B15" stroke-width="2" stroke-miterlimit="10" stroke-linecap="round" stroke-linejoin="round"></path><path d="M42.7271 108.389L73.9016 126.991V73.1368L42.7271 58.4414V108.389Z" fill="white" stroke="#E76B15" stroke-width="2" stroke-miterlimit="10" stroke-linecap="round" stroke-linejoin="round"></path><path d="M73.9014 126.992L106.18 108.304V64.8975L73.9014 83.0756V126.992Z" fill="white" stroke="#E76B15" stroke-width="2" stroke-miterlimit="10" stroke-linecap="round" stroke-linejoin="round"></path><path d="M80.8672 113.401L86.6434 109.833V84.1797L80.8672 87.4076V113.401Z" fill="#FCEDE3" stroke="#E76B15" stroke-width="2" stroke-miterlimit="10" stroke-linecap="round" stroke-linejoin="round"></path><path d="M93.6089 107.284L100.829 103.122V77.3838L93.6089 81.2912V107.284Z" fill="#FCEDE3" stroke="#E76B15" stroke-width="2" stroke-miterlimit="10" stroke-linecap="round" stroke-linejoin="round"></path><path d="M42.7271 58.4417L74.4113 40.0938L106.18 64.8975L73.9016 83.0756L42.7271 58.4417Z" fill="white" stroke="#E76B15" stroke-width="2" stroke-miterlimit="10" stroke-linecap="round" stroke-linejoin="round"></path><path d="M65.5772 60.7353C66.0868 59.8009 67.1911 59.1214 68.6352 58.9515L67.361 55.4688C64.0482 55.7236 61.4149 57.2526 60.6504 59.631L65.5772 60.7353Z" fill="#E76B15"></path><path d="M78.6585 68.8902L74.6661 66.2569C73.5619 66.7665 72.0329 66.9364 70.334 66.5967C67.7007 66.0021 65.662 64.3032 65.3223 62.5193L60.3105 61.5C60.5654 65.1526 64.5578 68.7203 69.9093 69.9095C73.392 70.674 76.6199 70.1643 78.6585 68.8902Z" fill="#E76B15"></path><path d="M71.2683 59.1214C74.3263 59.8009 76.5348 62.0095 76.28 64.0481C76.28 64.3879 76.1101 64.6428 76.0252 64.8976L80.1025 67.5309C80.6971 66.8513 81.0369 66.0019 81.1218 65.1524C81.6315 61.245 77.2993 57.0827 71.6081 55.8085C71.0135 55.6387 70.4188 55.5537 69.9092 55.5537L71.2683 59.1214Z" fill="#E76B15"></path><path d="M75.4307 75.2607L93.6088 64.8975" stroke="#E76B15" stroke-width="2" stroke-miterlimit="10" stroke-linecap="round" stroke-linejoin="round"></path><path d="M78.2591 53.6755C78.9248 52.7099 78.4938 51.258 77.2965 50.4325C76.0991 49.607 74.5888 49.7206 73.9231 50.6862C73.2574 51.6518 73.6884 53.1037 74.8858 53.9292C76.0831 54.7547 77.5934 54.6411 78.2591 53.6755Z" fill="white" stroke="#E76B15" stroke-width="2" stroke-miterlimit="10" stroke-linecap="round" stroke-linejoin="round"></path><path d="M84.8196 59.6306C85.4853 58.665 85.0544 57.213 83.857 56.3876C82.6597 55.5621 81.1494 55.6757 80.4837 56.6413C79.818 57.6069 80.249 59.0588 81.4463 59.8843C82.6436 60.7098 84.1539 60.5962 84.8196 59.6306Z" fill="white" stroke="#E76B15" stroke-width="2" stroke-miterlimit="10" stroke-linecap="round" stroke-linejoin="round"></path><path d="M31.5996 42.1328V84.605C31.5996 86.049 32.3641 87.4082 33.5533 88.1727L42.6424 93.9489" stroke="#E76B15" stroke-width="2" stroke-miterlimit="10" stroke-linejoin="round"></path><path d="M57.9322 13.8464L52.0711 10.0239C51.5614 9.68413 50.9668 9.4293 50.2872 9.34436C48.7582 9.08952 46.9744 9.51424 45.1056 10.6185C44.3411 11.0432 43.6616 11.5529 42.982 12.1475C42.982 11.8927 42.982 11.5529 42.982 11.2981C42.982 1.9542 36.2714 -1.78335 28.2866 2.97353C21.576 6.96591 15.8848 15.5453 14.3558 23.7C13.8461 23.9548 13.2515 24.2096 12.7418 24.4644C6.11616 28.202 0.849609 37.376 0.849609 44.936C0.849609 48.2489 1.86894 50.7123 3.56783 52.0714C3.90761 52.3262 4.24738 52.581 4.67211 52.7509L10.1085 56.1487L19.7073 47.6543L45.1056 32.9589C50.3722 29.9009 54.6194 22.6806 54.7893 16.5646L57.9322 13.8464Z" fill="white" stroke="#E76B15" stroke-width="2" stroke-miterlimit="10" stroke-linejoin="round"></path><path d="M50.1173 13.8461C49.3528 14.2708 48.6733 14.7805 47.9937 15.3751C47.9937 15.1202 47.9937 14.7805 47.9937 14.5256C47.9937 5.2667 41.453 1.4442 33.3833 6.11614C26.5877 10.0236 20.8965 18.7728 19.2825 26.9275C18.7729 27.1823 18.1783 27.4372 17.6686 27.692C11.1279 31.4296 5.86133 40.6035 5.86133 48.1636C5.86133 55.7236 11.1279 58.7816 17.6686 54.9591L50.1173 36.2714C55.4688 33.2134 59.801 25.6533 59.801 19.4524C59.801 13.2515 55.4688 10.7031 50.1173 13.8461Z" fill="white" stroke="#E76B15" stroke-width="2" stroke-miterlimit="10" stroke-linejoin="round"></path><path d="M31.5996 67.701C33.1477 67.701 34.4027 66.446 34.4027 64.8979C34.4027 63.3497 33.1477 62.0947 31.5996 62.0947C30.0514 62.0947 28.7964 63.3497 28.7964 64.8979C28.7964 66.446 30.0514 67.701 31.5996 67.701Z" fill="white" stroke="#E76B15" stroke-width="2" stroke-miterlimit="10" stroke-linecap="round" stroke-linejoin="round"></path><path d="M48.6733 87.5781L50.4572 88.6824V90.7211L48.6733 89.7017V87.5781Z" fill="#E76B15"></path><path d="M52.1562 89.6172L53.9401 90.6365V92.6752L52.1562 91.6559V89.6172Z" fill="#E76B15"></path><path d="M48.6733 91.5703L50.4572 92.6746V94.7132L48.6733 93.6939V91.5703Z" fill="#E76B15"></path><path d="M52.1562 93.6094L53.9401 94.6287V96.6674L52.1562 95.648V93.6094Z" fill="#E76B15"></path><path d="M48.6733 95.5625L50.4572 96.6668V98.7054L48.6733 97.6861V95.5625Z" fill="#E76B15"></path><path d="M52.1562 97.6016L53.9401 98.6209V100.66L52.1562 99.6402V97.6016Z" fill="#E76B15"></path><path d="M55.6387 99.6396L57.4225 100.659V102.698L55.6387 101.678V99.6396Z" fill="#E76B15"></path><path d="M59.1216 101.679L60.9054 102.698V104.737L59.1216 103.717V101.679Z" fill="#E76B15"></path><path d="M48.6733 99.6406L50.4572 100.66V102.699L48.6733 101.679V99.6406Z" fill="#E76B15"></path><path d="M52.1562 101.595L53.9401 102.614V104.738L52.1562 103.633V101.595Z" fill="#E76B15"></path><path d="M55.6387 103.633L57.4225 104.652V106.691L55.6387 105.671V103.633Z" fill="#E76B15"></path><path d="M59.1216 105.672L60.9054 106.691V108.73L59.1216 107.711V105.672Z" fill="#E76B15"></path><path d="M48.6733 103.633L50.4572 104.652V106.691L48.6733 105.671V103.633Z" fill="#E76B15"></path><path d="M52.1562 105.587L53.9401 106.606V108.73L52.1562 107.626V105.587Z" fill="#E76B15"></path><path d="M55.6387 107.625L57.4225 108.644V110.683L55.6387 109.664V107.625Z" fill="#E76B15"></path><path d="M59.1216 109.664L60.9054 110.683V112.722L59.1216 111.703V109.664Z" fill="#E76B15"></path><path d="M35.082 34.9979L44.7657 29.3916" stroke="#E76B15" stroke-width="2" stroke-miterlimit="10" stroke-linecap="round" stroke-linejoin="round"></path><path d="M27.9468 23.1055L34.3176 28.372L30.3252 37.4611" stroke="#E76B15" stroke-width="2" stroke-miterlimit="10" stroke-linecap="round" stroke-linejoin="round"></path><path d="M88.0877 97.6865L79.5083 102.613L79.4233 92.6748L88.0027 87.748L88.0877 97.6865Z" fill="white" stroke="#E76B15" stroke-width="2" stroke-miterlimit="10" stroke-linecap="round" stroke-linejoin="round"></path><path d="M101.509 99.2158L93.0141 104.143L92.8442 94.2041L101.424 89.2773L101.509 99.2158Z" fill="white" stroke="#E76B15" stroke-width="2" stroke-miterlimit="10" stroke-linecap="round" stroke-linejoin="round"></path></g><defs><linearGradient id="paint0_linear" x1="32.8301" y1="121.495" x2="112.871" y2="121.495" gradientUnits="userSpaceOnUse"><stop offset="0.0356983" stop-color="#E76B15" stop-opacity="0"></stop><stop offset="0.8046" stop-color="#E76B15" stop-opacity="0.3"></stop></linearGradient><clipPath id="clip0"><rect width="122.999" height="145" fill="white"></rect></clipPath></defs></svg> 