<?xml version="1.0" encoding="UTF-8"?> <svg xmlns="http://www.w3.org/2000/svg" width="145" height="145" viewBox="0 0 145 145" fill="none"><path d="M46.6748 140.271V101.636L107.885 64.6104V101.636L46.6748 140.271Z" fill="url(#paint0_linear)"></path><path d="M130.758 97.8583L119.375 104.465V91.3579L130.758 84.751V97.8583Z" fill="white" stroke="#E76B15" stroke-width="2" stroke-miterlimit="10" stroke-linecap="round" stroke-linejoin="round"></path><path d="M107.885 97.8583L119.375 104.465V91.3579L107.885 84.751V97.8583Z" fill="white" stroke="#E76B15" stroke-width="2" stroke-miterlimit="10" stroke-linecap="round" stroke-linejoin="round"></path><path d="M119.376 91.3575L130.759 84.7505L119.376 78.1436L107.885 84.7505L119.376 91.3575Z" fill="white" stroke="#E76B15" stroke-width="2" stroke-miterlimit="10" stroke-linecap="round" stroke-linejoin="round"></path><path d="M58.7023 29.0176L54.0847 26.0338C53.6552 25.7141 53.2256 25.501 52.6887 25.501C51.5074 25.2878 50.1114 25.6075 48.608 26.46C48.0711 26.7797 47.4268 27.206 46.8898 27.6322C46.8898 27.4191 46.8898 27.206 46.8898 26.8863C46.8898 19.5334 41.5205 16.6562 35.1847 20.2793C29.8154 23.3697 25.3052 30.1898 24.1239 36.5836C23.6944 36.7967 23.2648 37.0099 22.8353 37.223C17.5733 40.3133 13.3853 47.5597 13.3853 53.5272C13.3853 56.1913 14.2443 58.1095 15.533 59.1751C15.7478 59.3883 16.0699 59.6014 16.3921 59.7079L20.6875 62.372L28.312 55.6585L48.5006 44.0431C52.6887 41.6987 56.0177 35.9442 56.2325 31.1488L58.7023 29.0176Z" fill="white" stroke="#E76B15" stroke-width="2" stroke-miterlimit="10" stroke-linejoin="round"></path><path d="M52.4743 29.0186C51.9373 29.3382 51.293 29.7645 50.7561 30.1908C50.7561 29.9776 50.7561 29.7645 50.7561 29.4448C50.7561 22.0919 45.6015 19.1081 39.1583 22.8379C33.789 25.9282 29.1714 32.7483 27.9901 39.2487C27.5606 39.4618 27.1311 39.6749 26.7015 39.8881C21.547 42.8719 17.3589 50.1182 17.3589 56.0858C17.3589 62.0533 21.547 64.3977 26.7015 61.414L52.4743 46.7082C56.7697 44.2572 60.2061 38.2896 60.2061 33.4942C60.2061 28.6989 56.7697 26.5676 52.4743 29.0186Z" fill="white" stroke="#E76B15" stroke-width="2" stroke-miterlimit="10" stroke-linejoin="round"></path><path d="M95.8575 117.359L84.3672 123.966V110.752L95.8575 104.252V117.359Z" fill="white" stroke="#E76B15" stroke-width="2" stroke-miterlimit="10" stroke-linecap="round" stroke-linejoin="round"></path><path d="M72.877 117.359L84.3673 123.966V110.752L72.877 104.252V117.359Z" fill="white" stroke="#E76B15" stroke-width="2" stroke-miterlimit="10" stroke-linecap="round" stroke-linejoin="round"></path><path d="M84.3683 110.752L95.8586 104.251L84.3683 97.6445L72.8779 104.251L84.3683 110.752Z" fill="white" stroke="#E76B15" stroke-width="2" stroke-miterlimit="10" stroke-linecap="round" stroke-linejoin="round"></path><path d="M107.456 63.4379L44.4199 99.563V42.3383L107.885 6L107.456 63.4379Z" fill="white" stroke="#E76B15" stroke-width="2" stroke-miterlimit="10" stroke-linejoin="round"></path><path d="M63.7496 137.393L52.2593 144V130.893L63.7496 124.286V137.393Z" fill="white" stroke="#E76B15" stroke-width="2" stroke-miterlimit="10" stroke-linecap="round" stroke-linejoin="round"></path><path d="M40.8765 137.393L52.2594 144V130.893L40.8765 124.286V137.393Z" fill="white" stroke="#E76B15" stroke-width="2" stroke-miterlimit="10" stroke-linecap="round" stroke-linejoin="round"></path><path d="M52.2599 130.894L63.7503 124.287L52.2599 117.68L40.877 124.287L52.2599 130.894Z" fill="white" stroke="#E76B15" stroke-width="2" stroke-miterlimit="10" stroke-linecap="round" stroke-linejoin="round"></path><path d="M111.751 65.4622L48.7153 101.587V44.4691L112.073 8.13086L111.751 65.4622Z" fill="white" stroke="#E76B15" stroke-width="2" stroke-miterlimit="10" stroke-linejoin="round"></path><path d="M48.7153 56.6185L112.073 20.2803" stroke="#E76B15" stroke-width="2" stroke-miterlimit="10" stroke-linejoin="round"></path><path d="M67.5293 41.5261C68.241 40.3029 68.235 38.9773 67.5159 38.5653C66.7969 38.1534 65.6371 38.811 64.9254 40.0342C64.2137 41.2574 64.2196 42.583 64.9387 42.995C65.6577 43.4069 66.8176 42.7493 67.5293 41.5261Z" fill="#E76B15"></path><path d="M62.1806 44.615C62.8923 43.3917 62.8864 42.0662 62.1673 41.6542C61.4483 41.2422 60.2884 41.8999 59.5767 43.1231C58.865 44.3463 58.871 45.6719 59.59 46.0838C60.3091 46.4958 61.4689 45.8382 62.1806 44.615Z" fill="#E76B15"></path><path d="M56.8857 47.6101C57.5974 46.3869 57.5914 45.0613 56.8724 44.6493C56.1533 44.2373 54.9935 44.895 54.2818 46.1182C53.5701 47.3414 53.5761 48.667 54.2951 49.079C55.0142 49.4909 56.174 48.8333 56.8857 47.6101Z" fill="#E76B15"></path><path d="M67.186 56.5117L75.6696 62.5859L69.119 74.3079" stroke="#E76B15" stroke-width="3" stroke-miterlimit="10" stroke-linecap="round" stroke-linejoin="round"></path><path d="M79.8574 70.1508L92.3142 62.7979" stroke="#E76B15" stroke-width="3" stroke-miterlimit="10" stroke-linecap="round" stroke-linejoin="round"></path><path d="M48.7154 101.588L44.4199 99.563V42.3383L107.885 6L112.073 8.13128L48.7154 44.4695V101.588Z" fill="white" stroke="#E76B15" stroke-width="2" stroke-miterlimit="10" stroke-linejoin="round"></path><path d="M44.4199 42.3379L48.7154 44.4692" stroke="#E76B15" stroke-width="2" stroke-miterlimit="10" stroke-linejoin="round"></path><path d="M62.3535 100.096V118.531" stroke="#E76B15" stroke-width="2" stroke-miterlimit="10" stroke-linejoin="round" stroke-dasharray="2 2"></path><path d="M99.5093 80.9141V101.694" stroke="#E76B15" stroke-width="2" stroke-miterlimit="10" stroke-linejoin="round" stroke-dasharray="2 2"></path><path d="M35.0771 66.8486V81.661" stroke="#E76B15" stroke-width="2" stroke-miterlimit="10" stroke-linejoin="round" stroke-dasharray="2 2"></path><defs><linearGradient id="paint0_linear" x1="77.2721" y1="140.349" x2="77.2721" y2="64.6665" gradientUnits="userSpaceOnUse"><stop stop-color="#E76B15" stop-opacity="0"></stop><stop offset="1" stop-color="#E76B15" stop-opacity="0.3"></stop></linearGradient></defs></svg> 