<?xml version="1.0" encoding="UTF-8"?> <svg xmlns="http://www.w3.org/2000/svg" width="145" height="145" viewBox="0 0 145 145" fill="none"><path d="M88.7002 109.601H61.7002V137.901H88.7002V109.601Z" fill="url(#paint0_linear)"></path><path d="M52.7001 69.1006L35.7001 89.7006C34.5001 91.5006 34.0001 93.7006 34.2001 95.9006L35.7001 109.101C35.8001 110.001 36.8001 110.501 37.6001 110.001L55.6001 99.2006L52.7001 69.1006Z" stroke="#E76B15" stroke-width="2" stroke-miterlimit="10" stroke-linejoin="round"></path><path d="M55.2002 93.5L35.2002 104.9" stroke="#E76B15" stroke-width="2" stroke-miterlimit="10" stroke-linejoin="round"></path><path d="M97.7999 69.1006L114.9 89.7006C116.1 91.5006 116.6 93.7006 116.4 95.9006L114.9 109.101C114.8 110.001 113.8 110.501 113 110.001L94.8999 99.3006L97.7999 69.1006Z" stroke="#E76B15" stroke-width="2" stroke-miterlimit="10" stroke-linejoin="round"></path><path d="M95.3003 93.5L115.3 104.9" stroke="#E76B15" stroke-width="2" stroke-miterlimit="10" stroke-linejoin="round"></path><path d="M98.4002 63.1004C98.4002 27.3004 82.7002 12.8004 77.2002 7.70039C76.2002 6.80039 74.4002 6.80039 73.4002 7.70039C67.9002 12.8004 52.2002 27.3004 52.2002 63.1004C52.2002 63.4004 52.2002 63.8004 52.2002 64.2004L56.6002 101.8C56.6002 103 57.9002 104 59.5002 104H90.9002C92.5002 104 93.8002 103 94.0002 101.7L98.4002 64.1004C98.4002 63.8004 98.4002 63.4004 98.4002 63.1004Z" fill="white" stroke="#E76B15" stroke-width="2" stroke-miterlimit="10" stroke-linejoin="round"></path><path d="M84.6 115.6H65.9C63.9 115.6 62.2 114.2 61.8 112.2L60.5 104.5H90.1L88.8 112.2C88.4 114.2 86.7 115.6 84.6 115.6Z" fill="white" stroke="#E76B15" stroke-width="2" stroke-miterlimit="10" stroke-linejoin="round"></path><path d="M75.2002 68.2002C82.1002 68.2002 87.7002 62.6002 87.7002 55.7002C87.7002 48.8002 82.1002 43.2002 75.2002 43.2002C68.3002 43.2002 62.7002 48.8002 62.7002 55.7002C62.7002 62.6002 68.3002 68.2002 75.2002 68.2002Z" fill="white" stroke="#E76B15" stroke-width="2" stroke-miterlimit="10" stroke-linejoin="round"></path><path d="M75.2002 64.7002C80.2002 64.7002 84.2002 60.7002 84.2002 55.7002C84.2002 50.7002 80.2002 46.7002 75.2002 46.7002C70.2002 46.7002 66.2002 50.7002 66.2002 55.7002C66.2002 60.7002 70.3002 64.7002 75.2002 64.7002Z" fill="url(#paint1_linear)" stroke="#E76B15" stroke-width="2" stroke-miterlimit="10" stroke-linejoin="round"></path><path d="M75.2002 68.1006V104.001" stroke="#E76B15" stroke-width="2" stroke-miterlimit="10" stroke-linejoin="round"></path><path d="M59.6001 28.4004C70.5001 35.6004 80.9001 35.7004 90.9001 28.4004" stroke="#E76B15" stroke-width="2" stroke-miterlimit="10" stroke-linejoin="round"></path><path d="M75.2002 33.1006V43.2006" stroke="#E76B15" stroke-width="2" stroke-miterlimit="10" stroke-linejoin="round"></path><path d="M75.2 86.0006C76.4 86.0006 77.4 85.0006 77.4 83.8006C77.4 82.6006 76.4 81.6006 75.2 81.6006C74 81.6006 73 82.6006 73 83.8006C73 85.0006 74 86.0006 75.2 86.0006Z" fill="white" stroke="#E76B15" stroke-width="2" stroke-miterlimit="10" stroke-linejoin="round"></path><path d="M77.5 98.4004H73V119.1H77.5V98.4004Z" fill="white" stroke="#E76B15" stroke-width="2" stroke-miterlimit="10" stroke-linejoin="round"></path><path d="M67.2002 122.5V130.8" stroke="white" stroke-width="2" stroke-miterlimit="10"></path><path d="M81.3003 123.7V140.9" stroke="white" stroke-width="2" stroke-miterlimit="10"></path><path d="M114.3 116.5V128.4" stroke="#E76B15" stroke-width="2" stroke-miterlimit="10" stroke-linejoin="round"></path><path d="M37.3999 115.7V122.5" stroke="#E76B15" stroke-width="2" stroke-miterlimit="10" stroke-linejoin="round"></path><path d="M75.2002 123.601V138.001" stroke="#E76B15" stroke-width="2" stroke-miterlimit="10" stroke-linejoin="round" stroke-dasharray="2 2"></path><path d="M53.4 50.4022L49.7 48.0022C49.4 47.8022 49 47.6022 48.6 47.5022C47.6 47.3022 46.5 47.6022 45.3 48.3022C44.8 48.6022 44.4 48.9022 43.9 49.3022C43.9 49.1022 43.9 48.9022 43.9 48.7022C43.9 42.7022 39.6 40.4022 34.5 43.4022C30.2 45.9022 26.6 51.4022 25.6 56.7022C25.3 56.8022 24.9 57.0022 24.6 57.2022C20.4 59.6022 17 65.5022 17 70.3022C17 72.4022 17.7 74.0022 18.8 74.9022C19 75.1022 19.2 75.2022 19.5 75.3022L23 77.5022L29.1 72.1022L45.4 62.7022C48.8 60.8022 51.5 56.1022 51.6 52.2022L53.4 50.4022Z" fill="white" stroke="#E76B15" stroke-width="2" stroke-miterlimit="10" stroke-linejoin="round"></path><path d="M48.4001 50.4026C47.9001 50.7026 47.5001 51.0026 47.0001 51.4026C47.0001 51.2026 47.0001 51.0026 47.0001 50.8026C47.0001 44.9026 42.8001 42.5026 37.7001 45.4026C33.3001 47.9026 29.7001 53.5026 28.7001 58.7026C28.4001 58.8026 28.0001 59.0026 27.7001 59.2026C23.5001 61.6026 20.1001 67.5026 20.1001 72.3026C20.1001 77.1026 23.5001 79.1026 27.7001 76.7026L48.4001 64.7026C51.8001 62.7026 54.6001 57.9026 54.6001 53.9026C54.6001 49.9026 51.9001 48.4026 48.4001 50.4026Z" fill="white" stroke="#E76B15" stroke-width="2" stroke-miterlimit="10" stroke-linejoin="round"></path><path d="M103.391 30.0139L105.677 28.5192C105.853 28.3433 106.116 28.2554 106.38 28.2554C106.996 28.1675 107.699 28.3433 108.402 28.783C108.666 28.9588 108.93 29.1347 109.194 29.3985C109.194 29.3105 109.194 29.1347 109.194 29.0467C109.194 25.4418 111.832 23.947 114.909 25.7935C117.547 27.3762 119.745 30.7173 120.36 33.8827C120.536 33.9706 120.8 34.0585 120.976 34.2344C123.526 35.7291 125.636 39.2462 125.636 42.2357C125.636 43.5545 125.196 44.5217 124.581 45.0493C124.493 45.1372 124.317 45.2251 124.141 45.3131L122.031 46.632L118.338 43.2908L108.402 37.5756C106.38 36.4325 104.71 33.531 104.622 31.157L103.391 30.0139Z" fill="white" stroke="#E76B15" stroke-width="2" stroke-miterlimit="10" stroke-linejoin="round"></path><path d="M106.38 30.0144C106.644 30.1903 106.908 30.3661 107.172 30.6299C107.172 30.542 107.172 30.3661 107.172 30.2782C107.172 26.6732 109.722 25.1785 112.887 27.0249C115.525 28.5197 117.811 31.9488 118.426 35.2021C118.602 35.29 118.866 35.3779 119.042 35.5538C121.592 37.0485 123.702 40.5655 123.702 43.555C123.702 46.5445 121.592 47.6875 119.042 46.1928L106.38 38.8949C104.27 37.664 102.6 34.7624 102.6 32.3005C102.6 29.8386 104.358 28.7835 106.38 30.0144Z" fill="white" stroke="#E76B15" stroke-width="2" stroke-miterlimit="10" stroke-linejoin="round"></path><defs><linearGradient id="paint0_linear" x1="75.2229" y1="137.799" x2="75.2229" y2="109.536" gradientUnits="userSpaceOnUse"><stop stop-color="#E76B15" stop-opacity="0"></stop><stop offset="1" stop-color="#E76B15" stop-opacity="0.3"></stop></linearGradient><linearGradient id="paint1_linear" x1="75.2234" y1="64.8845" x2="75.2234" y2="47.4968" gradientUnits="userSpaceOnUse"><stop stop-color="#E76B15" stop-opacity="0"></stop><stop offset="1" stop-color="#E76B15" stop-opacity="0.3"></stop></linearGradient></defs></svg> 