<?xml version="1.0" encoding="UTF-8"?> <svg xmlns="http://www.w3.org/2000/svg" width="131" height="136" viewBox="0 0 131 136" fill="none"><g clip-path="url(#clip0)"><path d="M90.1 107.8L60.5 124.9V41.9002L90.1 24.7002V107.8Z" fill="white" stroke="#E76B15" stroke-width="2" stroke-miterlimit="10" stroke-linecap="round" stroke-linejoin="round"></path><path d="M60.6 124.9L31 107.8V24.7002L60.6 41.9002V124.9Z" fill="white" stroke="#E76B15" stroke-width="2" stroke-miterlimit="10" stroke-linecap="round" stroke-linejoin="round"></path><path d="M90.1 24.6996L60.6 41.8996L31 24.6996L60.6 7.59961L90.1 24.6996Z" fill="white" stroke="#E76B15" stroke-width="2" stroke-miterlimit="10" stroke-linecap="round" stroke-linejoin="round"></path><path d="M122.3 103L101.5 115V70.3998L122.2 58.2998V103H122.3Z" fill="white" stroke="#E76B15" stroke-width="2" stroke-miterlimit="10" stroke-linecap="round" stroke-linejoin="round"></path><path d="M101.5 115L80.8999 103V58.2998L101.5 70.3998V115Z" fill="white" stroke="#E76B15" stroke-width="2" stroke-miterlimit="10" stroke-linecap="round" stroke-linejoin="round"></path><path d="M122.3 58.2998L101.6 70.3998L80.8999 58.2998L101.5 46.2998L122.3 58.2998Z" fill="white" stroke="#E76B15" stroke-width="2" stroke-miterlimit="10" stroke-linecap="round" stroke-linejoin="round"></path><path d="M129.6 76.0001V136H1V76.0001C1 75.2001 1.1 74.6001 1.3 73.9001C1.3 73.8001 1.4 73.6001 1.4 73.5001C1.5 73.1001 1.8 72.6001 1.9 72.2001C1.9 72.1001 2 72.0001 2 72.0001C3.3 69.7001 5.6 67.5001 8.7 65.4001C9 65.3001 9.2 65.1001 9.5 64.9001C9.6 64.8001 9.8 64.8001 9.9 64.6001C10.2 64.3001 10.5 64.2001 10.8 64.1001C11.1 64.0001 11.3 63.8001 11.6 63.6001C12 63.3001 12.4 63.2001 12.8 63.0001C13.3 62.7001 13.7 62.5001 14.2 62.4001C14.7 62.1001 15.1 62.0001 15.6 61.8001C16.1 61.5001 16.6 61.4001 17 61.2001C18.9 60.4001 21 59.8001 23 59.1001C23.4 59.0001 23.8 58.8001 24.2 58.7001C25.4 58.3001 26.6 58.1001 27.9 57.7001C28.3 57.6001 28.8 57.4001 29.2 57.4001C30.4 57.1001 30.7 64.0001 30.7 64.0001V94.2001L38.8 95.4001V96.7001C46.9 98.0001 55.7 98.6001 65.1 98.6001C87.8 98.6001 107.7 94.5001 119.3 88.2001V87.2001H121.1C121.2 87.1001 121.5 86.9001 121.6 86.8001V65.2001C121.6 65.2001 121.6 65.2001 121.7 65.2001C122.7 65.8001 123.7 66.6001 124.5 67.3001C124.6 67.4001 124.8 67.6001 124.9 67.7001C125.4 68.2001 125.9 68.7001 126.4 69.2001C126.7 69.5001 126.9 69.8001 127.2 70.2001C127.8 71.1001 128.4 72.0001 128.7 72.9001C128.8 73.2001 128.8 73.3001 129 73.5001C129 73.8001 129.1 73.9001 129.1 74.1001C129.1 74.2001 129.1 74.4001 129.1 74.4001C129.1 74.7001 129.2 74.8001 129.2 75.0001C129.6 75.3001 129.6 75.6001 129.6 76.0001Z" fill="url(#paint0_linear)"></path><path d="M31 56.7002C30.4 56.8002 29.9 56.9002 29.3 57.1002C28.9 57.2002 28.4 57.4002 28 57.4002C26.7 57.7002 25.6 58.0002 24.3 58.4002C23.9 58.5002 23.5 58.7002 23.1 58.8002C20.9 59.4002 18.9 60.1002 17.1 60.9002C16.6 61.2002 16.1 61.3002 15.7 61.5002C15.2 61.8002 14.8 61.9002 14.3 62.1002C13.8 62.4002 13.3 62.5002 12.9 62.7002C12.5 63.0002 12.1 63.1002 11.7 63.3002C11.4 63.4002 11.2 63.6002 10.9 63.7002C10.5 63.8002 10.3 64.1002 10 64.2002C9.9 64.2002 9.7 64.3002 9.6 64.5002C9.3 64.6002 9.1 64.8002 8.8 65.0002C5.7 67.1002 3.4 69.2002 2.1 71.6002C2.1 71.7002 2 71.9002 2 71.9002C1.7 72.3002 1.6 72.8002 1.5 73.2002C1.5 73.3002 1.4 73.5002 1.4 73.6002C1.1 74.4002 1 75.2002 1 76.0002C1 85.1002 16.6 93.1002 39 96.6002C47.1 97.9002 55.9 98.5002 65.3 98.5002C88 98.5002 107.9 94.4002 119.5 88.1002C120.1 87.7002 120.7 87.5002 121.3 87.1002C121.4 87.0002 121.7 86.8002 121.8 86.7002C126.8 83.5002 129.6 79.9002 129.6 75.9002C129.6 75.6002 129.6 75.4002 129.6 75.1002C129.6 74.8002 129.6 74.7002 129.5 74.5002C129.5 74.4002 129.5 74.4002 129.5 74.2002C129.5 73.9002 129.4 73.8002 129.4 73.6002C129.3 73.3002 129.3 73.2002 129.1 73.0002C128.7 72.1002 128.2 71.2002 127.6 70.3002C127.3 69.9002 127.1 69.7002 126.8 69.3002C126.3 68.8002 125.8 68.3002 125.3 67.8002C125.2 67.7002 125 67.5002 124.9 67.4002C124.5 67.0002 124 66.6002 123.5 66.4002" stroke="#E76B15" stroke-width="2" stroke-miterlimit="10" stroke-linecap="round" stroke-linejoin="round"></path><path d="M116.3 92.7002H106.8V129.9H116.3V92.7002Z" fill="url(#paint1_linear)"></path><path d="M66.6001 72.6996L69.3001 71.1996V68.0996L66.6001 69.5996V72.6996Z" fill="#E76B15"></path><path d="M71.7998 69.8L74.4998 68.1V65L71.7998 66.5V69.8Z" fill="#E76B15"></path><path d="M66.6001 66.6996L69.3001 65.1996V62.0996L66.6001 63.5996V66.6996Z" fill="#E76B15"></path><path d="M71.7998 63.6L74.4998 62.1V59L71.7998 60.5V63.6Z" fill="#E76B15"></path><path d="M66.6001 60.7L69.3001 59.2V56L66.6001 57.5V60.7Z" fill="#E76B15"></path><path d="M71.7998 57.6L74.4998 56.1V53L71.7998 54.5V57.6Z" fill="#E76B15"></path><path d="M77.1001 54.6004L79.8001 53.1004V49.9004L77.1001 51.6004V54.6004Z" fill="#E76B15"></path><path d="M82.2998 51.5004L84.9998 50.0004V46.9004L82.2998 48.4004V51.5004Z" fill="#E76B15"></path><path d="M66.6001 54.6L69.3001 53.1V50L66.6001 51.5V54.6Z" fill="#E76B15"></path><path d="M71.7998 51.5004L74.4998 50.0004V46.9004L71.7998 48.4004V51.5004Z" fill="#E76B15"></path><path d="M77.1001 48.5998L79.8001 46.8998V43.7998L77.1001 45.4998V48.5998Z" fill="#E76B15"></path><path d="M82.2998 45.5004L84.9998 44.0004V40.9004L82.2998 42.4004V45.5004Z" fill="#E76B15"></path><path d="M66.6001 48.6L69.3001 47.1V44L66.6001 45.5V48.6Z" fill="#E76B15"></path><path d="M71.7998 45.5004L74.4998 44.0004V40.9004L71.7998 42.4004V45.5004Z" fill="#E76B15"></path><path d="M77.1001 42.5002L79.8001 40.8002V37.7002L77.1001 39.2002V42.5002Z" fill="#E76B15"></path><path d="M82.2998 39.3998L84.9998 37.8998V34.7998L82.2998 36.2998V39.3998Z" fill="#E76B15"></path><path d="M121.3 86.7998V87.1998H120.8C120.9 86.8998 121.1 86.7998 121.3 86.7998Z" fill="#E76B15"></path><path d="M111.7 95.4996C114 95.4996 115.9 93.5996 115.9 91.2996C115.9 88.9996 114 87.0996 111.7 87.0996C109.4 87.0996 107.5 88.9996 107.5 91.2996C107.4 93.5996 109.3 95.4996 111.7 95.4996Z" fill="white" stroke="#E76B15" stroke-width="2" stroke-miterlimit="10" stroke-linecap="round" stroke-linejoin="round"></path><path d="M111.7 98.5V120.6" stroke="#E76B15" stroke-width="2" stroke-miterlimit="10" stroke-linejoin="round" stroke-dasharray="2 2"></path><path d="M17.5999 94.9996C19.8999 94.9996 21.7999 93.0996 21.7999 90.7996C21.7999 88.4996 19.8999 86.5996 17.5999 86.5996C15.2999 86.5996 13.3999 88.4996 13.3999 90.7996C13.3999 93.0996 15.2999 94.9996 17.5999 94.9996Z" fill="white" stroke="#E76B15" stroke-width="2" stroke-miterlimit="10" stroke-linecap="round" stroke-linejoin="round"></path><path d="M21.8999 93.2998H13.3999V133.3H21.8999V93.2998Z" fill="url(#paint2_linear)"></path><path d="M17.6001 99V126" stroke="#E76B15" stroke-width="2" stroke-miterlimit="10" stroke-linejoin="round" stroke-dasharray="2 2"></path><path d="M78.2001 20.2002L60.6001 30.4002V21.5002L78.3001 11.2002V20.2002H78.2001Z" fill="white" stroke="#E76B15" stroke-width="2" stroke-miterlimit="10" stroke-linecap="round" stroke-linejoin="round"></path><path d="M60.5998 30.3998L42.7998 20.1998V11.2998L60.5998 21.5998V30.3998V30.3998Z" fill="white" stroke="#E76B15" stroke-width="2" stroke-miterlimit="10" stroke-linecap="round" stroke-linejoin="round"></path><path d="M78.1998 11.3L60.5998 21.6L42.7998 11.3L60.5998 1L78.1998 11.3Z" fill="white" stroke="#E76B15" stroke-width="2" stroke-miterlimit="10" stroke-linecap="round" stroke-linejoin="round"></path><path d="M46.1002 46.4999L42.4002 44.0999C42.1002 43.8999 41.7002 43.6999 41.3002 43.5999C40.3002 43.3999 39.2002 43.6999 38.0002 44.3999C37.5002 44.6999 37.1002 44.9999 36.6002 45.3999C36.6002 45.1999 36.6002 44.9999 36.6002 44.7999C36.6002 38.7999 32.3002 36.4999 27.2002 39.4999C22.9002 41.9999 19.3002 47.4999 18.3002 52.7999C18.0002 52.8999 17.6002 53.0999 17.3002 53.2999C13.1002 55.6999 9.7002 61.5999 9.7002 66.3999C9.7002 68.4999 10.4002 70.0999 11.5002 70.9999C11.7002 71.1999 11.9002 71.2999 12.2002 71.3999L15.7002 73.5999L21.8002 68.1999L38.1002 58.7999C41.5002 56.8999 44.2002 52.1999 44.3002 48.2999L46.1002 46.4999Z" fill="white" stroke="#E76B15" stroke-width="2" stroke-miterlimit="10" stroke-linejoin="round"></path><path d="M41.1003 46.5003C40.6003 46.8003 40.2003 47.1003 39.7003 47.5003C39.7003 47.3003 39.7003 47.1003 39.7003 46.9003C39.7003 41.0003 35.5003 38.6003 30.4003 41.5003C26.0003 44.0003 22.4003 49.6003 21.4003 54.8003C21.1003 54.9003 20.7003 55.1003 20.4003 55.3003C16.2003 57.7003 12.8003 63.6003 12.8003 68.4003C12.8003 73.2003 16.2003 75.2003 20.4003 72.8003L41.1003 60.8003C44.5003 58.8003 47.3003 54.0003 47.3003 50.0003C47.3003 46.0003 44.6003 44.5003 41.1003 46.5003Z" fill="white" stroke="#E76B15" stroke-width="2" stroke-miterlimit="10" stroke-linejoin="round"></path><path d="M95.1997 23.8001L97.7997 22.1001C97.9997 21.9001 98.2997 21.8001 98.5997 21.8001C99.2997 21.7001 100.1 21.9001 100.9 22.4001C101.2 22.6001 101.5 22.8001 101.8 23.1001C101.8 23.0001 101.8 22.8001 101.8 22.7001C101.8 18.6001 104.8 16.9001 108.3 19.0001C111.3 20.8001 113.8 24.6001 114.5 28.2001C114.7 28.3001 115 28.4001 115.2 28.6001C118.1 30.3001 120.5 34.3001 120.5 37.7001C120.5 39.2001 120 40.3001 119.3 40.9001C119.2 41.0001 119 41.1001 118.8 41.2001L116.4 42.7001L112.2 38.9001L100.9 32.4001C98.5997 31.1001 96.6997 27.8001 96.5997 25.1001L95.1997 23.8001Z" fill="white" stroke="#E76B15" stroke-width="2" stroke-miterlimit="10" stroke-linejoin="round"></path><path d="M98.5998 23.8005C98.8998 24.0005 99.1998 24.2005 99.4998 24.5005C99.4998 24.4005 99.4998 24.2005 99.4998 24.1005C99.4998 20.0005 102.4 18.3005 106 20.4005C109 22.1005 111.6 26.0005 112.3 29.7005C112.5 29.8005 112.8 29.9005 113 30.1005C115.9 31.8005 118.3 35.8005 118.3 39.2005C118.3 42.6005 115.9 43.9005 113 42.2005L98.5998 33.9005C96.1998 32.5005 94.2998 29.2005 94.2998 26.4005C94.2998 23.6005 96.2998 22.4005 98.5998 23.8005Z" fill="white" stroke="#E76B15" stroke-width="2" stroke-miterlimit="10" stroke-linejoin="round"></path></g><defs><linearGradient id="paint0_linear" x1="65.2897" y1="135.874" x2="65.2897" y2="57.1798" gradientUnits="userSpaceOnUse"><stop offset="0.0356983" stop-color="#E76B15" stop-opacity="0"></stop><stop offset="0.8046" stop-color="#E76B15" stop-opacity="0.3"></stop></linearGradient><linearGradient id="paint1_linear" x1="111.522" y1="129.83" x2="111.522" y2="92.6721" gradientUnits="userSpaceOnUse"><stop offset="0.0356983" stop-color="#E76B15" stop-opacity="0"></stop><stop offset="0.8046" stop-color="#E76B15" stop-opacity="0.3"></stop></linearGradient><linearGradient id="paint2_linear" x1="17.648" y1="133.257" x2="17.648" y2="93.2713" gradientUnits="userSpaceOnUse"><stop offset="0.0356983" stop-color="#E76B15" stop-opacity="0"></stop><stop offset="0.8046" stop-color="#E76B15" stop-opacity="0.3"></stop></linearGradient><clipPath id="clip0"><rect width="130.6" height="136" fill="white"></rect></clipPath></defs></svg> 