<?xml version="1.0" encoding="UTF-8"?> <svg xmlns="http://www.w3.org/2000/svg" width="145" height="145" viewBox="0 0 145 145" fill="none"><path d="M118.903 26.0071L108.516 19.2237C107.562 18.5878 106.502 18.1638 105.442 17.9518C102.793 17.5279 99.6129 18.2698 96.2212 20.1776C94.9493 20.9196 93.6774 21.8735 92.4055 22.8274C92.4055 22.2975 92.4055 21.7675 92.4055 21.2376C92.4055 4.809 80.5345 -1.86842 66.3318 6.50485C54.5668 13.6062 44.6037 28.8689 41.7419 43.2836C40.788 43.7076 39.8341 44.1316 38.8802 44.6615C27.3272 51.3389 18 67.5555 18 80.9103C18 86.8458 19.8018 91.1914 22.8756 93.6292C23.5115 94.0532 24.1475 94.4771 24.7834 94.7951L34.3226 100.837L51.2811 85.8919L96.2212 59.9242C105.548 54.5186 113.074 41.6938 113.392 30.8827L118.903 26.0071Z" fill="white" stroke="#E76B15" stroke-width="2" stroke-miterlimit="10" stroke-linejoin="round"></path><path d="M99.8254 68.6167L91.3462 63.4231V53.672L99.8254 48.6904V68.6167Z" fill="#FAE3D3" stroke="#E76B15" stroke-width="2" stroke-miterlimit="10" stroke-linejoin="round"></path><path d="M82.231 76.778V59.0775L99.8254 48.6904V65.6489L82.231 76.778Z" fill="#E76B15"></path><path d="M105.123 25.8998C103.851 26.6417 102.579 27.5956 101.307 28.5495C101.307 28.0196 101.307 27.4896 101.307 26.9597C101.307 10.5311 89.7544 3.85371 75.5516 12.121C63.5747 19.1164 53.3996 34.485 50.6438 49.0058C49.6899 49.4297 48.736 49.8537 47.7821 50.3836C36.2291 57.0611 26.7959 73.2776 26.7959 86.6325C26.7959 99.9873 36.1231 105.393 47.6761 98.7154L53.1876 95.5357V90.7661L66.7544 82.9228V87.6924L82.1231 78.7892V58.7569L99.7175 48.5818V68.614L105.017 65.5403C114.556 60.0288 122.188 46.78 122.188 35.7569C122.188 24.7339 114.556 20.4943 105.123 25.8998Z" fill="white" stroke="#E76B15" stroke-width="2" stroke-miterlimit="10" stroke-linejoin="round"></path><path d="M76.4016 54.8343L63.3647 62.3596L63.4707 47.6269L76.5076 40.1016L76.4016 54.8343Z" fill="white" stroke="#E76B15" stroke-width="2" stroke-miterlimit="10" stroke-linejoin="round"></path><path d="M112.968 43.7082L105.655 47.9479V39.5746L112.968 35.335V43.7082Z" fill="white" stroke="#E76B15" stroke-width="2" stroke-miterlimit="10" stroke-linejoin="round"></path><path d="M77.5664 87.2705V101.791" stroke="#E76B15" stroke-width="2" stroke-miterlimit="10" stroke-linejoin="round" stroke-dasharray="2 2"></path><path d="M106.714 106.03V128.394" stroke="#E76B15" stroke-width="2" stroke-miterlimit="10" stroke-linejoin="round" stroke-dasharray="2 2"></path><path d="M123.567 80.168H89.7559V127.97H123.567V80.168Z" fill="url(#paint0_linear)"></path><path d="M124.838 68.6166L106.714 79.0037L88.6953 68.6166L106.714 58.2295L124.838 68.6166Z" fill="white" stroke="#E76B15" stroke-width="2" stroke-miterlimit="10" stroke-linecap="round" stroke-linejoin="round"></path><path d="M106.714 99.8835L88.6953 89.4964V68.6162L106.714 79.0033V99.8835Z" fill="white" stroke="#E76B15" stroke-width="2" stroke-miterlimit="10" stroke-linecap="round" stroke-linejoin="round"></path><path d="M106.714 99.8835L124.839 89.4964V68.6162L106.714 79.0033V99.8835Z" fill="white" stroke="#E76B15" stroke-width="2" stroke-miterlimit="10" stroke-linecap="round" stroke-linejoin="round"></path><path d="M71.5258 114.933H51.9175V144.398H71.5258V114.933Z" fill="url(#paint1_linear)"></path><path d="M72.0549 104.862L61.6678 110.904L51.3867 104.862L61.6678 98.9268L72.0549 104.862Z" fill="white" stroke="#E76B15" stroke-width="2" stroke-miterlimit="10" stroke-linecap="round" stroke-linejoin="round"></path><path d="M61.6678 122.775L51.3867 116.839V104.862L61.6678 110.904V122.775Z" fill="white" stroke="#E76B15" stroke-width="2" stroke-miterlimit="10" stroke-linecap="round" stroke-linejoin="round"></path><path d="M61.6685 122.775L72.0555 116.839V104.862L61.6685 110.904V122.775Z" fill="white" stroke="#E76B15" stroke-width="2" stroke-miterlimit="10" stroke-linecap="round" stroke-linejoin="round"></path><path d="M61.6685 129.667V138.04" stroke="#E76B15" stroke-width="2" stroke-miterlimit="10" stroke-linejoin="round" stroke-dasharray="2 2"></path><defs><linearGradient id="paint0_linear" x1="106.64" y1="127.96" x2="106.64" y2="80.1448" gradientUnits="userSpaceOnUse"><stop stop-color="#E76B15" stop-opacity="0"></stop><stop offset="1" stop-color="#E76B15" stop-opacity="0.3"></stop></linearGradient><linearGradient id="paint1_linear" x1="61.6757" y1="144.459" x2="61.6757" y2="114.949" gradientUnits="userSpaceOnUse"><stop stop-color="#E76B15" stop-opacity="0"></stop><stop offset="1" stop-color="#E76B15" stop-opacity="0.3"></stop></linearGradient></defs></svg> 