<?xml version="1.0" encoding="UTF-8"?> <svg xmlns="http://www.w3.org/2000/svg" xmlns:xlink="http://www.w3.org/1999/xlink" width="619.64" height="553.54" viewBox="0 0 619.64 553.54"><defs><linearGradient id="a" x1="197.9" y1="426.71" x2="473.31" y2="426.71" gradientUnits="userSpaceOnUse"><stop offset="0" stop-color="#e76b15" stop-opacity="0"></stop><stop offset="1" stop-color="#e76b15" stop-opacity="0.3"></stop></linearGradient><linearGradient id="b" x1="180.34" y1="285.19" x2="443.85" y2="285.19" xlink:href="#a"></linearGradient><linearGradient id="c" x1="413.01" y1="500.98" x2="569.26" y2="500.98" xlink:href="#a"></linearGradient><linearGradient id="d" x1="188.01" y1="485.63" x2="314.97" y2="485.63" xlink:href="#a"></linearGradient><linearGradient id="e" x1="59.05" y1="245.48" x2="59.05" y2="176.63" gradientTransform="matrix(0.87, -0.5, 0, 1.15, 11.47, 1.61)" xlink:href="#a"></linearGradient><linearGradient id="f" x1="22.27" y1="106.29" x2="115.37" y2="106.29" gradientUnits="userSpaceOnUse"><stop offset="0" stop-color="#e76b15"></stop><stop offset="1" stop-color="#fcbb60"></stop></linearGradient><linearGradient id="g" x1="22.27" y1="131.36" x2="96.49" y2="131.36" xlink:href="#f"></linearGradient><linearGradient id="h" x1="22.27" y1="159.73" x2="72.97" y2="159.73" xlink:href="#f"></linearGradient><linearGradient id="i" x1="105.56" y1="157.33" x2="168.83" y2="157.33" xlink:href="#f"></linearGradient><linearGradient id="j" x1="526.22" y1="426.71" x2="612.31" y2="426.71" xlink:href="#a"></linearGradient><linearGradient id="k" x1="70.41" y1="522.24" x2="178.82" y2="522.24" xlink:href="#a"></linearGradient><linearGradient id="l" x1="77.06" y1="409.68" x2="128.39" y2="409.68" gradientUnits="userSpaceOnUse"><stop offset="0" stop-color="#322e38"></stop><stop offset="1" stop-color="#615c6e"></stop></linearGradient><linearGradient id="m" x1="128.39" y1="409.68" x2="179.72" y2="409.68" xlink:href="#l"></linearGradient><linearGradient id="n" x1="77.06" y1="365.22" x2="179.72" y2="365.22" xlink:href="#f"></linearGradient><linearGradient id="o" x1="311.19" y1="259.3" x2="383.04" y2="259.3" xlink:href="#l"></linearGradient><linearGradient id="p" x1="349.35" y1="37.43" x2="514.19" y2="196.29" gradientUnits="userSpaceOnUse"><stop offset="0" stop-color="#c5d2e7"></stop><stop offset="0.12" stop-color="#d3dded"></stop><stop offset="0.3" stop-color="#e0e7f3"></stop><stop offset="0.53" stop-color="#e8edf6"></stop><stop offset="1" stop-color="#eaeff7"></stop></linearGradient><linearGradient id="q" x1="576.91" y1="24.18" x2="301.94" y2="232.1" xlink:href="#f"></linearGradient><linearGradient id="r" x1="1955.12" y1="1118.53" x2="1955.12" y2="1092.53" gradientTransform="matrix(-0.87, -0.5, 0, 1.15, 2275.35, 1.61)" xlink:href="#a"></linearGradient></defs><polygon points="473.31 426.71 335.6 506.21 197.9 426.71 335.6 347.21 473.31 426.71" fill="url(#a)"></polygon><polygon points="331.14 458.43 142.5 349.52 142.5 275.11 331.14 384.02 331.14 458.43" fill="#eaeff7" stroke="#e76b15" stroke-linecap="round" stroke-linejoin="round" stroke-width="2"></polygon><polygon points="519.79 349.52 331.14 458.43 331.14 384.02 519.79 275.11 519.79 349.52" fill="#fff" stroke="#e76b15" stroke-linecap="round" stroke-linejoin="round" stroke-width="2"></polygon><polygon points="519.79 275.11 331.14 384.02 142.5 275.11 331.14 166.19 519.79 275.11" fill="#fff" stroke="#e76b15" stroke-linecap="round" stroke-linejoin="round" stroke-width="2"></polygon><polygon points="443.85 229.46 312.09 373.02 180.34 296.95 369.09 197.37 443.85 229.46" fill="url(#b)"></polygon><path d="M229.45,57.45a10.29,10.29,0,0,1,2.2-1,7.77,7.77,0,0,1-.52-2.94A17.48,17.48,0,0,1,239,39.85a7.65,7.65,0,0,1,3.08-1.06c1.7-10,8.64-20.71,16.94-25.5s15.46-2,17,6.35c.46-.32.93-.62,1.41-.89,4.6-2.66,8.67-2.42,11.19.11L294,23.5l-2.63,2.43c0,.27,0,.54,0,.82,0,8.84-6.2,19.58-13.85,24l-.37.2h0L242.75,70.81l-14.1,13L223,79.08c-1.64-1-2.66-3-2.66-5.88C220.36,67.4,224.43,60.35,229.45,57.45Z" fill="#eaeff7" stroke="#e76b15" stroke-linecap="round" stroke-linejoin="round" stroke-width="2"></path><path d="M234.62,62a10.29,10.29,0,0,1,2.2-1,7.77,7.77,0,0,1-.52-2.94,17.48,17.48,0,0,1,7.91-13.7,7.65,7.65,0,0,1,3.08-1.06c1.71-10,8.64-20.71,16.94-25.5s15.46-2,17,6.35c.46-.32.93-.62,1.41-.89,7.65-4.42,13.86-.84,13.86,8s-6.21,19.58-13.86,24c-.12.07-.24.14-.37.2h0l-46.4,26.79v-.14a12.66,12.66,0,0,1-1.27.84c-5,2.9-9.09.55-9.09-5.25S229.6,64.88,234.62,62Z" fill="#fff" stroke="#e76b15" stroke-linejoin="round" stroke-width="2"></path><polygon points="569.26 492.52 476.49 546.08 413.01 509.44 505.79 455.87 569.26 492.52" fill="url(#c)"></polygon><path d="M572.24,466.65l-85.16,49.17a3.81,3.81,0,0,1-3.81,0l-55.86-32.25a3.8,3.8,0,0,1,0-6.59l85.17-49.17a3.79,3.79,0,0,1,3.8,0l55.86,32.25A3.8,3.8,0,0,1,572.24,466.65Z" fill="#fff" stroke="#e76b15" stroke-linecap="round" stroke-linejoin="round" stroke-width="2"></path><path d="M426.16,477.7a1.34,1.34,0,0,0,.68,2.51l76.58-1c5-.06,9.07-2.4,9.18-5.3l1.77-44.37a1.55,1.55,0,0,0-2.33-1.4Z" fill="#fff" stroke="#e76b15" stroke-linecap="round" stroke-linejoin="round" stroke-width="2"></path><polygon points="265.73 448.98 188.01 493.85 237.25 522.28 267.08 505.05 286.25 505.69 284.35 495.08 314.96 477.41 265.73 448.98" fill="url(#d)"></polygon><polygon points="120.19 222.31 5.04 287.7 5.04 209.28 120.19 143.9 120.19 222.31" fill="url(#e)"></polygon><polygon points="124.23 52.24 9.09 118.72 9.09 216.6 60.94 186.66 76.56 201.42 89.69 170.06 124.23 150.12 124.23 52.24" fill="#fff" stroke="#e76b15" stroke-linecap="round" stroke-linejoin="round" stroke-width="2"></polygon><polygon points="124.23 52.24 9.09 118.72 1 114.05 116.15 47.57 124.23 52.24" fill="#fff" stroke="#e76b15" stroke-linecap="round" stroke-linejoin="round" stroke-width="2"></polygon><polygon points="9.09 216.6 1 212.69 1 114.05 9.09 118.72 9.09 216.6" fill="#eaeff7" stroke="#e76b15" stroke-linecap="round" stroke-linejoin="round" stroke-width="2"></polygon><polygon points="115.37 82.63 22.27 136.38 22.27 129.96 115.37 76.21 115.37 82.63" fill="url(#f)"></polygon><polygon points="96.49 113.14 22.27 155.99 22.27 149.58 96.49 106.73 96.49 113.14" fill="url(#g)"></polygon><polygon points="72.97 148.3 22.27 177.57 22.27 171.16 72.97 141.89 72.97 148.3" fill="url(#h)"></polygon><polygon points="105.56 112.18 168.82 148.71 168.82 202.49 140.34 186.04 131.75 194.15 124.54 176.91 105.56 165.96 105.56 112.18" stroke="#e76b15" stroke-linecap="round" stroke-linejoin="round" stroke-width="2" fill="url(#i)"></polygon><polygon points="105.56 111.91 168.82 148.44 173.27 145.87 110 109.35 105.56 111.91" fill="#fff" stroke="#e76b15" stroke-linecap="round" stroke-linejoin="round" stroke-width="2"></polygon><polygon points="168.82 202.22 173.27 200.06 173.27 145.87 168.82 148.44 168.82 202.22" fill="#eaeff7" stroke="#e76b15" stroke-linecap="round" stroke-linejoin="round" stroke-width="2"></polygon><ellipse cx="119.16" cy="150.31" rx="4.03" ry="6.61" transform="translate(-67.27 105.17) rotate(-37.98)" fill="#fff" stroke="#e76b15" stroke-linecap="round" stroke-linejoin="round" stroke-width="2"></ellipse><ellipse cx="136" cy="158.26" rx="4.03" ry="6.61" transform="translate(-68.59 117.22) rotate(-37.98)" fill="#fff" stroke="#e76b15" stroke-linecap="round" stroke-linejoin="round" stroke-width="2"></ellipse><ellipse cx="152.85" cy="166.21" rx="4.03" ry="6.61" transform="translate(-69.91 129.27) rotate(-37.98)" fill="#fff" stroke="#e76b15" stroke-linecap="round" stroke-linejoin="round" stroke-width="2"></ellipse><line x1="76.73" y1="215.8" x2="76.73" y2="237.25" fill="none" stroke="#e76b15" stroke-linejoin="round" stroke-width="2" stroke-dasharray="2 4"></line><polygon points="612.31 426.71 569.26 451.56 526.22 426.71 569.26 401.86 612.31 426.71" fill="url(#j)"></polygon><circle cx="128.39" cy="305.81" r="3.53" fill="#e76b15"></circle><polygon points="178.82 522.24 124.62 553.54 70.41 522.24 124.62 490.95 178.82 522.24" fill="url(#k)"></polygon><polygon points="128.39 454.13 77.06 424.5 77.06 365.22 128.39 394.86 128.39 454.13" fill="url(#l)"></polygon><polygon points="179.72 424.5 128.39 454.13 128.39 394.86 179.72 365.22 179.72 424.5" fill="url(#m)"></polygon><polygon points="179.72 365.22 128.39 394.86 77.06 365.22 128.39 335.59 179.72 365.22" fill="url(#n)"></polygon><circle cx="128.15" cy="394.8" r="3.53" fill="#e76b15"></circle><circle cx="51.27" cy="350.33" r="3.53" fill="#e76b15"></circle><circle cx="51.27" cy="439.48" r="3.53" fill="#e76b15"></circle><circle cx="128.39" cy="483.91" r="3.53" fill="#e76b15"></circle><circle cx="205.51" cy="439.48" r="3.53" fill="#e76b15"></circle><circle cx="205.51" cy="351.05" r="3.53" fill="#e76b15"></circle><polygon points="128.39 483.91 51.27 439.38 51.27 350.33 128.39 394.86 128.39 483.91" fill="none" stroke="#e76b15" stroke-linecap="round" stroke-linejoin="round" stroke-width="2"></polygon><polygon points="205.51 439.38 128.39 483.91 128.39 394.86 205.51 350.33 205.51 439.38" fill="none" stroke="#e76b15" stroke-linecap="round" stroke-linejoin="round" stroke-width="2"></polygon><polygon points="205.51 350.33 128.39 394.86 51.27 350.33 128.39 305.81 205.51 350.33" fill="none" stroke="#e76b15" stroke-linecap="round" stroke-linejoin="round" stroke-width="2"></polygon><line x1="310.33" y1="89.23" x2="251.49" y2="123.61" fill="none" stroke="#fff" stroke-miterlimit="10" stroke-width="2"></line><path d="M473.31,450.48l-18.05-11.82a19,19,0,0,1-8.6-15.91v-46a12.72,12.72,0,0,0-6.13-10.88L420,353.41" fill="none" stroke="#e76b15" stroke-linecap="round" stroke-linejoin="round" stroke-width="2"></path><ellipse cx="420.01" cy="354.66" rx="7.6" ry="4.39" transform="translate(-97.13 541.07) rotate(-60)" fill="#e76b15"></ellipse><polygon points="311.19 303.49 383.04 232.29 343.12 215.1 311.19 303.49" fill="url(#o)"></polygon><path d="M478.93,286a1,1,0,0,1-.47-.12L189.18,133.25a1,1,0,0,1-.45-.34,1,1,0,0,1-.17-.85,1,1,0,0,1,.56-.68,1.14,1.14,0,0,1,.4-.08.65.65,0,0,1,.2,0C198,130,442.05,45.68,570.52,1.06a1,1,0,0,1,.33-.06,1,1,0,0,1,.95,1.31l-91.92,283a1,1,0,0,1-.57.62A1,1,0,0,1,478.93,286Z" fill="url(#p)"></path><path d="M570.85,2h0m0,0L478.93,285,189.58,132.33h0C195.62,132.33,570.85,2,570.85,2M189.52,132.3l.06,0s-.06,0-.06,0M570.85,0h-.12a2.22,2.22,0,0,0-.58.13C442.73,44.38,200.61,128.06,189.65,130.3h-.13a2.1,2.1,0,0,0-.81.17,2,2,0,0,0-1.12,1.34,2.06,2.06,0,0,0,.33,1.7,2,2,0,0,0,.89.67L478,286.76a2,2,0,0,0,.93.23,2,2,0,0,0,1.9-1.38L572.72,2.71a1.87,1.87,0,0,0,.13-.71,2,2,0,0,0-2-2Zm0,4h0Z" fill="#fff"></path><polygon points="311.19 303.49 343.12 215.1 570.85 2 272.99 175.6 311.19 303.49" fill="url(#q)"></polygon><polygon points="560.42 303.06 603.9 327.76 603.9 298.14 560.42 273.45 560.42 303.06" fill="url(#r)"></polygon><line x1="576.32" y1="295.69" x2="576.32" y2="314.33" fill="none" stroke="#e76b15" stroke-linejoin="round" stroke-width="2" stroke-dasharray="2 4"></line><polygon points="559.04 236.37 602.25 261.32 602.25 298.04 582.79 286.81 576.93 292.35 572 280.58 559.04 273.1 559.04 236.37" fill="#fff" stroke="#e76b15" stroke-linecap="round" stroke-linejoin="round" stroke-width="2"></polygon><polygon points="559.04 236.37 602.25 261.32 605.28 259.56 562.08 234.62 559.04 236.37" fill="#fff" stroke="#e76b15" stroke-linecap="round" stroke-linejoin="round" stroke-width="2"></polygon><polygon points="602.25 298.04 605.28 296.57 605.28 259.56 602.25 261.32 602.25 298.04" fill="none" stroke="#e76b15" stroke-linecap="round" stroke-linejoin="round" stroke-width="2"></polygon><ellipse cx="568.33" cy="262.6" rx="2.75" ry="4.52" transform="translate(-41.24 405.38) rotate(-37.98)" fill="#e76b15"></ellipse><ellipse cx="579.83" cy="268.03" rx="2.75" ry="4.52" transform="translate(-42.14 413.61) rotate(-37.98)" fill="#e76b15"></ellipse><ellipse cx="591.34" cy="273.45" rx="2.75" ry="4.52" transform="translate(-43.04 421.84) rotate(-37.98)" fill="#e76b15"></ellipse><polygon points="576.87 425.91 535.1 401.8 535.1 353.57 576.87 377.68 576.87 425.91" fill="#eaeff7" stroke="#e76b15" stroke-linecap="round" stroke-linejoin="round" stroke-width="2"></polygon><polygon points="618.64 401.8 576.87 425.91 576.87 377.68 618.64 353.57 618.64 401.8" fill="#fff" stroke="#e76b15" stroke-linecap="round" stroke-linejoin="round" stroke-width="2"></polygon><polygon points="618.64 353.57 576.87 377.68 535.1 353.57 576.87 329.45 618.64 353.57" fill="#fff" stroke="#e76b15" stroke-linecap="round" stroke-linejoin="round" stroke-width="2"></polygon><line x1="377.33" y1="67.92" x2="331.14" y2="83.79" fill="none" stroke="#e76b15" stroke-linecap="round" stroke-linejoin="round" stroke-width="2"></line><line x1="225.43" y1="152.75" x2="270.14" y2="175.6" fill="none" stroke="#e76b15" stroke-linecap="round" stroke-linejoin="round" stroke-width="2"></line><polyline points="525.28 16.81 570.85 2 554.11 53.54" fill="none" stroke="#e76b15" stroke-linecap="round" stroke-linejoin="round" stroke-width="2"></polyline><polyline points="399.2 244.43 340.26 215.1 377.33 180.41" fill="none" stroke="#e76b15" stroke-linecap="round" stroke-linejoin="round" stroke-width="2"></polyline><line x1="494.05" y1="239.75" x2="475.68" y2="296.3" fill="none" stroke="#e76b15" stroke-linecap="round" stroke-linejoin="round" stroke-width="2"></line><line x1="384.15" y1="255.77" x2="353.76" y2="288.87" fill="none" stroke="#e76b15" stroke-linecap="round" stroke-linejoin="round" stroke-width="2"></line><line x1="241.34" y1="179.23" x2="215.95" y2="193.9" fill="none" stroke="#e76b15" stroke-linecap="round" stroke-linejoin="round" stroke-width="2"></line><line x1="207.62" y1="198.7" x2="195.99" y2="205.42" fill="none" stroke="#e76b15" stroke-linecap="round" stroke-linejoin="round" stroke-width="2"></line></svg> 