<?xml version="1.0" encoding="UTF-8"?> <svg xmlns="http://www.w3.org/2000/svg" width="145" height="145" viewBox="0 0 145 145" fill="none"><path d="M57.7688 96.5039H24.1592V144.021H57.7688V96.5039Z" fill="url(#paint0_linear)"></path><path d="M40.9111 128.639V139.385" stroke="#E76B15" stroke-width="2" stroke-miterlimit="10" stroke-linejoin="round" stroke-dasharray="2 2"></path><path d="M91.5892 77.75H57.9795V125.267H91.5892V77.75Z" fill="url(#paint1_linear)"></path><path d="M123.724 66.3721H90.1143V113.889H123.724V66.3721Z" fill="url(#paint2_linear)"></path><path d="M123.618 56.0468L105.707 66.372L87.7959 56.0468L105.707 45.6162L123.618 56.0468Z" fill="white" stroke="#E76B15" stroke-width="2" stroke-miterlimit="10" stroke-linecap="round" stroke-linejoin="round"></path><path d="M105.707 87.1279L87.7959 76.8027V56.0469L105.707 66.3721V87.1279Z" fill="white" stroke="#E76B15" stroke-width="2" stroke-miterlimit="10" stroke-linecap="round" stroke-linejoin="round"></path><path d="M105.707 87.1279L123.618 76.8027V56.0469L105.707 66.3721V87.1279Z" fill="white" stroke="#E76B15" stroke-width="2" stroke-miterlimit="10" stroke-linecap="round" stroke-linejoin="round"></path><path d="M92.3265 73.8526L74.4154 84.2832L56.3989 73.8526L74.4154 63.5273L92.3265 73.8526Z" fill="white" stroke="#E76B15" stroke-width="2" stroke-miterlimit="10" stroke-linecap="round" stroke-linejoin="round"></path><path d="M82.7388 73.4316L74.5208 78.1728L66.3027 73.4316L74.5208 68.6904L82.7388 73.4316Z" fill="white" stroke="#E76B15" stroke-width="2" stroke-miterlimit="10" stroke-linecap="round" stroke-linejoin="round"></path><path d="M74.4154 104.933L56.3989 94.6074V73.8516L74.4154 84.2821V104.933Z" fill="white" stroke="#E76B15" stroke-width="2" stroke-miterlimit="10" stroke-linecap="round" stroke-linejoin="round"></path><path d="M74.4155 104.933L92.3266 94.6074V73.8516L74.4155 84.2821V104.933Z" fill="white" stroke="#E76B15" stroke-width="2" stroke-miterlimit="10" stroke-linecap="round" stroke-linejoin="round"></path><path d="M87.0581 76.9077L96.0137 71.7451" stroke="#E76B15" stroke-width="2" stroke-miterlimit="10" stroke-linecap="round" stroke-linejoin="round"></path><path d="M55.7671 95.0298L64.7226 89.8672" stroke="#E76B15" stroke-width="2" stroke-miterlimit="10" stroke-linecap="round" stroke-linejoin="round"></path><path d="M58.9276 93.1328L40.9111 103.563L23 93.1328L40.9111 82.8076L58.9276 93.1328Z" fill="white" stroke="#E76B15" stroke-width="2" stroke-miterlimit="10" stroke-linecap="round" stroke-linejoin="round"></path><path d="M40.9111 124.319L23 113.889V93.1328L40.9111 103.563V124.319Z" fill="white" stroke="#E76B15" stroke-width="2" stroke-miterlimit="10" stroke-linecap="round" stroke-linejoin="round"></path><path d="M40.9111 124.319L58.9276 113.889V93.1328L40.9111 103.563V124.319Z" fill="white" stroke="#E76B15" stroke-width="2" stroke-miterlimit="10" stroke-linecap="round" stroke-linejoin="round"></path><path d="M98.0175 74.4577C98.9213 73.9284 98.8911 72.1967 97.95 70.59C97.009 68.9832 95.5134 68.1098 94.6096 68.6392C93.7058 69.1685 93.736 70.9002 94.6771 72.5069C95.6182 74.1137 97.1137 74.9871 98.0175 74.4577Z" stroke="#E76B15" stroke-width="2" stroke-miterlimit="10" stroke-linecap="round" stroke-linejoin="round"></path><path d="M74.415 108.094V118.314" stroke="#E76B15" stroke-width="2" stroke-miterlimit="10" stroke-linejoin="round" stroke-dasharray="2 2"></path><path d="M105.707 91.2363V100.403" stroke="#E76B15" stroke-width="2" stroke-miterlimit="10" stroke-linejoin="round" stroke-dasharray="2 2"></path><path d="M74.415 72.5883V51.3057" stroke="#E76B15" stroke-width="2" stroke-miterlimit="10" stroke-linecap="round" stroke-linejoin="round"></path><path d="M99.9123 18.3277L93.4854 14.1133C92.8532 13.6919 92.221 13.4811 91.5889 13.3758C89.9031 13.1651 88.0067 13.5865 85.7941 14.7455C84.9512 15.1669 84.2137 15.799 83.4762 16.4312C83.4762 16.1151 83.4762 15.799 83.4762 15.483C83.4762 5.15774 76.1011 1.04872 67.2509 6.3167C59.7703 10.7418 53.5541 20.2241 51.8684 29.1797C51.2362 29.3904 50.7094 29.7065 50.0773 30.0226C42.9128 34.237 37.0127 44.3515 37.0127 52.6749C37.0127 56.3624 38.1716 59.1018 40.0681 60.5768C40.4896 60.8929 40.8056 61.1036 41.2271 61.3143L47.2326 65.1073L57.7685 55.7303L85.8995 39.5049C91.6942 36.1334 96.4354 28.1261 96.6461 21.3831L99.9123 18.3277Z" fill="white" stroke="#E76B15" stroke-width="2" stroke-miterlimit="10" stroke-linejoin="round"></path><path d="M91.273 18.3279C90.4301 18.7494 89.6926 19.3815 88.9551 20.0137C88.9551 19.6976 88.9551 19.3815 88.9551 19.0655C88.9551 8.84559 81.7907 4.63122 72.8351 9.79383C65.3546 14.1136 59.033 23.7013 57.2419 32.7622C56.6098 32.9729 56.083 33.289 55.4508 33.6051C48.2864 37.8194 42.3862 47.9339 42.3862 56.2573C42.3862 64.5807 48.2864 67.9522 55.4508 63.8432L91.273 43.1928C97.1731 39.7159 102.02 31.3925 102.02 24.5442C102.02 17.6958 97.1731 14.8511 91.273 18.3279Z" fill="white" stroke="#E76B15" stroke-width="2" stroke-miterlimit="10" stroke-linejoin="round"></path><path d="M66.1972 34.0264L60.5078 43.9302L66.1972 47.3017" stroke="#E76B15" stroke-width="2" stroke-miterlimit="10" stroke-linecap="round" stroke-linejoin="round"></path><path d="M80.4204 25.8086L86.1098 29.1801L80.4204 38.9785" stroke="#E76B15" stroke-width="2" stroke-miterlimit="10" stroke-linecap="round" stroke-linejoin="round"></path><path d="M78.8786 34.7979C79.4605 33.7901 79.442 32.69 78.8373 32.3409C78.2326 31.9918 77.2707 32.5257 76.6888 33.5336C76.107 34.5414 76.1255 35.6414 76.7301 35.9906C77.3348 36.3397 78.2968 35.8057 78.8786 34.7979Z" fill="#E76B15"></path><path d="M74.3235 37.3994C74.9053 36.3916 74.8869 35.2916 74.2822 34.9425C73.6775 34.5933 72.7156 35.1273 72.1337 36.1351C71.5518 37.143 71.5703 38.243 72.175 38.5921C72.7797 38.9412 73.7416 38.4073 74.3235 37.3994Z" fill="#E76B15"></path><path d="M69.716 40.0918C70.2979 39.084 70.2794 37.984 69.6747 37.6348C69.07 37.2857 68.1081 37.8197 67.5263 38.8275C66.9444 39.8353 66.9629 40.9354 67.5675 41.2845C68.1722 41.6336 69.1342 41.0997 69.716 40.0918Z" fill="#E76B15"></path><path d="M76.3028 53.6491C77.3615 51.8415 77.3649 49.8755 76.3105 49.2579C75.2561 48.6403 73.543 49.605 72.4843 51.4126C71.4256 53.2202 71.4222 55.1862 72.4766 55.8038C73.531 56.4213 75.244 55.4567 76.3028 53.6491Z" fill="white" stroke="#E76B15" stroke-width="2" stroke-miterlimit="10" stroke-linecap="round" stroke-linejoin="round"></path><defs><linearGradient id="paint0_linear" x1="40.9597" y1="144.07" x2="40.9597" y2="96.5392" gradientUnits="userSpaceOnUse"><stop stop-color="#E76B15" stop-opacity="0"></stop><stop offset="1" stop-color="#E76B15" stop-opacity="0.3"></stop></linearGradient><linearGradient id="paint1_linear" x1="74.7808" y1="125.236" x2="74.7808" y2="77.7054" gradientUnits="userSpaceOnUse"><stop stop-color="#E76B15" stop-opacity="0"></stop><stop offset="1" stop-color="#E76B15" stop-opacity="0.3"></stop></linearGradient><linearGradient id="paint2_linear" x1="106.875" y1="113.916" x2="106.875" y2="66.3852" gradientUnits="userSpaceOnUse"><stop stop-color="#E76B15" stop-opacity="0"></stop><stop offset="1" stop-color="#E76B15" stop-opacity="0.3"></stop></linearGradient></defs></svg> 