<?xml version="1.0" encoding="UTF-8"?> <svg xmlns="http://www.w3.org/2000/svg" width="145" height="145" viewBox="0 0 145 145" fill="none"><g clip-path="url(#clip0)"><path d="M76.8057 13C87.3422 13 97.1989 15.7191 105.809 20.5908Z" fill="white"></path><path d="M76.8057 13C87.3422 13 97.1989 15.7191 105.809 20.5908" stroke="#E76B15" stroke-width="2" stroke-miterlimit="10" stroke-linejoin="round" stroke-dasharray="2 4"></path><path d="M17.8926 71.9139C17.8926 39.398 44.2905 13 76.8065 13" stroke="#E76B15" stroke-width="2" stroke-miterlimit="10" stroke-linejoin="round"></path><path d="M39.8731 117.8C33.6418 112.815 28.4302 106.471 24.6914 99.333Z" fill="white"></path><path d="M39.8731 117.8C33.6418 112.815 28.4302 106.471 24.6914 99.333" stroke="#E76B15" stroke-width="2" stroke-miterlimit="10" stroke-linejoin="round" stroke-dasharray="2 4"></path><path d="M68.4212 130.264C57.7714 128.678 48.0279 124.373 39.9839 117.802Z" fill="white"></path><path d="M68.4212 130.264C57.7714 128.678 48.0279 124.373 39.9839 117.802" stroke="#E76B15" stroke-width="2" stroke-miterlimit="10" stroke-linejoin="round"></path><path d="M124.164 107.037C117.933 115.421 109.549 122.105 99.8052 126.184Z" fill="white"></path><path d="M124.164 107.037C117.933 115.421 109.549 122.105 99.8052 126.184" stroke="#E76B15" stroke-width="2" stroke-miterlimit="10" stroke-linejoin="round" stroke-dasharray="2 4"></path><path d="M124.844 37.6982C131.755 47.3284 135.834 59.1112 135.834 71.9136C135.834 85.056 131.529 97.2919 124.165 107.035" stroke="#E76B15" stroke-width="2" stroke-miterlimit="10" stroke-linejoin="round"></path><path fill-rule="evenodd" clip-rule="evenodd" d="M76.8076 27.3867C52.2223 27.3867 32.2822 47.3268 32.2822 71.912C32.2822 91.6256 45.0847 108.28 62.7589 114.171C65.0248 114.511 65.8178 113.265 65.8178 112.019C65.8178 110.999 65.8178 107.487 65.8178 103.748C54.6015 105.788 51.7691 101.029 50.8628 98.5366C50.4096 97.2904 48.1437 93.325 46.3309 92.192C44.7448 91.399 42.5922 89.2463 46.3309 89.2463C49.8431 89.2463 52.3356 92.4186 53.1287 93.7782C57.0941 100.463 63.5519 98.6499 66.0444 97.4037C66.3843 94.458 67.6306 92.5319 68.8768 91.399C59.0201 90.266 48.5969 86.4139 48.5969 69.4195C48.5969 64.5478 50.2963 60.5824 53.1287 57.4102C52.6755 56.2772 51.0894 51.7454 53.5819 45.6274C53.5819 45.6274 57.3206 44.4944 65.8178 50.1592C69.33 49.1396 73.1821 48.6864 76.9209 48.6864C80.6596 48.6864 84.5117 49.1396 88.0239 50.1592C96.5211 44.3811 100.26 45.6274 100.26 45.6274C102.752 51.7454 101.166 56.2772 100.713 57.4102C103.545 60.5824 105.245 64.4345 105.245 69.4195C105.245 86.5272 94.8216 90.266 84.9649 91.399C86.551 92.7585 88.0239 95.4776 88.0239 99.6696C88.0239 105.674 88.0239 110.433 88.0239 111.906C88.0239 113.039 88.8169 114.511 91.0829 114.058C108.644 108.167 121.446 91.5123 121.446 71.7988C121.333 47.3268 101.506 27.3867 76.8076 27.3867Z" fill="url(#paint0_linear)" stroke="#E76B15" stroke-width="2" stroke-miterlimit="10" stroke-linejoin="round"></path><path d="M89.381 137.512L76.8052 144.763V130.261L89.381 123.01V137.512Z" fill="white" stroke="#E76B15" stroke-width="2" stroke-miterlimit="10" stroke-linecap="round" stroke-linejoin="round"></path><path d="M64.23 137.512L76.8058 144.763V130.261L64.23 123.01V137.512Z" fill="white" stroke="#E76B15" stroke-width="2" stroke-miterlimit="10" stroke-linecap="round" stroke-linejoin="round"></path><path d="M76.8068 130.261L89.3827 123.01L76.8068 115.646L64.231 123.01L76.8068 130.261Z" fill="white" stroke="#E76B15" stroke-width="2" stroke-miterlimit="10" stroke-linecap="round" stroke-linejoin="round"></path><path d="M143.99 45.6269L131.415 52.8778V38.3759L143.99 31.125V45.6269Z" fill="white" stroke="#E76B15" stroke-width="2" stroke-miterlimit="10" stroke-linecap="round" stroke-linejoin="round"></path><path d="M118.839 45.6269L131.415 52.8778V38.3759L118.839 31.125V45.6269Z" fill="white" stroke="#E76B15" stroke-width="2" stroke-miterlimit="10" stroke-linecap="round" stroke-linejoin="round"></path><path d="M131.415 38.3788L143.991 31.1279L131.415 23.877L118.839 31.1279L131.415 38.3788Z" fill="white" stroke="#E76B15" stroke-width="2" stroke-miterlimit="10" stroke-linecap="round" stroke-linejoin="round"></path><path d="M27.862 82.7929L15.2861 90.1571V75.542L27.862 68.291V82.7929Z" fill="white" stroke="#E76B15" stroke-width="2" stroke-miterlimit="10" stroke-linecap="round" stroke-linejoin="round"></path><path d="M2.71094 82.7929L15.2868 90.1571V75.542L2.71094 68.291V82.7929Z" fill="white" stroke="#E76B15" stroke-width="2" stroke-miterlimit="10" stroke-linecap="round" stroke-linejoin="round"></path><path d="M15.2868 75.539L27.8626 68.2881L15.2868 61.0371L2.71094 68.2881L15.2868 75.539Z" fill="white" stroke="#E76B15" stroke-width="2" stroke-miterlimit="10" stroke-linecap="round" stroke-linejoin="round"></path></g><defs><linearGradient id="paint0_linear" x1="76.8505" y1="113.555" x2="76.8505" y2="27.5434" gradientUnits="userSpaceOnUse"><stop stop-color="#E76B15" stop-opacity="0"></stop><stop offset="1" stop-color="#E76B15" stop-opacity="0.3"></stop></linearGradient><clipPath id="clip0"><rect width="145" height="145" fill="white"></rect></clipPath></defs></svg> 