<?xml version="1.0" encoding="UTF-8"?> <svg xmlns="http://www.w3.org/2000/svg" width="145" height="145" viewBox="0 0 145 145" fill="none"><g clip-path="url(#clip0)"><path d="M34.4559 117.665L70.3303 97.0048C71.4572 96.3474 72.772 96.3474 73.8989 97.0048L109.773 117.665C112.121 119.074 112.121 122.455 109.773 123.864L73.8989 144.524C72.772 145.182 71.4572 145.182 70.3303 144.524L34.4559 123.864C32.1081 122.455 32.1081 118.98 34.4559 117.665Z" fill="url(#paint0_linear)"></path><path d="M27.8812 103.961L71.6442 78.6987C72.2076 78.3231 72.9589 78.3231 73.6163 78.6987L117.379 103.961C118.694 104.712 118.694 106.591 117.379 107.342L76.4337 131.008C74.0859 132.323 71.2685 132.323 68.9207 131.008L27.8812 107.342C26.6604 106.591 26.6604 104.712 27.8812 103.961Z" fill="white" stroke="#E76B15" stroke-width="2" stroke-miterlimit="10" stroke-linecap="round" stroke-linejoin="round"></path><path d="M42.5315 103.399L72.6772 120.773V56.819L42.5315 39.4453V103.399Z" fill="white" stroke="#E76B15" stroke-width="2" stroke-miterlimit="10" stroke-linecap="round" stroke-linejoin="round"></path><path d="M102.73 103.399L72.6777 120.773V56.819L102.73 39.4453V103.399Z" fill="white" stroke="#E76B15" stroke-width="2" stroke-miterlimit="10" stroke-linecap="round" stroke-linejoin="round"></path><path d="M42.5315 39.443L72.6772 22.0693L102.729 39.443L72.6772 56.8167L42.5315 39.443Z" fill="white" stroke="#E76B15" stroke-width="2" stroke-miterlimit="10" stroke-linecap="round" stroke-linejoin="round"></path><path fill-rule="evenodd" clip-rule="evenodd" d="M57.5558 56.5358C51.0759 52.7793 45.7229 55.7845 45.7229 63.3913C45.7229 69.4017 49.1037 76.4451 53.7993 80.9529C54.3628 81.4224 54.6445 81.1407 54.6445 80.7651C54.6445 80.4833 54.6445 79.3564 54.6445 78.2294C51.6394 77.1025 50.8881 75.2242 50.7002 74.379C50.6063 73.9095 49.9489 72.4069 49.4794 71.7495C49.1037 71.2799 48.4463 70.2469 49.4794 70.8104C50.4185 71.3739 51.0759 72.6886 51.2637 73.2521C52.2967 75.8816 53.9871 76.3512 54.7384 76.3512C54.8324 75.506 55.1141 75.1303 55.4897 74.9425C52.8602 73.0643 50.1368 70.3408 50.1368 65.0818C50.1368 63.5792 50.6063 62.6401 51.3576 62.0766C51.2637 61.7009 50.7941 60.0105 51.4515 58.5079C51.4515 58.5079 52.4846 58.6958 54.7384 61.7948C55.6776 62.0766 56.7106 62.4522 57.6497 63.0157C58.6827 63.5792 59.6219 64.3305 60.561 65.1757C62.8149 64.7061 63.8479 65.6452 63.8479 65.6452C64.5053 67.8991 64.1296 69.0261 63.9418 69.3078C64.6931 70.7165 65.1627 72.1252 65.1627 73.6277C65.1627 78.8868 62.4392 78.4173 59.8097 77.2903C60.2792 77.9477 60.561 78.9807 60.561 80.2955C60.561 82.0798 60.561 83.5824 60.561 84.052C60.561 84.4276 60.7488 84.9911 61.4062 85.1789C66.1018 86.0241 69.4826 82.925 69.4826 76.9147C69.3887 69.4956 64.1296 60.2923 57.5558 56.5358Z" fill="#E76B15"></path><path d="M90.2397 27.7011L72.6781 37.8436L55.0227 27.7011L72.6781 17.5586L90.2397 27.7011Z" fill="white" stroke="#E76B15" stroke-width="2" stroke-miterlimit="10" stroke-linecap="round" stroke-linejoin="round"></path><path d="M55.0227 36.4369V27.7031L72.6782 37.8456V46.6733L55.0227 36.4369Z" fill="white" stroke="#E76B15" stroke-width="2" stroke-miterlimit="10" stroke-linecap="round" stroke-linejoin="round"></path><path d="M90.2436 27.7031V36.4369L72.6821 46.6733V37.8456L90.2436 27.7031Z" fill="white" stroke="#E76B15" stroke-width="2" stroke-miterlimit="10" stroke-linecap="round" stroke-linejoin="round"></path><path d="M83.944 19.2529L72.2989 25.9206L60.7478 19.2529L72.2989 12.4912L83.944 19.2529Z" fill="white" stroke="#E76B15" stroke-width="2" stroke-miterlimit="10" stroke-linecap="round" stroke-linejoin="round"></path><path d="M60.7478 24.9767V19.248L72.299 25.9158V31.6444L60.7478 24.9767Z" fill="white" stroke="#E76B15" stroke-width="2" stroke-miterlimit="10" stroke-linecap="round" stroke-linejoin="round"></path><path d="M83.9437 19.248V24.9767L72.2986 31.6444V25.9158L83.9437 19.248Z" fill="white" stroke="#E76B15" stroke-width="2" stroke-miterlimit="10" stroke-linecap="round" stroke-linejoin="round"></path><path d="M69.0161 7.88867V18.219" stroke="#E76B15" stroke-width="2" stroke-miterlimit="10" stroke-linecap="round" stroke-linejoin="round"></path><path d="M74.8054 0.94043V18.408" stroke="#E76B15" stroke-width="2" stroke-miterlimit="10" stroke-linecap="round" stroke-linejoin="round"></path><path d="M77.1836 109.887L80.7522 107.915V103.783L77.1836 105.849V109.887Z" fill="#E76B15"></path><path d="M83.4746 106.317L86.9494 104.251V100.213L83.4746 102.279V106.317Z" fill="#E76B15"></path><path d="M89.7708 102.656L93.2455 100.684V96.5518L89.7708 98.6178V102.656Z" fill="#E76B15"></path><path d="M77.1836 102.655L80.7522 100.683V96.5508L77.1836 98.6168V102.655Z" fill="#E76B15"></path><path d="M83.4746 99.0847L86.9494 97.0187V92.9805L83.4746 95.0465V99.0847Z" fill="#E76B15"></path><path d="M89.7708 95.4204L93.2455 93.4483V89.4102L89.7708 91.3823V95.4204Z" fill="#E76B15"></path><path d="M95.9661 91.8533L99.5347 89.7872V85.749L95.9661 87.8151V91.8533Z" fill="#E76B15"></path><path d="M77.1836 95.4117L80.7522 93.4395V89.4014L77.1836 91.3735V95.4117Z" fill="#E76B15"></path><path d="M89.7708 88.1793L93.2455 86.2072V82.1689L89.7708 84.1411V88.1793Z" fill="#E76B15"></path><path d="M95.9661 84.6121L99.5347 82.546V78.5078L95.9661 80.5739V84.6121Z" fill="#E76B15"></path><path d="M77.1836 88.1891L80.7522 86.2169V82.1787L77.1836 84.1509V88.1891Z" fill="#E76B15"></path><path d="M83.4746 84.6209L86.9494 82.5548V78.5166L83.4746 80.5827V84.6209Z" fill="#E76B15"></path><path d="M89.7708 81.0506L93.2455 78.9845V74.9463L89.7708 76.9184V81.0506Z" fill="#E76B15"></path><path d="M95.9661 77.3894L99.5347 75.4172V71.2852L95.9661 73.3512V77.3894Z" fill="#E76B15"></path><path d="M83.4746 77.3894L86.9494 75.4172V71.2852L83.4746 73.3512V77.3894Z" fill="#E76B15"></path><path d="M89.7656 73.8191L93.2404 71.7531V67.7148L89.7656 69.7809V73.8191Z" fill="#E76B15"></path><path d="M95.9661 70.158L99.5347 68.1858V64.0537L95.9661 66.1198V70.158Z" fill="#E76B15"></path><path d="M77.1836 73.8191L80.7522 71.7531V67.7148L77.1836 69.7809V73.8191Z" fill="#E76B15"></path><path d="M83.4746 70.158L86.9494 68.1858V64.0537L83.4746 66.1198V70.158Z" fill="#E76B15"></path><path d="M89.7708 66.5877L93.2455 64.5216V60.4834L89.7708 62.5495V66.5877Z" fill="#E76B15"></path><path d="M95.9661 62.9235L99.5347 60.9513V56.9131L95.9661 58.8852V62.9235Z" fill="#E76B15"></path><path d="M77.1836 66.5877L80.7522 64.5216V60.4834L77.1836 62.5495V66.5877Z" fill="#E76B15"></path><path d="M83.4746 62.9235L86.9494 60.9513V56.9131L83.4746 58.8852V62.9235Z" fill="#E76B15"></path><path d="M89.7708 59.3562L93.2455 57.2902V53.252L89.7708 55.318V59.3562Z" fill="#E76B15"></path><path d="M56.2466 91.9395V110.534" stroke="#E76B15" stroke-width="2" stroke-miterlimit="10" stroke-linecap="round" stroke-linejoin="round"></path><g clip-path="url(#clip1)"><path d="M50.9998 108V99.0746C50.9998 97.9104 51.7545 96.7463 52.7922 96.3582L55.9998 95" stroke="#E76B15" stroke-width="2" stroke-miterlimit="10" stroke-linecap="round" stroke-linejoin="round"></path><path d="M62.9998 115.2V107.4C62.9998 105.9 62.3998 104.4 61.2998 103.3L56.9998 99" stroke="#E76B15" stroke-width="2" stroke-miterlimit="10" stroke-linecap="round" stroke-linejoin="round"></path></g><path d="M57.8062 92.0663C58.6596 91.5736 58.6576 89.9726 57.8019 88.4903C56.9461 87.0081 55.5605 86.2059 54.7071 86.6986C53.8537 87.1914 53.8556 88.7924 54.7114 90.2747C55.5672 91.7569 56.9528 92.5591 57.8062 92.0663Z" fill="white" stroke="#E76B15" stroke-width="2" stroke-miterlimit="10" stroke-linecap="round" stroke-linejoin="round"></path><path d="M27.0002 61.1427L16.5002 67.2141V55.1427L27.0002 49.0713V61.1427Z" fill="white" stroke="#E76B15" stroke-width="2" stroke-miterlimit="10" stroke-linecap="round" stroke-linejoin="round"></path><path d="M6 61.1427L16.5 67.2141V55.1427L6 49.0713V61.1427Z" fill="white" stroke="#E76B15" stroke-width="2" stroke-miterlimit="10" stroke-linecap="round" stroke-linejoin="round"></path><path d="M16.5 55.1429L27 49.0714L16.5 43L6 49.0714L16.5 55.1429Z" fill="white" stroke="#E76B15" stroke-width="2" stroke-miterlimit="10" stroke-linecap="round" stroke-linejoin="round"></path><path d="M139 88.326L125.5 96.132V80.6117L139 72.8057V88.326Z" fill="white" stroke="#E76B15" stroke-width="2" stroke-miterlimit="10" stroke-linecap="round" stroke-linejoin="round"></path><path d="M112 88.326L125.5 96.132V80.6117L112 72.8057V88.326Z" fill="white" stroke="#E76B15" stroke-width="2" stroke-miterlimit="10" stroke-linecap="round" stroke-linejoin="round"></path><path d="M125.5 80.6121L139 72.8061L125.5 65L112 72.8061L125.5 80.6121Z" fill="white" stroke="#E76B15" stroke-width="2" stroke-miterlimit="10" stroke-linecap="round" stroke-linejoin="round"></path><line x1="16" y1="71" x2="16" y2="87" stroke="#E76B15" stroke-width="2" stroke-dasharray="2 3"></line><line x1="126" y1="100" x2="126" y2="116" stroke="#E76B15" stroke-width="2" stroke-dasharray="2 3"></line></g><defs><linearGradient id="paint0_linear" x1="72.123" y1="145.005" x2="72.123" y2="96.4733" gradientUnits="userSpaceOnUse"><stop offset="0.0356983" stop-color="#E76B15" stop-opacity="0"></stop><stop offset="0.8046" stop-color="#E76B15" stop-opacity="0.3"></stop></linearGradient><clipPath id="clip0"><rect width="145" height="145" fill="white"></rect></clipPath><clipPath id="clip1"><rect width="14.2" height="22.4" fill="white" transform="translate(49.9998 93)"></rect></clipPath></defs></svg> 