<?xml version="1.0" encoding="UTF-8"?> <svg xmlns="http://www.w3.org/2000/svg" xmlns:xlink="http://www.w3.org/1999/xlink" width="785.1" height="732.74" viewBox="0 0 785.1 732.74"><defs><linearGradient id="a" x1="54.39" y1="399.69" x2="54.39" y2="330.84" gradientTransform="matrix(0.87, -0.5, 0, 1.15, 68.08, 35.46)" gradientUnits="userSpaceOnUse"><stop offset="0" stop-color="#e76b15" stop-opacity="0"></stop><stop offset="1" stop-color="#e76b15" stop-opacity="0.3"></stop></linearGradient><linearGradient id="b" x1="157" y1="443.11" x2="157" y2="359.53" gradientTransform="matrix(1, 0, 0, 1, 0, 0)" xlink:href="#a"></linearGradient><linearGradient id="c" x1="106.74" y1="478.32" x2="106.74" y2="394.73" gradientTransform="matrix(1, 0, 0, 1, 0, 0)" xlink:href="#a"></linearGradient><linearGradient id="d" x1="259.96" y1="637.85" x2="570.46" y2="637.85" gradientTransform="matrix(1, 0, 0, 1, 0, 0)" xlink:href="#a"></linearGradient><linearGradient id="e" x1="560.47" y1="659.6" x2="785.1" y2="659.6" gradientTransform="matrix(1, 0, 0, 1, 0, 0)" xlink:href="#a"></linearGradient><linearGradient id="f" x1="304.23" y1="514.26" x2="505.97" y2="514.26" gradientTransform="matrix(1, 0, 0, 1, 0, 0)" xlink:href="#a"></linearGradient><linearGradient id="g" x1="347.73" y1="514.26" x2="462.46" y2="514.26" gradientTransform="matrix(1, 0, 0, 1, 0, 0)" xlink:href="#a"></linearGradient><linearGradient id="h" x1="394.82" y1="491.09" x2="415.21" y2="491.09" gradientUnits="userSpaceOnUse"><stop offset="0" stop-color="#322e38"></stop><stop offset="1" stop-color="#615c6e"></stop></linearGradient><linearGradient id="i" x1="352.2" y1="453.22" x2="458" y2="453.22" gradientUnits="userSpaceOnUse"><stop offset="0" stop-color="#c5d2e7"></stop><stop offset="0.12" stop-color="#d3dded"></stop><stop offset="0.3" stop-color="#e0e7f3"></stop><stop offset="0.53" stop-color="#e8edf6"></stop><stop offset="1" stop-color="#eaeff7"></stop></linearGradient><linearGradient id="j" x1="349.66" y1="455.22" x2="460.23" y2="455.22" xlink:href="#h"></linearGradient><linearGradient id="k" x1="349.66" y1="435.57" x2="460.23" y2="435.57" gradientUnits="userSpaceOnUse"><stop offset="0" stop-color="#615c6e"></stop><stop offset="1" stop-color="#322e38"></stop></linearGradient><linearGradient id="l" x1="346.25" y1="428.87" x2="463.95" y2="428.87" xlink:href="#h"></linearGradient><linearGradient id="m" x1="346.25" y1="407.48" x2="463.95" y2="407.48" xlink:href="#k"></linearGradient><linearGradient id="n" x1="343.85" y1="404.38" x2="466.35" y2="404.38" xlink:href="#h"></linearGradient><linearGradient id="o" x1="343.85" y1="384.74" x2="466.35" y2="384.74" xlink:href="#k"></linearGradient><linearGradient id="p" x1="340.01" y1="385.17" x2="469.88" y2="385.17" gradientUnits="userSpaceOnUse"><stop offset="0" stop-color="#e76b15"></stop><stop offset="1" stop-color="#fcbb60"></stop></linearGradient><linearGradient id="q" x1="340.09" y1="373.01" x2="469.79" y2="373.01" gradientUnits="userSpaceOnUse"><stop offset="0" stop-color="#fcbb60"></stop><stop offset="1" stop-color="#e76b15"></stop></linearGradient><linearGradient id="r" x1="249.57" y1="211.43" x2="563.94" y2="211.43" xlink:href="#i"></linearGradient><linearGradient id="s" x1="363.21" y1="356.98" x2="446.98" y2="356.98" xlink:href="#p"></linearGradient><linearGradient id="t" x1="515.04" y1="107.82" x2="353.23" y2="237.95" gradientUnits="userSpaceOnUse"><stop offset="0" stop-color="#fff"></stop><stop offset="0.05" stop-color="#fff" stop-opacity="0.87"></stop><stop offset="0.11" stop-color="#fff" stop-opacity="0.71"></stop><stop offset="0.18" stop-color="#fff" stop-opacity="0.58"></stop><stop offset="0.26" stop-color="#fff" stop-opacity="0.46"></stop><stop offset="0.35" stop-color="#fff" stop-opacity="0.36"></stop><stop offset="0.44" stop-color="#fff" stop-opacity="0.29"></stop><stop offset="0.56" stop-color="#fff" stop-opacity="0.24"></stop><stop offset="0.7" stop-color="#fff" stop-opacity="0.21"></stop><stop offset="1" stop-color="#fff" stop-opacity="0.2"></stop></linearGradient><linearGradient id="u" x1="498.96" y1="98.86" x2="454.1" y2="134.93" xlink:href="#t"></linearGradient><linearGradient id="v" x1="83.88" y1="686.06" x2="183.92" y2="686.06" gradientTransform="matrix(1, 0, 0, 1, 0, 0)" xlink:href="#a"></linearGradient><linearGradient id="w" x1="90.01" y1="560.01" x2="137.38" y2="560.01" xlink:href="#h"></linearGradient><linearGradient id="x" x1="137.38" y1="560.01" x2="184.75" y2="560.01" xlink:href="#h"></linearGradient><linearGradient id="y" x1="90.01" y1="518.99" x2="184.75" y2="518.99" xlink:href="#p"></linearGradient><linearGradient id="z" x1="739.07" y1="646.65" x2="739.07" y2="469.84" xlink:href="#q"></linearGradient><linearGradient id="aa" x1="691.13" y1="673.66" x2="691.13" y2="532.35" xlink:href="#q"></linearGradient><linearGradient id="ab" x1="645.28" y1="698.52" x2="645.28" y2="600.1" xlink:href="#q"></linearGradient></defs><polygon points="172.75 436.55 57.61 501.94 57.61 423.53 172.75 358.14 172.75 436.55" fill="url(#a)"></polygon><polygon points="150.76 366.8 150.76 443.11 163.25 436.02 163.25 359.53 150.76 366.8" fill="url(#b)"></polygon><polygon points="100.5 402 100.5 478.32 112.99 471.23 112.99 394.74 100.5 402" fill="url(#c)"></polygon><path d="M83.6,296.55,75.12,291a6.58,6.58,0,0,0-2.53-1,11.7,11.7,0,0,0-7.54,1.82A21.77,21.77,0,0,0,62,294c0-.43,0-.85,0-1.27,0-13.48-9.7-18.89-21.31-12.05-9.75,5.75-17.92,18.23-20.22,30a21.12,21.12,0,0,0-2.34,1.16C8.66,317.34,1,330.61,1,341.52c0,4.83,1.5,8.38,4,10.38H5a8,8,0,0,0,1.56,1l7.83,4.92,13.84-12.26L65.05,324.3c7.6-4.38,13.77-14.91,14-23.76Z" transform="translate(0 0)" fill="#eaeff7" stroke="#e76b15" stroke-linecap="round" stroke-linejoin="round" stroke-width="2"></path><path d="M72.29,296.49a21.86,21.86,0,0,0-3.09,2.2c0-.43,0-.86,0-1.28,0-13.45-9.44-18.9-21.09-12.18C38.28,290.92,30,303.5,27.69,315.38a20.29,20.29,0,0,0-2.34,1.16C15.9,322,8.24,335.27,8.24,346.18s7.66,15.34,17.11,9.88L72.29,329c7.77-4.48,14.06-15.38,14.06-24.35S80.06,292,72.29,296.49Z" transform="translate(0 0)" fill="#fff" stroke="#e76b15" stroke-linejoin="round" stroke-width="2"></path><polygon points="172.53 359.72 57.62 426.06 57.62 320.98 173.24 254.23 172.53 359.72" fill="#fff" stroke="#e76b15" stroke-linejoin="round" stroke-width="2"></polygon><polygon points="180.27 363.54 65.36 429.89 65.36 324.81 180.98 258.06 180.27 363.54" fill="#fff" stroke="#e76b15" stroke-linejoin="round" stroke-width="2"></polygon><line x1="65.36" y1="347.23" x2="180.98" y2="280.49" fill="none" stroke="#e76b15" stroke-linejoin="round" stroke-width="2"></line><ellipse cx="97.38" cy="318.07" rx="4.61" ry="2.66" transform="translate(-226.76 243.37) rotate(-60)" fill="#e76b15"></ellipse><ellipse cx="87.61" cy="323.71" rx="4.61" ry="2.66" transform="translate(-236.54 237.72) rotate(-60)" fill="#e76b15"></ellipse><ellipse cx="77.84" cy="329.35" rx="4.61" ry="2.66" transform="translate(-246.31 232.08) rotate(-60)" fill="#e76b15"></ellipse><polyline points="99.05 347.1 114.44 358.15 102.61 379.66" fill="none" stroke="#e76b15" stroke-linecap="round" stroke-linejoin="round" stroke-width="3"></polyline><line x1="122.22" y1="372.13" x2="144.91" y2="358.51" fill="none" stroke="#e76b15" stroke-linecap="round" stroke-linejoin="round" stroke-width="3"></line><polygon points="65.36 429.89 57.62 426.06 57.62 320.98 173.24 254.23 180.98 258.06 65.36 324.81 65.36 429.89" fill="#c5d2e7" stroke="#e76b15" stroke-linecap="round" stroke-linejoin="round" stroke-width="2"></polygon><line x1="90.2" y1="426.99" x2="90.2" y2="460.9" fill="none" stroke="#e76b15" stroke-linejoin="round" stroke-width="2" stroke-dasharray="2 2"></line><line x1="158" y1="391.88" x2="158" y2="430.04" fill="none" stroke="#e76b15" stroke-linejoin="round" stroke-width="2" stroke-dasharray="2 2"></line><polygon points="570.46 637.85 415.21 727.48 259.96 637.85 415.21 548.22 570.46 637.85" fill="url(#d)"></polygon><polygon points="785.1 630.8 629.85 720.43 560.47 688.39 715.72 598.76 785.1 630.8" fill="url(#e)"></polygon><polygon points="405.1 647.11 231.37 546.81 231.37 511.94 405.1 612.25 405.1 647.11" fill="#c5d2e7" stroke="#e76b15" stroke-linecap="round" stroke-linejoin="round" stroke-width="2"></polygon><polygon points="578.83 546.81 405.1 647.11 405.1 612.25 578.83 511.94 578.83 546.81" fill="#eaeff7" stroke="#e76b15" stroke-linecap="round" stroke-linejoin="round" stroke-width="2"></polygon><polygon points="578.83 511.94 405.1 612.25 231.37 511.94 405.1 411.63 578.83 511.94" fill="#fff" stroke="#e76b15" stroke-linecap="round" stroke-linejoin="round" stroke-width="2"></polygon><ellipse cx="405.1" cy="514.26" rx="100.87" ry="35.94" fill="url(#f)"></ellipse><ellipse cx="405.1" cy="514.26" rx="57.36" ry="20.44" fill="url(#g)"></ellipse><rect x="394.82" y="478.24" width="20.39" height="25.7" rx="10.19" fill="url(#h)"></rect><rect x="352.2" y="409.23" width="105.8" height="87.98" rx="43.99" fill="url(#i)"></rect><path d="M349.66,435.58v22.08c0,9.5,24.75,17.2,55.28,17.2s55.29-7.7,55.29-17.2V435.58Z" transform="translate(0 0)" fill="url(#j)"></path><ellipse cx="404.94" cy="435.57" rx="55.29" ry="17.21" fill="url(#k)"></ellipse><path d="M346.25,407.48v24c0,10.35,26.35,18.73,58.85,18.73S464,441.87,464,431.52v-24Z" transform="translate(0 0)" fill="url(#l)"></path><ellipse cx="405.1" cy="407.48" rx="58.85" ry="18.73" fill="url(#m)"></ellipse><path d="M343.85,384.74v22.08c0,9.5,27.42,17.21,61.25,17.21s61.25-7.71,61.25-17.21V384.74Z" transform="translate(0 0)" fill="url(#n)"></path><ellipse cx="405.1" cy="384.74" rx="61.25" ry="17.21" fill="url(#o)"></ellipse><path d="M469.79,371.28H340.09L340,383.72c0,6.86,29.11,15.33,64.93,15.33s64.94-8.47,64.94-15.33Z" transform="translate(0 0)" fill="url(#p)"></path><path d="M469.79,371.28c0,6.87-29,15.89-64.85,15.89s-64.85-9-64.85-15.89,29-12.43,64.85-12.43S469.79,364.42,469.79,371.28Z" transform="translate(0 0)" fill="url(#q)"></path><path d="M406.75,45.41a157.2,157.2,0,0,0-76,294.79,31.05,31.05,0,0,1,12.81,13.4,30.07,30.07,0,0,1,2,5.33c1.12,4,1.11,4.33,1.1,6.07h0v.55h.07c1.38,6.61,27.7,11.88,60,11.88s58.6-5.27,60-11.88h.06V365c0-1.67,0-2,1-5.88a31.08,31.08,0,0,1,2-5.48,29.93,29.93,0,0,1,12.5-13.22,157.2,157.2,0,0,0-75.63-295Z" transform="translate(0 0)" fill="url(#r)"></path><ellipse cx="406.76" cy="365.01" rx="60.06" ry="12.43" fill="#fff" opacity="0.64"></ellipse><path d="M440.65,357V215.63a14.85,14.85,0,0,1,14.85-14.85h4.26a14.85,14.85,0,0,1,14.86,14.85v2.54A14.86,14.86,0,0,1,459.76,233H350.43a14.85,14.85,0,0,1-14.85-14.86v-2.54a14.85,14.85,0,0,1,14.85-14.85h4.27a14.85,14.85,0,0,1,14.85,14.85V357" transform="translate(0 0)" fill="none" stroke="#ed6b15" stroke-miterlimit="10" stroke-width="2"></path><ellipse cx="405.1" cy="356.98" rx="41.89" ry="8.03" fill="url(#s)"></ellipse><path d="M405.1,275.63h0a18.69,18.69,0,0,0-18.69,18.69V350.1c0,3.8,8.37,6.88,18.69,6.88s18.69-3.08,18.69-6.88V294.32A18.69,18.69,0,0,0,405.1,275.63Z" transform="translate(0 0)" fill="#fff" opacity="0.64"></path><circle cx="427.23" cy="178.43" r="126.39" fill="url(#t)"></circle><circle cx="474.62" cy="118.43" r="35.03" fill="url(#u)"></circle><line x1="264.28" y1="359.24" x2="290.46" y2="331.43" fill="none" stroke="#e76b15" stroke-linejoin="round" stroke-width="2" stroke-dasharray="2 2"></line><line x1="217.19" y1="293.19" x2="252.01" y2="277.51" fill="none" stroke="#e76b15" stroke-linejoin="round" stroke-width="2" stroke-dasharray="2 2"></line><line x1="198.95" y1="214.15" x2="237.13" y2="212.99" fill="none" stroke="#e76b15" stroke-linejoin="round" stroke-width="2" stroke-dasharray="2 2"></line><line x1="212.35" y1="134.15" x2="248.07" y2="147.68" fill="none" stroke="#e76b15" stroke-linejoin="round" stroke-width="2" stroke-dasharray="2 2"></line><line x1="255.35" y1="65.36" x2="283.16" y2="91.53" fill="none" stroke="#e76b15" stroke-linejoin="round" stroke-width="2" stroke-dasharray="2 2"></line><line x1="321.4" y1="18.27" x2="337.08" y2="53.09" fill="none" stroke="#e76b15" stroke-linejoin="round" stroke-width="2" stroke-dasharray="2 2"></line><line x1="400.44" y1="0.03" x2="401.6" y2="38.2" fill="none" stroke="#e76b15" stroke-linejoin="round" stroke-width="2" stroke-dasharray="2 2"></line><line x1="480.44" y1="13.43" x2="466.91" y2="49.14" fill="none" stroke="#e76b15" stroke-linejoin="round" stroke-width="2" stroke-dasharray="2 2"></line><line x1="549.23" y1="56.43" x2="523.06" y2="84.24" fill="none" stroke="#e76b15" stroke-linejoin="round" stroke-width="2" stroke-dasharray="2 2"></line><line x1="596.33" y1="122.48" x2="561.5" y2="138.16" fill="none" stroke="#e76b15" stroke-linejoin="round" stroke-width="2" stroke-dasharray="2 2"></line><line x1="614.56" y1="201.52" x2="576.39" y2="202.68" fill="none" stroke="#e76b15" stroke-linejoin="round" stroke-width="2" stroke-dasharray="2 2"></line><line x1="601.16" y1="281.52" x2="565.45" y2="267.99" fill="none" stroke="#e76b15" stroke-linejoin="round" stroke-width="2" stroke-dasharray="2 2"></line><line x1="558.16" y1="350.31" x2="530.35" y2="324.13" fill="none" stroke="#e76b15" stroke-linejoin="round" stroke-width="2" stroke-dasharray="2 2"></line><ellipse cx="665.73" cy="326.04" rx="28.72" ry="49.74" transform="translate(-73.83 376.55) rotate(-30)" fill="#eaeff7" stroke="#e76b15" stroke-linecap="round" stroke-linejoin="round" stroke-width="2"></ellipse><ellipse cx="657.44" cy="331.78" rx="28.72" ry="49.74" transform="translate(-77.81 373.17) rotate(-30)" fill="#eaeff7" stroke="#e76b15" stroke-linecap="round" stroke-linejoin="round" stroke-width="2"></ellipse><path d="M657.6,332l12.21-31c-12.86-12.92-27.38-17.64-37.08-12-13.64,7.88-13.64,33.8,0,57.43s36.09,36.59,49.74,28.72c10.86-6.27,13.4-24.17,6.26-44Z" transform="translate(0 0)" fill="#fff" stroke="#e76b15" stroke-linecap="round" stroke-linejoin="round" stroke-width="2"></path><line x1="687.3" y1="405.04" x2="615.02" y2="363.31" fill="none" stroke="#e76b15" stroke-linecap="round" stroke-linejoin="round" stroke-width="2"></line><line x1="687.3" y1="418.79" x2="658.63" y2="402.24" fill="none" stroke="#e76b15" stroke-linecap="round" stroke-linejoin="round" stroke-width="2"></line><line x1="651.16" y1="397.93" x2="624.07" y2="382.29" fill="none" stroke="#e76b15" stroke-linecap="round" stroke-linejoin="round" stroke-width="2"></line><line x1="669.81" y1="301" x2="679.03" y2="297.68" fill="none" stroke="#e76b15" stroke-linecap="round" stroke-linejoin="round" stroke-width="2"></line><line x1="688.73" y1="331.12" x2="697.64" y2="327.38" fill="none" stroke="#e76b15" stroke-linecap="round" stroke-linejoin="round" stroke-width="2"></line><polygon points="183.92 686.06 133.9 714.94 83.88 686.06 133.9 657.18 183.92 686.06" fill="url(#v)"></polygon><polygon points="137.38 601.03 90.01 573.68 90.01 518.99 137.38 546.34 137.38 601.03" fill="url(#w)"></polygon><polygon points="184.75 573.68 137.38 601.03 137.38 546.34 184.75 518.99 184.75 573.68" fill="url(#x)"></polygon><polygon points="184.75 518.99 137.38 546.34 90.01 518.99 137.38 491.64 184.75 518.99" fill="url(#y)"></polygon><circle cx="137.16" cy="546.28" r="3.26" fill="#e76b15"></circle><circle cx="66.21" cy="505.25" r="3.26" fill="#e76b15"></circle><circle cx="66.21" cy="587.51" r="3.26" fill="#e76b15"></circle><circle cx="137.38" cy="628.51" r="3.26" fill="#e76b15"></circle><circle cx="208.55" cy="587.51" r="3.26" fill="#e76b15"></circle><circle cx="208.55" cy="505.91" r="3.26" fill="#e76b15"></circle><circle cx="137.38" cy="464.16" r="3.26" fill="#e76b15"></circle><polygon points="137.38 628.51 66.21 587.42 66.21 505.25 137.38 546.34 137.38 628.51" fill="none" stroke="#e76b15" stroke-linecap="round" stroke-linejoin="round" stroke-width="2"></polygon><polygon points="208.54 587.42 137.38 628.51 137.38 546.34 208.54 505.25 208.54 587.42" fill="none" stroke="#e76b15" stroke-linecap="round" stroke-linejoin="round" stroke-width="2"></polygon><polygon points="208.54 505.25 137.38 546.34 66.21 505.25 137.38 464.16 208.54 505.25" fill="none" stroke="#e76b15" stroke-linecap="round" stroke-linejoin="round" stroke-width="2"></polygon><path d="M113.9,513.27l-2.6,1.5c-.64.37-.87.74-.7,1.11s.69.61,1.54.73l20,2.75a1.82,1.82,0,0,0,1.1-.19l.23-.13c.29-.17.41-.41.32-.64l-.86-2a1,1,0,0,0-.74-.47L117,512.85A4.24,4.24,0,0,0,113.9,513.27Z" transform="translate(0 0)" fill="#fff"></path><path d="M137,521.05l-.23.13c-.29.17-.41.41-.31.64l5.6,12.85a1.34,1.34,0,0,0,1.37.48A1.37,1.37,0,0,0,144,535c.26-.15.4-.37.34-.59l-3.45-12.7c-.07-.26-.4-.47-.85-.54l-1.93-.28A1.81,1.81,0,0,0,137,521.05Z" transform="translate(0 0)" fill="#fff"></path><path d="M132,502.84l2.72-1.57a2.86,2.86,0,0,1,1.95-.33,1.45,1.45,0,0,1,1.18.87.06.06,0,0,1,0,0l3.12,14.64,24.11,5c.58.12.89.48.7.82a.8.8,0,0,1-.29.29,1.84,1.84,0,0,1-1.12.18l-27-3.76a1,1,0,0,1-.85-.51l-5.15-13.9A1.23,1.23,0,0,1,132,502.84Z" transform="translate(0 0)" fill="#fff"></path><polygon points="57.62 320.98 65.36 324.81 180.98 258.06 173.24 254.23 57.62 320.98" fill="#eaeff7" stroke="#e76b15" stroke-linecap="round" stroke-linejoin="round" stroke-width="2"></polygon><path d="M30.65,556.42a1.5,1.5,0,0,0,0-3,1.5,1.5,0,0,0,0,3Z" transform="translate(0 0)" fill="#e76b15"></path><polygon points="723.64 646.65 692.77 630.27 692.77 469.84 723.64 486.22 723.64 646.65" fill="#fff" stroke="#e76b15" stroke-linecap="round" stroke-linejoin="round" stroke-width="2"></polygon><polygon points="754.5 630.27 723.64 646.65 723.64 486.22 754.5 469.84 754.5 630.27" stroke="#e76b15" stroke-linecap="round" stroke-linejoin="round" stroke-width="2" fill="url(#z)"></polygon><polygon points="754.5 469.84 723.64 486.22 692.77 469.84 723.64 453.46 754.5 469.84" fill="#fff" stroke="#e76b15" stroke-linecap="round" stroke-linejoin="round" stroke-width="2"></polygon><polygon points="675.7 673.66 644.83 657.28 644.83 532.35 675.7 548.73 675.7 673.66" fill="#fff" stroke="#e76b15" stroke-linecap="round" stroke-linejoin="round" stroke-width="2"></polygon><polygon points="706.56 657.28 675.7 673.66 675.7 548.73 706.56 532.35 706.56 657.28" stroke="#e76b15" stroke-linecap="round" stroke-linejoin="round" stroke-width="2" fill="url(#aa)"></polygon><polygon points="706.56 532.35 675.7 548.73 644.83 532.35 675.7 515.97 706.56 532.35" fill="#fff" stroke="#e76b15" stroke-linecap="round" stroke-linejoin="round" stroke-width="2"></polygon><polygon points="629.85 698.52 598.99 682.14 598.99 600.1 629.85 616.48 629.85 698.52" fill="#fff" stroke="#e76b15" stroke-linecap="round" stroke-linejoin="round" stroke-width="2"></polygon><polygon points="660.71 682.14 629.85 698.52 629.85 616.48 660.71 600.1 660.71 682.14" stroke="#e76b15" stroke-linecap="round" stroke-linejoin="round" stroke-width="2" fill="url(#ab)"></polygon><polygon points="660.71 600.1 629.85 616.48 598.99 600.1 629.85 583.72 660.71 600.1" fill="#fff" stroke="#e76b15" stroke-linecap="round" stroke-linejoin="round" stroke-width="2"></polygon><line x1="405.1" y1="663.06" x2="405.1" y2="697.57" fill="none" stroke="#e76b15" stroke-linejoin="round" stroke-width="2" stroke-dasharray="2 4"></line><line x1="231.37" y1="566.88" x2="231.37" y2="601.03" fill="none" stroke="#e76b15" stroke-linejoin="round" stroke-width="2" stroke-dasharray="2 4"></line><line x1="578.83" y1="563.23" x2="578.83" y2="583.7" fill="none" stroke="#e76b15" stroke-linejoin="round" stroke-width="2" stroke-dasharray="2 4"></line><path d="M466.35,594.32l20,14A13.3,13.3,0,0,1,492,619.15v80.72a13.26,13.26,0,0,0,6.62,11.48L530.77,730a13.27,13.27,0,0,0,13.41-.08l68.57-40.09" transform="translate(0 0)" fill="none" stroke="#e76b15" stroke-linecap="round" stroke-linejoin="round" stroke-width="2"></path><line x1="405.1" y1="304.04" x2="404.94" y2="342.06" fill="none" stroke="#e76b15" stroke-linecap="round" stroke-linejoin="round" stroke-width="2"></line><circle cx="405.1" cy="297.56" r="6.48" fill="none" stroke="#e76b15" stroke-linecap="round" stroke-linejoin="round" stroke-width="2"></circle><ellipse cx="465.83" cy="593.15" rx="6.87" ry="3.96" transform="translate(-280.77 700) rotate(-60)" fill="#e76b15"></ellipse><line x1="411.58" y1="314.1" x2="411.58" y2="344.6" fill="#fff" stroke="#fff" stroke-miterlimit="10" stroke-width="2"></line><line x1="394.82" y1="316.31" x2="394.82" y2="334.83" fill="none" stroke="#fff" stroke-miterlimit="10" stroke-width="2"></line><line x1="417.83" y1="289.52" x2="417.83" y2="310.69" fill="none" stroke="#fff" stroke-miterlimit="10" stroke-width="2"></line><line x1="393.82" y1="294.85" x2="393.82" y2="308.43" fill="none" stroke="#fff" stroke-miterlimit="10" stroke-width="2"></line><line x1="418.83" y1="334.83" x2="418.83" y2="344.6" fill="none" stroke="#fff" stroke-miterlimit="10" stroke-width="2"></line></svg> 