<?xml version="1.0" encoding="UTF-8"?> <svg xmlns="http://www.w3.org/2000/svg" width="145" height="145" viewBox="0 0 145 145" fill="none"><path d="M135.3 52.9004H110.1V79.6004H135.3V52.9004Z" fill="url(#paint0_linear)"></path><path d="M27.6 76.7002H10.5V105H27.6V76.7002Z" fill="url(#paint1_linear)"></path><path d="M88.7998 109.601H61.7998V137.901H88.7998V109.601Z" fill="url(#paint2_linear)"></path><path d="M28.2001 80.4004L19.1001 85.7004V75.2004L28.2001 69.9004V80.4004Z" fill="white" stroke="#E76B15" stroke-width="2" stroke-miterlimit="10" stroke-linecap="round" stroke-linejoin="round"></path><path d="M10 80.4004L19.1 85.7004V75.2004L10 69.9004V80.4004Z" fill="white" stroke="#E76B15" stroke-width="2" stroke-miterlimit="10" stroke-linecap="round" stroke-linejoin="round"></path><path d="M19.1 75.2002L28.2 69.9002L19.1 64.7002L10 69.9002L19.1 75.2002Z" fill="white" stroke="#E76B15" stroke-width="2" stroke-miterlimit="10" stroke-linecap="round" stroke-linejoin="round"></path><path d="M135.8 54.1012L122.9 61.5012V46.6012L135.8 39.2012V54.1012Z" fill="white" stroke="#E76B15" stroke-width="2" stroke-miterlimit="10" stroke-linecap="round" stroke-linejoin="round"></path><path d="M110.1 54.1012L122.9 61.5012V46.6012L110.1 39.2012V54.1012Z" fill="white" stroke="#E76B15" stroke-width="2" stroke-miterlimit="10" stroke-linecap="round" stroke-linejoin="round"></path><path d="M122.9 46.6008L135.8 39.2008L122.9 31.8008L110.1 39.2008L122.9 46.6008Z" fill="white" stroke="#E76B15" stroke-width="2" stroke-miterlimit="10" stroke-linecap="round" stroke-linejoin="round"></path><path d="M52.8002 69.1006L35.8002 89.7006C34.6002 91.5006 34.1002 93.7006 34.3002 95.9006L35.8002 109.101C35.9002 110.001 36.9002 110.501 37.7002 110.001L55.7002 99.2006L52.8002 69.1006Z" stroke="#E76B15" stroke-width="2" stroke-miterlimit="10" stroke-linejoin="round"></path><path d="M55.3003 93.501L35.3003 104.901" stroke="#E76B15" stroke-width="2" stroke-miterlimit="10" stroke-linejoin="round"></path><path d="M97.9 69.1006L115 89.7006C116.2 91.5006 116.7 93.7006 116.5 95.9006L115 109.101C114.9 110.001 113.9 110.501 113.1 110.001L95 99.3006L97.9 69.1006Z" stroke="#E76B15" stroke-width="2" stroke-miterlimit="10" stroke-linejoin="round"></path><path d="M95.3999 93.501L115.4 104.901" stroke="#E76B15" stroke-width="2" stroke-miterlimit="10" stroke-linejoin="round"></path><path d="M98.5003 63.1004C98.5003 27.3004 82.8003 12.8004 77.3003 7.70039C76.3003 6.80039 74.5003 6.80039 73.5003 7.70039C68.0003 12.8004 52.3003 27.3004 52.3003 63.1004C52.3003 63.4004 52.3003 63.8004 52.3003 64.2004L56.7003 101.8C56.7003 103 58.0003 104 59.6003 104H91.0003C92.6003 104 93.9003 103 94.1003 101.7L98.5003 64.1004C98.5003 63.8004 98.5003 63.4004 98.5003 63.1004Z" fill="white" stroke="#E76B15" stroke-width="2" stroke-miterlimit="10" stroke-linejoin="round"></path><path d="M84.7001 115.6H66.0001C64.0001 115.6 62.3001 114.2 61.9001 112.2L60.6001 104.5H90.2001L88.9001 112.2C88.5001 114.2 86.8001 115.6 84.7001 115.6Z" fill="white" stroke="#E76B15" stroke-width="2" stroke-miterlimit="10" stroke-linejoin="round"></path><path d="M75.3003 68.2002C82.2039 68.2002 87.8003 62.6038 87.8003 55.7002C87.8003 48.7966 82.2039 43.2002 75.3003 43.2002C68.3967 43.2002 62.8003 48.7966 62.8003 55.7002C62.8003 62.6038 68.3967 68.2002 75.3003 68.2002Z" fill="white" stroke="#E76B15" stroke-width="2" stroke-miterlimit="10" stroke-linejoin="round"></path><path d="M75.3003 64.7002C80.2709 64.7002 84.3003 60.6708 84.3003 55.7002C84.3003 50.7296 80.2709 46.7002 75.3003 46.7002C70.3297 46.7002 66.3003 50.7296 66.3003 55.7002C66.3003 60.6708 70.3297 64.7002 75.3003 64.7002Z" fill="url(#paint3_linear)" stroke="#E76B15" stroke-width="2" stroke-miterlimit="10" stroke-linejoin="round"></path><path d="M75.3003 68.1006V104.001" stroke="#E76B15" stroke-width="2" stroke-miterlimit="10" stroke-linejoin="round"></path><path d="M59.7002 28.4004C70.6002 35.6004 81.0002 35.7004 91.0002 28.4004" stroke="#E76B15" stroke-width="2" stroke-miterlimit="10" stroke-linejoin="round"></path><path d="M75.3003 33.1006V43.2006" stroke="#E76B15" stroke-width="2" stroke-miterlimit="10" stroke-linejoin="round"></path><path d="M75.3001 86.0006C76.5151 86.0006 77.5001 85.0156 77.5001 83.8006C77.5001 82.5856 76.5151 81.6006 75.3001 81.6006C74.0851 81.6006 73.1001 82.5856 73.1001 83.8006C73.1001 85.0156 74.0851 86.0006 75.3001 86.0006Z" fill="white" stroke="#E76B15" stroke-width="2" stroke-miterlimit="10" stroke-linejoin="round"></path><path d="M77.6001 98.4004H73.1001V119.1H77.6001V98.4004Z" fill="white" stroke="#E76B15" stroke-width="2" stroke-miterlimit="10" stroke-linejoin="round"></path><path d="M67.2998 122.5V130.8" stroke="white" stroke-width="2" stroke-miterlimit="10"></path><path d="M81.3999 123.7V140.9" stroke="white" stroke-width="2" stroke-miterlimit="10"></path><path d="M114.4 116.5V128.4" stroke="#E76B15" stroke-width="2" stroke-miterlimit="10" stroke-linejoin="round"></path><path d="M37.5 115.7V122.5" stroke="#E76B15" stroke-width="2" stroke-miterlimit="10" stroke-linejoin="round"></path><path d="M75.2998 123.601V138.001" stroke="#E76B15" stroke-width="2" stroke-miterlimit="10" stroke-linejoin="round" stroke-dasharray="2 2"></path><defs><linearGradient id="paint0_linear" x1="122.639" y1="79.609" x2="122.639" y2="52.9469" gradientUnits="userSpaceOnUse"><stop stop-color="#E76B15" stop-opacity="0"></stop><stop offset="1" stop-color="#E76B15" stop-opacity="0.3"></stop></linearGradient><linearGradient id="paint1_linear" x1="19.0854" y1="104.923" x2="19.0854" y2="76.6604" gradientUnits="userSpaceOnUse"><stop stop-color="#E76B15" stop-opacity="0"></stop><stop offset="1" stop-color="#E76B15" stop-opacity="0.3"></stop></linearGradient><linearGradient id="paint2_linear" x1="75.3289" y1="137.824" x2="75.3289" y2="109.561" gradientUnits="userSpaceOnUse"><stop stop-color="#E76B15" stop-opacity="0"></stop><stop offset="1" stop-color="#E76B15" stop-opacity="0.3"></stop></linearGradient><linearGradient id="paint3_linear" x1="75.348" y1="64.9095" x2="75.348" y2="47.522" gradientUnits="userSpaceOnUse"><stop stop-color="#E76B15" stop-opacity="0"></stop><stop offset="1" stop-color="#E76B15" stop-opacity="0.3"></stop></linearGradient></defs></svg> 