<?xml version="1.0" encoding="UTF-8"?> <svg xmlns="http://www.w3.org/2000/svg" width="145" height="145" viewBox="0 0 145 145" fill="none"><path d="M94.3261 111.239L66.0806 127.566V48.2649L94.3261 31.8154V111.239Z" fill="white" stroke="#E76B15" stroke-width="2" stroke-miterlimit="10" stroke-linecap="round" stroke-linejoin="round"></path><path d="M66.0805 127.566L37.835 111.239V31.8154L66.0805 48.2649V127.566Z" fill="white" stroke="#E76B15" stroke-width="2" stroke-miterlimit="10" stroke-linecap="round" stroke-linejoin="round"></path><path d="M94.326 31.815L66.0805 48.2645L37.835 31.815L66.0805 15.4883L94.326 31.815Z" fill="white" stroke="#E76B15" stroke-width="2" stroke-miterlimit="10" stroke-linecap="round" stroke-linejoin="round"></path><path d="M125.017 106.573L105.208 118.113V75.5158L125.017 63.9766V106.573Z" fill="white" stroke="#E76B15" stroke-width="2" stroke-miterlimit="10" stroke-linecap="round" stroke-linejoin="round"></path><path d="M105.208 118.113L85.522 106.573V63.9766L105.208 75.5158V118.113Z" fill="white" stroke="#E76B15" stroke-width="2" stroke-miterlimit="10" stroke-linecap="round" stroke-linejoin="round"></path><path d="M125.017 63.977L105.208 75.5162L85.522 63.977L105.208 52.5605L125.017 63.977Z" fill="white" stroke="#E76B15" stroke-width="2" stroke-miterlimit="10" stroke-linecap="round" stroke-linejoin="round"></path><path d="M131.987 80.7949V138.123H9.22266V80.7949C9.22266 80.0583 9.34493 79.4445 9.46721 78.8308C9.46721 78.708 9.58948 78.5852 9.58948 78.4625C9.71176 78.0942 9.95631 77.6032 10.0786 77.2349C10.0786 77.1122 10.2009 76.9894 10.2009 76.9894C11.4236 74.7798 13.6246 72.6929 16.5591 70.7288C16.8037 70.606 17.0482 70.4833 17.2928 70.2377C17.4151 70.115 17.5373 70.115 17.6596 69.9922C17.9042 69.7467 18.271 69.624 18.5155 69.5012C18.7601 69.3784 19.0046 69.2557 19.2492 69.0102C19.616 68.7647 19.9828 68.6419 20.3497 68.3964C20.8388 68.1509 21.2056 67.9054 21.6947 67.7826C22.1838 67.5371 22.5506 67.4143 23.0397 67.1688C23.5288 66.9233 24.0179 66.8005 24.3847 66.555C26.2189 65.8185 28.1753 65.2047 30.1317 64.5909C30.4985 64.4681 30.8653 64.3454 31.2321 64.2226C32.3326 63.8544 33.5554 63.6088 34.7781 63.2406C35.1449 63.1178 35.634 62.9951 36.0009 62.9951C37.1013 62.7495 37.4682 69.2557 37.4682 69.2557V98.1037L45.1715 99.2085V100.436C52.8748 101.664 61.3118 102.277 70.2378 102.277C91.8805 102.277 110.955 98.3492 121.96 92.3341V91.352H123.672C123.794 91.2292 124.039 91.1065 124.161 90.9837V70.4833C124.161 70.4833 124.161 70.4833 124.283 70.4833C125.262 71.097 126.24 71.8336 126.973 72.4474C127.096 72.5701 127.218 72.6929 127.34 72.8156C127.829 73.3067 128.318 73.7977 128.808 74.2887C129.052 74.5342 129.297 74.9025 129.541 75.2708C130.153 76.1301 130.642 76.9894 131.008 77.8487C131.131 78.0942 131.131 78.217 131.253 78.4625C131.253 78.708 131.375 78.8308 131.375 79.0763C131.375 79.199 131.375 79.3218 131.375 79.3218C131.375 79.5673 131.498 79.6901 131.498 79.9356C131.987 80.1811 131.987 80.4266 131.987 80.7949Z" fill="url(#paint0_linear)"></path><path d="M45.5383 61.0312C44.071 61.2768 42.6037 61.5223 41.1364 61.7678C40.6473 61.8905 40.1582 62.0133 39.6691 62.0133C38.4464 62.2588 37.3459 62.5043 36.2454 62.7498C35.8786 62.8726 35.3895 62.9954 35.0227 62.9954C33.7999 63.2409 32.6994 63.6092 31.4767 63.9774C31.1099 64.1002 30.743 64.2229 30.3762 64.3457C28.2975 64.9595 26.3411 65.5733 24.6293 66.3098C24.1402 66.5553 23.6511 66.6781 23.2843 66.9236C22.7952 67.1691 22.4283 67.2919 21.9392 67.5374C21.4501 67.7829 20.961 67.9057 20.5942 68.1512C20.2274 68.3967 19.8606 68.5194 19.4937 68.765C19.2492 68.8877 19.0046 69.0105 18.7601 69.1332C18.3933 69.256 18.1487 69.5015 17.9042 69.6243C17.7819 69.6243 17.6596 69.747 17.5373 69.8698C17.2928 69.9925 17.0482 70.1153 16.8037 70.3608C13.8691 72.3249 11.6682 74.4118 10.4454 76.6214C10.4454 76.7442 10.3231 76.8669 10.3231 76.8669C10.0786 77.2352 9.95631 77.7262 9.83403 78.0945C9.83403 78.2173 9.71176 78.34 9.71176 78.4628C9.34493 79.3221 9.22266 80.0586 9.22266 80.7952C9.22266 89.5109 24.1402 97.1219 45.5383 100.436C53.2416 101.664 61.6786 102.278 70.6047 102.278C92.2473 102.278 111.322 98.3495 122.327 92.3344C122.938 91.9661 123.427 91.7206 124.039 91.3523C124.161 91.2296 124.406 91.1068 124.528 90.984C129.297 87.9151 131.987 84.4779 131.987 80.6724C131.987 80.4269 131.987 80.1814 131.987 79.9359C131.987 79.6904 131.987 79.5676 131.864 79.3221C131.864 79.1993 131.864 79.1993 131.864 79.0766C131.864 78.8311 131.742 78.7083 131.742 78.4628C131.62 78.2173 131.62 78.0945 131.498 77.849C131.131 76.9897 130.642 76.1304 130.03 75.2711C129.786 74.9028 129.541 74.6573 129.297 74.289C128.807 73.798 128.318 73.307 127.829 72.816C127.707 72.6932 127.585 72.5704 127.462 72.4477C127.096 72.0794 126.607 71.7111 126.117 71.4656" stroke="#E76B15" stroke-width="2" stroke-miterlimit="10" stroke-linecap="round" stroke-linejoin="round"></path><path opacity="0.3" d="M45.5383 72.0312C44.071 72.2768 42.6037 72.5223 41.1364 72.7678C40.6473 72.8905 40.1582 73.0133 39.6691 73.0133C38.4464 73.2588 37.3459 73.5043 36.2454 73.7498C35.8786 73.8726 35.3895 73.9954 35.0227 73.9954C33.7999 74.2409 32.6994 74.6092 31.4767 74.9774C31.1099 75.1002 30.743 75.2229 30.3762 75.3457C28.2975 75.9595 26.3411 76.5733 24.6293 77.3098C24.1402 77.5553 23.6511 77.6781 23.2843 77.9236C22.7952 78.1691 22.4283 78.2919 21.9392 78.5374C21.4501 78.7829 20.961 78.9057 20.5942 79.1512C20.2274 79.3967 19.8606 79.5194 19.4937 79.765C19.2492 79.8877 19.0046 80.0105 18.7601 80.1332C18.3933 80.256 18.1487 80.5015 17.9042 80.6243C17.7819 80.6243 17.6596 80.747 17.5373 80.8698C17.2928 80.9925 17.0482 81.1153 16.8037 81.3608C13.8691 83.3249 11.6682 85.4118 10.4454 87.6214C10.4454 87.7442 10.3231 87.8669 10.3231 87.8669C10.0786 88.2352 9.95631 88.7262 9.83403 89.0945C9.83403 89.2173 9.71176 89.34 9.71176 89.4628C9.34493 90.3221 9.22266 91.0586 9.22266 91.7952C9.22266 100.511 24.1402 108.122 45.5383 111.436C53.2416 112.664 61.6786 113.278 70.6047 113.278C92.2473 113.278 111.322 109.349 122.327 103.334C122.938 102.966 123.427 102.721 124.039 102.352C124.161 102.23 124.406 102.107 124.528 101.984C129.297 98.9151 131.987 95.4779 131.987 91.6724C131.987 91.4269 131.987 91.1814 131.987 90.9359C131.987 90.6904 131.987 90.5676 131.864 90.3221C131.864 90.1993 131.864 90.1993 131.864 90.0766C131.864 89.8311 131.742 89.7083 131.742 89.4628C131.62 89.2173 131.62 89.0945 131.498 88.849C131.131 87.9897 130.642 87.1304 130.03 86.2711C129.786 85.9028 129.541 85.6573 129.297 85.289C128.807 84.798 128.318 84.307 127.829 83.816C127.707 83.6932 127.585 83.5704 127.462 83.4477C127.096 83.0794 126.607 82.7111 126.117 82.4656" stroke="#E76B15" stroke-width="2" stroke-miterlimit="10" stroke-linecap="round" stroke-linejoin="round"></path><path d="M47.25 75.3936L33.7998 83.2501V67.4144L47.25 59.6807V75.3936Z" fill="white" stroke="#E76B15" stroke-width="2" stroke-miterlimit="10" stroke-linecap="round" stroke-linejoin="round"></path><path d="M33.7998 83.2501L20.3496 75.3936V59.6807L33.7998 67.4144V83.2501Z" fill="white" stroke="#E76B15" stroke-width="2" stroke-miterlimit="10" stroke-linecap="round" stroke-linejoin="round"></path><path d="M47.2501 59.6807L33.7998 67.4144L20.3496 59.6807L33.7998 51.8242L47.2501 59.6807Z" fill="white" stroke="#E76B15" stroke-width="2" stroke-miterlimit="10" stroke-linecap="round" stroke-linejoin="round"></path><path d="M119.27 96.7539H110.222V132.231H119.27V96.7539Z" fill="url(#paint1_linear)"></path><path d="M71.8276 77.7259L74.3954 76.2528V73.3066L71.8276 74.7797V77.7259Z" fill="#E76B15"></path><path d="M76.8408 74.9024L79.4086 73.3065V70.3604L76.8408 71.8334V74.9024Z" fill="#E76B15"></path><path d="M71.8276 71.9564L74.3954 70.4833V67.5371L71.8276 69.0102V71.9564Z" fill="#E76B15"></path><path d="M76.8408 69.0101L79.4086 67.537V64.5908L76.8408 66.0639V69.0101Z" fill="#E76B15"></path><path d="M71.8276 66.1868L74.3954 64.7138V61.7676L71.8276 63.2407V66.1868Z" fill="#E76B15"></path><path d="M76.8408 63.2406L79.4086 61.7675V58.8213L76.8408 60.2944V63.2406Z" fill="#E76B15"></path><path d="M81.854 60.417L84.4218 58.9439V55.875L81.854 57.4708V60.417Z" fill="#E76B15"></path><path d="M86.8672 57.471L89.435 55.9979V53.0518L86.8672 54.5248V57.471Z" fill="#E76B15"></path><path d="M71.8276 60.4173L74.3954 58.9442V55.998L71.8276 57.4711V60.4173Z" fill="#E76B15"></path><path d="M76.8408 57.471L79.4086 55.9979V53.0518L76.8408 54.5248V57.471Z" fill="#E76B15"></path><path d="M81.854 54.6475L84.4218 53.0516V50.1055L81.854 51.7013V54.6475Z" fill="#E76B15"></path><path d="M86.8672 51.7015L89.435 50.2284V47.2822L86.8672 48.7553V51.7015Z" fill="#E76B15"></path><path d="M71.8276 54.6478L74.3954 53.1747V50.2285L71.8276 51.7016V54.6478Z" fill="#E76B15"></path><path d="M76.8408 51.7015L79.4086 50.2284V47.2822L76.8408 48.7553V51.7015Z" fill="#E76B15"></path><path d="M81.854 48.878L84.4218 47.2821V44.3359L81.854 45.809V48.878Z" fill="#E76B15"></path><path d="M86.8672 45.932L89.435 44.4589V41.5127L86.8672 42.9858V45.932Z" fill="#E76B15"></path><path d="M124.039 91.1064V91.4747H123.55C123.672 91.2292 123.917 91.1064 124.039 91.1064Z" fill="#E76B15"></path><path d="M114.868 99.4545C117.097 99.4545 118.903 97.6408 118.903 95.4035C118.903 93.1662 117.097 91.3525 114.868 91.3525C112.64 91.3525 110.833 93.1662 110.833 95.4035C110.833 97.6408 112.64 99.4545 114.868 99.4545Z" fill="white" stroke="#E76B15" stroke-width="2" stroke-miterlimit="10" stroke-linecap="round" stroke-linejoin="round"></path><path d="M114.868 102.277V123.392" stroke="#E76B15" stroke-width="2" stroke-miterlimit="10" stroke-linejoin="round" stroke-dasharray="2 2"></path><path d="M25.1186 98.9633C27.3471 98.9633 29.1536 97.1496 29.1536 94.9123C29.1536 92.675 27.3471 90.8613 25.1186 90.8613C22.8901 90.8613 21.0835 92.675 21.0835 94.9123C21.0835 97.1496 22.8901 98.9633 25.1186 98.9633Z" fill="white" stroke="#E76B15" stroke-width="2" stroke-miterlimit="10" stroke-linecap="round" stroke-linejoin="round"></path><path d="M29.1536 97.3672H21.0835V135.545H29.1536V97.3672Z" fill="url(#paint2_linear)"></path><path d="M25.1187 102.769V128.548" stroke="#E76B15" stroke-width="2" stroke-miterlimit="10" stroke-linejoin="round" stroke-dasharray="2 2"></path><path d="M82.9545 27.5181L66.0806 37.3387V28.8684L82.9545 19.0479V27.5181Z" fill="white" stroke="#E76B15" stroke-width="2" stroke-miterlimit="10" stroke-linecap="round" stroke-linejoin="round"></path><path d="M66.0807 37.3387L49.0845 27.5181V19.0479L66.0807 28.8684V37.3387Z" fill="white" stroke="#E76B15" stroke-width="2" stroke-miterlimit="10" stroke-linecap="round" stroke-linejoin="round"></path><path d="M82.9546 19.0481L66.0807 28.8687L49.0845 19.0481L66.0807 9.22754L82.9546 19.0481Z" fill="white" stroke="#E76B15" stroke-width="2" stroke-miterlimit="10" stroke-linecap="round" stroke-linejoin="round"></path><defs><linearGradient id="paint0_linear" x1="70.5962" y1="138.003" x2="70.5962" y2="62.8797" gradientUnits="userSpaceOnUse"><stop offset="0.0356983" stop-color="#E76B15" stop-opacity="0"></stop><stop offset="0.8046" stop-color="#E76B15" stop-opacity="0.3"></stop></linearGradient><linearGradient id="paint1_linear" x1="114.829" y1="132.241" x2="114.829" y2="96.7325" gradientUnits="userSpaceOnUse"><stop offset="0.0356983" stop-color="#E76B15" stop-opacity="0"></stop><stop offset="0.8046" stop-color="#E76B15" stop-opacity="0.3"></stop></linearGradient><linearGradient id="paint2_linear" x1="25.1577" y1="135.505" x2="25.1577" y2="97.3409" gradientUnits="userSpaceOnUse"><stop offset="0.0356983" stop-color="#E76B15" stop-opacity="0"></stop><stop offset="0.8046" stop-color="#E76B15" stop-opacity="0.3"></stop></linearGradient></defs></svg> 