<?xml version="1.0" encoding="UTF-8"?> <svg xmlns="http://www.w3.org/2000/svg" width="145" height="145" viewBox="0 0 145 145" fill="none"><g clip-path="url(#clip0)"><path d="M97.1863 116.295L67.6799 133.336L37.8813 116.197L50.2487 108.991L67.6799 119.119L84.8189 109.186L97.1863 116.295Z" fill="url(#paint0_linear)"></path><path d="M106.924 96.0395L67.7773 118.632V73.5445L106.924 50.9521V96.0395Z" stroke="#E76B15" stroke-width="2" stroke-miterlimit="10" stroke-linejoin="round"></path><path d="M67.7772 110.549V73.5445L28.7275 50.9521V96.0395L67.7772 118.632V110.549Z" stroke="#E76B15" stroke-width="2" stroke-miterlimit="10" stroke-linejoin="round"></path><path d="M101.374 54.1653L106.924 50.9517L67.7772 28.3594L28.7275 50.9517L34.8625 54.4574" stroke="#E76B15" stroke-width="2" stroke-miterlimit="10" stroke-linejoin="round"></path><path d="M67.7773 73.5438L101.374 54.165" stroke="#E76B15" stroke-width="2" stroke-miterlimit="10" stroke-linejoin="round"></path><path d="M37.8813 56.21L67.7773 38.9736L97.7705 56.21V90.7802L67.7773 108.017L37.8813 90.7802V56.21Z" fill="url(#paint1_linear)"></path><path d="M21.6306 39.6377C26.0676 31.9528 25.7378 23.4558 20.894 20.6591C16.0502 17.8625 8.52659 21.8252 4.08958 29.5101C-0.347429 37.195 -0.0176471 45.6919 4.82617 48.4886C9.66998 51.2853 17.1936 47.3226 21.6306 39.6377Z" fill="white" stroke="#E76B15" stroke-width="2" stroke-miterlimit="10" stroke-linejoin="round"></path><path d="M4.28516 47.9338L9.25158 51.0499L25.222 23.199L20.1582 20.375" fill="white"></path><path d="M4.28516 47.9338L9.25158 51.0499L25.222 23.199L20.1582 20.375" stroke="#E76B15" stroke-width="2" stroke-miterlimit="10" stroke-linejoin="round"></path><path d="M25.6506 42.0127C30.0876 34.3278 29.7578 25.8308 24.914 23.0341C20.0702 20.2375 12.5466 24.2002 8.1096 31.8851C3.67259 39.57 4.00237 48.0669 8.84619 50.8636C13.69 53.6603 21.2136 49.6976 25.6506 42.0127Z" fill="white" stroke="#E76B15" stroke-width="2" stroke-miterlimit="10" stroke-linejoin="round"></path><path d="M12.3677 38.5851L16.0681 42.1881L22.1058 32.0605" stroke="#E76B15" stroke-width="2" stroke-miterlimit="10" stroke-linecap="round" stroke-linejoin="round"></path><path d="M12.9517 56.9902V70.1366C12.9517 72.9607 14.6071 75.59 17.139 76.8559L21.7159 79.0957" stroke="#E76B15" stroke-width="2" stroke-miterlimit="10" stroke-linecap="round" stroke-linejoin="round"></path><path d="M142.858 69.0646C143.832 68.3829 144.318 67.0196 143.832 65.6563L133.607 39.3635C132.925 37.6106 130.88 37.0263 129.419 37.8054L125.719 40.1425L138.963 71.4991L142.858 69.0646Z" fill="white" stroke="#E76B15" stroke-width="2" stroke-miterlimit="10" stroke-linecap="round" stroke-linejoin="round"></path><path d="M115.688 54.2623L125.134 40.8238C126.498 38.8762 129.614 39.1683 130.49 41.5054L140.715 67.7983C141.689 70.3302 138.962 72.7647 136.528 71.4013L116.954 60.1052C114.909 58.8392 114.325 56.2099 115.688 54.2623Z" fill="white" stroke="#E76B15" stroke-width="2" stroke-miterlimit="10" stroke-linecap="round" stroke-linejoin="round"></path><path d="M127.471 47.4453V54.8462" stroke="#E76B15" stroke-width="2" stroke-miterlimit="10" stroke-linecap="round" stroke-linejoin="round"></path><path d="M128.153 59.7152C128.932 61.7602 126.79 61.955 126.011 59.91V59.8126C125.134 57.865 127.277 57.6702 128.153 59.7152C128.056 59.7152 128.056 59.7152 128.153 59.7152Z" fill="#E76B15"></path><path d="M82.1897 81.7249L67.7773 90.0023V73.5449L82.1897 65.2676V81.7249Z" fill="white" stroke="#E76B15" stroke-width="2" stroke-miterlimit="10" stroke-linecap="round" stroke-linejoin="round"></path><path d="M53.4624 81.7249L67.7774 90.0023V73.5449L53.4624 65.2676V81.7249Z" fill="white" stroke="#E76B15" stroke-width="2" stroke-miterlimit="10" stroke-linecap="round" stroke-linejoin="round"></path><path d="M67.7774 73.545L82.1897 65.2676L67.7774 56.9902L53.4624 65.2676L67.7774 73.545Z" fill="white" stroke="#E76B15" stroke-width="2" stroke-miterlimit="10" stroke-linecap="round" stroke-linejoin="round"></path><path d="M115.494 42.3827L97.186 31.963C95.6279 31.0866 93.5829 31.0866 92.0248 31.963L89.3955 33.4237" stroke="#E76B15" stroke-width="2" stroke-miterlimit="10" stroke-linecap="round" stroke-linejoin="round"></path><path d="M43.4321 67.4092V84.9377" stroke="#E76B15" stroke-width="2" stroke-miterlimit="10" stroke-linejoin="round" stroke-dasharray="2 2"></path><path d="M92.2197 66.3379V83.9638" stroke="#E76B15" stroke-width="2" stroke-miterlimit="10" stroke-linejoin="round" stroke-dasharray="2 2"></path><path d="M115.494 67.4092L135.944 79.0949" stroke="#E76B15" stroke-width="2" stroke-miterlimit="10" stroke-linecap="round" stroke-linejoin="round"></path><path d="M115.494 74.0312L126.4 80.2636" stroke="#E76B15" stroke-width="2" stroke-miterlimit="10" stroke-linecap="round" stroke-linejoin="round"></path><path d="M32.915 23.1986L50.7357 12.9736" stroke="#E76B15" stroke-width="2" stroke-miterlimit="10" stroke-linecap="round" stroke-linejoin="round"></path><path d="M32.915 30.4053L46.1588 22.8096" stroke="#E76B15" stroke-width="2" stroke-miterlimit="10" stroke-linecap="round" stroke-linejoin="round"></path><path d="M27.5588 84.0619C29.3336 84.0619 30.7723 82.6231 30.7723 80.8483C30.7723 79.0735 29.3336 77.6348 27.5588 77.6348C25.784 77.6348 24.3452 79.0735 24.3452 80.8483C24.3452 82.6231 25.784 84.0619 27.5588 84.0619Z" fill="white" stroke="#E76B15" stroke-width="2" stroke-miterlimit="10" stroke-linejoin="round"></path><path d="M84.6242 41.1166C86.399 41.1166 87.8378 39.6778 87.8378 37.903C87.8378 36.1282 86.399 34.6895 84.6242 34.6895C82.8494 34.6895 81.4106 36.1282 81.4106 37.903C81.4106 39.6778 82.8494 41.1166 84.6242 41.1166Z" fill="white" stroke="#E76B15" stroke-width="2" stroke-miterlimit="10" stroke-linejoin="round"></path></g><defs><linearGradient id="paint0_linear" x1="37.9208" y1="121.197" x2="97.2159" y2="121.197" gradientUnits="userSpaceOnUse"><stop stop-color="#E76B15" stop-opacity="0.1"></stop><stop offset="1" stop-color="#E76B15" stop-opacity="0.5"></stop></linearGradient><linearGradient id="paint1_linear" x1="67.8231" y1="108.027" x2="67.8231" y2="38.9707" gradientUnits="userSpaceOnUse"><stop stop-color="#E76B15" stop-opacity="0.1"></stop><stop offset="1" stop-color="#E76B15" stop-opacity="0.5"></stop></linearGradient><clipPath id="clip0"><rect width="145" height="145" fill="white"></rect></clipPath></defs></svg> 