<?xml version="1.0" encoding="UTF-8"?> <svg xmlns="http://www.w3.org/2000/svg" xmlns:xlink="http://www.w3.org/1999/xlink" width="660.37" height="682.69" viewBox="0 0 660.37 682.69"><defs><linearGradient id="a" x1="188.53" y1="614.87" x2="423.49" y2="614.87" gradientUnits="userSpaceOnUse"><stop offset="0" stop-color="#e76b15" stop-opacity="0"></stop><stop offset="1" stop-color="#e76b15" stop-opacity="0.3"></stop></linearGradient><linearGradient id="b" x1="179.37" y1="338.57" x2="244.67" y2="338.57" gradientUnits="userSpaceOnUse"><stop offset="0" stop-color="#322e38"></stop><stop offset="1" stop-color="#615c6e"></stop></linearGradient><linearGradient id="c" x1="175.83" y1="290.87" x2="242.9" y2="290.87" gradientUnits="userSpaceOnUse"><stop offset="0" stop-color="#e76b15"></stop><stop offset="1" stop-color="#fcbb60"></stop></linearGradient><linearGradient id="d" x1="325.94" y1="338.57" x2="391.24" y2="338.57" gradientTransform="matrix(-1, 0, 0, 1, 758.6, 0)" xlink:href="#b"></linearGradient><linearGradient id="e" x1="322.41" y1="290.87" x2="389.47" y2="290.87" gradientTransform="matrix(-1, 0, 0, 1, 758.6, 0)" gradientUnits="userSpaceOnUse"><stop offset="0" stop-color="#fcbb60"></stop><stop offset="1" stop-color="#e76b15"></stop></linearGradient><linearGradient id="f" x1="307.48" y1="505.25" x2="307.48" y2="376.9" xlink:href="#a"></linearGradient><linearGradient id="g" x1="294.95" y1="505.25" x2="294.95" y2="376.9" xlink:href="#a"></linearGradient><linearGradient id="h" x1="322.5" y1="505.25" x2="322.5" y2="376.9" xlink:href="#a"></linearGradient><linearGradient id="i" x1="256.4" y1="45.43" x2="355.84" y2="45.43" xlink:href="#c"></linearGradient><linearGradient id="j" x1="233.54" y1="222.71" x2="379.43" y2="222.71" gradientUnits="userSpaceOnUse"><stop offset="0" stop-color="#c5d2e7"></stop><stop offset="0.12" stop-color="#d3dded"></stop><stop offset="0.3" stop-color="#e0e7f3"></stop><stop offset="0.53" stop-color="#e8edf6"></stop><stop offset="1" stop-color="#eaeff7"></stop></linearGradient><linearGradient id="k" x1="277.11" y1="152.07" x2="334.92" y2="152.07" xlink:href="#c"></linearGradient><linearGradient id="l" x1="259.12" y1="389.76" x2="353.91" y2="389.76" xlink:href="#c"></linearGradient><linearGradient id="m" x1="298.83" y1="361.18" x2="313.19" y2="361.18" xlink:href="#b"></linearGradient><linearGradient id="n" x1="224.56" y1="513.52" x2="385.46" y2="513.52" xlink:href="#c"></linearGradient><linearGradient id="o" x1="249.42" y1="513.52" x2="360.6" y2="513.52" xlink:href="#c"></linearGradient><linearGradient id="p" x1="457.24" y1="524.81" x2="638.42" y2="524.81" gradientUnits="userSpaceOnUse"><stop offset="0.04" stop-color="#e76b15" stop-opacity="0"></stop><stop offset="0.8" stop-color="#e76b15" stop-opacity="0.3"></stop></linearGradient><linearGradient id="q" x1="440.57" y1="468.75" x2="659.37" y2="468.75" xlink:href="#c"></linearGradient><linearGradient id="r" x1="521.93" y1="365.23" x2="538.91" y2="365.23" xlink:href="#b"></linearGradient><linearGradient id="s" x1="18.81" y1="505.25" x2="108.71" y2="505.25" xlink:href="#a"></linearGradient><linearGradient id="t" x1="24.32" y1="391.96" x2="66.89" y2="391.96" xlink:href="#b"></linearGradient><linearGradient id="u" x1="66.89" y1="391.96" x2="109.46" y2="391.96" xlink:href="#b"></linearGradient><linearGradient id="v" x1="24.32" y1="355.1" x2="109.46" y2="355.1" xlink:href="#c"></linearGradient><linearGradient id="w" x1="207.97" y1="460.31" x2="207.97" y2="339.82" xlink:href="#a"></linearGradient><linearGradient id="x" x1="354.54" y1="460.31" x2="354.54" y2="339.82" gradientTransform="matrix(-1, 0, 0, 1, 758.6, 0)" xlink:href="#a"></linearGradient></defs><polygon points="423.49 614.87 306.01 682.69 188.53 614.87 306.01 547.04 423.49 614.87" fill="url(#a)"></polygon><polygon points="299.83 633.34 145.06 543.99 145.06 512.92 299.83 602.28 299.83 633.34" fill="#c5d2e7" stroke="#e76b15" stroke-linecap="round" stroke-linejoin="round" stroke-width="2"></polygon><polygon points="454.6 543.99 299.83 633.34 299.83 602.28 454.6 512.92 454.6 543.99" fill="#eaeff7" stroke="#e76b15" stroke-linecap="round" stroke-linejoin="round" stroke-width="2"></polygon><polygon points="454.6 512.92 299.83 602.28 145.06 512.92 299.83 423.57 454.6 512.92" fill="#fff" stroke="#e76b15" stroke-linecap="round" stroke-linejoin="round" stroke-width="2"></polygon><path d="M515.82,144.8a16.72,16.72,0,0,0-3.78-1.65,13.33,13.33,0,0,0,.9-5.05c0-8.65-6.08-19.18-13.58-23.51a13.08,13.08,0,0,0-5.27-1.82C491.15,95.65,479.26,77.23,465,69c-14.49-8.36-26.55-3.38-29.22,10.9-.79-.55-1.6-1.07-2.42-1.54-7.89-4.56-14.89-4.15-19.21.19l-9.05,8,4.51,4.18c0,.46,0,.93,0,1.4,0,15.17,10.65,33.61,23.78,41.2l.63.34v0l59,34.06,24.2,22.36,9.66-8.16c2.82-1.63,4.57-5.13,4.57-10.1C531.43,161.87,524.44,149.77,515.82,144.8Z" fill="#eaeff7" stroke="#e76b15" stroke-linecap="round" stroke-linejoin="round" stroke-width="2"></path><path d="M507,152.57a17.89,17.89,0,0,0-3.78-1.65,13.32,13.32,0,0,0,.89-5c0-8.66-6.07-19.19-13.57-23.52a13.12,13.12,0,0,0-5.28-1.82c-2.93-17.12-14.83-35.53-29.07-43.76-14.48-8.36-26.55-3.38-29.22,10.9-.79-.55-1.6-1.06-2.41-1.53-13.14-7.59-23.79-1.44-23.79,13.73s10.65,33.61,23.79,41.19l.62.34v0l79.64,46v-.24A24.72,24.72,0,0,0,507,188.6c8.61,5,15.6.94,15.6-9S515.56,157.55,507,152.57Z" fill="#fff" stroke="#e76b15" stroke-linejoin="round" stroke-width="2"></path><path d="M244.67,330.29,187,364.79a4,4,0,0,1-6-3l-1.59-13.66,63.53-36.37Z" fill="url(#b)"></path><path d="M242.9,311.79l-63.53,36.37L176,319.46a30,30,0,0,1,4.78-20l54.63-65.9Z" fill="url(#c)"></path><line x1="255.54" y1="304.55" x2="242.9" y2="311.79" fill="none" stroke="#e76b15" stroke-linejoin="round" stroke-width="2"></line><path d="M367.35,330.29,425,364.79a4,4,0,0,0,6-3l1.59-13.66-63.53-36.37Z" fill="url(#d)"></path><path d="M369.12,311.79l63.53,36.37,3.34-28.7a30,30,0,0,0-4.78-20l-54.63-65.9Z" fill="url(#e)"></path><line x1="369.12" y1="311.79" x2="356.48" y2="304.55" fill="none" stroke="#e76b15" stroke-linejoin="round" stroke-width="2"></line><rect x="270.99" y="376.9" width="72.99" height="128.35" fill="url(#f)"></rect><rect x="285.21" y="376.9" width="19.49" height="128.35" fill="url(#g)"></rect><rect x="317.85" y="376.9" width="9.31" height="128.35" fill="url(#h)"></rect><path d="M355.84,74C324.13,96.78,291,96.39,256.4,73.43c15.29-38.94,34.13-60,43.59-70.72a8,8,0,0,1,12,0C321.54,13.43,340.51,34.69,355.84,74Z" fill="url(#i)"></path><path d="M379.33,219.18h.1l-1.37,14.41-7.46,78.2-1.77,18.5-3.14,32.94a9.69,9.69,0,0,1-9.64,8.76H256.91a9.67,9.67,0,0,1-9.63-8.76l-3.14-32.94-1.77-18.5-7.46-78.21-1.37-14.4h.09c-.06-1.4-.09-2.75-.09-4,0-63,10.39-108.75,23.33-141.71,34.57,23,67.73,23.35,99.44.54,12.84,32.92,23.12,78.5,23.12,141.17C379.43,216.43,379.39,217.78,379.33,219.18Z" fill="url(#j)"></path><circle cx="306.01" cy="152.07" r="39.97" fill="#fff" stroke="#e76b15" stroke-linejoin="round" stroke-width="2"></circle><path d="M334.92,152.07a28.89,28.89,0,0,1-25.55,28.7,28.18,28.18,0,0,1-7.17-.06,27,27,0,0,1-4.75-1,28.91,28.91,0,1,1,29.14-47.91,27.64,27.64,0,0,1,3.1,3.73,28,28,0,0,1,3.36,6.33A28.73,28.73,0,0,1,334.92,152.07Z" stroke="#e76b15" stroke-linejoin="round" stroke-width="2" fill="url(#k)"></path><path d="M326.59,131.77l-29.14,47.91a28.69,28.69,0,0,1-10.72-6.09L316.26,125A28.58,28.58,0,0,1,326.59,131.77Z" fill="#fff" opacity="0.49"></path><path d="M333.05,141.83l-23.68,38.94a28.18,28.18,0,0,1-7.17-.06l27.49-45.21A28,28,0,0,1,333.05,141.83Z" fill="#fff" opacity="0.18"></path><path d="M334.92,152.07a28.89,28.89,0,0,1-25.55,28.7,28.18,28.18,0,0,1-7.17-.06,27,27,0,0,1-4.75-1,28.91,28.91,0,1,1,29.14-47.91,27.64,27.64,0,0,1,3.1,3.73,28,28,0,0,1,3.36,6.33A28.73,28.73,0,0,1,334.92,152.07Z" fill="none" stroke="#e76b15" stroke-linejoin="round" stroke-width="2"></path><path d="M336.59,407.53H276.44a13.24,13.24,0,0,1-13.06-11L259.12,372h94.79l-4.26,24.56A13.24,13.24,0,0,1,336.59,407.53Z" fill="url(#l)"></path><line x1="306.01" y1="192.04" x2="306.01" y2="371.99" fill="none" stroke="#e76b15" stroke-linejoin="round" stroke-width="2"></line><line x1="306.48" y1="90.91" x2="306.48" y2="112.1" fill="none" stroke="#e76b15" stroke-linejoin="round" stroke-width="2"></line><circle cx="306.01" cy="242.04" r="7.18" fill="#fff" stroke="#e76b15" stroke-linejoin="round" stroke-width="2"></circle><rect x="298.83" y="328.03" width="14.36" height="66.31" rx="7.18" fill="url(#m)"></rect><ellipse cx="305.01" cy="513.52" rx="80.45" ry="39.72" opacity="0.16" fill="url(#n)"></ellipse><ellipse cx="305.01" cy="513.52" rx="55.59" ry="27.45" fill="url(#o)"></ellipse><ellipse cx="305.01" cy="513.52" rx="67.9" ry="33.52" fill="none" stroke="#fff" stroke-miterlimit="10"></ellipse><path d="M171.7,173l-10.94-7.11a8.6,8.6,0,0,0-3.27-1.33c-2.81-.44-6.14.29-9.72,2.35a28.49,28.49,0,0,0-4,2.83q0-.82,0-1.65c0-17.39-12.52-24.37-27.5-15.54-12.59,7.42-23.13,23.52-26.09,38.74a25.53,25.53,0,0,0-3,1.49c-12.2,7-22.08,24.17-22.08,38.26,0,6.22,1.93,10.81,5.15,13.39h0a10.38,10.38,0,0,0,2,1.27L82.41,252l17.86-15.81,47.5-27.42c9.8-5.66,17.77-19.25,18.11-30.67Z" fill="#eaeff7" stroke="#e76b15" stroke-linecap="round" stroke-linejoin="round" stroke-width="2"></path><path d="M157.11,172.92a28.25,28.25,0,0,0-4,2.83c0-.55,0-1.1,0-1.65,0-17.36-12.19-24.39-27.22-15.71-12.72,7.34-23.39,23.57-26.38,38.9a28.2,28.2,0,0,0-3,1.5C84.35,205.83,74.46,223,74.46,237s9.89,19.79,22.08,12.75l60.57-35c10-5.78,18.15-19.85,18.15-31.43S167.13,167.13,157.11,172.92Z" fill="#fff" stroke="#e76b15" stroke-linejoin="round" stroke-width="2"></path><line x1="129.1" y1="212.5" x2="147.21" y2="202.02" fill="none" stroke="#e76b15" stroke-linecap="round" stroke-linejoin="round" stroke-width="2"></line><polyline points="115.73 190.32 127.69 200.17 120.11 217.16" fill="none" stroke="#e76b15" stroke-linecap="round" stroke-linejoin="round" stroke-width="2"></polyline><path d="M548.16,575.81l-90.92-52.49L539.14,476a16.72,16.72,0,0,1,16.73,0l82.55,47.66Z" fill="url(#p)"></path><path d="M658.21,468.48l-20-.39L556,420.61a12.84,12.84,0,0,0-12.83,0l-82.24,47.48-19.29.05v11.48l108.73,63.06,107.85-62.26Z" fill="#fff" stroke="#e76b15" stroke-linecap="round" stroke-linejoin="round" stroke-width="2"></path><path d="M550.37,530.92l-109.8-63.39,102.56-59.22a12.88,12.88,0,0,1,12.88,0L659.37,468Z" fill="url(#q)"></path><polygon points="484.16 471.29 549.97 510.64 549.97 396.89 484.15 365.88 484.16 471.29" fill="#eaeff7" stroke="#e76b15" stroke-linecap="round" stroke-linejoin="round" stroke-width="2"></polygon><polygon points="549.97 510.64 618.26 471.2 618.25 379.59 549.97 417.89 549.97 510.64" fill="#fff" stroke="#e76b15" stroke-linecap="round" stroke-linejoin="round" stroke-width="2"></polygon><polygon points="564.74 481.9 576.99 474.48 576.99 420.18 564.74 427.1 564.74 481.9" fill="#fcede3" stroke="#e76b15" stroke-linecap="round" stroke-linejoin="round" stroke-width="2"></polygon><polygon points="591.6 468.98 606.87 460.16 606.87 405.87 591.6 414.18 591.6 468.98" fill="#fcede3" stroke="#e76b15" stroke-linecap="round" stroke-linejoin="round" stroke-width="2"></polygon><polygon points="484.15 365.88 551.2 327.17 618.25 379.59 549.97 417.89 484.15 365.88" fill="#fff" stroke="#e76b15" stroke-linecap="round" stroke-linejoin="round" stroke-width="2"></polygon><path d="M532.41,370.78c1.1-2,3.48-3.35,6.5-3.75l-2.78-7.34c-7,.58-12.54,3.83-14.2,8.78Z" fill="url(#r)"></path><path d="M560.19,387.89l-8.58-5.5a14,14,0,0,1-9.09.75c-5.52-1.21-9.81-4.8-10.63-8.54l-10.45-2.3c.45,7.63,9,15.34,20.21,17.8C549,391.71,555.72,390.71,560.19,387.89Z" fill="#e76b15"></path><path d="M544.57,367.34c6.43,1.44,11.19,6.11,10.65,10.46a5.31,5.31,0,0,1-.56,1.77l8.68,5.56a10,10,0,0,0,2.18-5.06c1-8.21-8-17-20.17-19.71a34.34,34.34,0,0,0-3.64-.58Z" fill="#e76b15"></path><line x1="553.28" y1="401.44" x2="591.6" y2="379.59" fill="none" stroke="#e76b15" stroke-linecap="round" stroke-linejoin="round" stroke-width="2"></line><ellipse cx="554.74" cy="352.67" rx="4.46" ry="5.52" transform="translate(-50.47 609.24) rotate(-55.42)" fill="#fff" stroke="#e76b15" stroke-linecap="round" stroke-linejoin="round" stroke-width="2"></ellipse><ellipse cx="570.2" cy="365.09" rx="4.46" ry="5.52" transform="translate(-54.02 627.34) rotate(-55.42)" fill="#fff" stroke="#e76b15" stroke-linecap="round" stroke-linejoin="round" stroke-width="2"></ellipse><polygon points="496.76 427.47 500.54 429.65 500.54 433.99 496.76 431.81 496.76 427.47" fill="#e76b15"></polygon><polygon points="504.12 431.72 507.9 433.91 507.9 438.24 504.12 436.06 504.12 431.72" fill="#e76b15"></polygon><polygon points="496.76 435.91 500.54 438.1 500.54 442.43 496.76 440.25 496.76 435.91" fill="#e76b15"></polygon><polygon points="504.12 440.17 507.9 442.35 507.9 446.68 504.12 444.5 504.12 440.17" fill="#e76b15"></polygon><polygon points="496.76 444.36 500.54 446.54 500.54 450.87 496.76 448.69 496.76 444.36" fill="#e76b15"></polygon><polygon points="504.12 448.61 507.9 450.79 507.9 455.13 504.12 452.94 504.12 448.61" fill="#e76b15"></polygon><polygon points="511.49 452.86 515.27 455.04 515.27 459.38 511.49 457.19 511.49 452.86" fill="#e76b15"></polygon><polygon points="518.85 457.11 522.63 459.3 522.63 463.63 518.85 461.45 518.85 457.11" fill="#e76b15"></polygon><polygon points="496.76 452.8 500.54 454.98 500.54 459.31 496.76 457.13 496.76 452.8" fill="#e76b15"></polygon><polygon points="504.12 457.05 507.9 459.23 507.9 463.57 504.12 461.38 504.12 457.05" fill="#e76b15"></polygon><polygon points="511.49 461.3 515.27 463.49 515.27 467.82 511.49 465.64 511.49 461.3" fill="#e76b15"></polygon><polygon points="518.85 465.55 522.63 467.74 522.63 472.07 518.85 469.89 518.85 465.55" fill="#e76b15"></polygon><polygon points="496.76 461.24 500.54 463.42 500.54 467.76 496.76 465.57 496.76 461.24" fill="#e76b15"></polygon><polygon points="504.12 465.49 507.9 467.68 507.9 472.01 504.12 469.83 504.12 465.49" fill="#e76b15"></polygon><polygon points="511.49 469.74 515.27 471.93 515.27 476.26 511.49 474.08 511.49 469.74" fill="#e76b15"></polygon><polygon points="518.85 474 522.63 476.18 522.63 480.51 518.85 478.33 518.85 474" fill="#e76b15"></polygon><polygon points="580 448.75 561.97 459.16 561.74 438.1 579.76 427.69 580 448.75" fill="#fff" stroke="#e76b15" stroke-linecap="round" stroke-linejoin="round" stroke-width="2"></polygon><polygon points="608.36 452.01 590.34 462.42 590.11 441.35 608.13 430.95 608.36 452.01" fill="#fff" stroke="#e76b15" stroke-linecap="round" stroke-linejoin="round" stroke-width="2"></polygon><polygon points="108.71 505.25 63.76 531.2 18.81 505.25 63.76 479.29 108.71 505.25" fill="url(#s)"></polygon><polygon points="66.89 428.83 24.32 404.25 24.32 355.1 66.89 379.68 66.89 428.83" fill="url(#t)"></polygon><polygon points="109.46 404.25 66.89 428.83 66.89 379.68 109.46 355.1 109.46 404.25" fill="url(#u)"></polygon><polygon points="109.46 355.1 66.89 379.68 24.32 355.1 66.89 330.52 109.46 355.1" fill="url(#v)"></polygon><circle cx="66.69" cy="379.63" r="2.93" fill="#e76b15"></circle><circle cx="2.93" cy="342.75" r="2.93" fill="#e76b15"></circle><circle cx="2.93" cy="416.68" r="2.93" fill="#e76b15"></circle><circle cx="66.89" cy="453.53" r="2.93" fill="#e76b15"></circle><circle cx="130.85" cy="416.68" r="2.93" fill="#e76b15"></circle><circle cx="130.85" cy="343.35" r="2.93" fill="#e76b15"></circle><circle cx="66.89" cy="305.82" r="2.93" fill="#e76b15"></circle><polygon points="66.89 453.53 2.93 416.6 2.93 342.75 66.89 379.68 66.89 453.53" fill="none" stroke="#e76b15" stroke-linecap="round" stroke-linejoin="round" stroke-width="2"></polygon><polygon points="130.84 416.6 66.89 453.53 66.89 379.68 130.84 342.75 130.84 416.6" fill="none" stroke="#e76b15" stroke-linecap="round" stroke-linejoin="round" stroke-width="2"></polygon><polygon points="130.84 342.75 66.89 379.68 2.93 342.75 66.89 305.82 130.84 342.75" fill="none" stroke="#e76b15" stroke-linecap="round" stroke-linejoin="round" stroke-width="2"></polygon><line x1="550.37" y1="530.92" x2="550.37" y2="542.68" fill="none" stroke="#e76b15" stroke-linecap="round" stroke-linejoin="round" stroke-width="2"></line><path d="M385.46,570.92l64.31,34.68a10,10,0,0,0,9.61-.1L622.8,512.66a2.5,2.5,0,0,0,.14-4.26l-6.16-4.06" fill="none" stroke="#e76b15" stroke-linecap="round" stroke-linejoin="round" stroke-width="2"></path><circle cx="493.16" cy="588.31" r="4.22" fill="#fff" stroke="#e76b15" stroke-linecap="round" stroke-linejoin="round" stroke-width="2"></circle><circle cx="533.78" cy="312.85" r="4.22" fill="#fff" stroke="#e76b15" stroke-linecap="round" stroke-linejoin="round" stroke-width="2"></circle><polygon points="185.97 364.78 198.84 460.31 229.96 441.07 227.72 339.82 185.97 364.78" fill="url(#w)"></polygon><polygon points="426.05 364.78 413.18 460.31 382.06 441.07 384.3 339.82 426.05 364.78" fill="url(#x)"></polygon><line x1="145.06" y1="553.24" x2="145.06" y2="598.83" fill="none" stroke="#e76b15" stroke-linejoin="round" stroke-width="2" stroke-dasharray="2 4"></line><line x1="299.83" y1="646.35" x2="299.83" y2="673.51" fill="none" stroke="#e76b15" stroke-linejoin="round" stroke-width="2" stroke-dasharray="2 4"></line><line x1="454.6" y1="553.24" x2="454.6" y2="584.1" fill="none" stroke="#e76b15" stroke-linejoin="round" stroke-width="2" stroke-dasharray="2 4"></line><line x1="441.63" y1="486.07" x2="441.63" y2="495.29" fill="none" stroke="#e76b15" stroke-linejoin="round" stroke-width="2" stroke-dasharray="2 4"></line><line x1="659.37" y1="490.68" x2="659.37" y2="518.48" fill="none" stroke="#e76b15" stroke-linejoin="round" stroke-width="2" stroke-dasharray="2 4"></line><line x1="401.68" y1="376.7" x2="398.56" y2="437.43" fill="none" stroke="#fff" stroke-miterlimit="10" stroke-width="2"></line><line x1="202.23" y1="379.59" x2="204.44" y2="417.29" fill="none" stroke="#fff" stroke-miterlimit="10" stroke-width="2"></line><line x1="216.94" y1="400.06" x2="220.88" y2="446.68" fill="none" stroke="#fff" stroke-miterlimit="10" stroke-width="2"></line><line x1="294.95" y1="416.68" x2="294.95" y2="455.13" fill="none" stroke="#fff" stroke-miterlimit="10" stroke-width="2"></line><line x1="322.5" y1="427.47" x2="322.5" y2="469.74" fill="none" stroke="#fff" stroke-miterlimit="10" stroke-width="2"></line><line x1="533.73" y1="337.25" x2="533.73" y2="317.07" fill="none" stroke="#e76b15" stroke-linecap="round" stroke-linejoin="round" stroke-width="2"></line><path d="M523.21,305.68a14.14,14.14,0,0,1,21.21-1" fill="none" stroke="#e76b15" stroke-linecap="round" stroke-linejoin="round" stroke-width="2"></path><path d="M516.83,299.58a22.87,22.87,0,0,1,34-1" fill="none" stroke="#e76b15" stroke-linecap="round" stroke-linejoin="round" stroke-width="2"></path><path d="M510.55,293.58a33.27,33.27,0,0,1,46.46-.92" fill="none" stroke="#e76b15" stroke-linecap="round" stroke-linejoin="round" stroke-width="2"></path><ellipse cx="385.46" cy="570.92" rx="3.88" ry="2.24" transform="translate(-301.99 614.96) rotate(-59.64)" fill="#e76b15"></ellipse></svg> 