<?xml version="1.0" encoding="UTF-8"?> <svg xmlns="http://www.w3.org/2000/svg" width="145" height="145" viewBox="0 0 145 145" fill="none"><path d="M61.1802 122.569C51.7424 120.196 43.1774 115.18 36.4902 108.109" stroke="#E76B15" stroke-width="2" stroke-linecap="round" stroke-linejoin="round"></path><path d="M110.85 108.109C103.932 115.419 95.0142 120.528 85.21 122.799" stroke="#E76B15" stroke-width="2" stroke-linecap="round" stroke-linejoin="round"></path><path d="M123.26 60.0801C125.389 68.3685 125.42 77.0567 123.35 85.3601" stroke="#E76B15" stroke-width="2" stroke-linecap="round" stroke-linejoin="round"></path><path d="M85.6099 23.0898C95.2502 25.4014 104.012 30.4631 110.83 37.6598" stroke="#E76B15" stroke-width="2" stroke-linecap="round" stroke-linejoin="round"></path><path d="M35.6699 38.57C41.7925 31.7791 49.6194 26.7487 58.3399 24" stroke="#E76B15" stroke-width="2" stroke-linecap="round" stroke-linejoin="round"></path><path d="M24.1601 85.9994C21.8402 77.1925 21.8954 67.9281 24.3201 59.1494" stroke="#E76B15" stroke-width="2" stroke-linecap="round" stroke-linejoin="round"></path><path d="M98.7599 58.8098V86.0498C98.7596 86.619 98.6098 87.1781 98.3255 87.6713C98.0412 88.1644 97.6323 88.5743 97.1399 88.8598L73.5499 102.48C73.0558 102.765 72.4954 102.915 71.9249 102.915C71.3544 102.915 70.7939 102.765 70.2999 102.48L46.7099 88.8598C46.216 88.5758 45.8061 88.1663 45.5216 87.6728C45.2371 87.1793 45.0881 86.6194 45.0899 86.0498V58.8098C45.0881 58.2401 45.2371 57.6802 45.5216 57.1867C45.8061 56.6932 46.216 56.2837 46.7099 55.9998L70.2999 42.3798C70.7939 42.0945 71.3544 41.9443 71.9249 41.9443C72.4954 41.9443 73.0558 42.0945 73.5499 42.3798L97.1399 55.9998C97.6323 56.2852 98.0412 56.6951 98.3255 57.1882C98.6098 57.6814 98.7596 58.2405 98.7599 58.8098V58.8098Z" fill="url(#paint0_linear_1420:2168)"></path><path d="M90.0001 65.0005V81.6005C89.999 82.1155 89.8627 82.6212 89.6047 83.067C89.3467 83.5128 88.9761 83.8829 88.5301 84.1405L74.1401 92.4005C73.6938 92.6605 73.1866 92.7975 72.6701 92.7975C72.1536 92.7975 71.6464 92.6605 71.2001 92.4005L56.8201 84.1005C56.3727 83.8445 56.001 83.4747 55.7428 83.0285C55.4846 82.5824 55.3491 82.0759 55.3501 81.5605V65.0005C55.3554 64.4849 55.4934 63.9794 55.7509 63.5328C56.0084 63.0861 56.3766 62.7134 56.8201 62.4505L71.2001 54.1505C71.649 53.8982 72.1552 53.7656 72.6701 53.7656C73.185 53.7656 73.6912 53.8982 74.1401 54.1505L88.5201 62.4505C88.9654 62.7121 89.3357 63.0844 89.595 63.5311C89.8543 63.9778 89.9938 64.484 90.0001 65.0005V65.0005Z" fill="#E76B15"></path><path d="M104.1 53.97L72.1201 72.43L40.1401 53.97L72.1201 35.5L104.1 53.97Z" stroke="#E76B15" stroke-width="2" stroke-linecap="round" stroke-linejoin="round"></path><path d="M72.1201 109.36L40.1401 90.8897V53.9697L72.1201 72.4297V109.36Z" stroke="#E76B15" stroke-width="2" stroke-linecap="round" stroke-linejoin="round"></path><path d="M72.1201 109.36L104.1 90.8897V53.9697L72.1201 72.4297V109.36Z" stroke="#E76B15" stroke-width="2" stroke-linecap="round" stroke-linejoin="round"></path><path d="M72.9204 31.8496H70.9204V29.8496H72.9204V31.8496Z" fill="#E76B15"></path><path d="M80.1102 12.72L71.9202 17.45L63.7402 12.72L71.9202 8L80.1102 12.72Z" stroke="#E76B15" stroke-width="2" stroke-linecap="round" stroke-linejoin="round"></path><path d="M71.9202 26.8997L63.7402 22.1697V12.7197L71.9202 17.4497V26.8997Z" stroke="#E76B15" stroke-width="2" stroke-linecap="round" stroke-linejoin="round"></path><path d="M71.9204 26.8997L80.1104 22.1697V12.7197L71.9204 17.4497V26.8997Z" stroke="#E76B15" stroke-width="2" stroke-linecap="round" stroke-linejoin="round"></path><path d="M72.9204 115H70.9204V113H72.9204V115Z" fill="#E76B15"></path><path d="M80.1102 123.23L71.9202 127.96L63.7402 123.23L71.9202 118.51L80.1102 123.23Z" stroke="#E76B15" stroke-width="2" stroke-linecap="round" stroke-linejoin="round"></path><path d="M71.9202 137.409L63.7402 132.679V123.229L71.9202 127.959V137.409Z" stroke="#E76B15" stroke-width="2" stroke-linecap="round" stroke-linejoin="round"></path><path d="M71.9204 137.409L80.1104 132.679V123.229L71.9204 127.959V137.409Z" stroke="#E76B15" stroke-width="2" stroke-linecap="round" stroke-linejoin="round"></path><path d="M37.7598 93.7998H35.7598V91.7998H37.7598V93.7998Z" fill="#E76B15"></path><path d="M33.37 94.2796L25.18 99.0096L17 94.2796L25.18 89.5596L33.37 94.2796Z" stroke="#E76B15" stroke-width="2" stroke-linecap="round" stroke-linejoin="round"></path><path d="M25.18 108.459L17 103.729V94.2793L25.18 99.0093V108.459Z" stroke="#E76B15" stroke-width="2" stroke-linecap="round" stroke-linejoin="round"></path><path d="M25.1802 108.459L33.3702 103.729V94.2793L25.1802 99.0093V108.459Z" stroke="#E76B15" stroke-width="2" stroke-linecap="round" stroke-linejoin="round"></path><path d="M37.7598 53.3301H35.7598V51.3301H37.7598V53.3301Z" fill="#E76B15"></path><path d="M33.37 41.4898L25.18 46.2098L17 41.4898L25.18 36.7598L33.37 41.4898Z" stroke="#E76B15" stroke-width="2" stroke-linecap="round" stroke-linejoin="round"></path><path d="M25.18 55.6602L17 50.9402V41.4902L25.18 46.2102V55.6602Z" stroke="#E76B15" stroke-width="2" stroke-linecap="round" stroke-linejoin="round"></path><path d="M25.1802 55.6602L33.3702 50.9402V41.4902L25.1802 46.2102V55.6602Z" stroke="#E76B15" stroke-width="2" stroke-linecap="round" stroke-linejoin="round"></path><path d="M112.72 94.2796L120.9 99.0096L129.08 94.2796L120.9 89.5596L112.72 94.2796Z" stroke="#E76B15" stroke-width="2" stroke-linecap="round" stroke-linejoin="round"></path><path d="M120.9 108.459L129.08 103.729V94.2793L120.9 99.0093V108.459Z" stroke="#E76B15" stroke-width="2" stroke-linecap="round" stroke-linejoin="round"></path><path d="M120.9 108.459L112.72 103.729V94.2793L120.9 99.0093V108.459Z" stroke="#E76B15" stroke-width="2" stroke-linecap="round" stroke-linejoin="round"></path><path d="M108.33 53.3301H110.33V51.3301H108.33V53.3301Z" fill="#E76B15"></path><path d="M112.72 41.4898L120.9 46.2098L129.08 41.4898L120.9 36.7598L112.72 41.4898Z" stroke="#E76B15" stroke-width="2" stroke-linecap="round" stroke-linejoin="round"></path><path d="M120.9 55.6602L129.08 50.9402V41.4902L120.9 46.2102V55.6602Z" stroke="#E76B15" stroke-width="2" stroke-linecap="round" stroke-linejoin="round"></path><path d="M120.9 55.6602L112.72 50.9402V41.4902L120.9 46.2102V55.6602Z" stroke="#E76B15" stroke-width="2" stroke-linecap="round" stroke-linejoin="round"></path><path d="M60.4399 65.7803L72.1199 72.4303V86.0103" stroke="white" stroke-width="2" stroke-linecap="round" stroke-linejoin="round"></path><path d="M86.6702 65.0195L75.7202 71.3395" stroke="white" stroke-width="2" stroke-linecap="round" stroke-linejoin="round"></path><path d="M49.9302 78.3604H47.9302V76.3604H49.9302V78.3604ZM49.9302 72.3604H47.9302V70.3604H49.9302V72.3604ZM49.9302 66.3604H47.9302V64.3604H49.9302V66.3604Z" fill="#E76B15"></path><path d="M90.6299 56.5996L88.9999 57.6896L87.2699 56.6896L88.8899 55.5996L90.6299 56.5996ZM85.4299 53.5996L83.7999 54.6896L82.0699 53.6896L83.6999 52.5996L85.4299 53.5996ZM80.2299 50.5996L78.6099 51.6896L76.8799 50.6896L78.4999 49.5996L80.2299 50.5996Z" fill="#E76B15"></path><path d="M109.28 87.3796L106.84 88.7796C106.649 89.7732 106.368 90.7472 106 91.6896L107.73 92.6896L104.73 97.8496L102.99 96.8496C102.362 97.6451 101.666 98.3845 100.91 99.0596V101.85L96.68 104.3V101.5C96.0014 101.693 95.2936 101.765 94.59 101.71L92.87 104.71L89.87 103L91.59 99.9996C91.1789 99.4241 90.8803 98.7761 90.71 98.0896L88.27 99.4996V94.6496L90.7 93.2396C90.9083 92.247 91.1993 91.2736 91.57 90.3296L89.84 89.3296L92.84 84.1596L94.57 85.1596C95.1912 84.3831 95.877 83.6605 96.62 82.9996V80.1996L100.85 77.7596V80.5496C101.532 80.3542 102.244 80.2864 102.95 80.3496L104.67 77.3496L107.67 79.0596L106 81.9996C106.407 82.5737 106.705 83.2178 106.88 83.8996L109.31 82.4896L109.28 87.3796Z" fill="white" stroke="#E76B15" stroke-width="2" stroke-linejoin="round"></path><path d="M98.7698 94.7103C99.7075 94.1052 100.489 93.2871 101.05 92.3225C101.612 91.358 101.937 90.2745 102 89.1603C102 87.1603 100.55 86.2903 98.7698 87.3203C97.836 87.9269 97.0592 88.7461 96.503 89.7108C95.9468 90.6755 95.627 91.7582 95.5698 92.8703C95.5698 94.8703 97.0198 95.7303 98.7898 94.7103" fill="white"></path><path d="M98.7698 94.7103C99.7075 94.1052 100.489 93.2871 101.05 92.3225C101.612 91.358 101.937 90.2745 102 89.1603C102 87.1603 100.55 86.2903 98.7698 87.3203C97.836 87.9269 97.0592 88.7461 96.503 89.7108C95.9468 90.6755 95.627 91.7582 95.5698 92.8703C95.5698 94.8703 97.0198 95.7303 98.7898 94.7103" stroke="#E76B15" stroke-width="2" stroke-linejoin="round"></path><defs><linearGradient id="paint0_linear_1420:2168" x1="71.9199" y1="102.92" x2="71.9199" y2="41.9398" gradientUnits="userSpaceOnUse"><stop stop-color="#E76B15" stop-opacity="0"></stop><stop offset="1" stop-color="#E76B15" stop-opacity="0.3"></stop></linearGradient></defs></svg> 