<?xml version="1.0" encoding="UTF-8"?> <svg xmlns="http://www.w3.org/2000/svg" xmlns:xlink="http://www.w3.org/1999/xlink" width="150.17" height="184.14" viewBox="0 0 150.17 184.14"><defs><style> .cls-1 { fill: url(#linear-gradient); } .cls-2, .cls-9 { fill: #fff; } .cls-11, .cls-2, .cls-3, .cls-4, .cls-5, .cls-6, .cls-7, .cls-8, .cls-9 { stroke: #e76b15; stroke-width: 2px; } .cls-11, .cls-2, .cls-4, .cls-5, .cls-6, .cls-8 { stroke-linecap: round; } .cls-11, .cls-2, .cls-4, .cls-5, .cls-6, .cls-8, .cls-9 { stroke-linejoin: round; } .cls-3, .cls-7 { stroke-miterlimit: 10; } .cls-3 { fill: url(#linear-gradient-2); } .cls-10, .cls-4 { fill: #e76b15; } .cls-5 { fill: url(#linear-gradient-3); } .cls-6 { fill: url(#linear-gradient-4); } .cls-7 { fill: url(#linear-gradient-5); } .cls-8 { fill: url(#linear-gradient-6); } .cls-11 { fill: none; } </style><linearGradient id="linear-gradient" x1="74.23" y1="184.14" x2="74.23" y2="116.18" gradientUnits="userSpaceOnUse"><stop offset="0.04" stop-color="#e76b15" stop-opacity="0"></stop><stop offset="0.8" stop-color="#e76b15" stop-opacity="0.3"></stop></linearGradient><linearGradient id="linear-gradient-2" x1="1" y1="115.96" x2="149.17" y2="115.96" gradientUnits="userSpaceOnUse"><stop offset="0" stop-color="#fff"></stop><stop offset="1" stop-color="#f9dac5"></stop></linearGradient><linearGradient id="linear-gradient-3" x1="53.52" y1="76.24" x2="96.96" y2="76.24" xlink:href="#linear-gradient-2"></linearGradient><linearGradient id="linear-gradient-4" x1="96.96" y1="101.94" x2="140.4" y2="101.94" xlink:href="#linear-gradient-2"></linearGradient><linearGradient id="linear-gradient-5" x1="31.79" y1="106.14" x2="53.52" y2="106.14" xlink:href="#linear-gradient-2"></linearGradient><linearGradient id="linear-gradient-6" x1="10.07" y1="91.74" x2="53.52" y2="91.74" xlink:href="#linear-gradient-2"></linearGradient></defs><g id="Layer_2" data-name="Layer 2"><g id="Layer_1-2" data-name="Layer 1"><g><path class="cls-1" d="M18.59,147.9l54.34-31.37a2.64,2.64,0,0,1,2.61,0l54.34,31.37a2.61,2.61,0,0,1,0,4.52L75.54,183.79a2.59,2.59,0,0,1-2.61,0L18.59,152.42A2.61,2.61,0,0,1,18.59,147.9Z"></path><path class="cls-2" d="M72.43,168.74a5.3,5.3,0,0,0,5.31,0L147.14,128a4.11,4.11,0,0,0,2-3.55V117l-14.57-.64L75.09,82,15.58,116.36H1v7.93a3.22,3.22,0,0,0,1.59,2.79Z"></path><path class="cls-3" d="M2.18,114.32,75.09,72.24,148,114.32a2.36,2.36,0,0,1,0,4.08L77.74,159a5.35,5.35,0,0,1-5.31,0L2.18,118.41A2.36,2.36,0,0,1,2.18,114.32Z"></path><polygon class="cls-4" points="10.07 116.26 75.09 78.73 140.1 116.26 75.09 153.8 10.07 116.26"></polygon><g><polygon class="cls-5" points="96.96 76.23 75.24 88.78 53.52 76.23 75.24 63.69 96.96 76.23"></polygon><polygon class="cls-2" points="75.24 96.32 53.52 83.78 53.52 76.23 75.24 88.78 75.24 96.32"></polygon><polygon class="cls-2" points="75.24 96.32 96.96 83.78 96.96 76.23 75.24 88.78 75.24 96.32"></polygon></g><g><polygon class="cls-2" points="118.68 96.09 96.96 108.63 75.24 96.09 96.96 83.55 118.68 96.09"></polygon><polygon class="cls-2" points="96.96 116.17 75.24 103.63 75.24 96.09 96.96 108.63 96.96 116.17"></polygon><polygon class="cls-2" points="96.96 116.17 118.68 103.63 118.68 96.09 96.96 108.63 96.96 116.17"></polygon></g><g><polygon class="cls-6" points="140.4 101.94 118.68 114.48 96.96 101.94 118.68 89.4 140.4 101.94"></polygon><polygon class="cls-2" points="118.68 125.8 96.96 113.26 96.96 101.94 118.68 114.48 118.68 125.8"></polygon><polygon class="cls-2" points="118.68 125.8 140.4 113.26 140.4 101.94 118.68 114.48 118.68 125.8"></polygon></g><g><polygon class="cls-2" points="75.24 96.1 53.52 108.64 31.79 96.1 53.52 83.56 75.24 96.1"></polygon><polygon class="cls-7" points="53.52 116.18 31.79 103.64 31.79 96.1 53.52 108.64 53.52 116.18"></polygon><polygon class="cls-2" points="53.52 116.18 75.24 103.64 75.24 96.1 53.52 108.64 53.52 116.18"></polygon></g><g><polygon class="cls-2" points="96.96 108.63 75.24 121.17 53.52 108.63 75.24 96.09 96.96 108.63"></polygon><polygon class="cls-2" points="75.24 128.72 53.52 116.17 53.52 108.63 75.24 121.17 75.24 128.72"></polygon><polygon class="cls-2" points="75.24 128.72 96.96 116.17 96.96 108.63 75.24 121.17 75.24 128.72"></polygon></g><g><polygon class="cls-2" points="118.68 121.17 96.96 133.71 75.24 121.17 96.96 108.63 118.68 121.17"></polygon><polygon class="cls-2" points="96.96 141.26 75.24 128.72 75.24 121.17 96.96 133.71 96.96 141.26"></polygon><polygon class="cls-2" points="96.96 141.26 118.68 128.72 118.68 121.17 96.96 133.71 96.96 141.26"></polygon></g><g><polygon class="cls-8" points="53.52 91.74 31.79 104.28 10.07 91.74 31.79 79.2 53.52 91.74"></polygon><polygon class="cls-2" points="31.79 115.99 10.07 103.45 10.07 91.74 31.79 104.28 31.79 115.99"></polygon><polygon class="cls-2" points="31.79 115.99 53.52 103.45 53.52 91.74 31.79 104.28 31.79 115.99"></polygon></g><g><polygon class="cls-2" points="75.24 121.17 53.52 133.71 31.79 121.17 53.52 108.63 75.24 121.17"></polygon><polygon class="cls-2" points="53.52 141.26 31.79 128.72 31.79 121.17 53.52 133.71 53.52 141.26"></polygon><polygon class="cls-2" points="53.52 141.26 75.24 128.72 75.24 121.17 53.52 133.71 53.52 141.26"></polygon></g><g><polygon class="cls-2" points="96.96 133.71 75.24 146.25 53.52 133.71 75.24 121.17 96.96 133.71"></polygon><polygon class="cls-2" points="75.24 153.8 53.52 141.26 53.52 133.71 75.24 146.25 75.24 153.8"></polygon><polygon class="cls-2" points="75.24 153.8 96.96 141.26 96.96 133.71 75.24 146.25 75.24 153.8"></polygon></g><g><g><path class="cls-9" d="M93,45.32l3-1.93a2.23,2.23,0,0,1,.89-.36,4.05,4.05,0,0,1,2.65.64,7,7,0,0,1,1.09.77c0-.15,0-.3,0-.45,0-4.74,3.41-6.64,7.49-4.24a16.72,16.72,0,0,1,7.1,10.55,9,9,0,0,1,.82.41,13.3,13.3,0,0,1,6,10.42,4.48,4.48,0,0,1-1.4,3.64h0c-.18.13-3.71,2.32-3.71,2.32l-4.46-4.56L99.48,55.08a11,11,0,0,1-4.93-8.35Z"></path><path class="cls-9" d="M96.17,45.82a8.56,8.56,0,0,1,1.08.77c0-.15,0-.3,0-.45,0-4.72,3.32-6.64,7.41-4.27,3.47,2,6.37,6.41,7.19,10.59a7,7,0,0,1,.82.41,13.28,13.28,0,0,1,6,10.41c0,3.84-2.69,5.39-6,3.47L96.17,57.23a10.91,10.91,0,0,1-4.94-8.56C91.23,45.52,93.44,44.25,96.17,45.82Z"></path></g><path class="cls-10" d="M107.79,56.51l-1-.58V54.79l1,.57Zm-2.48-1.44-1-.57V53.35l1,.58Zm-2.48-1.43-1-.57V51.92l1,.57Z"></path></g><g><path class="cls-9" d="M73,14.8l-6.22-4A4.77,4.77,0,0,0,64.93,10a8.52,8.52,0,0,0-5.53,1.33A16.22,16.22,0,0,0,57.13,13c0-.31,0-.63,0-.94,0-9.89-7.12-13.86-15.64-8.84-7.15,4.22-13.15,13.38-14.83,22a17.09,17.09,0,0,0-1.72.85C18,30.06,12.41,39.79,12.41,47.8c0,3.54,1.1,6.15,2.92,7.61h0c.35.29,7.74,4.86,7.74,4.86l9.3-9.52,27-15.59C65,32,69.5,24.23,69.7,17.73Z"></path><path class="cls-9" d="M66.32,15.84a16.22,16.22,0,0,0-2.27,1.61c0-.31,0-.62,0-.93,0-9.87-6.93-13.87-15.48-8.94-7.22,4.18-13.3,13.4-15,22.12a17,17,0,0,0-1.71.85C25,34.56,19.32,44.29,19.32,52.3S25,63.56,31.88,59.55L66.32,39.67C72,36.38,76.64,28.38,76.64,21.8S72,12.55,66.32,15.84Z"></path></g><path class="cls-10" d="M49.1,68.64H47.43V67H49.1Zm0-3.34H47.43V63.63H49.1Zm0-3.34H47.43V60.3H49.1Zm0-3.33H47.43V57H49.1Z"></path><path class="cls-10" d="M107.63,80H106V78.34h1.67Zm0-3.34H106V75h1.67Zm0-3.34H106V71.66h1.67Zm0-3.33H106V68.33h1.67Z"></path><g><polygon class="cls-10" points="41.65 30.76 49.69 18.17 41.05 44.89 34.69 48.56 41.65 30.76"></polygon><polygon class="cls-10" points="50.58 19.31 61.84 34.96 41.05 47.66 53.45 36.97 47.24 32.04 50.58 19.31"></polygon></g><polyline class="cls-11" points="28.01 93.72 34.69 93.72 34.69 86.58"></polyline><polyline class="cls-11" points="70.89 78.55 77.57 78.55 77.57 71.42"></polyline><polyline class="cls-11" points="114.08 103.22 120.76 103.22 120.76 96.09"></polyline></g></g></g></svg> 