<?xml version="1.0" encoding="UTF-8"?> <svg xmlns="http://www.w3.org/2000/svg" xmlns:xlink="http://www.w3.org/1999/xlink" width="176.34" height="167.6" viewBox="0 0 176.34 167.6"><defs><style> .cls-1 { fill: url(#linear-gradient); } .cls-2, .cls-5, .cls-8 { fill: #fff; } .cls-2, .cls-8, .cls-9 { stroke: #e76b15; stroke-linejoin: round; } .cls-2, .cls-9 { stroke-width: 2px; } .cls-3 { fill: url(#linear-gradient-2); } .cls-4 { fill: url(#linear-gradient-3); } .cls-6 { fill: #e76b15; } .cls-7 { fill: url(#linear-gradient-4); } .cls-8, .cls-9 { stroke-linecap: round; } .cls-8 { stroke-width: 3px; } .cls-9 { fill: none; } .cls-10 { fill: url(#linear-gradient-5); } .cls-11 { fill: url(#linear-gradient-6); } </style><linearGradient id="linear-gradient" x1="104.31" y1="164.26" x2="104.31" y2="116.98" gradientUnits="userSpaceOnUse"><stop offset="0" stop-color="#e76b15" stop-opacity="0"></stop><stop offset="1" stop-color="#e76b15" stop-opacity="0.3"></stop></linearGradient><linearGradient id="linear-gradient-2" x1="19.29" y1="108.97" x2="19.29" y2="83.56" xlink:href="#linear-gradient"></linearGradient><linearGradient id="linear-gradient-3" x1="264.19" y1="292.44" x2="264.19" y2="265.02" gradientTransform="matrix(0.87, -0.5, -0.5, 1.44, -52.59, -136.26)" gradientUnits="userSpaceOnUse"><stop offset="0.24" stop-color="#e76b15" stop-opacity="0"></stop><stop offset="1" stop-color="#e76b15" stop-opacity="0.3"></stop></linearGradient><linearGradient id="linear-gradient-4" x1="294.37" y1="272.14" x2="294.37" y2="236.95" xlink:href="#linear-gradient-3"></linearGradient><linearGradient id="linear-gradient-5" x1="-3147.79" y1="3126.67" x2="-3147.79" y2="3142.65" gradientTransform="matrix(-0.87, 0.5, 0, -1.15, -2683.96, 5252.74)" xlink:href="#linear-gradient"></linearGradient><linearGradient id="linear-gradient-6" x1="370.68" y1="291.77" x2="370.68" y2="275.92" xlink:href="#linear-gradient-3"></linearGradient></defs><g id="Layer_2" data-name="Layer 2"><g id="Layer_1-2" data-name="Layer 1"><g><path class="cls-1" d="M120.43,145.41,88.2,164c-1.1.63-2,0-2-1.51V139.63a4.78,4.78,0,0,1,2-3.81l32.23-18.6c1.1-.64,2,0,2,1.5V141.6A4.78,4.78,0,0,1,120.43,145.41Z"></path><g><path class="cls-2" d="M77,134.85,22.65,166.2c-1.85,1.07-3.36-.07-3.36-2.54V125.12a8.07,8.07,0,0,1,3.36-6.42L77,87.35c1.85-1.07,3.36.07,3.36,2.54v38.55A8,8,0,0,1,77,134.85Z"></path><path class="cls-3" d="M28,98.84l-17.33,10c-.59.34-1.07,0-1.07-.81V95.74a2.57,2.57,0,0,1,1.07-2L28,83.69c.59-.35,1.07,0,1.07.81V96.8A2.57,2.57,0,0,1,28,98.84Z"></path><path class="cls-4" d="M44.37,145.45l-15,8.69c-2.1,1.21-3.8-.07-3.8-2.87V129.73c0-2.79,1.7-6,3.8-7.25l15-8.69c2.1-1.21,3.8.07,3.8,2.87v21.53C48.17,141,46.47,144.24,44.37,145.45Z"></path><g><line class="cls-5" x1="53.21" y1="112.21" x2="71.33" y2="101.75"></line><path class="cls-6" d="M53.21,113.15a.94.94,0,0,1-.47-1.75l18.13-10.47a.94.94,0,1,1,.93,1.63L53.68,113A.9.9,0,0,1,53.21,113.15Z"></path></g><line class="cls-2" x1="53.21" y1="117.99" x2="62.27" y2="112.76"></line><g><line class="cls-5" x1="53.21" y1="117.99" x2="66.79" y2="110.15"></line><path class="cls-6" d="M53.21,118.93a.94.94,0,0,1-.47-1.75l13.58-7.84a.94.94,0,0,1,.94,1.62L53.68,118.8A.9.9,0,0,1,53.21,118.93Z"></path></g><path class="cls-6" d="M53.21,132.45a.61.61,0,0,1-.54-.31.62.62,0,0,1,.23-.86L74.09,119a.63.63,0,0,1,.63,1.09l-21.2,12.23A.59.59,0,0,1,53.21,132.45Z"></path><path class="cls-6" d="M53.21,137.2A.62.62,0,0,1,52.9,136l15.39-8.89a.62.62,0,0,1,.85.23.64.64,0,0,1-.23.86l-15.39,8.88A.58.58,0,0,1,53.21,137.2Z"></path><path class="cls-2" d="M36.3,131.31h0c-2.63,1.52-4.76-.09-4.76-3.6v-1.47c0-3.5,2.13-7.58,4.76-9.1h0c2.63-1.51,4.76.1,4.76,3.6v1.47C41.06,125.72,38.93,129.79,36.3,131.31Z"></path><path class="cls-2" d="M27.78,150.9v-6.41A8.32,8.32,0,0,1,31.54,138l10.61-6.13c2.08-1.2,3.76-.22,3.76,2.17v6.42"></path></g><g><path class="cls-2" d="M126.54,85.11,56.85,125.35c-2.38,1.37-4.31-.09-4.31-3.26V72.61c0-3.17,1.93-6.86,4.31-8.23l69.69-40.24c2.39-1.37,4.31.09,4.31,3.26V76.87C130.85,80.05,128.93,83.73,126.54,85.11Z"></path><path class="cls-7" d="M84.73,98.71,65.4,109.87c-2.69,1.55-4.87-.1-4.87-3.69V78.54c0-3.59,2.18-7.76,4.87-9.31L84.73,58.07c2.69-1.56,4.87.09,4.87,3.68V89.4C89.6,93,87.42,97.15,84.73,98.71Z"></path><line class="cls-8" x1="96.07" y1="56.05" x2="119.34" y2="42.61"></line><line class="cls-2" x1="96.07" y1="63.46" x2="107.7" y2="56.75"></line><line class="cls-8" x1="96.07" y1="63.46" x2="113.5" y2="53.4"></line><line class="cls-9" x1="96.07" y1="75.12" x2="123.28" y2="59.41"></line><line class="cls-9" x1="96.07" y1="81.22" x2="123.28" y2="65.51"></line><line class="cls-9" x1="96.07" y1="87.33" x2="115.82" y2="75.92"></line><path class="cls-6" d="M74.36,80.56h0c-3.37,2-6.11-.12-6.11-4.62V74.06c0-4.5,2.74-9.73,6.11-11.68h0c3.38-2,6.12.12,6.12,4.62v1.88C80.48,73.38,77.74,78.61,74.36,80.56Z"></path><path class="cls-6" d="M63.43,105.71V97.48a10.66,10.66,0,0,1,4.83-8.36l13.62-7.86C84.54,79.72,86.7,81,86.7,84v8.24"></path></g><g><path class="cls-6" d="M68.2,157.9v-.3a.73.73,0,0,1,.4-.67l.93-.53c.25-.15.38-.08.38.21v.3a12.21,12.21,0,0,1-.81,3.86,1.39,1.39,0,0,0,.17-.29c.09-.18.21-.39.35-.62s.31-.51.5-.8a9.67,9.67,0,0,1,1.49-1.76l.29-.28c.23-.21.39-.2.47,0l.28.85a.66.66,0,0,1-.26.72,9.78,9.78,0,0,1-3.29,2.15,2.45,2.45,0,0,1,.69,0,2.63,2.63,0,0,1,1.92.91c.17.14.15.36-.08.65l-.75,1.06c-.24.29-.42.35-.55.21a4.32,4.32,0,0,1-1.23-2.82,13.1,13.1,0,0,1-1,3.94l-.17.37c-.14.3-.32.42-.55.37l-.73-.21c-.25,0-.28-.21-.09-.57a15.61,15.61,0,0,1,2.53-3.9A8.1,8.1,0,0,1,66,162.51l-.28.05q-.36,0-.21-.45l.28-1.2c.08-.34.25-.52.5-.53a3.31,3.31,0,0,1,2.77.39A5.81,5.81,0,0,1,68.2,157.9Z"></path><path class="cls-6" d="M77.7,152.42v-.31a.74.74,0,0,1,.4-.67l.92-.53c.26-.14.38-.07.38.22v.3a12.2,12.2,0,0,1-.8,3.86,2.49,2.49,0,0,0,.16-.29l.36-.63c.14-.24.31-.5.5-.79a9.36,9.36,0,0,1,1.49-1.77l.28-.27q.36-.31.48,0l.28.85a.66.66,0,0,1-.26.72,9.94,9.94,0,0,1-3.29,2.15,3,3,0,0,1,2.6.9c.18.14.15.35-.07.64l-.76,1.07c-.23.28-.41.35-.54.2a4.26,4.26,0,0,1-1.23-2.81,13.09,13.09,0,0,1-1,3.94l-.16.37c-.14.3-.33.42-.55.36l-.73-.2c-.25,0-.29-.21-.1-.57a16,16,0,0,1,2.54-3.9A7.9,7.9,0,0,1,75.54,157l-.28.06c-.24,0-.31-.12-.22-.45l.29-1.21c.08-.33.24-.51.5-.53a3.35,3.35,0,0,1,2.77.4A5.84,5.84,0,0,1,77.7,152.42Z"></path><path class="cls-6" d="M87.2,146.93v-.3a.74.74,0,0,1,.4-.67l.92-.53c.25-.15.38-.07.38.22v.3a12.44,12.44,0,0,1-.8,3.85,1.39,1.39,0,0,0,.16-.28q.15-.28.36-.63c.14-.24.31-.5.49-.8a9.71,9.71,0,0,1,1.5-1.76l.28-.27c.24-.21.4-.2.48,0l.28.85a.67.67,0,0,1-.26.73,9.76,9.76,0,0,1-3.29,2.14,2.84,2.84,0,0,1,.68,0,2.6,2.6,0,0,1,1.92.92c.18.13.15.35-.07.64l-.76,1.07c-.23.28-.42.35-.54.2a4.27,4.27,0,0,1-1.23-2.82,13,13,0,0,1-1,3.94l-.16.37c-.15.3-.33.43-.55.37l-.73-.2c-.26,0-.29-.21-.1-.58a16,16,0,0,1,2.54-3.9A8.1,8.1,0,0,1,85,151.54l-.28.06c-.24,0-.31-.13-.22-.46l.29-1.2c.08-.34.24-.51.49-.53a3.37,3.37,0,0,1,2.78.39A5.81,5.81,0,0,1,87.2,146.93Z"></path><path class="cls-6" d="M96.69,141.45v-.3a.73.73,0,0,1,.41-.67l.92-.54c.25-.14.38-.07.38.22v.3a12.26,12.26,0,0,1-.81,3.86,1,1,0,0,0,.17-.29c.1-.18.21-.39.36-.63s.3-.5.49-.79a9.71,9.71,0,0,1,1.5-1.76l.28-.28c.24-.21.39-.2.47,0l.29.85a.66.66,0,0,1-.26.72,9.73,9.73,0,0,1-3.3,2.15,2.45,2.45,0,0,1,.69,0,2.59,2.59,0,0,1,1.92.91c.17.14.15.35-.07.65l-.76,1.06c-.24.29-.42.35-.54.21a4.37,4.37,0,0,1-1.24-2.82,12.81,12.81,0,0,1-1,3.94l-.17.37c-.14.3-.32.42-.54.37l-.73-.21c-.26,0-.29-.21-.1-.57a15.9,15.9,0,0,1,2.53-3.9,8,8,0,0,1-3,1.74l-.29.05q-.34,0-.21-.45l.29-1.2c.07-.34.24-.52.49-.54a3.35,3.35,0,0,1,2.77.4A5.84,5.84,0,0,1,96.69,141.45Z"></path><path class="cls-6" d="M106.19,136v-.3a.75.75,0,0,1,.41-.67l.92-.53c.25-.15.38-.07.38.22v.3a12.26,12.26,0,0,1-.81,3.86,1.84,1.84,0,0,0,.17-.29c.09-.18.21-.39.35-.63s.31-.5.5-.79a10.17,10.17,0,0,1,1.49-1.77l.29-.27c.24-.21.39-.2.47,0l.29.84a.69.69,0,0,1-.26.73,9.88,9.88,0,0,1-3.3,2.15,2.25,2.25,0,0,1,.69,0,2.63,2.63,0,0,1,1.92.92c.17.14.15.35-.07.64l-.76,1.07c-.24.28-.42.35-.55.2a4.26,4.26,0,0,1-1.23-2.81,12.67,12.67,0,0,1-1,3.93l-.17.37c-.14.3-.32.43-.54.37l-.74-.2c-.25,0-.28-.21-.09-.58a16,16,0,0,1,2.53-3.89,8,8,0,0,1-3,1.73l-.29.06c-.23,0-.3-.13-.21-.45l.28-1.21c.08-.33.25-.51.5-.53a3.35,3.35,0,0,1,2.77.4A5.84,5.84,0,0,1,106.19,136Z"></path></g><g><g><path class="cls-2" d="M64.57,15.48,58,11.24a5,5,0,0,0-1.95-.79,9,9,0,0,0-5.8,1.4,16.19,16.19,0,0,0-2.38,1.69c0-.33,0-.66,0-1,0-10.37-7.46-14.53-16.4-9.27C24,7.7,17.74,17.31,16,26.38a16.78,16.78,0,0,0-1.8.9C6.9,31.48,1,41.69,1,50.09c0,3.71,1.16,6.45,3.07,8h0a6.19,6.19,0,0,0,1.2.75l6,3.78L22,53.19,50.29,36.84c5.85-3.38,10.6-11.48,10.8-18.29Z"></path><path class="cls-2" d="M55.86,15.44a17.49,17.49,0,0,0-2.38,1.68c0-.33,0-.65,0-1,0-10.35-7.27-14.55-16.24-9.37-7.58,4.38-14,14.06-15.73,23.2a15.1,15.1,0,0,0-1.8.9C12.47,35.07,6.57,45.28,6.57,53.68s5.9,11.8,13.17,7.6L55.86,40.43c6-3.45,10.83-11.85,10.83-18.75S61.84,12,55.86,15.44Z"></path></g><path class="cls-9" d="M42.11,51.06V75.13a6.41,6.41,0,0,0,3.24,5.57l7.19,4.11"></path><path class="cls-10" d="M34.42,54.49,49.8,45.61V64.09L34.42,73Z"></path><g><ellipse class="cls-2" cx="42.55" cy="44.03" rx="13.22" ry="8.32" transform="translate(-16.86 58.86) rotate(-60)"></ellipse><polyline class="cls-9" points="38.82 45.45 41.92 48.39 46.87 40.06"></polyline></g></g><g><path class="cls-2" d="M150.12,88.6l-32,18c-1.09.62-2,0-2-1.45V83a4.6,4.6,0,0,1,2-3.69l32-18c1.09-.61,2,0,2,1.46V84.92A4.57,4.57,0,0,1,150.12,88.6Z"></path><path class="cls-11" d="M130.94,94.69l-8.86,5c-1.24.69-2.24,0-2.24-1.65V85.67a5.18,5.18,0,0,1,2.24-4.17l8.86-5c1.23-.7,2.24,0,2.24,1.65V90.52A5.21,5.21,0,0,1,130.94,94.69Z"></path><g><line class="cls-5" x1="136.14" y1="75.6" x2="146.81" y2="69.6"></line><path class="cls-6" d="M136.14,76.14a.55.55,0,0,1-.48-.27.53.53,0,0,1,.21-.73l10.66-6a.56.56,0,0,1,.76.2.53.53,0,0,1-.2.73l-10.67,6A.55.55,0,0,1,136.14,76.14Z"></path></g><path class="cls-6" d="M136.14,84.49a.36.36,0,0,1-.32-.18.35.35,0,0,1,.14-.49l12.47-7a.38.38,0,0,1,.51.13.35.35,0,0,1-.14.49l-12.48,7A.37.37,0,0,1,136.14,84.49Z"></path><path class="cls-6" d="M136.14,87.22a.36.36,0,0,1-.32-.18.35.35,0,0,1,.14-.49l12.47-7a.38.38,0,0,1,.51.13.35.35,0,0,1-.14.49l-12.48,7A.37.37,0,0,1,136.14,87.22Z"></path><path class="cls-6" d="M136.14,90a.36.36,0,0,1-.32-.18.35.35,0,0,1,.14-.49l9.06-5.1a.37.37,0,0,1,.5.13.36.36,0,0,1-.14.5l-9.06,5.1A.37.37,0,0,1,136.14,90Z"></path><path class="cls-2" d="M126.19,86.57h0c-1.55.87-2.81,0-2.81-2.07v-.84a6.5,6.5,0,0,1,2.81-5.22h0c1.54-.88,2.8,0,2.8,2.06v.85A6.52,6.52,0,0,1,126.19,86.57Z"></path><path class="cls-2" d="M121.17,97.82V94.14a4.74,4.74,0,0,1,2.22-3.74l6.24-3.52c1.22-.69,2.21-.13,2.21,1.25v3.68"></path></g><g><path class="cls-2" d="M141,109h0c1.13-.64,2.7-.56,4.44.4a10.83,10.83,0,0,1,2.77,2.25c0-.12,0-.24,0-.36a10.11,10.11,0,0,1,.17-1.88l-3-1,5.65-3.08h0c1.75-1,4.15-.81,6.8.65,4.57,2.51,8.39,8.11,9.38,13.36a7.89,7.89,0,0,1,.89.42c4,2.19,7.2,7.5,7.2,11.88,0,2.19-.81,3.73-2.12,4.44h0l-4.11,2.19-3.55-3.58.49-.25-20.57-11.32a13.37,13.37,0,0,1-6-8.11l-1.44.31-1-4.12Z"></path><path class="cls-2" d="M141.36,111.55a11,11,0,0,1,2.78,2.25c0-.12,0-.24,0-.36,0-5.86,4.32-8.23,9.64-5.3,4.57,2.51,8.38,8.11,9.38,13.35.29.13.59.26.89.43,4,2.18,7.19,7.5,7.19,11.87s-3.22,6.15-7.19,4l-22.67-12.47a13.05,13.05,0,0,1-6.23-10.3C135.13,111.19,137.92,109.65,141.36,111.55Z"></path><path class="cls-6" d="M157.77,126.11l-1.77-1v-2l1.77,1Zm-4.42-2.43-1.77-1v-1.94l1.77,1Zm-4.43-2.44-1.77-1v-2l1.77,1Z"></path></g><path class="cls-6" d="M136.14,79.46a.57.57,0,0,1-.48-.27.52.52,0,0,1,.21-.73l8-4.5a.55.55,0,0,1,.75.19.54.54,0,0,1-.2.74l-8,4.5A.55.55,0,0,1,136.14,79.46Z"></path></g></g></g></svg> 