<?xml version="1.0" encoding="UTF-8"?> <svg xmlns="http://www.w3.org/2000/svg" xmlns:xlink="http://www.w3.org/1999/xlink" width="142.06" height="134.03" viewBox="0 0 142.06 134.03"><defs><style> .cls-1 { fill: #e76b15; } .cls-2 { fill: none; } .cls-2, .cls-3, .cls-4 { stroke: #e76b15; stroke-width: 2px; } .cls-2, .cls-3 { stroke-linejoin: round; } .cls-3 { fill: #fff; stroke-linecap: round; } .cls-4 { stroke-miterlimit: 10; fill: url(#linear-gradient); } </style><linearGradient id="linear-gradient" x1="71.51" y1="93.15" x2="71.51" y2="20.2" gradientUnits="userSpaceOnUse"><stop offset="0" stop-color="#e76b15" stop-opacity="0"></stop><stop offset="1" stop-color="#e76b15" stop-opacity="0.3"></stop></linearGradient></defs><g id="Layer_2" data-name="Layer 2"><g id="Layer_1-2" data-name="Layer 1"><g><path class="cls-1" d="M96.25,7.52c-.59-.28-1.18-.54-1.79-.8l.79-1.84q.94.41,1.86.84ZM90.8,5.28l-1.86-.62.6-1.91c.65.21,1.29.42,1.93.65ZM85.15,3.61l-1.92-.43.4-2c.67.14,1.33.29,2,.45Zm-5.8-1.08c-.65-.09-1.3-.17-1.95-.23l.2-2c.68.06,1.35.14,2,.23ZM73.48,2c-.66,0-1.31,0-2,0V0c.68,0,1.36,0,2,0Z"></path><path class="cls-2" d="M12.47,60a59,59,0,0,1,59-59"></path><path class="cls-1" d="M33.86,106.81c-.53-.42-1-.86-1.57-1.3L33.6,104c.5.43,1,.85,1.51,1.26Zm-4.55-4.06c-.49-.48-1-1-1.43-1.45l1.46-1.38c.45.48.91,1,1.37,1.41Zm-4.12-4.5c-.43-.52-.85-1-1.27-1.59l1.59-1.22c.4.52.81,1,1.22,1.54Zm-3.64-4.89c-.38-.57-.74-1.14-1.1-1.71l1.7-1.06c.34.56.7,1.11,1.06,1.66Zm-3.13-5.24c-.31-.6-.62-1.2-.92-1.81l1.8-.88c.29.59.58,1.17.89,1.75Z"></path><path class="cls-2" d="M63,118.48A58.8,58.8,0,0,1,34.48,106"></path><path class="cls-1" d="M99.84,113l-.94-1.76c.57-.31,1.15-.63,1.72-1l1,1.73C101,112.34,100.44,112.67,99.84,113Zm5.23-3.15L104,108.18c.54-.37,1.08-.74,1.61-1.13l1.17,1.62C106.18,109.07,105.63,109.46,105.07,109.84Zm4.87-3.67-1.28-1.53c.5-.42,1-.85,1.49-1.29l1.33,1.5C111,105.3,110.46,105.74,109.94,106.17Zm4.48-4.13-1.43-1.4c.46-.47.91-1,1.35-1.43l1.48,1.35C115.36,101.06,114.9,101.55,114.42,102Zm4-4.57-1.56-1.25q.61-.77,1.2-1.56l1.6,1.2C119.3,96.4,118.88,96.94,118.46,97.47Z"></path><path class="cls-2" d="M119.57,25.74a59.06,59.06,0,0,1-.67,69.52"></path><g><polygon class="cls-3" points="84.11 125.75 71.51 133.03 71.51 118.48 84.11 111.2 84.11 125.75"></polygon><polygon class="cls-3" points="58.91 125.75 71.51 133.03 71.51 118.48 58.91 111.2 58.91 125.75"></polygon><polygon class="cls-3" points="71.51 118.48 84.11 111.2 71.51 103.92 58.91 111.2 71.51 118.48"></polygon></g><g><polygon class="cls-3" points="141.06 42.77 128.46 50.04 128.46 35.49 141.06 28.21 141.06 42.77"></polygon><polygon class="cls-3" points="115.85 42.77 128.46 50.04 128.46 35.49 115.85 28.21 115.85 42.77"></polygon><polygon class="cls-3" points="128.46 35.49 141.06 28.21 128.46 20.94 115.85 28.21 128.46 35.49"></polygon></g><g><polygon class="cls-3" points="26.21 64.97 13.6 72.24 13.6 57.69 26.21 50.41 26.21 64.97"></polygon><polygon class="cls-3" points="1 64.97 13.6 72.24 13.6 57.69 1 50.41 1 64.97"></polygon><polygon class="cls-3" points="13.6 57.69 26.21 50.41 13.6 43.14 1 50.41 13.6 57.69"></polygon></g><g id="layer1"><path id="path3055" class="cls-4" d="M71.25,20.21a5.08,5.08,0,0,0-1.92.48L43.19,33.18a5,5,0,0,0-2.7,3.37L34,64.6a4.94,4.94,0,0,0,.68,3.8c.09.14.18.27.28.4L53.1,91.29A5,5,0,0,0,57,93.15H86a5,5,0,0,0,3.91-1.86L108,68.79a4.93,4.93,0,0,0,1-4.2l-6.46-28.05a5,5,0,0,0-2.71-3.36L73.67,20.69A5.05,5.05,0,0,0,71.25,20.21Z"></path><g id="g3052"><path id="path3059" class="cls-1" d="M71.51,29.76a1.65,1.65,0,0,0-1.57,1.73s0,0,0,.05,0,.29,0,.4a11.61,11.61,0,0,0,.22,1.49,14.48,14.48,0,0,1,.17,2.83,1.71,1.71,0,0,1-.51.81l0,.67a19.76,19.76,0,0,0-2.83.43A20.14,20.14,0,0,0,56.74,44l-.57-.4a1.25,1.25,0,0,1-.93-.09,14.16,14.16,0,0,1-2.11-1.91,13,13,0,0,0-1-1.09l-.35-.28a1.82,1.82,0,0,0-1.09-.41,1.51,1.51,0,0,0-1.24.55,1.66,1.66,0,0,0,.38,2.31l0,0c.1.08.22.19.32.26a12.52,12.52,0,0,0,1.3.76,13.92,13.92,0,0,1,2.32,1.63,1.76,1.76,0,0,1,.32.9l.5.45A20.19,20.19,0,0,0,51.4,60.83l-.66.19a2.14,2.14,0,0,1-.67.67,14.52,14.52,0,0,1-2.81.47,11.34,11.34,0,0,0-1.5.12l-.41.09h0A1.57,1.57,0,1,0,46,65.43h.06l.4-.09c.54-.15.93-.36,1.41-.54a14.57,14.57,0,0,1,2.72-.8,1.63,1.63,0,0,1,.9.32l.69-.12a20.27,20.27,0,0,0,9,11.26l-.29.69a1.44,1.44,0,0,1,.14.88,15.18,15.18,0,0,1-1.41,2.55,11.83,11.83,0,0,0-.84,1.25c-.06.11-.14.29-.2.42a1.57,1.57,0,1,0,2.82,1.34h0c0-.12.14-.28.19-.4a13.82,13.82,0,0,0,.45-1.43,10.79,10.79,0,0,1,1.21-2.81A1.25,1.25,0,0,1,64,77.6l.35-.64a20.16,20.16,0,0,0,11.75.84A19.92,19.92,0,0,0,78.75,77l.33.61a1.21,1.21,0,0,1,.8.48A14,14,0,0,1,81,80.71a14.92,14.92,0,0,0,.46,1.44l.19.4a1.57,1.57,0,1,0,2.83-1.34l-.2-.42a13,13,0,0,0-.84-1.25A14.2,14.2,0,0,1,82,77.06a1.2,1.2,0,0,1,.12-.92,6.86,6.86,0,0,1-.26-.64,20.33,20.33,0,0,0,9-11.34l.67.12a1.22,1.22,0,0,1,.87-.33,14.44,14.44,0,0,1,2.73.8,11.16,11.16,0,0,0,1.41.54,4,4,0,0,0,.4.09H97a1.57,1.57,0,1,0,.7-3.05c-.13,0-.33-.09-.46-.11a13,13,0,0,0-1.5-.12,15.27,15.27,0,0,1-2.8-.46,1.83,1.83,0,0,1-.68-.68l-.63-.18a20.38,20.38,0,0,0-3.26-14.09l.56-.49a1.22,1.22,0,0,1,.29-.89,14,14,0,0,1,2.33-1.63c.44-.27.85-.43,1.3-.76l.34-.28a1.57,1.57,0,1,0-2-2.45l-.34.28a15,15,0,0,0-1,1.09,14.16,14.16,0,0,1-2.11,1.91,1.73,1.73,0,0,1-1,.11l-.59.42a20.47,20.47,0,0,0-13-6.27c0-.21,0-.59,0-.7a1.26,1.26,0,0,1-.52-.79,15.39,15.39,0,0,1,.18-2.83c.07-.51.19-.94.22-1.49,0-.13,0-.31,0-.45a1.65,1.65,0,0,0-1.56-1.73Zm-2,12.13-.47,8.21h0a1.38,1.38,0,0,1-1.38,1.33,1.36,1.36,0,0,1-.81-.27h0l-6.73-4.77a16,16,0,0,1,7.76-4.23A16.21,16.21,0,0,1,69.55,41.89Zm3.92,0a16.25,16.25,0,0,1,9.37,4.52l-6.68,4.74h0a1.38,1.38,0,0,1-1.89-.25,1.37,1.37,0,0,1-.3-.8h0ZM57.68,49.47,63.82,55v0A1.39,1.39,0,0,1,64,56.9a1.32,1.32,0,0,1-.72.47v0l-7.88,2.27A16.09,16.09,0,0,1,57.68,49.47Zm27.61,0a16.35,16.35,0,0,1,2.36,10.17l-7.92-2.28v0A1.38,1.38,0,0,1,79.19,55h0l6.11-5.47Zm-15,5.91h2.51l1.57,2-.56,2.44-2.26,1.09-2.27-1.09-.56-2.44Zm8.07,6.7a1.08,1.08,0,0,1,.31,0l0,0,8.14,1.38a16.09,16.09,0,0,1-6.52,8.19L77.11,64h0a1.38,1.38,0,0,1,.67-1.79,1.25,1.25,0,0,1,.53-.13Zm-13.69,0A1.39,1.39,0,0,1,66,63.19a1.36,1.36,0,0,1-.08.85l0,0-3.12,7.56a16.2,16.2,0,0,1-6.51-8.13l8.08-1.37h0l.27,0Zm6.83,3.31a1.35,1.35,0,0,1,.64.14,1.32,1.32,0,0,1,.62.59h0l4,7.19c-.51.17-1,.32-1.59.45a16.17,16.17,0,0,1-8.83-.46l4-7.18h0A1.4,1.4,0,0,1,71.46,65.43Z"></path></g></g></g></g></g></svg> 